<svg id="_x3C_Layer_x3E_" height="512" viewBox="0 0 48 48" width="512" xmlns="http://www.w3.org/2000/svg"><g id="admin_x2C__admin_panel_x2C__site"><g><path d="m45 43h-42c-.552 0-1-.448-1-1v-7.5c0-.276.224-.5.5-.5s.5.224.5.5v7.5h42v-30h-42v7.5c0 .276-.224.5-.5.5s-.5-.224-.5-.5v-8.5h44v31c0 .552-.448 1-1 1z" fill="rgb(0,0,0)"/><g><path d="m45.5 12h-43c-.276 0-.5-.224-.5-.5v-5c0-.827.673-1.5 1.5-1.5h41c.827 0 1.5.673 1.5 1.5v5c0 .276-.224.5-.5.5zm-42.5-1h42v-4.5c0-.275-.225-.5-.5-.5h-41c-.275 0-.5.225-.5.5z" fill="rgb(0,0,0)"/></g><g><g><path d="m16.5 10c-.827 0-1.5-.673-1.5-1.5s.673-1.5 1.5-1.5 1.5.673 1.5 1.5-.673 1.5-1.5 1.5zm0-2c-.275 0-.5.225-.5.5s.225.5.5.5.5-.225.5-.5-.225-.5-.5-.5z" fill="rgb(0,0,0)"/></g><g><path d="m11.5 10c-.827 0-1.5-.673-1.5-1.5s.673-1.5 1.5-1.5 1.5.673 1.5 1.5-.673 1.5-1.5 1.5zm0-2c-.275 0-.5.225-.5.5s.225.5.5.5.5-.225.5-.5-.225-.5-.5-.5z" fill="rgb(0,0,0)"/></g><g><path d="m6.5 10c-.827 0-1.5-.673-1.5-1.5s.673-1.5 1.5-1.5 1.5.673 1.5 1.5-.673 1.5-1.5 1.5zm0-2c-.275 0-.5.225-.5.5s.225.5.5.5.5-.225.5-.5-.225-.5-.5-.5z" fill="rgb(0,0,0)"/></g></g></g><g fill="rgb(0,0,0)"><path d="m21.4 32.528c-.065 0-.132-.013-.196-.04-.13-.056-.266-.1-.405-.136l-3.186-.796c-.965-.242-1.613-1.068-1.613-2.056v-1.2c0-.276.224-.5.5-.5s.5.224.5.5v1.2c0 .529.336.956.855 1.086l3.188.797c.192.049.377.11.554.186.254.108.372.402.264.656-.082.189-.266.303-.461.303z"/><path d="m6.481 32.577c-.188 0-.369-.107-.454-.29-.115-.25-.007-.548.244-.664.218-.101.445-.182.677-.239l3.188-.798c.516-.129.864-.565.864-1.086v-1.404c0-.276.224-.5.5-.5s.5.224.5.5v1.404c0 .987-.651 1.813-1.622 2.057l-3.187.797c-.173.044-.34.104-.5.178-.067.031-.139.045-.21.045z"/><path d="m14 30c-.276 0-.5-.224-.5-.5s.224-.5.5-.5c1.652 0 3.5-2.319 3.5-5.423 0-2.78-1.374-4.577-3.5-4.577s-3.5 1.797-3.5 4.577c0 1.59.506 3.121 1.387 4.203.175.214.143.528-.072.703-.213.173-.529.144-.703-.072-1.025-1.256-1.612-3.018-1.612-4.834 0-3.852 2.26-5.577 4.5-5.577s4.5 1.725 4.5 5.577c0 3.422-2.103 6.423-4.5 6.423z"/><path d="m14 39c-6.617 0-12-5.383-12-12s5.383-12 12-12 12 5.383 12 12-5.383 12-12 12zm0-23c-6.065 0-11 4.935-11 11s4.935 11 11 11 11-4.935 11-11-4.935-11-11-11z"/></g><g fill="rgb(0,0,0)"><path d="m42.5 24h-15c-.276 0-.5-.224-.5-.5s.224-.5.5-.5h15c.276 0 .5.224.5.5s-.224.5-.5.5z"/><path d="m42.5 24c-.276 0-.5-.224-.5-.5v-6c0-.276.224-.5.5-.5s.5.224.5.5v6c0 .276-.224.5-.5.5z"/><path d="m39.5 24c-.276 0-.5-.224-.5-.5v-4c0-.276.224-.5.5-.5s.5.224.5.5v4c0 .276-.224.5-.5.5z"/><path d="m36.5 24c-.276 0-.5-.224-.5-.5v-5c0-.276.224-.5.5-.5s.5.224.5.5v5c0 .276-.224.5-.5.5z"/><path d="m33.5 24c-.276 0-.5-.224-.5-.5v-3c0-.276.224-.5.5-.5s.5.224.5.5v3c0 .276-.224.5-.5.5z"/><path d="m30.5 24c-.276 0-.5-.224-.5-.5v-8c0-.276.224-.5.5-.5s.5.224.5.5v8c0 .276-.224.5-.5.5z"/><path d="m27.5 24c-.276 0-.5-.224-.5-.5v-4c0-.276.224-.5.5-.5s.5.224.5.5v4c0 .276-.224.5-.5.5z"/></g><g><g><path d="m42.5 37h-6c-.276 0-.5-.224-.5-.5s.224-.5.5-.5h6c.276 0 .5.224.5.5s-.224.5-.5.5z" fill="rgb(0,0,0)"/><path d="m42.5 35h-6c-.276 0-.5-.224-.5-.5s.224-.5.5-.5h6c.276 0 .5.224.5.5s-.224.5-.5.5z" fill="rgb(0,0,0)"/><g><path d="m42 33h-5c-.552 0-1-.448-1-1v-4c0-.552.448-1 1-1h5c.552 0 1 .448 1 1v4c0 .552-.448 1-1 1zm0-1v.5zm-5-4v4h5v-4z" fill="rgb(0,0,0)"/></g></g><g><path d="m33.5 37h-6c-.276 0-.5-.224-.5-.5s.224-.5.5-.5h6c.276 0 .5.224.5.5s-.224.5-.5.5z" fill="rgb(0,0,0)"/><path d="m33.5 35h-6c-.276 0-.5-.224-.5-.5s.224-.5.5-.5h6c.276 0 .5.224.5.5s-.224.5-.5.5z" fill="rgb(0,0,0)"/><g><path d="m33 33h-5c-.552 0-1-.448-1-1v-4c0-.552.448-1 1-1h5c.552 0 1 .448 1 1v4c0 .552-.448 1-1 1zm0-1v.5zm-5-4v4h5v-4z" fill="rgb(0,0,0)"/></g></g></g></g></svg>