<?xml version="1.0"?>
<svg xmlns="http://www.w3.org/2000/svg" viewBox="0 0 64 64"><g id="anniversary"><path d="M59,10H56V9a3.0033,3.0033,0,0,0-3-3H48V5a3,3,0,0,0-6,0V6H35V5a3,3,0,0,0-6,0V6H22V5a3,3,0,0,0-6,0V6H11A3.0033,3.0033,0,0,0,8,9v1H5a3.0033,3.0033,0,0,0-3,3V59a3.0033,3.0033,0,0,0,3,3H59a3.0033,3.0033,0,0,0,3-3V13A3.0033,3.0033,0,0,0,59,10ZM44,5a1,1,0,0,1,2,0V9a1,1,0,0,1-2,0ZM31,5a1,1,0,0,1,2,0V9a1,1,0,0,1-2,0ZM18,5a1,1,0,0,1,2,0V9a1,1,0,0,1-2,0ZM10,9a1.001,1.001,0,0,1,1-1h5V9a3,3,0,0,0,6,0V8h7V9a3,3,0,0,0,6,0V8h7V9a3,3,0,0,0,6,0V8h5a1.001,1.001,0,0,1,1,1v4a1.001,1.001,0,0,1-1,1H11a1.001,1.001,0,0,1-1-1ZM60,59a1.001,1.001,0,0,1-1,1H5a1.001,1.001,0,0,1-1-1V13a1.001,1.001,0,0,1,1-1H8v1a3.0033,3.0033,0,0,0,3,3H53a3.0033,3.0033,0,0,0,3-3V12h3a1.001,1.001,0,0,1,1,1ZM51,24H43.4458a3.99,3.99,0,0,0-6.272-4.8281L32.3365,24h-.673l-4.8364-4.8271A3.99,3.99,0,0,0,20.5543,24H13a3.0033,3.0033,0,0,0-3,3v2a3.0033,3.0033,0,0,0,3,3V55a3.0033,3.0033,0,0,0,3,3H48a3.0033,3.0033,0,0,0,3-3V32a3.0033,3.0033,0,0,0,3-3V27A3.0033,3.0033,0,0,0,51,24ZM38.5869,20.5869a1.9984,1.9984,0,0,1,2.8262,2.8262L40.8262,24H35.167ZM32,47.6226l-4.4014-4.2749a1.9054,1.9054,0,0,1,0-2.7734,2.1651,2.1651,0,0,1,2.9795,0l.7275.7021a1,1,0,0,0,1.3887,0l.7275-.7021a2.1661,2.1661,0,0,1,2.9795,0,1.9045,1.9045,0,0,1,0,2.7729ZM30,26h4v4H30Zm4,6v6.097a4.0824,4.0824,0,0,0-1.9668,1.0377L32,39.167a4.1362,4.1362,0,0,0-2-1.0687V32ZM22.5869,20.5869a2.0007,2.0007,0,0,1,2.8271.001L28.833,24H23.1738l-.5869-.5869A1.9958,1.9958,0,0,1,22.5869,20.5869ZM13,30a1.001,1.001,0,0,1-1-1V27a1.001,1.001,0,0,1,1-1H28v4Zm3,26a1.001,1.001,0,0,1-1-1V32H28v6.147a4.0755,4.0755,0,0,0-1.79.9877,3.9038,3.9038,0,0,0,0,5.6528L28,46.5263V56Zm14,0V48.469l1.3027,1.2654a.9993.9993,0,0,0,1.3945,0L34,48.4689V56Zm19-1a1.001,1.001,0,0,1-1,1H36V46.526l1.79-1.7389a3.9033,3.9033,0,0,0,0-5.6523A4.0613,4.0613,0,0,0,36,38.1473V32H49Zm3-26a1.001,1.001,0,0,1-1,1H36V26H51a1.001,1.001,0,0,1,1,1Z"/></g></svg>
