<svg id="_x33_0" enable-background="new 0 0 64 64" height="512" viewBox="0 0 64 64" width="512" xmlns="http://www.w3.org/2000/svg"><path d="m58 8h-7v-4c0-1.654-1.346-3-3-3h-2c-1.654 0-3 1.346-3 3v4h-2v-4c0-1.654-1.346-3-3-3h-2c-1.654 0-3 1.346-3 3v4h-2v-4c0-1.654-1.346-3-3-3h-2c-1.654 0-3 1.346-3 3v4h-2v-4c0-1.654-1.346-3-3-3h-2c-1.654 0-3 1.346-3 3v4h-7c-2.757 0-5 2.243-5 5v45c0 2.757 2.243 5 5 5h48.022c.932 0 1.795-.422 2.368-1.158l5.978-7.687c.407-.524.632-1.178.632-1.841v-39.314c0-2.757-2.243-5-5-5zm-13-4c0-.551.449-1 1-1h2c.551 0 1 .449 1 1v8c0 .551-.449 1-1 1h-2c-.551 0-1-.449-1-1zm-10 0c0-.551.449-1 1-1h2c.551 0 1 .449 1 1v8c0 .551-.449 1-1 1h-2c-.551 0-1-.449-1-1zm-10 0c0-.551.449-1 1-1h2c.551 0 1 .449 1 1v8c0 .551-.449 1-1 1h-2c-.551 0-1-.449-1-1zm-10 0c0-.551.449-1 1-1h2c.551 0 1 .449 1 1v8c0 .551-.449 1-1 1h-2c-.551 0-1-.449-1-1zm-9 6h7v2c0 1.654 1.346 3 3 3h2c1.654 0 3-1.346 3-3v-2h2v2c0 1.654 1.346 3 3 3h2c1.654 0 3-1.346 3-3v-2h2v2c0 1.654 1.346 3 3 3h2c1.654 0 3-1.346 3-3v-2h2v2c0 1.654 1.346 3 3 3h2c1.654 0 3-1.346 3-3v-2h7c1.654 0 3 1.346 3 3v6h-19.613c-.087-.099-.172-.199-.266-.293-1.1-1.101-2.564-1.707-4.121-1.707s-3.021.606-4.121 1.707l-.879.879-.879-.879c-1.1-1.101-2.564-1.707-4.121-1.707s-3.021.606-4.121 1.707c-.094.094-.178.194-.266.293h-19.613v-6c0-1.654 1.346-3 3-3zm51 41v-24c0-1.103-.897-2-2-2h-12.136c.081-.44.136-.887.136-1.342v-.416c0-.779-.145-1.534-.409-2.243h18.409v30h-4zm-4 0v4h-44v-28h12.802c.375.742.878 1.417 1.485 2h-3.963l-1.137 2.843c-.788 1.967-1.187 4.038-1.187 6.157 0 3.519 2.613 6.432 6 6.92v6.08h-4v2h10v-2h-4v-6.08c3.387-.488 6-3.401 6-6.92 0-1.29-.166-2.559-.459-3.801l1.459 1.022 1.459-1.021c-.293 1.241-.459 2.51-.459 3.8 0 3.519 2.613 6.432 6 6.92v6.08h-4v2h10v-2h-4v-6.08c3.387-.488 6-3.401 6-6.92 0-2.119-.399-4.19-1.186-6.157l-1.137-2.843h-3.963c.607-.583 1.11-1.258 1.484-2h12.802v24zm-12-27.757v.416c0 1.767-.864 3.426-2.311 4.439l-6.689 4.681-6.689-4.682c-1.447-1.013-2.311-2.672-2.311-4.439v-.416c0-1.179.459-2.288 1.293-3.122.723-.722 1.685-1.12 2.707-1.12s1.984.398 2.707 1.121l2.293 2.293 2.293-2.293c1.446-1.446 3.968-1.446 5.414 0 .834.834 1.293 1.942 1.293 3.122zm-1 19.757c-2.757 0-5-2.243-5-5 0-1.863.351-3.685 1.042-5.414l.108-.27 1.88-1.316h5.292l.635 1.586c.692 1.729 1.043 3.551 1.043 5.414 0 2.757-2.243 5-5 5zm-12.042-10.414c.691 1.729 1.042 3.551 1.042 5.414 0 2.757-2.243 5-5 5s-5-2.243-5-5c0-1.863.351-3.685 1.043-5.414l.634-1.586h5.293l1.879 1.315zm-21.958 28.414c-1.654 0-3-1.346-3-3v-37h18.409c-.264.709-.409 1.464-.409 2.243v.416c0 .455.055.902.136 1.342h-12.136c-1.103 0-2 .897-2 2v28c0 1.103.897 2 2 2h44v4h-47zm49-.629v-7.371h5.733z"/></svg>