<?xml version="1.0"?>
<svg xmlns="http://www.w3.org/2000/svg" id="icons" viewBox="0 0 64 64"><path d="M53.999,36.002H34a.99942.99942,0,0,1-1-1v-21.999a1,1,0,0,1,2,0V34.002H52.999v-20.999a1,1,0,1,1,2,0V35.002A.99942.99942,0,0,1,53.999,36.002Z"/><path d="M48.999,6.00293a.99943.99943,0,0,1-1-1V1a1,1,0,0,1,2,0V5.00293A.99942.99942,0,0,1,48.999,6.00293Z"/><path d="M48.999,2H39a1,1,0,0,1,0-2h9.999a1,1,0,0,1,0,2Z"/><path d="M39,6.00293a.99943.99943,0,0,1-1-1V1a1,1,0,0,1,2,0V5.00293A.99943.99943,0,0,1,39,6.00293Z"/><path d="M53.999,6.00293h-5a1,1,0,0,1,0-2h5a1,1,0,0,1,0,2Z"/><path d="M48.999,6.00293H34a1,1,0,0,1,0-2H48.999a1,1,0,0,1,0,2Z"/><path d="M29,11.001a.99943.99943,0,0,1-1-1,6.00656,6.00656,0,0,1,6-6,1,1,0,0,1,0,2,4.004,4.004,0,0,0-4,4A.99943.99943,0,0,1,29,11.001Z"/><path d="M29,31.00293a.99943.99943,0,0,1-1-1V10.001a1,1,0,1,1,2,0v20.002A.99943.99943,0,0,1,29,31.00293Z"/><path d="M34,31.00293H29a1,1,0,0,1,0-2h5a1,1,0,0,1,0,2Z"/><path d="M59,11.001a.99943.99943,0,0,1-1-1,4.004,4.004,0,0,0-4-4,1,1,0,0,1,0-2,6.00656,6.00656,0,0,1,6,6A.99943.99943,0,0,1,59,11.001Z"/><path d="M59,31.00293a.99943.99943,0,0,1-1-1V10.001a1,1,0,1,1,2,0v20.002A.99943.99943,0,0,1,59,31.00293Z"/><path d="M59,31.00293H54a1,1,0,0,1,0-2h5a1,1,0,0,1,0,2Z"/><path d="M46,5.919a.99943.99943,0,0,1-1-1V1a1,1,0,0,1,2,0V4.919A.99943.99943,0,0,1,46,5.919Z"/><path d="M42,6.00293a.99943.99943,0,0,1-1-1V1a1,1,0,0,1,2,0V5.00293A.99943.99943,0,0,1,42,6.00293Z"/><path d="M58,34H53.999a.99943.99943,0,0,1-1-1V30.00293a.99943.99943,0,0,1,1-1H58a.99943.99943,0,0,1,1,1V33A.99943.99943,0,0,1,58,34Zm-3.001-2H57v-.99707H54.999Z"/><path d="M34.001,34H29.999a.99943.99943,0,0,1-1-1V30.00293a.99943.99943,0,0,1,1-1h4.002a.99943.99943,0,0,1,1,1V33A.99943.99943,0,0,1,34.001,34Zm-3.002-2h2.002v-.99707H30.999Z"/><path d="M53.002,39H35a.99943.99943,0,0,1-1-1V35.00293a.99943.99943,0,0,1,1-1H53.002a.99942.99942,0,0,1,1,1V38A.99942.99942,0,0,1,53.002,39ZM36,37H52.002v-.99707H36Z"/><path d="M23.99805,64H4.002a.99943.99943,0,0,1-1-1L3,22a1.00026,1.00026,0,0,1,1-1H24a1.00026,1.00026,0,0,1,1,1l-.002,41A.99943.99943,0,0,1,23.99805,64ZM5.002,62h17.9961L23,23H5Z"/><path d="M14,64a.99943.99943,0,0,1-1-1V33a1,1,0,0,1,2,0V63A.99943.99943,0,0,1,14,64Z"/><path d="M23.7998,26H4.2002a1,1,0,1,1,0-2H23.7998a1,1,0,1,1,0,2Z"/><path d="M14,29a.99943.99943,0,0,1-1-1V22.12891a1,1,0,0,1,2,0V28A.99943.99943,0,0,1,14,29Z"/><path d="M22,23H19a.99943.99943,0,0,1-1-1V1a.99943.99943,0,0,1,1-1h3a.99943.99943,0,0,1,1,1V22A.99943.99943,0,0,1,22,23Zm-2-2h1V2H20Z"/><path d="M9,23H6a.99943.99943,0,0,1-1-1V1A.99943.99943,0,0,1,6,0H9a.99943.99943,0,0,1,1,1V22A.99943.99943,0,0,1,9,23ZM7,21H8V2H7Z"/><path d="M9,6H6A1,1,0,0,1,6,4H9A1,1,0,0,1,9,6Z"/><path d="M9,9H6A1,1,0,0,1,6,7H9A1,1,0,0,1,9,9Z"/><path d="M22,6H19a1,1,0,0,1,0-2h3a1,1,0,0,1,0,2Z"/><path d="M22,9H19a1,1,0,0,1,0-2h3a1,1,0,0,1,0,2Z"/><path d="M29,61a.99943.99943,0,0,1-1-1V46a1,1,0,0,1,2,0V60A.99943.99943,0,0,1,29,61Z"/><path d="M46,64H29a.99943.99943,0,0,1-1-1V60a.99943.99943,0,0,1,1-1H46a.99943.99943,0,0,1,1,1v3A.99943.99943,0,0,1,46,64ZM30,62H45V61H30Z"/><path d="M46,58a.99943.99943,0,0,1-1-1,2.0026,2.0026,0,0,0-2-2,1,1,0,0,1,0-2,4.004,4.004,0,0,1,4,4A.99943.99943,0,0,1,46,58Z"/><path d="M46,61a.99943.99943,0,0,1-1-1V57a1,1,0,0,1,2,0v3A.99943.99943,0,0,1,46,61Z"/><path d="M43,55H39a1,1,0,0,1,0-2h4a1,1,0,0,1,0,2Z"/><path d="M39,55a.99943.99943,0,0,1-1-1V46a1,1,0,0,1,2,0v8A.99943.99943,0,0,1,39,55Z"/><path d="M39,47H29a1,1,0,0,1,0-2H39a1,1,0,0,1,0,2Z"/><path d="M39,53H38a1,1,0,0,1,0-2h1a1,1,0,0,1,0,2Z"/><path d="M39,50H38a1,1,0,0,1,0-2h1a1,1,0,0,1,0,2Z"/><path d="M34,61a.99943.99943,0,0,1-1-1,4.004,4.004,0,0,0-4-4,1,1,0,0,1,0-2,6.00657,6.00657,0,0,1,6,6A.99943.99943,0,0,1,34,61Z"/><path d="M60,60a.99943.99943,0,0,1-1-1V45a1,1,0,0,1,2,0V59A.99943.99943,0,0,1,60,60Z"/><path d="M60,46H43a.99943.99943,0,0,1-1-1V42a.99943.99943,0,0,1,1-1H60a.99943.99943,0,0,1,1,1v3A.99943.99943,0,0,1,60,46ZM44,44H59V43H44Z"/><path d="M46,52a4.004,4.004,0,0,1-4-4,1,1,0,0,1,2,0,2.0026,2.0026,0,0,0,2,2,1,1,0,0,1,0,2Z"/><path d="M43,49a.99943.99943,0,0,1-1-1V45a1,1,0,0,1,2,0v3A.99943.99943,0,0,1,43,49Z"/><path d="M50,52H46a1,1,0,0,1,0-2h4a1,1,0,0,1,0,2Z"/><path d="M50,60a.99943.99943,0,0,1-1-1V51a1,1,0,0,1,2,0v8A.99943.99943,0,0,1,50,60Z"/><path d="M60,60H50a1,1,0,0,1,0-2H60a1,1,0,0,1,0,2Z"/><path d="M51,54H50a1,1,0,0,1,0-2h1a1,1,0,0,1,0,2Z"/><path d="M51,57H50a1,1,0,0,1,0-2h1a1,1,0,0,1,0,2Z"/><path d="M60,51a6.00657,6.00657,0,0,1-6-6,1,1,0,0,1,2,0,4.004,4.004,0,0,0,4,4,1,1,0,0,1,0,2Z"/></svg>
