<svg clip-rule="evenodd" fill-rule="evenodd" height="512" image-rendering="optimizeQuality" shape-rendering="geometricPrecision" text-rendering="geometricPrecision" viewBox="0 0 173.397 173.397" width="512" xmlns="http://www.w3.org/2000/svg"><g id="Layer_x0020_1"><g id="_257404848"><path id="_257411904" d="m91.3642 130.423h-14.9953c-.9842 0-1.7826-.7982-1.7826-1.782s.7982-1.782 1.782-1.782h13.2139v-57.5963c0-13.9033-11.3144-25.2171-25.2206-25.2171h-26.6989c-13.9066 0-25.2173 11.3138-25.2173 25.2172v57.5962h13.2104c.9871 0 1.7818.7982 1.7818 1.782.0002.9838-.795 1.782-1.782 1.782h-14.9922c-.9836 0-1.782-.7982-1.782-1.782v-59.3783c0-15.8709 12.9102-28.781 28.781-28.781h26.6997c15.8709 0 28.7804 12.9101 28.7804 28.7811l.0002 59.3782c0 .9838-.7952 1.782-1.7785 1.782z"/><path id="_257411344" d="m76.3689 132.913h-50.7131c-.9836 0-1.7821-.7952-1.7821-1.782l.0001-60.6715c0-.9839.798-1.782 1.7818-1.782s1.782.7982 1.782 1.782l.0002 58.8926h47.1485v-58.8926c0-.9839.7982-1.782 1.782-1.782.9842 0 1.782.7982 1.782 1.782v60.6715c0 .9868-.7982 1.782-1.7814 1.782z"/><path id="_257412688" d="m76.3689 123.65h-50.7131c-.9836 0-1.7821-.7981-1.7821-1.782.0001-.987.7981-1.782 1.7819-1.782h50.7133c.9836 0 1.7814.795 1.7814 1.782 0 .9839-.7982 1.782-1.7814 1.782z"/><path id="_257411288" d="m91.3642 119.864h-14.9953c-.9842 0-1.7826-.7981-1.7826-1.782 0-.9837.7982-1.782 1.782-1.782h14.9959c.9836 0 1.7783.7983 1.7783 1.782.0002.9839-.795 1.782-1.7783 1.782z"/><path id="_257410112" d="m25.6558 119.864h-14.9924c-.9836 0-1.782-.7981-1.782-1.782 0-.9837.7981-1.782 1.7819-1.782h14.9925c.9871 0 1.7818.7983 1.7818 1.782.0002.9839-.795 1.782-1.7818 1.782z"/><path id="_257410056" d="m51.0124 56.1015c-7.6292 0-13.8357-6.2091-13.8357-13.8382.0001-.984.7951-1.782 1.7819-1.782.9845 0 1.7821.7981 1.7821 1.782.0001 5.6645 4.6067 10.2742 10.2713 10.2742 5.6652 0 10.2744-4.6097 10.2744-10.2742.0003-.984.798-1.782 1.7819-1.782.984 0 1.7821.7981 1.7821 1.782.0003 7.629-6.2093 13.8382-13.838 13.8382z"/><path id="_257410952" d="m63.7648 83.1996h-25.5048c-.9843 0-1.7826-.7981-1.7826-1.782.0006-.9838.7983-1.7819 1.7821-1.7819h25.5053c.9836 0 1.7816.7982 1.7816 1.7819.0004.9839-.7982 1.782-1.7816 1.782z"/><path id="_257409832" d="m63.7648 96.7502h-25.5048c-.9843 0-1.7826-.798-1.7826-1.7819.0006-.9839.7983-1.782 1.7821-1.782l25.5053-.0001c.9836 0 1.7816.7983 1.7816 1.7821.0004.9839-.7982 1.782-1.7816 1.7819z"/><path id="_257411232" d="m63.7648 110.298h-25.5048c-.9843 0-1.7826-.7951-1.7826-1.782.0006-.9838.7983-1.782 1.7821-1.782h25.5053c.9836 0 1.7816.7982 1.7816 1.782.0004.9868-.7982 1.782-1.7816 1.782z"/><path id="_257409160" d="m111.922 45.6508c-2.5185 0-4.5696 2.0481-4.5696 4.5695l.0005 2.7596c0 2.5214 2.0505 4.5695 4.5688 4.5695l44.4604-.0001c2.5213 0 4.5694-2.0479 4.5694-4.5693l.0005-2.7597c0-2.5214-2.0486-4.5694-4.5701-4.5694zm44.4601 15.4626h-44.4601c-4.4828 0-8.1336-3.6475-8.1336-8.1334l.0005-2.7597c0-4.4859 3.65-8.1334 8.1328-8.1334l44.4604-.0001c4.4864 0 8.1333 3.6476 8.1333 8.1335l.0006 2.7596c0 4.4859-3.648 8.1335-8.1339 8.1335z"/><path id="_257408712" d="m127.521 96.7378h-12.6941c-.9835 0-1.782-.7981-1.782-1.782v-35.6244c0-.9839.7983-1.782 1.782-1.782.9872-.0001 1.782.7982 1.782 1.782v33.8424h9.1301v-33.8424c0-.9839.7947-1.782 1.7816-1.782.9839-.0001 1.7789.7982 1.7789 1.782l.0007 35.6244c0 .9839-.7958 1.782-1.7792 1.782z"/><path id="_257407704" d="m153.477 84.5856h-12.6904c-.9843 0-1.7824-.7951-1.7824-1.7789l.0004-23.4753c0-.9839.7977-1.782 1.7815-1.782.984-.0001 1.7821.7982 1.7821 1.782l.0004 21.6934h9.1264v-21.6934c0-.9839.7978-1.782 1.7816-1.782.984-.0001 1.7821.7982 1.7821 1.782l.0003 23.4753c0 .9838-.7985 1.7789-1.782 1.7789z"/><path id="_257408432" d="m156.382 45.6508c-.9835 0-1.7823-.7981-1.7823-1.7819.0003-.9869.7983-1.782 1.7821-1.782 2.5215-.0001 4.5696-2.0512 4.5696-4.5695l.0005-2.7627c0-2.5183-2.0486-4.5695-4.5701-4.5695h-44.4599c-2.5185 0-4.5696 2.0512-4.5696 4.5695l.0005 2.7627c0 2.5183 2.0505 4.5695 4.5688 4.5695.9839-.0001 1.782.7951 1.782 1.782.0003.9837-.7982 1.782-1.782 1.782-4.4825-.0001-8.1333-3.6507-8.1333-8.1335l.0005-2.7627c0-4.4859 3.65-8.1335 8.1328-8.1335h44.4604c4.4864 0 8.1333 3.6476 8.1333 8.1335l.0006 2.7627c0 4.4828-3.648 8.1335-8.1339 8.1334z"/><path id="_257409104" d="m112.983 143.212h42.3385v-14.7076c0-8.1118-6.5963-14.7076-14.7082-14.7076l-12.9226-.0001c-8.1087 0-14.7077 6.5959-14.7077 14.7077zm44.1205 3.564h-45.9018c-.9843 0-1.7827-.7981-1.7827-1.782v-16.4896c0-10.0764 8.1954-18.2716 18.2717-18.2716l12.923-.0001c10.0759 0 18.2713 8.1953 18.2713 18.2717l.0005 16.4896c0 .9839-.7988 1.782-1.782 1.782z"/><path id="_257406360" d="m156.998 146.776c-.9843 0-1.7826-.7981-1.7826-1.782.0006-3.8486-8.6718-8.1365-21.1148-8.1365-12.4461 0-21.118 4.2879-21.118 8.1365 0 .9839-.798 1.782-1.7819 1.782-.9837 0-1.7821-.7981-1.7821-1.782 0-6.67 10.6116-11.6973 24.682-11.6973 14.071-.0001 24.6788 5.0273 24.6788 11.6973.0006.9839-.7952 1.782-1.7814 1.782z"/><path id="_257405968" d="m134.154 106.845c-.9342 0-1.6958.758-1.6958 1.6923.0001.9343.761 1.6955 1.6954 1.6955.9345-.0001 1.6923-.7612 1.6923-1.6955.0003-.9343-.758-1.6923-1.6919-1.6923zm0 6.9517c-2.8993 0-5.2598-2.3606-5.2598-5.2594.0001-2.8989 2.3604-5.2563 5.2594-5.2563 2.8989 0 5.2563 2.3575 5.2563 5.2563.0003 2.8988-2.3574 5.2595-5.2559 5.2594z"/><path id="_257407368" d="m139.419 130.286c-.9835 0-1.782-.7982-1.782-1.782v-11.2365c0-.9838.7981-1.782 1.7819-1.782.9844 0 1.7819.7982 1.7819 1.782l.0002 11.2365c0 .9838-.7982 1.782-1.782 1.782z"/><path id="_257407312" d="m128.885 130.286c-.9836 0-1.7824-.7982-1.7824-1.782l.0004-11.2365c0-.9838.7978-1.782 1.7817-1.782s1.7819.7982 1.7819 1.782l.0004 11.2365c0 .9838-.7986 1.782-1.782 1.782z"/></g></g></svg>