<?xml version="1.0" encoding="iso-8859-1"?>
<!-- Generator: Adobe Illustrator 19.0.0, SVG Export Plug-In . SVG Version: 6.00 Build 0)  -->
<svg version="1.1" id="Capa_1" xmlns="http://www.w3.org/2000/svg" xmlns:xlink="http://www.w3.org/1999/xlink" x="0px" y="0px"
	 viewBox="0 0 458.92 458.92" style="enable-background:new 0 0 458.92 458.92;" xml:space="preserve">
<g>
	<g>
		<path d="M139.425,119.355c-2.542-2.021-6.241-1.599-8.262,0.943c-0.006,0.007-0.012,0.015-0.017,0.022
			c-2.013,2.52-1.601,6.195,0.919,8.208c0.014,0.011,0.027,0.022,0.041,0.032c2.542,2.021,6.241,1.599,8.262-0.943
			C142.389,125.076,141.967,121.377,139.425,119.355z"/>
	</g>
</g>
<g>
	<g>
		<path d="M453.066,450.92h-10.96V214.08c0.221-104.006-83.914-188.498-187.92-188.719c-15.989-0.034-31.917,1.969-47.4,5.959
			c1.051-3.352,0.705-6.987-0.96-10.08c-2.185-3.575-5.912-5.927-10.08-6.36c-4.288-0.458-8.61,0.482-12.32,2.68
			c0-9.72-6.48-17.56-14.4-17.56s-14.36,8-14.4,17.56c-3.71-2.198-8.032-3.138-12.32-2.68c-4.182,0.421-7.927,2.774-10.12,6.36
			c-2.037,3.705-2.201,8.156-0.44,12c1.749,3.939,4.723,7.208,8.48,9.32c-3.749,2.14-6.719,5.418-8.48,9.36
			c-1.76,3.844-1.597,8.295,0.44,12c0.854,1.387,1.968,2.596,3.28,3.56c-10.575,8.455-20.216,18.016-28.76,28.52
			c-0.347,0.454-0.605,0.97-0.76,1.52c-4.945,1.516-8.362,6.029-8.48,11.2c-0.412,0.291-0.765,0.658-1.04,1.08
			c-2.36,3.48-4.52,7.12-6.64,10.76c-5.805-4.507-13.822-4.859-20-0.88c0-9.72-6.48-17.6-14.4-17.6c-7.92,0-14.4,8-14.44,17.6
			c-8.4-4.84-18.44-3.16-22.4,3.68c-3.96,6.84-0.36,16.36,8,21.24c-8.56,4.88-12.16,14.4-8.2,21.28c4,6.84,14,8.48,22.4,3.68
			c0,9.72,6.52,17.56,14.44,17.56c6.599-0.475,12.092-5.251,13.48-11.72c-1.32,6.32-2.32,12.76-3,19.16v0.2
			c-0.431,0.5-0.819,1.035-1.16,1.6c-2.05,3.699-2.228,8.149-0.48,12c1.749,3.939,4.723,7.208,8.48,9.32
			c-3.763,2.122-6.739,5.406-8.48,9.36c-1.735,3.849-1.572,8.288,0.44,12l0.2,0.24v211.56h-52c-2.209,0-4,1.791-4,4
			c0,2.209,1.791,4,4,4h129.64c2.209,0,4-1.791,4-4c0-2.209-1.791-4-4-4h-44V259.76c0.941,0.243,1.909,0.364,2.88,0.36
			c8,0,14.36-8,14.4-17.56c3.715,2.184,8.036,3.11,12.32,2.64c7.008-0.489,12.293-6.566,11.804-13.574
			c-0.113-1.62-0.535-3.204-1.244-4.666c-1.741-3.954-4.716-7.238-8.48-9.36c3.757-2.112,6.731-5.381,8.48-9.32
			c3.067-6.345,0.41-13.974-5.934-17.042c-1.45-0.701-3.02-1.121-4.626-1.238c-4.284-0.47-8.605,0.456-12.32,2.64
			c0.461-7.719-4.335-14.781-11.68-17.2c2.256-8.232,5.2-16.26,8.8-24c3.073-0.164,6.069-1.026,8.76-2.52
			c0,9.68,6.48,17.56,14.4,17.56c7.92,0,14.4-8,14.44-17.56c8.4,4.8,18.44,3.16,22.4-3.68c2.037-3.705,2.201-8.156,0.44-12
			c-1.731-3.948-4.691-7.231-8.44-9.36c8.36-4.88,12-14.4,8-21.24c-3.975-5.643-11.274-7.868-17.72-5.4
			c5.279-4.377,10.852-8.386,16.68-12c0.292-0.212,0.548-0.468,0.76-0.76c2.152-0.646,4.097-1.846,5.64-3.48
			c0.56-0.023,1.107-0.173,1.6-0.44c3.4-1.88,6.92-3.52,10.44-5.12c0.559,115.208,75.633,216.8,185.6,251.16
			c-18.794,38.727-28.377,81.275-28,124.32h-134.24c-2.209,0-4,1.791-4,4c0,2.209,1.791,4,4,4h239.6c2.209,0,4-1.791,4-4
			C457.066,452.711,455.275,450.92,453.066,450.92z M125.466,86.88c-2.596,3.462-4,7.673-4,12c-1.631-0.916-3.381-1.602-5.2-2.04
			C119.106,93.48,122.186,90.12,125.466,86.88z M65.186,154.24c-1.22-1.532-3.37-1.955-5.08-1c-1.725,0.977-2.474,3.07-1.76,4.92
			c1.625,3.587,2.677,7.407,3.12,11.32c0,5.24-2.96,9.64-6.4,9.64s-6.44-4.4-6.44-9.64c0.473-3.947,1.566-7.794,3.24-11.4
			c0.689-1.798,0-3.832-1.64-4.84c-1.7-0.964-3.849-0.558-5.08,0.96c-2.305,3.251-5.114,6.113-8.32,8.48
			c-4.52,2.6-9.8,2.28-11.56-0.72s0.64-7.84,5.16-10.48c3.657-1.549,7.528-2.533,11.48-2.92c2.209,0,4-1.791,4-4
			c0-2.209-1.791-4-4-4c-3.961-0.365-7.837-1.365-11.48-2.96c-4.52-2.6-6.88-7.36-5.16-10.36c1.72-3,7.04-3.36,11.56-0.72
			c3.206,2.367,6.015,5.229,8.32,8.48c1.231,1.518,3.38,1.924,5.08,0.96c1.725-0.977,2.474-3.07,1.76-4.92
			c-1.674-3.606-2.767-7.453-3.24-11.4c0-5.24,2.96-9.68,6.44-9.68c3.48,0,6.28,4.56,6.28,9.8c-0.478,3.946-1.571,7.793-3.24,11.4
			c-0.91,2.013-0.015,4.383,1.998,5.292c1.728,0.781,3.767,0.241,4.882-1.292c2.293-3.285,5.119-6.165,8.36-8.52
			c4.52-2.6,9.84-2.28,11.56,0.72c1.72,3-0.64,7.76-5.16,10.36c-3.643,1.595-7.519,2.595-11.48,2.96c-1.972,0.299-3.423,2.005-3.4,4
			c-0.023,1.995,1.428,3.701,3.4,4c3.952,0.387,7.823,1.371,11.48,2.92c4.52,2.64,6.88,7.4,5.16,10.4s-7.04,3.32-11.56,0.72
			C70.268,160.357,67.472,157.494,65.186,154.24z M90.426,450.68h-17.76V244.72c4.848,1.142,9.949,0.369,14.24-2.16
			c-0.024,4.059,1.206,8.026,3.52,11.36V450.68z M107.706,192.76c-0.462,3.944-1.542,7.791-3.2,11.4
			c-0.842,2.042,0.131,4.381,2.174,5.222c1.654,0.682,3.559,0.182,4.666-1.222c2.284-3.255,5.08-6.119,8.28-8.48
			c2.215-1.36,4.812-1.963,7.4-1.72c1.626,0.19,3.087,1.081,4,2.44c0.75,1.512,0.75,3.288,0,4.8c-1.074,2.363-2.884,4.313-5.16,5.56
			c-3.647,1.578-7.522,2.563-11.48,2.92c-2.209,0-4,1.791-4,4c0,2.209,1.791,4,4,4c3.956,0.365,7.83,1.351,11.48,2.92
			c2.276,1.247,4.086,3.198,5.16,5.56c0.751,1.526,0.751,3.314,0,4.84c-0.925,1.34-2.383,2.215-4,2.4
			c-2.582,0.23-5.171-0.358-7.4-1.68c-3.181-2.398-5.974-5.272-8.28-8.52c-1.367-1.735-3.882-2.033-5.617-0.666
			c-1.405,1.107-1.904,3.012-1.223,4.666c1.671,3.618,2.752,7.48,3.2,11.44c0,5.2-2.92,9.64-6.4,9.64c-3.48,0-6.4-4.44-6.4-9.64
			c0.448-3.96,1.529-7.822,3.2-11.44c0.698-1.828-0.03-3.893-1.72-4.88c-0.606-0.359-1.296-0.553-2-0.56
			c-1.21-0.004-2.357,0.54-3.12,1.48c-2.293,3.26-5.087,6.135-8.28,8.52c-4.52,2.6-9.84,2.28-11.56-0.72
			c-0.751-1.526-0.751-3.314,0-4.84c1.074-2.362,2.884-4.313,5.16-5.56c3.65-1.569,7.524-2.555,11.48-2.92c2.209,0,4-1.791,4-4
			c0-2.209-1.791-4-4-4c-3.958-0.357-7.833-1.342-11.48-2.92c-2.276-1.247-4.086-3.197-5.16-5.56c-0.75-1.512-0.75-3.288,0-4.8
			c0.913-1.359,2.374-2.25,4-2.44c2.588-0.243,5.185,0.36,7.4,1.72c3.2,2.361,5.996,5.225,8.28,8.48
			c1.367,1.735,3.882,2.034,5.617,0.666c1.405-1.107,1.904-3.012,1.222-4.666c-1.664-3.606-2.744-7.454-3.2-11.4
			c-0.35-3.901,1.666-7.634,5.12-9.48c0.398-0.06,0.802-0.06,1.2,0C104.786,183.08,107.706,187.52,107.706,192.76z M95.426,176.68
			c-5.495,3.427-8.744,9.527-8.52,16c-3.715-2.184-8.036-3.11-12.32-2.64h-0.32c0.764-6.01,1.832-11.978,3.2-17.88
			c5.609,0.944,11.245-1.52,14.36-6.28c4-6.88,0.36-16.4-8-21.28c5.554-2.977,9.193-8.594,9.64-14.88
			c0.217-0.205,0.394-0.449,0.52-0.72c2.08-3.76,4.28-7.32,6.52-10.92l0.04,0.16c1.705,2.395,3.901,4.399,6.44,5.88
			c-3.725,2.06-6.696,5.255-8.48,9.12c-1.76,3.844-1.597,8.295,0.44,12c1.328,2.231,3.331,3.982,5.72,5
			C100.816,158.765,97.724,167.613,95.426,176.68z M165.826,106.88c1.76,3-0.64,7.76-5.16,10.36
			c-3.649,1.571-7.524,2.556-11.48,2.92c-2.209,0-4,1.791-4,4c0,2.209,1.791,4,4,4c3.956,0.364,7.831,1.349,11.48,2.92
			c2.104,1.243,3.779,3.099,4.8,5.32c0.733,1.53,0.733,3.31,0,4.84c-1.76,3-7.04,3.32-11.56,0.72c-3.2-2.39-6.007-5.264-8.32-8.52
			c-1.367-1.735-3.882-2.034-5.617-0.666c-1.405,1.107-1.904,3.012-1.222,4.666c1.672,3.62,2.765,7.481,3.24,11.44
			c0,5.24-2.96,9.64-6.44,9.64s-6.08-4.44-6.08-9.68c0.471-3.955,1.551-7.814,3.2-11.44c0.698-1.828-0.03-3.893-1.72-4.88
			c-1.7-0.996-3.873-0.606-5.12,0.92c-2.331,3.254-5.151,6.128-8.36,8.52c-4.52,2.6-9.84,2.28-11.56-0.72
			c-0.727-1.531-0.727-3.309,0-4.84c1.09-2.351,2.896-4.298,5.16-5.56c3.649-1.571,7.524-2.556,11.48-2.92c2.209,0,4-1.791,4-4
			c0-2.209-1.791-4-4-4c-3.957-0.283-7.844-1.188-11.52-2.68c-2.264-1.262-4.07-3.209-5.16-5.56c-0.778-1.562-0.778-3.398,0-4.96
			l0.04,0.16c1.72-3.04,7.04-3.36,11.56-0.72c3.198,2.363,5.994,5.226,8.28,8.48c1.236,1.54,3.41,1.947,5.12,0.96
			c1.71-0.99,2.44-3.08,1.72-4.92c-1.642-3.615-2.721-7.459-3.2-11.4c0-5.24,2.96-9.68,6.4-9.68s6.16,4,6.4,9.04
			c-0.181,0.654-0.181,1.346,0,2c-0.685,3.442-1.717,6.806-3.08,10.04c-0.714,1.85,0.035,3.943,1.76,4.92
			c1.7,0.964,3.849,0.558,5.08-0.96c2.291-3.263,5.102-6.127,8.32-8.48C158.786,103.52,164.066,103.88,165.826,106.88z
			 M148.826,91.76c-1.777-5.834-6.992-9.95-13.08-10.32c-2.925,0.012-5.755,1.045-8,2.92c5.335-5.12,10.972-9.915,16.88-14.36h0
			c3.516-0.043,6.96-0.994,10-2.76c-0.15,5.752,2.377,11.248,6.84,14.88C157.09,85.115,152.871,88.333,148.826,91.76z
			 M183.226,69.56c0.108-0.769,0.175-1.544,0.2-2.32c0.767,0.414,1.555,0.787,2.36,1.12L183.226,69.56z M187.026,60.32
			c-3.198-2.363-5.994-5.226-8.28-8.48c-1.367-1.735-3.882-2.033-5.617-0.666c-1.405,1.107-1.904,3.012-1.222,4.666
			c1.674,3.603,2.754,7.452,3.2,11.4c0,5.24-2.92,9.64-6.4,9.64s-6.4-4.4-6.4-9.64c0.446-3.948,1.526-7.797,3.2-11.4
			c0.795-2.061-0.231-4.376-2.292-5.172c-0.456-0.176-0.94-0.267-1.428-0.268c-1.21-0.004-2.357,0.54-3.12,1.48
			c-2.298,3.243-5.093,6.105-8.28,8.48c-2.229,1.322-4.818,1.91-7.4,1.68c-2.671-0.111-4.746-2.366-4.635-5.036
			c0.032-0.775,0.25-1.53,0.635-2.203l0.16-0.08c1.088-2.333,2.897-4.254,5.16-5.48c3.654-1.556,7.526-2.541,11.48-2.92
			c2.209,0,4-1.791,4-4c0-2.209-1.791-4-4-4c-3.962-0.358-7.839-1.357-11.48-2.96c-2.28-1.222-4.094-3.162-5.16-5.52
			c-0.745-1.527-0.745-3.313,0-4.84c0.901-1.364,2.372-2.247,4-2.4c2.583-0.255,5.18,0.334,7.4,1.68
			c3.187,2.375,5.982,5.237,8.28,8.48c1.367,1.735,3.882,2.033,5.617,0.666c1.405-1.107,1.904-3.012,1.223-4.666
			c-1.658-3.609-2.738-7.456-3.2-11.4c0-5.24,2.92-9.64,6.4-9.64c3.48,0,6.4,4.4,6.4,9.64c-0.446,3.948-1.526,7.797-3.2,11.4
			c-0.842,2.042,0.131,4.381,2.174,5.222c1.654,0.682,3.559,0.182,4.666-1.222c2.298-3.243,5.093-6.105,8.28-8.48
			c2.22-1.346,4.817-1.935,7.4-1.68c1.628,0.153,3.099,1.036,4,2.4c0.745,1.527,0.745,3.313,0,4.84
			c-1.081,2.348-2.891,4.284-5.16,5.52c-3.643,1.595-7.519,2.595-11.48,2.96c-2.209,0-4,1.791-4,4c0,2.209,1.791,4,4,4
			c3.952,0.387,7.823,1.371,11.48,2.92c2.27,1.236,4.079,3.172,5.16,5.52c0.751,1.526,0.751,3.314,0,4.84
			C196.866,62.6,191.546,62.92,187.026,60.32z M198.066,72.68L198.066,72.68c0.023-0.253,0.023-0.507,0-0.76
			c6.202-2.383,12.548-4.374,19-5.96v22.32c0,2.209,1.791,4,4,4h0.84c18.245-3.797,37.023-4.285,55.44-1.44h0.6
			c0.213,0.023,0.427,0.023,0.64,0h0.48c0.344-0.088,0.669-0.237,0.96-0.44l0.36-0.24c0.266-0.2,0.496-0.443,0.68-0.72l0.32-0.4
			c0.141-0.28,0.248-0.575,0.32-0.88c0.01-0.16,0.01-0.32,0-0.48l2.12-22.64c5.956,1.06,11.846,2.462,17.64,4.2l-1.36,24
			c0,0,0,0,0,0.28c-0.019,0.24-0.019,0.48,0,0.72c-0.023,0.266-0.023,0.534,0,0.8c0.091,0.195,0.198,0.382,0.32,0.56
			c0.152,0.253,0.341,0.482,0.56,0.68c0.131,0.154,0.295,0.277,0.48,0.36c0.259,0.205,0.541,0.38,0.84,0.52
			c16.739,5.69,32.388,14.185,46.28,25.12c0.698,0.542,1.556,0.837,2.44,0.84c0.423,0.08,0.857,0.08,1.28,0
			c1.275-0.425,2.252-1.462,2.6-2.76l4.36-16c4.581,4.307,8.895,8.889,12.92,13.72c-0.111,0.26-0.205,0.527-0.28,0.8
			c-8.91,61.39,3.818,123.968,36,177v9.36l-28,14.36C271.377,286.535,197.438,186.132,198.066,72.68z M224.986,83.44V64.2
			c9.391-1.758,18.925-2.642,28.48-2.64c7.55-0.001,15.09,0.547,22.56,1.64l-1.76,19.08C257.875,80.182,241.26,80.573,224.986,83.44
			z M308.226,90.52l1.24-18.56c15.915,6.188,30.7,14.959,43.76,25.96l-4,14.28C336.657,103.065,322.852,95.765,308.226,90.52z
			 M408.306,450.68h-52.68c-0.197-43.129,9.707-85.706,28.92-124.32l23.76-12.24V450.68z M408.306,279.24
			c-25.056-46.772-35.164-100.103-28.96-152.8c18.854,26.235,28.985,57.733,28.96,90.04V279.24z M434.106,450.68h-17.8V310
			l17.8-9.12V450.68z M434.106,214.08v77.8l-17.8,9.12v-84.52c0.131-89.846-72.597-162.786-162.442-162.917
			c-11.125-0.016-22.222,1.109-33.118,3.357c-0.495,0.021-0.983,0.129-1.44,0.32c-4,0.92-8.2,1.96-12.24,3.16
			c0.68-2.927,0.414-5.994-0.76-8.76c-1.761-3.942-4.731-7.22-8.48-9.36c1.302-0.751,2.522-1.636,3.64-2.64
			c0.947,0.579,2.091,0.738,3.16,0.44c96.095-26.974,195.862,29.06,222.835,125.155c4.462,15.898,6.725,32.332,6.725,48.845H434.106
			z"/>
	</g>
</g>
<g>
	<g>
		<circle cx="55.166" cy="144.64" r="5.854"/>
	</g>
</g>
<g>
	<g>
		<path d="M104.968,213.017c-0.007-0.006-0.015-0.012-0.022-0.017c-2.543-2.002-6.226-1.573-8.24,0.96
			c-2.021,2.542-1.599,6.241,0.943,8.262c2.542,2.021,6.241,1.599,8.262-0.943C107.932,218.738,107.51,215.039,104.968,213.017z"/>
	</g>
</g>
<g>
	<g>
		<path d="M172.785,37.715c-2.542-2.021-6.241-1.599-8.262,0.943c-0.006,0.007-0.012,0.015-0.017,0.022
			c-2.002,2.543-1.573,6.226,0.96,8.24c2.542,2.021,6.241,1.599,8.262-0.943C175.749,43.436,175.327,39.737,172.785,37.715z"/>
	</g>
</g>
<g>
	<g>
		<path d="M394.146,299.44c-44.638-37.867-70.344-93.464-70.28-152c0-2.209-1.791-4-4-4c-2.209,0-4,1.791-4,4
			c-0.075,60.877,26.656,118.699,73.08,158.08c1.679,1.436,4.204,1.239,5.64-0.44C396.022,303.401,395.825,300.876,394.146,299.44z"
			/>
	</g>
</g>
<g>
	<g>
		<path d="M375.786,300.64L375.786,300.64c-31.088-19.538-56.15-47.314-72.4-80.24c-0.922-2.007-3.297-2.887-5.305-1.965
			c-2.008,0.922-2.887,3.297-1.965,5.305c0.034,0.075,0.071,0.148,0.11,0.221c16.886,34.246,42.947,63.131,75.28,83.44
			c0.632,0.409,1.367,0.63,2.12,0.64c2.209,0.03,4.024-1.737,4.053-3.946C377.698,302.69,376.979,301.379,375.786,300.64z"/>
	</g>
</g>
<g>
	<g>
		<path d="M124.226,253.76c-0.986-0.411-2.094-0.411-3.08,0c-1.015,0.37-1.837,1.134-2.28,2.12c-4.07,9.155-4.371,19.544-0.84,28.92
			c3.481,9.408,10.541,17.057,19.64,21.28c0.985,0.411,2.094,0.411,3.08,0c1.001-0.392,1.816-1.15,2.28-2.12
			C151.453,284.898,143.101,262.597,124.226,253.76z M137.186,296.68c-5.364-3.527-9.468-8.668-11.72-14.68
			c-2.226-6.003-2.492-12.557-0.76-18.72C135.675,270.524,140.717,284.018,137.186,296.68z"/>
	</g>
</g>
<g>
	<g>
		<path d="M57.746,211.44c-0.439-0.388-0.958-0.675-1.52-0.84c0-0.24,0.2-0.4,0.28-0.64c0.217-1.053,0-2.148-0.6-3.04
			c-11.353-17.383-34.494-22.547-52.16-11.64c-0.923,0.573-1.573,1.498-1.8,2.56c-0.228,1.047-0.026,2.143,0.56,3.04
			c5.499,8.363,14.058,14.237,23.84,16.36c2.253,0.463,4.541,0.73,6.84,0.8c-1.607,1.215-3.118,2.553-4.52,4
			c-6.937,7.331-10.69,17.11-10.44,27.2c0,2.209,1.791,4,4,4c20.812-0.823,37.146-18.135,36.76-38.96
			C58.971,213.205,58.524,212.182,57.746,211.44z M11.746,199.96c5.912-2.597,12.497-3.241,18.8-1.84v-0.04
			c6.2,1.393,11.8,4.711,16,9.48C34.528,212.865,20.458,209.793,11.746,199.96z M42.906,235.6v-0.04
			c-4.391,4.655-10.148,7.793-16.44,8.96c1.669-13.037,11.559-23.509,24.48-25.92C50.127,224.973,47.313,230.924,42.906,235.6z"/>
	</g>
</g>
<g>
	<g>
		<path d="M108.186,58.92c-0.522-2.147-2.685-3.464-4.831-2.943c-0.03,0.007-0.059,0.015-0.089,0.023
			c-9.678,2.571-17.964,8.832-23.08,17.44c0,0.32-0.32,0.68-0.52,1l-2.8-11.16c0-0.2-0.2-0.36-0.28-0.56
			c9.502-17.887,3.374-40.082-13.96-50.56c-0.909-0.559-2.003-0.732-3.04-0.48c-1.047,0.266-1.941,0.944-2.48,1.88
			c-10.197,17.512-4.928,39.941,12,51.08c-0.038,0.212-0.038,0.428,0,0.64l1.44,5.64c-9.364-10.702-23.893-15.325-37.72-12
			c-2.147,0.522-3.464,2.685-2.943,4.831c0.007,0.03,0.015,0.059,0.023,0.089c2.5,9.764,8.772,18.137,17.44,23.28
			c5.9,3.529,12.645,5.395,19.52,5.4c2.691-0.032,5.372-0.34,8-0.92c-0.13,3.524,0.22,7.05,1.04,10.48
			c0.257,1.04,0.919,1.933,1.84,2.48c0.925,0.556,2.036,0.715,3.08,0.44C100.97,99.65,113.131,79.167,108.186,58.92z M51.546,80.36
			c-5.538-3.229-9.876-8.171-12.36-14.08c6.364-0.644,12.767,0.757,18.28,4c5.508,3.254,9.826,8.189,12.32,14.08
			C63.435,85.004,57.044,83.602,51.546,80.36z M70.866,56.08c-4.928-4.087-8.43-9.633-10-15.84
			c-1.601-6.198-1.167-12.748,1.24-18.68C72.211,29.945,75.75,43.892,70.866,56.08z M82.946,95.88
			c-0.603-6.389,0.84-12.804,4.12-18.32c3.258-5.504,8.192-9.822,14.08-12.32C102.355,78.317,95.008,90.686,82.946,95.88z"/>
	</g>
</g>
<g>
	<g>
		<path d="M295.026,427.72h-58.68c-2.209,0-4,1.791-4,4c0,2.209,1.791,4,4,4h58.68c2.209,0,4-1.791,4-4
			C299.026,429.511,297.235,427.72,295.026,427.72z"/>
	</g>
</g>
<g>
</g>
<g>
</g>
<g>
</g>
<g>
</g>
<g>
</g>
<g>
</g>
<g>
</g>
<g>
</g>
<g>
</g>
<g>
</g>
<g>
</g>
<g>
</g>
<g>
</g>
<g>
</g>
<g>
</g>
</svg>
