<?xml version="1.0" encoding="UTF-8"?>
<svg xmlns="http://www.w3.org/2000/svg" xmlns:xlink="http://www.w3.org/1999/xlink" version="1.1" id="Capa_1" x="0px" y="0px" viewBox="0 0 512 512" style="enable-background:new 0 0 512 512;" xml:space="preserve" width="512" height="512">
<g>
	
		<polygon style="fill:none;stroke:#000000;stroke-width:15;stroke-linecap:round;stroke-linejoin:round;stroke-miterlimit:10;" points="&#10;&#9;&#9;119.628,216.604 74.171,246.909 28.713,216.604 28.713,117.608 119.628,117.608 &#9;"/>
	<g>
		<path style="fill:none;stroke:#000000;stroke-width:15;stroke-linecap:round;stroke-linejoin:round;stroke-miterlimit:10;" d="&#10;&#9;&#9;&#9;M84.615,159.07c0,6.162-4.995,11.157-11.157,11.157c-3.056,0-14.085,0.049-14.085,0.049v-22.363c0,0,10.474,0,14.085,0&#10;&#9;&#9;&#9;C79.619,147.913,84.615,152.908,84.615,159.07z"/>
		<path style="fill:none;stroke:#000000;stroke-width:15;stroke-linecap:round;stroke-linejoin:round;stroke-miterlimit:10;" d="&#10;&#9;&#9;&#9;M88.969,183.292c0,7.208-5.843,13.051-13.051,13.051c-3.575,0-16.544,0.058-16.544,0.058v-26.16c0,0,12.32,0,16.544,0&#10;&#9;&#9;&#9;C83.125,170.24,88.969,176.084,88.969,183.292z"/>
	</g>
	<g>
		<path style="fill:none;stroke:#000000;stroke-width:15;stroke-linecap:round;stroke-linejoin:round;stroke-miterlimit:10;" d="&#10;&#9;&#9;&#9;M176.249,196.401l18.207-47.805c0.372-0.91,1.66-0.911,2.034-0.002l18.042,47.807"/>
		
			<line style="fill:none;stroke:#000000;stroke-width:15;stroke-linecap:round;stroke-linejoin:round;stroke-miterlimit:10;" x1="181.927" y1="184.495" x2="208.945" y2="184.495"/>
	</g>
	
		<polyline style="fill:none;stroke:#000000;stroke-width:15;stroke-linecap:round;stroke-linejoin:round;stroke-miterlimit:10;" points="&#10;&#9;&#9;149.93,177.27 149.93,216.6 195.39,246.91 240.85,216.6 240.85,117.61 149.93,117.61 149.93,142.27 &#9;"/>
	
		<polygon style="fill:none;stroke:#000000;stroke-width:15;stroke-linecap:round;stroke-linejoin:round;stroke-miterlimit:10;" points="&#10;&#9;&#9;362.067,216.604 316.61,246.909 271.152,216.604 271.152,117.608 362.067,117.608 &#9;"/>
	<g>
		<path style="fill:none;stroke:#000000;stroke-width:15;stroke-linecap:round;stroke-linejoin:round;stroke-miterlimit:10;" d="&#10;&#9;&#9;&#9;M327.054,159.07c0,6.162-4.995,11.157-11.157,11.157c-3.056,0-14.085,0.049-14.085,0.049v-22.363c0,0,10.474,0,14.085,0&#10;&#9;&#9;&#9;C322.058,147.913,327.054,152.908,327.054,159.07z"/>
		<path style="fill:none;stroke:#000000;stroke-width:15;stroke-linecap:round;stroke-linejoin:round;stroke-miterlimit:10;" d="&#10;&#9;&#9;&#9;M331.408,183.292c0,7.208-5.843,13.051-13.051,13.051c-3.575,0-16.544,0.058-16.544,0.058v-26.16c0,0,12.32,0,16.544,0&#10;&#9;&#9;&#9;C325.564,170.24,331.408,176.084,331.408,183.292z"/>
	</g>
	
		<polygon style="fill:none;stroke:#000000;stroke-width:15;stroke-linecap:round;stroke-linejoin:round;stroke-miterlimit:10;" points="&#10;&#9;&#9;483.287,216.604 437.829,246.909 392.372,216.604 392.372,117.608 483.287,117.608 &#9;"/>
	<g>
		
			<polyline style="fill:none;stroke:#000000;stroke-width:15;stroke-linecap:round;stroke-linejoin:round;stroke-miterlimit:10;" points="&#10;&#9;&#9;&#9;422.405,147.913 437.893,171.633 453.254,148.036 &#9;&#9;"/>
		
			<line style="fill:none;stroke:#000000;stroke-width:15;stroke-linecap:round;stroke-linejoin:round;stroke-miterlimit:10;" x1="437.832" y1="196.401" x2="437.893" y2="171.633"/>
	</g>
	
		<line style="fill:none;stroke:#000000;stroke-width:15;stroke-linecap:round;stroke-linejoin:round;stroke-miterlimit:10;" x1="7.5" y1="117.608" x2="504.5" y2="117.608"/>
	
		<polyline style="fill:none;stroke:#000000;stroke-width:15;stroke-linecap:round;stroke-linejoin:round;stroke-miterlimit:10;" points="&#10;&#9;&#9;453.992,307.518 504.5,307.518 484.297,361.057 504.5,414.595 413.585,414.595 413.585,384.291 &#9;"/>
	<g>
		<g>
			
				<line style="fill:none;stroke:#000000;stroke-width:15;stroke-linecap:round;stroke-linejoin:round;stroke-miterlimit:10;" x1="145.21" y1="306.508" x2="145.21" y2="354.996"/>
			
				<line style="fill:none;stroke:#000000;stroke-width:15;stroke-linecap:round;stroke-linejoin:round;stroke-miterlimit:10;" x1="178.764" y1="306.508" x2="178.764" y2="354.996"/>
			
				<line style="fill:none;stroke:#000000;stroke-width:15;stroke-linecap:round;stroke-linejoin:round;stroke-miterlimit:10;" x1="145.21" y1="329.921" x2="178.764" y2="329.921"/>
		</g>
		<g>
			
				<polyline style="fill:none;stroke:#000000;stroke-width:15;stroke-linecap:round;stroke-linejoin:round;stroke-miterlimit:10;" points="&#10;&#9;&#9;&#9;&#9;372.011,306.508 351.581,306.508 351.581,354.996 372.011,354.996 &#9;&#9;&#9;"/>
			
				<line style="fill:none;stroke:#000000;stroke-width:15;stroke-linecap:round;stroke-linejoin:round;stroke-miterlimit:10;" x1="370.505" y1="330.752" x2="351.581" y2="330.752"/>
		</g>
		<g>
			<path style="fill:none;stroke:#000000;stroke-width:15;stroke-linecap:round;stroke-linejoin:round;stroke-miterlimit:10;" d="&#10;&#9;&#9;&#9;&#9;M118.182,311.493c0,0-8.701-7.314-18.961-4.223c-9.421,2.838-11.068,14.253-3.923,18.145c3.342,1.82,6.688,2.984,14.106,5.72&#10;&#9;&#9;&#9;&#9;c17.856,6.586,10.165,23.862-4.21,23.862c-7.199,0-13.24-3.152-16.897-7.188"/>
		</g>
		<g>
			<path style="fill:none;stroke:#000000;stroke-width:15;stroke-linecap:round;stroke-linejoin:round;stroke-miterlimit:10;" d="&#10;&#9;&#9;&#9;&#9;M273.708,306.598l9.485,47.657c0.334,0.982,1.72,0.992,2.067,0.014l14.713-47.76l14.713,47.76&#10;&#9;&#9;&#9;&#9;c0.347,0.978,1.733,0.968,2.067-0.014l9.485-47.657"/>
		</g>
		<g>
			
				<line style="fill:none;stroke:#000000;stroke-width:15;stroke-linecap:round;stroke-linejoin:round;stroke-miterlimit:10;" x1="403.335" y1="331.854" x2="423.703" y2="354.996"/>
			
				<line style="fill:none;stroke:#000000;stroke-width:15;stroke-linecap:round;stroke-linejoin:round;stroke-miterlimit:10;" x1="397.487" y1="331.767" x2="397.487" y2="354.996"/>
			<path style="fill:none;stroke:#000000;stroke-width:15;stroke-linecap:round;stroke-linejoin:round;stroke-miterlimit:10;" d="&#10;&#9;&#9;&#9;&#9;M423.703,319.11c0,6.96-6.102,12.601-13.315,12.601c-3.577,0-12.901,0.056-12.901,0.056l0.016-25.259c0,0,8.659,0,12.885,0&#10;&#9;&#9;&#9;&#9;C417.6,306.508,423.703,312.15,423.703,319.11z"/>
		</g>
		
			<circle style="fill:none;stroke:#000000;stroke-width:15;stroke-linecap:round;stroke-linejoin:round;stroke-miterlimit:10;" cx="228.425" cy="330.752" r="24.244"/>
	</g>
	
		<polyline style="fill:none;stroke:#000000;stroke-width:15;stroke-linecap:round;stroke-linejoin:round;stroke-miterlimit:10;" points="&#10;&#9;&#9;414.99,277.21 453.99,277.21 453.99,384.29 58.01,384.29 58.01,277.21 379.99,277.21 &#9;"/>
	
		<polyline style="fill:none;stroke:#000000;stroke-width:15;stroke-linecap:round;stroke-linejoin:round;stroke-miterlimit:10;" points="&#10;&#9;&#9;98.41,384.29 98.41,414.6 70.46,414.6 &#9;"/>
	
		<polyline style="fill:none;stroke:#000000;stroke-width:15;stroke-linecap:round;stroke-linejoin:round;stroke-miterlimit:10;" points="&#10;&#9;&#9;35.46,414.6 7.5,414.6 27.7,361.06 7.5,307.52 58.01,307.52 &#9;"/>
	<path style="fill:none;stroke:#000000;stroke-width:15;stroke-linecap:round;stroke-linejoin:round;stroke-miterlimit:10;" d="&#10;&#9;&#9;M426.758,16.786c-3.49-4.544-8.623-7.848-14.71-8.921c-12.921-2.278-25.243,6.349-27.521,19.271&#10;&#9;&#9;c-4.47,25.35,31.065,52.979,31.065,52.979s42.841-13.809,47.311-39.159c2.278-12.921-6.349-25.243-19.271-27.521&#10;&#9;&#9;C437.545,12.361,431.592,13.71,426.758,16.786z"/>
	<path style="fill:none;stroke:#000000;stroke-width:15;stroke-linecap:round;stroke-linejoin:round;stroke-miterlimit:10;" d="&#10;&#9;&#9;M346.771,393.577c-3.49-4.544-8.623-7.848-14.71-8.921c-12.921-2.278-25.243,6.349-27.521,19.271&#10;&#9;&#9;c-4.47,25.35,31.065,52.979,31.065,52.979s42.841-13.809,47.311-39.159c2.278-12.921-6.349-25.243-19.271-27.521&#10;&#9;&#9;C357.558,389.152,351.604,390.5,346.771,393.577z"/>
	<path style="fill:none;stroke:#000000;stroke-width:15;stroke-linecap:round;stroke-linejoin:round;stroke-miterlimit:10;" d="&#10;&#9;&#9;M147.942,441.172c3.49-4.544,8.623-7.848,14.71-8.921c12.921-2.278,25.243,6.349,27.521,19.271&#10;&#9;&#9;c4.47,25.35-31.065,52.979-31.065,52.979s-42.841-13.809-47.311-39.159c-2.278-12.921,6.349-25.243,19.271-27.521&#10;&#9;&#9;C137.155,436.746,143.108,438.095,147.942,441.172z"/>
	<path style="fill:none;stroke:#000000;stroke-width:15;stroke-linecap:round;stroke-linejoin:round;stroke-miterlimit:10;" d="&#10;&#9;&#9;M137.824,54.28c3.49-4.544,8.623-7.848,14.71-8.921c12.921-2.278,25.243,6.349,27.521,19.271&#10;&#9;&#9;c4.47,25.35-31.065,52.979-31.065,52.979S106.15,103.8,101.68,78.449c-2.278-12.921,6.349-25.243,19.271-27.521&#10;&#9;&#9;C127.038,49.855,132.991,51.203,137.824,54.28z"/>
	
		<line style="fill:none;stroke:#000000;stroke-width:15;stroke-linecap:round;stroke-linejoin:round;stroke-miterlimit:10;" x1="228.425" y1="50.13" x2="238.425" y2="60.13"/>
	
		<line style="fill:none;stroke:#000000;stroke-width:15;stroke-linecap:round;stroke-linejoin:round;stroke-miterlimit:10;" x1="235.848" y1="431.886" x2="245.848" y2="441.886"/>
	
		<line style="fill:none;stroke:#000000;stroke-width:15;stroke-linecap:round;stroke-linejoin:round;stroke-miterlimit:10;" x1="316.61" y1="33.807" x2="306.61" y2="43.807"/>
	
		<line style="fill:none;stroke:#000000;stroke-width:15;stroke-linecap:round;stroke-linejoin:round;stroke-miterlimit:10;" x1="49.46" y1="463.193" x2="39.46" y2="473.193"/>
	
		<line style="fill:none;stroke:#000000;stroke-width:15;stroke-linecap:round;stroke-linejoin:round;stroke-miterlimit:10;" x1="468.268" y1="469.195" x2="458.268" y2="479.196"/>
	
		<line style="fill:none;stroke:#000000;stroke-width:15;stroke-linecap:round;stroke-linejoin:round;stroke-miterlimit:10;" x1="75.13" y1="9.468" x2="65.13" y2="19.469"/>
	
		<line style="fill:none;stroke:#000000;stroke-width:15;stroke-linecap:round;stroke-linejoin:round;stroke-miterlimit:10;" x1="396.112" y1="474.196" x2="396.112" y2="474.196"/>
	
		<line style="fill:none;stroke:#000000;stroke-width:15;stroke-linecap:round;stroke-linejoin:round;stroke-miterlimit:10;" x1="39.46" y1="81.304" x2="39.46" y2="81.304"/>
	
		<line style="fill:none;stroke:#000000;stroke-width:15;stroke-linecap:round;stroke-linejoin:round;stroke-miterlimit:10;" x1="331.408" y1="77.579" x2="331.408" y2="77.579"/>
	
		<line style="fill:none;stroke:#000000;stroke-width:15;stroke-linecap:round;stroke-linejoin:round;stroke-miterlimit:10;" x1="256" y1="489.348" x2="256" y2="489.348"/>
</g>















</svg>
