<?xml version="1.0" encoding="UTF-8" standalone="no"?>
<!-- Created with Inkscape (http://www.inkscape.org/) -->

<svg
   version="1.1"
   id="svg2463"
   xml:space="preserve"
   width="682.66669"
   height="682.66669"
   viewBox="0 0 682.66669 682.66669"
   xmlns="http://www.w3.org/2000/svg"
   xmlns:svg="http://www.w3.org/2000/svg"><defs
     id="defs2467"><clipPath
       clipPathUnits="userSpaceOnUse"
       id="clipPath2477"><path
         d="M 0,512 H 512 V 0 H 0 Z"
         id="path2475" /></clipPath></defs><g
     id="g2469"
     transform="matrix(1.3333333,0,0,-1.3333333,0,682.66667)"><g
       id="g2471"><g
         id="g2473"
         clip-path="url(#clipPath2477)"><g
           id="g2479"
           transform="translate(189.9521,471.7876)"><path
             d="M 0,0 C 0,0 23.39,-6.527 28.285,-36.988"
             style="fill:none;stroke:#000000;stroke-width:15;stroke-linecap:round;stroke-linejoin:round;stroke-miterlimit:10;stroke-dasharray:none;stroke-opacity:1"
             id="path2481" /></g><g
           id="g2483"
           transform="translate(252.4561,222.5215)"><path
             d="M 0,0 C 0,0 23.39,-6.527 28.285,-36.988"
             style="fill:none;stroke:#000000;stroke-width:15;stroke-linecap:round;stroke-linejoin:round;stroke-miterlimit:10;stroke-dasharray:none;stroke-opacity:1"
             id="path2485" /></g><g
           id="g2487"
           transform="translate(91.458,363.2749)"><path
             d="M 0,0 C 0,0 23.39,-6.527 28.285,-36.988"
             style="fill:none;stroke:#000000;stroke-width:15;stroke-linecap:round;stroke-linejoin:round;stroke-miterlimit:10;stroke-dasharray:none;stroke-opacity:1"
             id="path2489" /></g><g
           id="g2491"
           transform="translate(78.8301,7.5)"><path
             d="M 0,0 V 206.151"
             style="fill:none;stroke:#000000;stroke-width:15;stroke-linecap:round;stroke-linejoin:round;stroke-miterlimit:10;stroke-dasharray:none;stroke-opacity:1"
             id="path2493" /></g><g
           id="g2495"
           transform="translate(51.1084,391.7363)"><path
             d="m 0,0 c 8.522,3.598 17.89,5.587 27.722,5.587 39.394,0 71.33,-31.937 71.33,-71.334 0,-39.397 -31.936,-112.312 -71.33,-112.312 -39.395,0 -71.33,72.915 -71.33,112.312 0,14.774 4.491,28.499 12.181,39.884"
             style="fill:none;stroke:#000000;stroke-width:15;stroke-linecap:round;stroke-linejoin:round;stroke-miterlimit:10;stroke-dasharray:none;stroke-opacity:1"
             id="path2497" /></g><g
           id="g2499"
           transform="translate(239.4727,7.5)"><path
             d="M 0,0 V 65.254"
             style="fill:none;stroke:#000000;stroke-width:15;stroke-linecap:round;stroke-linejoin:round;stroke-miterlimit:10;stroke-dasharray:none;stroke-opacity:1"
             id="path2501" /></g><g
           id="g2503"
           transform="translate(310.8027,185.0923)"><path
             d="m 0,0 c 0,-39.397 -31.936,-112.312 -71.33,-112.312 -39.395,0 -71.33,72.915 -71.33,112.312 0,39.396 31.935,71.334 71.33,71.334 C -31.936,71.334 0,39.396 0,0 Z"
             style="fill:none;stroke:#000000;stroke-width:15;stroke-linecap:round;stroke-linejoin:round;stroke-miterlimit:10;stroke-dasharray:none;stroke-opacity:1"
             id="path2505" /></g><g
           id="g2507"
           transform="translate(177.5107,7.5)"><path
             d="M 0,0 V 131.841"
             style="fill:none;stroke:#000000;stroke-width:15;stroke-linecap:round;stroke-linejoin:round;stroke-miterlimit:10;stroke-dasharray:none;stroke-opacity:1"
             id="path2509" /></g><g
           id="g2511"
           transform="translate(114.8174,387.2168)"><path
             d="m 0,0 c -5.869,16.238 -9.217,32.561 -9.217,45.369 0,39.717 32.196,71.914 71.91,71.914 39.715,0 71.911,-32.197 71.911,-71.914 0,-39.717 -32.196,-113.225 -71.911,-113.225 -8.788,0 -17.208,3.599 -24.992,9.635"
             style="fill:none;stroke:#000000;stroke-width:15;stroke-linecap:round;stroke-linejoin:round;stroke-miterlimit:10;stroke-dasharray:none;stroke-opacity:1"
             id="path2513" /></g><g
           id="g2515"
           transform="translate(177.5107,221.3599)"><path
             d="M 0,0 V 97.974"
             style="fill:none;stroke:#000000;stroke-width:15;stroke-linecap:round;stroke-linejoin:round;stroke-miterlimit:10;stroke-dasharray:none;stroke-opacity:1"
             id="path2517" /></g><g
           id="g2519"
           transform="translate(462.5723,7.5)"><path
             d="m 0,0 h 24.988 c 9.356,0 16.94,7.564 16.94,16.896 0,9.331 -7.584,16.895 -16.94,16.895 h -1.165 v 263.897 h 1.165 c 9.356,0 16.94,7.564 16.94,16.895 0,9.332 -7.584,16.896 -16.94,16.896 h -200.969 c -9.356,0 -16.94,-7.564 -16.94,-16.896 0,-9.331 7.584,-16.895 16.94,-16.895 h 1.165 v -64.219"
             style="fill:none;stroke:#000000;stroke-width:15;stroke-linecap:round;stroke-linejoin:round;stroke-miterlimit:10;stroke-dasharray:none;stroke-opacity:1"
             id="path2521" /></g><g
           id="g2523"
           transform="translate(287.7559,110)"><path
             d="m 0,0 v -68.709 h -1.165 c -9.356,0 -16.939,-7.564 -16.939,-16.895 0,-9.332 7.583,-16.896 16.939,-16.896 h 132.463"
             style="fill:none;stroke:#000000;stroke-width:15;stroke-linecap:round;stroke-linejoin:round;stroke-miterlimit:10;stroke-dasharray:none;stroke-opacity:1"
             id="path2525" /></g><g
           id="g2527"
           transform="translate(486.3955,78.7886)"><path
             d="M 0,0 H -58.091"
             style="fill:none;stroke:#000000;stroke-width:15;stroke-linecap:round;stroke-linejoin:round;stroke-miterlimit:10;stroke-dasharray:none;stroke-opacity:1"
             id="path2529" /></g><g
           id="g2531"
           transform="translate(486.3955,116.7778)"><path
             d="M 0,0 H -37.216"
             style="fill:none;stroke:#000000;stroke-width:15;stroke-linecap:round;stroke-linejoin:round;stroke-miterlimit:10;stroke-dasharray:none;stroke-opacity:1"
             id="path2533" /></g><g
           id="g2535"
           transform="translate(486.3955,154.7671)"><path
             d="M 0,0 H -58.091"
             style="fill:none;stroke:#000000;stroke-width:15;stroke-linecap:round;stroke-linejoin:round;stroke-miterlimit:10;stroke-dasharray:none;stroke-opacity:1"
             id="path2537" /></g><g
           id="g2539"
           transform="translate(486.3955,192.7563)"><path
             d="M 0,0 H -37.216"
             style="fill:none;stroke:#000000;stroke-width:15;stroke-linecap:round;stroke-linejoin:round;stroke-miterlimit:10;stroke-dasharray:none;stroke-opacity:1"
             id="path2541" /></g><g
           id="g2543"
           transform="translate(486.3955,230.7456)"><path
             d="M 0,0 H -58.091"
             style="fill:none;stroke:#000000;stroke-width:15;stroke-linecap:round;stroke-linejoin:round;stroke-miterlimit:10;stroke-dasharray:none;stroke-opacity:1"
             id="path2545" /></g><g
           id="g2547"
           transform="translate(486.3955,268.7349)"><path
             d="M 0,0 H -37.216"
             style="fill:none;stroke:#000000;stroke-width:15;stroke-linecap:round;stroke-linejoin:round;stroke-miterlimit:10;stroke-dasharray:none;stroke-opacity:1"
             id="path2549" /></g><g
           id="g2551"
           transform="translate(486.3955,338.979)"><path
             d="m 0,0 h -197.046 v 22.556 c 0,10.203 8.272,18.475 18.475,18.475 H -18.475 C -8.271,41.031 0,32.759 0,22.556 Z"
             style="fill:none;stroke:#000000;stroke-width:15;stroke-linecap:round;stroke-linejoin:round;stroke-miterlimit:10;stroke-dasharray:none;stroke-opacity:1"
             id="path2553" /></g><g
           id="g2555"
           transform="translate(462.5723,380.0098)"><path
             d="m 0,0 v 8.093 c 0,35.848 -25.125,65.824 -58.766,73.42 8.611,17.638 8.233,42.977 -16.731,42.977 -24.94,0 -25.347,-25.326 -16.731,-42.977 -33.64,-7.596 -58.765,-37.572 -58.765,-73.42 V 0"
             style="fill:none;stroke:#000000;stroke-width:15;stroke-linecap:round;stroke-linejoin:round;stroke-miterlimit:10;stroke-dasharray:none;stroke-opacity:1"
             id="path2557" /></g><g
           id="g2559"
           transform="translate(486.3955,41.291)"><path
             d="M 0,0 H -166.396"
             style="fill:none;stroke:#000000;stroke-width:15;stroke-linecap:round;stroke-linejoin:round;stroke-miterlimit:10;stroke-dasharray:none;stroke-opacity:1"
             id="path2561" /></g></g></g></g></svg>
