<svg height="492pt" viewBox="0 -13 492 492" width="492pt" xmlns="http://www.w3.org/2000/svg"><path d="m246 159.644531c36.449219 0 66-29.546875 66-66 0-36.449219-29.550781-66-66-66s-66 29.550781-66 66c.039062 36.4375 29.566406 65.960938 66 66zm0-120c29.824219 0 54 24.179688 54 54 0 29.824219-24.175781 54-54 54s-54-24.175781-54-54c.035156-29.808593 24.191406-53.964843 54-54zm0 0"/><path d="m486 408.351562h-22.234375v-39.175781c0-3.3125-2.6875-6-6-6h-24.902344v-183.882812h46.082031c3.3125 0 6-2.6875 6-6v-66c-.003906-2.386719-1.417968-4.546875-3.609374-5.5l-232.941407-101.296875c-1.527343-.660156-3.261719-.660156-4.789062 0l-232.941407 101.296875c-2.1875.949219-3.605468 3.109375-3.605468 5.5v66c0 3.3125 2.6875 6 6 6h46.078125v183.882812h-24.898438c-3.316406 0-6 2.6875-6 6v39.175781h-22.238281c-3.3125 0-6 2.6875-6 6v45.175782c0 3.316406 2.6875 6 6 6h480c3.3125 0 6-2.683594 6-6v-45.175782c0-3.3125-2.6875-6-6-6zm-65.136719-45.175781h-30.355469v-183.882812h30.355469zm-94.457031 0v-183.882812h52.097656v183.882812zm-42.355469 0v-183.882812h30.347657v183.882812zm-64.097656 0v-183.882812h52.097656v183.882812zm-42.355469 0v-183.882812h30.355469v183.882812zm-64.097656 0v-183.882812h52.097656v183.882812zm-94.441406-251.949219 226.941406-98.683593 226.941406 98.683593v56.066407h-453.882812zm52.078125 68.066407h30.355469v183.882812h-30.355469zm-30.898438 195.882812h411.527344v33.175781h-411.53125zm439.761719 78.351563h-468v-33.175782h468zm0 0"/><path d="m226 130.65625h5.386719v4.148438c0 3.316406 2.683593 6 6 6 3.3125 0 6-2.683594 6-6v-4.148438h2.5625v4.148438c0 3.316406 2.6875 6 6 6s6-2.683594 6-6v-5.015626c8.339843-2.558593 14.039062-10.257812 14.050781-18.980468v-3.078125c0-5.175781-2.03125-10.148438-5.65625-13.84375 3.625-3.699219 5.65625-8.667969 5.65625-13.847657v-3.074218c-.011719-8.726563-5.710938-16.421875-14.050781-18.980469v-5.5c0-3.3125-2.6875-6-6-6s-6 2.6875-6 6v4.628906h-2.5625v-4.628906c0-3.3125-2.6875-6-6-6-3.316407 0-6 2.6875-6 6v4.628906h-5.386719c-3.3125 0-6 2.6875-6 6v61.539063c0 3.316406 2.683594 6.003906 6 6.003906zm34-19.847656c-.003906 4.332031-3.515625 7.839844-7.847656 7.847656h-20.152344v-18.769531h20.152344c4.332031.003906 7.84375 3.511719 7.847656 7.84375zm0-30.769532c-.003906 4.332032-3.515625 7.839844-7.847656 7.847657h-20.152344v-18.769531h20.152344c4.332031.003906 7.84375 3.515624 7.847656 7.847656zm0 0"/></svg>