<?xml version="1.0" encoding="UTF-8" standalone="no"?>
<!-- Created with Inkscape (http://www.inkscape.org/) -->

<svg
   version="1.1"
   id="svg4626"
   xml:space="preserve"
   width="682.66669"
   height="682.66669"
   viewBox="0 0 682.66669 682.66669"
   xmlns="http://www.w3.org/2000/svg"
   xmlns:svg="http://www.w3.org/2000/svg"><defs
     id="defs4630"><clipPath
       clipPathUnits="userSpaceOnUse"
       id="clipPath4640"><path
         d="M 0,512 H 512 V 0 H 0 Z"
         id="path4638" /></clipPath></defs><g
     id="g4632"
     transform="matrix(1.3333333,0,0,-1.3333333,0,682.66667)"><g
       id="g4634"><g
         id="g4636"
         clip-path="url(#clipPath4640)"><g
           id="g4642"
           transform="translate(61.5928,41.4619)"><path
             d="m 0,0 v 89.726 c 0,23.372 18.947,42.318 42.319,42.318 h 304.176 c 23.372,0 42.319,-18.946 42.319,-42.318 V 0"
             style="fill:none;stroke:#060606;stroke-width:15;stroke-linecap:round;stroke-linejoin:round;stroke-miterlimit:10;stroke-dasharray:none;stroke-opacity:1"
             id="path4644" /></g><g
           id="g4646"
           transform="translate(400.9385,173.5059)"><path
             d="m 0,0 h -289.877 v 91.498 c 0,23.372 18.947,42.318 42.318,42.318 H -42.318 C -18.947,133.816 0,114.87 0,91.498 Z"
             style="fill:none;stroke:#060606;stroke-width:15;stroke-linecap:round;stroke-linejoin:round;stroke-miterlimit:10;stroke-dasharray:none;stroke-opacity:1"
             id="path4648" /></g><g
           id="g4650"
           transform="translate(61.5928,130.9131)"><path
             d="M 0,0 C 32.4,0 32.4,-52.684 64.801,-52.684 97.199,-52.684 97.199,0 129.599,0 c 32.4,0 32.4,-52.684 64.8,-52.684 32.402,0 32.402,52.684 64.803,52.684 32.403,0 32.403,-52.684 64.807,-52.684 32.402,0 32.402,52.684 64.805,52.684"
             style="fill:none;stroke:#060606;stroke-width:15;stroke-linecap:round;stroke-linejoin:round;stroke-miterlimit:10;stroke-dasharray:none;stroke-opacity:1"
             id="path4652" /></g><g
           id="g4654"
           transform="translate(194.4619,258.2432)"><path
             d="m 0,0 c 3.562,3.143 7.804,5.178 13.298,5.178 24.117,0 24.117,-39.215 48.234,-39.215 24.118,0 24.118,39.215 48.237,39.215 24.119,0 24.119,-39.215 48.239,-39.215 24.119,0 24.119,39.215 48.238,39.215"
             style="fill:none;stroke:#060606;stroke-width:15;stroke-linecap:round;stroke-linejoin:round;stroke-miterlimit:10;stroke-dasharray:none;stroke-opacity:1"
             id="path4656" /></g><g
           id="g4658"
           transform="translate(111.292,263.4209)"><path
             d="m 0,0 c 24.117,0 24.117,-39.215 48.234,-39.215 6.534,0 11.296,2.878 15.248,7.074"
             style="fill:none;stroke:#060606;stroke-width:15;stroke-linecap:round;stroke-linejoin:round;stroke-miterlimit:10;stroke-dasharray:none;stroke-opacity:1"
             id="path4660" /></g><g
           id="g4662"
           transform="translate(126.2822,105.9141)"><path
             d="M 0,0 C 9.652,0 9.668,15 0,15 -9.651,15 -9.668,0 0,0"
             style="fill:#060606;fill-opacity:1;fill-rule:nonzero;stroke:none"
             id="path4664" /></g><g
           id="g4666"
           transform="translate(256.002,105.9141)"><path
             d="M 0,0 C 9.652,0 9.668,15 0,15 -9.651,15 -9.667,0 0,0"
             style="fill:#060606;fill-opacity:1;fill-rule:nonzero;stroke:none"
             id="path4668" /></g><g
           id="g4670"
           transform="translate(385.7227,105.9141)"><path
             d="M 0,0 C 9.651,0 9.667,15 0,15 -9.652,15 -9.668,0 0,0"
             style="fill:#060606;fill-opacity:1;fill-rule:nonzero;stroke:none"
             id="path4672" /></g><g
           id="g4674"
           transform="translate(159.5332,247.3457)"><path
             d="M 0,0 C 9.651,0 9.668,15 0,15 -9.652,15 -9.668,0 0,0"
             style="fill:#060606;fill-opacity:1;fill-rule:nonzero;stroke:none"
             id="path4676" /></g><g
           id="g4678"
           transform="translate(256.002,247.3457)"><path
             d="M 0,0 C 9.652,0 9.668,15 0,15 -9.651,15 -9.667,0 0,0"
             style="fill:#060606;fill-opacity:1;fill-rule:nonzero;stroke:none"
             id="path4680" /></g><g
           id="g4682"
           transform="translate(352.4717,247.3457)"><path
             d="M 0,0 C 9.651,0 9.668,15 0,15 -9.651,15 -9.668,0 0,0"
             style="fill:#060606;fill-opacity:1;fill-rule:nonzero;stroke:none"
             id="path4684" /></g><g
           id="g4686"
           transform="translate(276.3926,459.9385)"><path
             d="m 0,0 c 0,-11.244 -9.13,-20.359 -20.393,-20.359 -11.262,0 -20.392,9.115 -20.392,20.359 0,11.245 20.392,44.562 20.392,44.562 C -20.393,44.562 0,11.245 0,0 Z"
             style="fill:none;stroke:#060606;stroke-width:15;stroke-linecap:round;stroke-linejoin:round;stroke-miterlimit:10;stroke-dasharray:none;stroke-opacity:1"
             id="path4688" /></g><path
           d="m 283.393,307.322 h -54.785 v 91.58 h 54.785 z"
           style="fill:none;stroke:#060606;stroke-width:15;stroke-linecap:round;stroke-linejoin:round;stroke-miterlimit:10;stroke-dasharray:none;stroke-opacity:1"
           id="path4690" /><g
           id="g4692"
           transform="translate(255.8789,398.9023)"><path
             d="M 0,0 V 40.178"
             style="fill:none;stroke:#060606;stroke-width:15;stroke-linecap:round;stroke-linejoin:round;stroke-miterlimit:10;stroke-dasharray:none;stroke-opacity:1"
             id="path4694" /></g><g
           id="g4696"
           transform="translate(229.042,368.0879)"><path
             d="M 0,0 H 53.916"
             style="fill:none;stroke:#060606;stroke-width:15;stroke-linecap:round;stroke-linejoin:round;stroke-miterlimit:10;stroke-dasharray:none;stroke-opacity:1"
             id="path4698" /></g><g
           id="g4700"
           transform="translate(229.042,338.1367)"><path
             d="M 0,0 H 53.916"
             style="fill:none;stroke:#060606;stroke-width:15;stroke-linecap:round;stroke-linejoin:round;stroke-miterlimit:10;stroke-dasharray:none;stroke-opacity:1"
             id="path4702" /></g><g
           id="g4704"
           transform="translate(354.166,308.1602)"><path
             d="M 0,0 V 95.791"
             style="fill:none;stroke:#060606;stroke-width:15;stroke-linecap:round;stroke-linejoin:round;stroke-miterlimit:10;stroke-dasharray:none;stroke-opacity:1"
             id="path4706" /></g><g
           id="g4708"
           transform="translate(353.6074,448.4062)"><path
             d="M 0,0 0.053,-11.853"
             style="fill:none;stroke:#060606;stroke-width:15;stroke-linecap:round;stroke-linejoin:round;stroke-miterlimit:10;stroke-dasharray:none;stroke-opacity:1"
             id="path4710" /></g><g
           id="g4712"
           transform="translate(319.0762,433.6631)"><path
             d="M 0,0 8.432,-8.344"
             style="fill:none;stroke:#060606;stroke-width:15;stroke-linecap:round;stroke-linejoin:round;stroke-miterlimit:10;stroke-dasharray:none;stroke-opacity:1"
             id="path4714" /></g><g
           id="g4716"
           transform="translate(305.1016,398.8604)"><path
             d="M 0,0 11.871,0.053"
             style="fill:none;stroke:#060606;stroke-width:15;stroke-linecap:round;stroke-linejoin:round;stroke-miterlimit:10;stroke-dasharray:none;stroke-opacity:1"
             id="path4718" /></g><g
           id="g4720"
           transform="translate(319.8672,364.3848)"><path
             d="M 0,0 8.357,8.418"
             style="fill:none;stroke:#060606;stroke-width:15;stroke-linecap:round;stroke-linejoin:round;stroke-miterlimit:10;stroke-dasharray:none;stroke-opacity:1"
             id="path4722" /></g><g
           id="g4724"
           transform="translate(389.2559,365.1748)"><path
             d="M 0,0 -8.432,8.344"
             style="fill:none;stroke:#060606;stroke-width:15;stroke-linecap:round;stroke-linejoin:round;stroke-miterlimit:10;stroke-dasharray:none;stroke-opacity:1"
             id="path4726" /></g><g
           id="g4728"
           transform="translate(403.2314,399.9775)"><path
             d="M 0,0 -11.871,-0.053"
             style="fill:none;stroke:#060606;stroke-width:15;stroke-linecap:round;stroke-linejoin:round;stroke-miterlimit:10;stroke-dasharray:none;stroke-opacity:1"
             id="path4730" /></g><g
           id="g4732"
           transform="translate(388.4648,434.4531)"><path
             d="M 0,0 -8.356,-8.418"
             style="fill:none;stroke:#060606;stroke-width:15;stroke-linecap:round;stroke-linejoin:round;stroke-miterlimit:10;stroke-dasharray:none;stroke-opacity:1"
             id="path4734" /></g><g
           id="g4736"
           transform="translate(157.834,307.3223)"><path
             d="M 0,0 V 149.483"
             style="fill:none;stroke:#060606;stroke-width:15;stroke-linecap:round;stroke-linejoin:round;stroke-miterlimit:10;stroke-dasharray:none;stroke-opacity:1"
             id="path4738" /></g><g
           id="g4740"
           transform="translate(157.2744,501.2607)"><path
             d="M 0,0 0.053,-11.853"
             style="fill:none;stroke:#060606;stroke-width:15;stroke-linecap:round;stroke-linejoin:round;stroke-miterlimit:10;stroke-dasharray:none;stroke-opacity:1"
             id="path4742" /></g><g
           id="g4744"
           transform="translate(122.7441,486.5176)"><path
             d="M 0,0 8.432,-8.344"
             style="fill:none;stroke:#060606;stroke-width:15;stroke-linecap:round;stroke-linejoin:round;stroke-miterlimit:10;stroke-dasharray:none;stroke-opacity:1"
             id="path4746" /></g><g
           id="g4748"
           transform="translate(108.7686,451.7148)"><path
             d="M 0,0 11.871,0.053"
             style="fill:none;stroke:#060606;stroke-width:15;stroke-linecap:round;stroke-linejoin:round;stroke-miterlimit:10;stroke-dasharray:none;stroke-opacity:1"
             id="path4750" /></g><g
           id="g4752"
           transform="translate(123.5352,417.2393)"><path
             d="M 0,0 8.356,8.418"
             style="fill:none;stroke:#060606;stroke-width:15;stroke-linecap:round;stroke-linejoin:round;stroke-miterlimit:10;stroke-dasharray:none;stroke-opacity:1"
             id="path4754" /></g><g
           id="g4756"
           transform="translate(192.9238,418.0293)"><path
             d="M 0,0 -8.432,8.343"
             style="fill:none;stroke:#060606;stroke-width:15;stroke-linecap:round;stroke-linejoin:round;stroke-miterlimit:10;stroke-dasharray:none;stroke-opacity:1"
             id="path4758" /></g><g
           id="g4760"
           transform="translate(206.8984,452.832)"><path
             d="M 0,0 -11.871,-0.053"
             style="fill:none;stroke:#060606;stroke-width:15;stroke-linecap:round;stroke-linejoin:round;stroke-miterlimit:10;stroke-dasharray:none;stroke-opacity:1"
             id="path4762" /></g><g
           id="g4764"
           transform="translate(192.1328,487.3076)"><path
             d="M 0,0 -8.357,-8.418"
             style="fill:none;stroke:#060606;stroke-width:15;stroke-linecap:round;stroke-linejoin:round;stroke-miterlimit:10;stroke-dasharray:none;stroke-opacity:1"
             id="path4766" /></g><g
           id="g4768"
           transform="translate(404.4775,41.4619)"><path
             d="m 0,0 h 100.022 c 0,-18.757 -15.205,-33.962 -33.961,-33.962 h -429.077 c -18.756,0 -33.962,15.205 -33.962,33.962 h 358.994"
             style="fill:none;stroke:#060606;stroke-width:15;stroke-linecap:round;stroke-linejoin:round;stroke-miterlimit:10;stroke-dasharray:none;stroke-opacity:1"
             id="path4770" /></g></g></g></g></svg>
