<?xml version="1.0" encoding="iso-8859-1"?>
<!-- Generator: Adobe Illustrator 19.0.0, SVG Export Plug-In . SVG Version: 6.00 Build 0)  -->
<svg version="1.1" id="Capa_1" xmlns="http://www.w3.org/2000/svg" xmlns:xlink="http://www.w3.org/1999/xlink" x="0px" y="0px"
	 viewBox="0 0 512 512" style="enable-background:new 0 0 512 512;" xml:space="preserve">
<g>
	<g>
		<path d="M276,452c-5.52,0-10,4.48-10,10c0,5.52,4.48,10,10,10c5.52,0,10-4.48,10-10C286,456.48,281.52,452,276,452z"/>
	</g>
</g>
<g>
	<g>
		<path d="M502,492h-56v-90.35c11.851-4.895,20-16.542,20-29.99V336c0-16.542-13.458-30-30-30h-30v-64.373
			c2.284-1.21,4.522-2.587,5.829-3.497c8.876-5.904,14.171-15.786,14.171-26.46V190c0-16.542-13.458-30-30-30h-10V90
			c0-5.523-4.478-10-10-10h-20h-20c-5.522,0-10,4.477-10,10v70h-40V90c0-5.523-4.478-10-10-10h-20h-20c-5.522,0-10,4.477-10,10v70
			h-40V90c0-5.523-4.478-10-10-10h-20h-20c-5.522,0-10,4.477-10,10v70h-10c-16.542,0-30,13.458-30,30v21.67
			c0,10.68,5.296,20.563,14.175,26.462c0.047,0.033,0.097,0.066,0.147,0.1c0.037,0.026,0.075,0.052,0.112,0.077
			c1.793,1.201,3.655,2.307,5.565,3.319V306H76c-16.542,0-30,13.458-30,30v35.66c0,13.464,8.166,25.122,20,30.003V492H10
			c-5.522,0-10,4.477-10,10s4.478,10,10,10h492c5.522,0,10-4.477,10-10S507.522,492,502,492z M346,100h20v60h-20V100z M246,100h20
			v60h-20V100z M146,100h20v60h-20V100z M106,190c0-5.514,4.486-10,10-10c43.843,0,68.967,0,82.618,0c10.964,0,14.529,0,14.435,0
			c21.818,0,72.952,0,182.947,0c5.514,0,10,4.486,10,10v21.67c0,7.517-6.562,11.451-13.647,14.267
			c-0.088,0.035-0.178,0.063-0.265,0.099c-13.408,5.258-28.545,3.642-40.542-4.358c-21.594-14.392-49.498-14.392-71.092,0
			c-14.855,9.9-34.053,9.9-48.908,0c-21.594-14.392-49.498-14.391-71.094,0.001c-11.951,7.97-27.025,9.602-40.419,4.4
			c-0.202-0.089-0.41-0.166-0.62-0.242c-2.731-1.103-5.353-2.481-7.794-4.11c-0.045-0.031-0.092-0.063-0.141-0.095
			c-0.064-0.045-0.13-0.089-0.196-0.133c-3.308-2.18-5.282-5.854-5.282-9.83V190z M386,248.299V306H126v-57.704
			c15.729,2.486,32.016-0.95,45.546-9.974c14.855-9.9,34.053-9.9,48.908,0c10.797,7.196,23.171,10.793,35.546,10.793
			s24.749-3.598,35.546-10.793c14.854-9.901,34.052-9.902,48.906-0.001C353.986,247.347,370.276,250.784,386,248.299z M426,452H316
			c-5.522,0-10,4.477-10,10s4.478,10,10,10h110v20H86v-86.688c6.789,1.369,12.159,3.479,14.454,5.01
			c21.594,14.392,49.498,14.392,71.092,0c14.855-9.9,34.053-9.9,48.908,0c10.797,7.196,23.171,10.793,35.546,10.793
			s24.749-3.598,35.546-10.793c14.855-9.9,34.053-9.9,48.908,0c21.593,14.391,49.497,14.392,71.094-0.001
			c2.296-1.531,7.672-3.643,14.452-5.011V452z M434.862,384.045c-0.158,0.018-0.316,0.031-0.53,0.043
			c-12.832,0.782-26.447,4.636-33.878,9.59c-14.855,9.9-34.053,9.9-48.908,0c-21.594-14.392-49.498-14.392-71.092,0
			c-14.855,9.9-34.053,9.9-48.908,0c-21.594-14.392-49.498-14.392-71.092,0c-14.856,9.902-34.054,9.9-48.906,0.001
			c-7.433-4.955-21.048-8.81-33.932-9.594c-0.162-0.009-0.32-0.022-0.546-0.048c-6.312-0.679-11.07-6-11.07-12.377V336
			c0-5.514,4.486-10,10-10c18.975,0,343.262,0,360,0c5.514,0,10,4.486,10,10v35.66C446,378.036,441.24,383.357,434.862,384.045z"/>
	</g>
</g>
<g>
	<g>
		<path d="M163.071,2.929c-3.906-3.905-10.236-3.905-14.143,0c-25.984,25.985-25.984,48.158,0,74.143
			C150.882,79.024,153.441,80,156,80s5.118-0.976,7.071-2.929C189.109,51.033,189.11,28.969,163.071,2.929z M155.964,55.09
			c-8.738-11.033-8.738-19.147,0-30.18C164.739,36.163,164.746,43.828,155.964,55.09z"/>
	</g>
</g>
<g>
	<g>
		<path d="M263.071,2.929c-3.906-3.905-10.236-3.905-14.143,0c-25.984,25.985-25.984,48.158,0,74.143
			C250.882,79.024,253.441,80,256,80s5.118-0.976,7.071-2.929C289.109,51.033,289.11,28.969,263.071,2.929z M255.964,55.09
			c-8.738-11.033-8.738-19.147,0-30.18C264.739,36.163,264.746,43.828,255.964,55.09z"/>
	</g>
</g>
<g>
	<g>
		<path d="M363.071,2.929c-3.906-3.905-10.236-3.905-14.143,0c-25.984,25.985-25.984,48.158,0,74.143
			C350.882,79.024,353.441,80,356,80c2.559,0,5.118-0.976,7.071-2.929C389.109,51.033,389.11,28.969,363.071,2.929z M355.964,55.09
			c-8.738-11.033-8.738-19.147,0-30.18C364.739,36.163,364.746,43.828,355.964,55.09z"/>
	</g>
</g>
<g>
	<g>
		<path d="M66,60H36c-5.522,0-10,4.477-10,10s4.478,10,10,10h30c5.522,0,10-4.477,10-10S71.522,60,66,60z"/>
	</g>
</g>
<g>
	<g>
		<path d="M83.072,102.929c-3.907-3.904-10.237-3.904-14.143,0l-20,20c-3.905,3.905-3.905,10.237,0,14.143
			c3.907,3.905,10.236,3.904,14.143,0l20-20C86.977,113.167,86.977,106.835,83.072,102.929z"/>
	</g>
</g>
<g>
	<g>
		<path d="M83.072,22.929l-20-20c-3.906-3.904-10.236-3.904-14.143,0c-3.905,3.905-3.905,10.237,0,14.143l20,20
			c3.907,3.905,10.236,3.904,14.143,0C86.977,33.167,86.977,26.835,83.072,22.929z"/>
	</g>
</g>
<g>
	<g>
		<path d="M476,60h-30c-5.522,0-10,4.477-10,10s4.478,10,10,10h30c5.522,0,10-4.477,10-10S481.522,60,476,60z"/>
	</g>
</g>
<g>
	<g>
		<path d="M463.072,122.929l-20-20c-3.906-3.904-10.236-3.904-14.143,0c-3.905,3.905-3.905,10.237,0,14.143l20,20
			c3.907,3.905,10.236,3.904,14.143,0C466.977,133.167,466.977,126.835,463.072,122.929z"/>
	</g>
</g>
<g>
	<g>
		<path d="M463.071,2.929c-3.906-3.904-10.236-3.904-14.143,0l-20,20c-3.905,3.905-3.905,10.237,0,14.143
			c3.908,3.905,10.237,3.904,14.143,0l20-20C466.976,13.167,466.976,6.835,463.071,2.929z"/>
	</g>
</g>
<g>
</g>
<g>
</g>
<g>
</g>
<g>
</g>
<g>
</g>
<g>
</g>
<g>
</g>
<g>
</g>
<g>
</g>
<g>
</g>
<g>
</g>
<g>
</g>
<g>
</g>
<g>
</g>
<g>
</g>
</svg>
