<?xml version="1.0" encoding="UTF-8" standalone="no"?>
<!-- Created with Inkscape (http://www.inkscape.org/) -->

<svg
   version="1.1"
   id="svg3846"
   xml:space="preserve"
   width="682.66669"
   height="682.66669"
   viewBox="0 0 682.66669 682.66669"
   xmlns="http://www.w3.org/2000/svg"
   xmlns:svg="http://www.w3.org/2000/svg"><defs
     id="defs3850"><clipPath
       clipPathUnits="userSpaceOnUse"
       id="clipPath3860"><path
         d="M 0,512 H 512 V 0 H 0 Z"
         id="path3858" /></clipPath></defs><g
     id="g3852"
     transform="matrix(1.3333333,0,0,-1.3333333,0,682.66667)"><g
       id="g3854"><g
         id="g3856"
         clip-path="url(#clipPath3860)"><g
           id="g3862"
           transform="translate(320.9868,292.082)"><path
             d="M 0,0 C 105.725,-6.498 183.513,-28.466 183.513,-54.566"
             style="fill:none;stroke:#000000;stroke-width:15;stroke-linecap:round;stroke-linejoin:round;stroke-miterlimit:10;stroke-dasharray:none;stroke-opacity:1"
             id="path3864" /></g><g
           id="g3866"
           transform="translate(127.2417,285.8652)"><path
             d="M 0,0 C 19.657,2.714 41.1,4.825 63.834,6.22"
             style="fill:none;stroke:#000000;stroke-width:15;stroke-linecap:round;stroke-linejoin:round;stroke-miterlimit:10;stroke-dasharray:none;stroke-opacity:1"
             id="path3868" /></g><g
           id="g3870"
           transform="translate(7.5,237.5161)"><path
             d="M 0,0 C 0,16.194 29.946,30.797 77.931,41.102"
             style="fill:none;stroke:#000000;stroke-width:15;stroke-linecap:round;stroke-linejoin:round;stroke-miterlimit:10;stroke-dasharray:none;stroke-opacity:1"
             id="path3872" /></g><g
           id="g3874"
           transform="translate(463.3989,119.9858)"><path
             d="m 0,0 c 21.809,32.393 36.312,69.942 40.964,110.135 1.549,13.382 -10.299,24.509 -23.57,22.124 -45.278,-8.137 -139.984,-13.013 -186.089,74.009 -7.582,14.31 -22.53,23.199 -38.737,23.199 -16.208,0 -31.155,-8.889 -38.737,-23.199 -46.082,-86.979 -140.717,-82.151 -186.021,-74.021 -13.303,2.387 -25.177,-8.793 -23.561,-22.199 14.876,-123.404 125.532,-225.307 247.458,-222.476 71.974,0 137.686,31.611 183.79,81.47"
             style="fill:none;stroke:#000000;stroke-width:15;stroke-linecap:round;stroke-linejoin:round;stroke-miterlimit:10;stroke-dasharray:none;stroke-opacity:1"
             id="path3876" /></g><g
           id="g3878"
           transform="translate(499.7695,203.543)"><path
             d="m 0,0 c -5.187,7.063 -13.55,11.652 -22.99,11.652 -10.855,0 -20.291,-6.065 -25.104,-14.986 -4.812,8.921 -14.248,14.986 -25.103,14.986 -9.457,0 -17.833,-4.605 -23.017,-11.689 -3.586,11.628 -14.424,20.079 -27.24,20.079 -7.51,0 -14.337,-2.906 -19.428,-7.649 -1.577,14.233 -13.652,25.305 -28.32,25.305 -4.693,0 -9.116,-1.139 -13.019,-3.147 0.358,1.803 0.549,3.666 0.549,5.573 0,15.725 -12.76,28.473 -28.499,28.473 -1.886,0 -3.727,-0.188 -5.51,-0.537 1.546,3.507 2.411,7.382 2.411,11.461 0,15.725 -12.76,28.473 -28.5,28.473 -15.739,0 -28.499,-12.748 -28.499,-28.473 0,-4.079 0.865,-7.954 2.411,-11.461 -1.783,0.349 -3.624,0.537 -5.51,0.537 -15.739,0 -28.499,-12.748 -28.499,-28.473 0,-1.907 0.191,-3.77 0.549,-5.573 -3.903,2.008 -8.327,3.147 -13.019,3.147 -14.668,0 -26.743,-11.072 -28.32,-25.305 -5.091,4.743 -11.918,7.649 -19.428,7.649 -12.816,0 -23.654,-8.451 -27.24,-20.079 -5.184,7.084 -13.56,11.689 -23.017,11.689 -10.855,0 -20.291,-6.065 -25.103,-14.986 -4.813,8.921 -14.249,14.986 -25.104,14.986 -9.372,0 -17.679,-4.526 -22.873,-11.502"
             style="fill:none;stroke:#000000;stroke-width:15;stroke-linecap:round;stroke-linejoin:round;stroke-miterlimit:10;stroke-dasharray:none;stroke-opacity:1"
             id="path3880" /></g><g
           id="g3882"
           transform="translate(493.2524,180.9399)"><path
             d="M 0,0 C -43.106,-8.432 -185.239,-27.744 -237.454,70.809 -289.509,-27.442 -430.93,-8.549 -474.505,-0.078"
             style="fill:none;stroke:#000000;stroke-width:15;stroke-linecap:round;stroke-linejoin:round;stroke-miterlimit:10;stroke-dasharray:none;stroke-opacity:1"
             id="path3884" /></g><g
           id="g3886"
           transform="translate(145.0142,175.4697)"><path
             d="M 0,0 35.695,-74.478"
             style="fill:none;stroke:#000000;stroke-width:15;stroke-linecap:round;stroke-linejoin:round;stroke-miterlimit:10;stroke-dasharray:none;stroke-opacity:1"
             id="path3888" /></g><g
           id="g3890"
           transform="translate(371.4092,177.0425)"><path
             d="M 0,0 -40.119,-76.051"
             style="fill:none;stroke:#000000;stroke-width:15;stroke-linecap:round;stroke-linejoin:round;stroke-miterlimit:10;stroke-dasharray:none;stroke-opacity:1"
             id="path3892" /></g><g
           id="g3894"
           transform="translate(187.3301,16.6938)"><path
             d="M 0,0 C 0.18,-0.053 0.36,-0.107 0.541,-0.16 0.458,-0.041 0.37,0.075 0.288,0.194 0.193,0.127 0.095,0.066 0,0 Z"
             style="fill:none;stroke:#000000;stroke-width:15;stroke-linecap:round;stroke-linejoin:round;stroke-miterlimit:10;stroke-dasharray:none;stroke-opacity:1"
             id="path3896" /></g><g
           id="g3898"
           transform="translate(400.0513,54.8193)"><path
             d="m 0,0 c 0.014,0.475 0.036,0.948 0.036,1.426 0,26.544 -21.539,48.062 -48.108,48.062 -7.423,0 -14.451,-1.682 -20.728,-4.681 -13.315,28.171 -41.999,47.67 -75.251,47.67 -33.253,0 -61.936,-19.499 -75.251,-47.67 -6.278,2.999 -13.306,4.681 -20.728,4.681 -26.57,0 -48.109,-21.518 -48.109,-48.062 0,-0.612 0.024,-1.218 0.047,-1.824"
             style="fill:none;stroke:#000000;stroke-width:15;stroke-linecap:round;stroke-linejoin:round;stroke-miterlimit:10;stroke-dasharray:none;stroke-opacity:1"
             id="path3900" /></g><g
           id="g3902"
           transform="translate(145.0142,67.4956)"><path
             d="m 0,0 c 5.283,7.009 15.042,9.522 23.074,5.685 14.328,-6.847 32.392,-0.462 39.195,13.928 8.864,18.755 27.986,30.872 48.717,30.872 20.73,0 39.853,-12.117 48.717,-30.872 4.797,-10.148 15.252,-16.798 26.533,-16.798 4.342,0 8.67,0.962 12.662,2.87 7.854,3.753 17.382,1.443 22.738,-5.26"
             style="fill:none;stroke:#000000;stroke-width:15;stroke-linecap:round;stroke-linejoin:round;stroke-miterlimit:10;stroke-dasharray:none;stroke-opacity:1"
             id="path3904" /></g><g
           id="g3906"
           transform="translate(194.3784,152.9863)"><path
             d="M 0,0 C 9.652,0 9.668,15 0,15 -9.652,15 -9.667,0 0,0"
             style="fill:#000000;fill-opacity:1;fill-rule:nonzero;stroke:none"
             id="path3908" /></g><g
           id="g3910"
           transform="translate(226.6562,167.9697)"><path
             d="M 0,0 C 9.652,0 9.668,15 0,15 -9.652,15 -9.667,0 0,0"
             style="fill:#000000;fill-opacity:1;fill-rule:nonzero;stroke:none"
             id="path3912" /></g><g
           id="g3914"
           transform="translate(256,185.8848)"><path
             d="M 0,0 C 9.652,0 9.668,15 0,15 -9.652,15 -9.668,0 0,0"
             style="fill:#000000;fill-opacity:1;fill-rule:nonzero;stroke:none"
             id="path3916" /></g><g
           id="g3918"
           transform="translate(317.6216,152.9863)"><path
             d="M 0,0 C 9.652,0 9.667,15 0,15 -9.652,15 -9.668,0 0,0"
             style="fill:#000000;fill-opacity:1;fill-rule:nonzero;stroke:none"
             id="path3920" /></g><g
           id="g3922"
           transform="translate(391.2915,128.5571)"><path
             d="M 0,0 C 9.652,0 9.668,15 0,15 -9.651,15 -9.667,0 0,0"
             style="fill:#000000;fill-opacity:1;fill-rule:nonzero;stroke:none"
             id="path3924" /></g><g
           id="g3926"
           transform="translate(424.5479,122.1245)"><path
             d="M 0,0 C 9.652,0 9.667,15 0,15 -9.652,15 -9.668,0 0,0"
             style="fill:#000000;fill-opacity:1;fill-rule:nonzero;stroke:none"
             id="path3928" /></g><g
           id="g3930"
           transform="translate(120.7085,128.5571)"><path
             d="M 0,0 C 9.651,0 9.667,15 0,15 -9.652,15 -9.668,0 0,0"
             style="fill:#000000;fill-opacity:1;fill-rule:nonzero;stroke:none"
             id="path3932" /></g><g
           id="g3934"
           transform="translate(87.4521,122.1245)"><path
             d="M 0,0 C 9.652,0 9.668,15 0,15 -9.652,15 -9.667,0 0,0"
             style="fill:#000000;fill-opacity:1;fill-rule:nonzero;stroke:none"
             id="path3936" /></g><g
           id="g3938"
           transform="translate(285.3437,167.9697)"><path
             d="M 0,0 C 9.652,0 9.667,15 0,15 -9.652,15 -9.668,0 0,0"
             style="fill:#000000;fill-opacity:1;fill-rule:nonzero;stroke:none"
             id="path3940" /></g><g
           id="g3942"
           transform="translate(308.9072,13.584)"><path
             d="M 0,0 C -0.116,40.725 -24.177,35.817 -52.907,62.911 -81.629,35.825 -105.686,39.75 -105.814,-0.944"
             style="fill:none;stroke:#000000;stroke-width:15;stroke-linecap:round;stroke-linejoin:round;stroke-miterlimit:10;stroke-dasharray:none;stroke-opacity:1"
             id="path3944" /></g><g
           id="g3946"
           transform="translate(255.832,36.3843)"><path
             d="M 0,0 V -28.827"
             style="fill:none;stroke:#000000;stroke-width:15;stroke-linecap:round;stroke-linejoin:round;stroke-miterlimit:10;stroke-dasharray:none;stroke-opacity:1"
             id="path3948" /></g><g
           id="g3950"
           transform="translate(256.1689,376.4106)"><path
             d="M 0,0 V -26.958"
             style="fill:none;stroke:#000000;stroke-width:15;stroke-linecap:round;stroke-linejoin:round;stroke-miterlimit:10;stroke-dasharray:none;stroke-opacity:1"
             id="path3952" /></g><g
           id="g3954"
           transform="translate(300.0449,420.4551)"><path
             d="m 0,0 c 0,-24.325 -19.72,-44.044 -44.045,-44.044 -24.325,0 -44.045,19.719 -44.045,44.044 0,24.325 44.045,84.045 44.045,84.045 C -44.045,84.045 0,24.325 0,0 Z"
             style="fill:none;stroke:#000000;stroke-width:15;stroke-linecap:round;stroke-linejoin:round;stroke-miterlimit:10;stroke-dasharray:none;stroke-opacity:1"
             id="path3956" /></g><g
           id="g3958"
           transform="translate(277.4678,397.8784)"><path
             d="m 0,0 c 0,-11.856 -9.611,-21.468 -21.468,-21.468 -11.856,0 -21.468,9.612 -21.468,21.468 0,11.856 21.468,40.964 21.468,40.964 C -21.468,40.964 0,11.856 0,0 Z"
             style="fill:none;stroke:#000000;stroke-width:15;stroke-linecap:round;stroke-linejoin:round;stroke-miterlimit:10;stroke-dasharray:none;stroke-opacity:1"
             id="path3960" /></g><g
           id="g3962"
           transform="translate(329.7534,420.0366)"><path
             d="M 0,0 H 35.747"
             style="fill:none;stroke:#000000;stroke-width:15;stroke-linecap:round;stroke-linejoin:round;stroke-miterlimit:10;stroke-dasharray:none;stroke-opacity:1"
             id="path3964" /></g><g
           id="g3966"
           transform="translate(313.811,468.1812)"><path
             d="M 0,0 25.277,25.277"
             style="fill:none;stroke:#000000;stroke-width:15;stroke-linecap:round;stroke-linejoin:round;stroke-miterlimit:10;stroke-dasharray:none;stroke-opacity:1"
             id="path3968" /></g><g
           id="g3970"
           transform="translate(197.522,468.1812)"><path
             d="M 0,0 -25.277,25.277"
             style="fill:none;stroke:#000000;stroke-width:15;stroke-linecap:round;stroke-linejoin:round;stroke-miterlimit:10;stroke-dasharray:none;stroke-opacity:1"
             id="path3972" /></g><g
           id="g3974"
           transform="translate(181.5801,420.0366)"><path
             d="M 0,0 H -35.747"
             style="fill:none;stroke:#000000;stroke-width:15;stroke-linecap:round;stroke-linejoin:round;stroke-miterlimit:10;stroke-dasharray:none;stroke-opacity:1"
             id="path3976" /></g></g></g></g></svg>
