<svg id="Layer_1" enable-background="new 0 0 450 450" height="512" viewBox="0 0 450 450" width="512" xmlns="http://www.w3.org/2000/svg"><g><path d="m10 445c-1.3 0-2.6-.5-3.5-1.5-1.5-1.5-1.9-3.7-1-5.5l92.8-210.9c1.1-2.5 4.1-3.7 6.6-2.6s3.7 4.1 2.6 6.6l-87.7 199.1 199.1-87.6c2.5-1.1 5.5 0 6.6 2.6 1.1 2.5 0 5.5-2.6 6.6l-210.9 92.8c-.6.3-1.3.4-2 .4z"/><g><path d="m339 152.5c-.3 0-.6 0-.9-.1-1.9-.4-3.4-1.7-3.9-3.6l-7.6-27.6-27-9.4c-1.8-.6-3.1-2.2-3.3-4.1s.6-3.7 2.2-4.8l23.9-15.7.6-28.6c0-1.9 1.2-3.6 2.9-4.4s3.8-.6 5.2.6l22.3 17.8 27.3-8.3c1.8-.6 3.8 0 5.1 1.4s1.7 3.4 1 5.2l-10.1 26.7 16.3 23.4c1.1 1.6 1.2 3.6.3 5.3s-2.7 2.7-4.6 2.6l-28.5-1.3-17.2 23c-.9 1.2-2.4 1.9-4 1.9zm-26.5-46.7 19.9 6.9c1.6.5 2.7 1.8 3.2 3.4l5.6 20.3 12.7-16.8c1-1.3 2.6-2.1 4.2-2l21 1-12-17.3c-.9-1.4-1.2-3.1-.6-4.6l7.5-19.7-20.2 6.1c-1.6.5-3.3.1-4.6-.9l-16.5-13.2-.4 21.1c0 1.6-.9 3.2-2.2 4.1z"/><g><g><path d="m209.5 270.4c-1.3 0-2.5-.5-3.5-1.4-2-1.9-2-5.1 0-7.1.9-.9 21.8-21.9 51.1-39.3 39.6-23.5 75.2-28.8 103.1-15.2 2.5 1.2 3.5 4.2 2.3 6.7s-4.2 3.5-6.7 2.3c-60.4-29.5-142 51.7-142.8 52.5-.9 1-2.2 1.5-3.5 1.5z"/><path d="m242.8 303.7c-1.6 0-3.2-.8-4.1-2.2-1.6-2.3-1-5.4 1.3-6.9.7-.5 17.4-11.8 40.7-18.4 31.4-8.8 59.7-4.5 81.9 12.5 2.2 1.7 2.6 4.8.9 7s-4.8 2.6-7 .9c-19.8-15.2-44.3-18.9-72.9-10.9-21.8 6.1-37.8 16.9-38 17.1-.8.6-1.8.9-2.8.9z"/><path d="m267 260.5c-.3 0-.6 0-1-.1-.3-.1-.6-.2-.9-.3s-.6-.3-.9-.5-.5-.4-.8-.6c-.2-.2-.4-.5-.6-.8s-.3-.6-.5-.9c-.1-.3-.2-.6-.3-.9s-.1-.6-.1-1c0-.3 0-.7.1-1s.2-.6.3-.9.3-.6.5-.9.4-.5.6-.8c.2-.2.5-.4.8-.6s.6-.3.9-.5c.3-.1.6-.2.9-.3 1.6-.3 3.4.2 4.5 1.4.2.2.4.5.6.8s.3.6.5.9c.1.3.2.6.3.9s.1.6.1 1c0 .3 0 .6-.1 1-.1.3-.2.6-.3.9s-.3.6-.5.9-.4.5-.6.8c-.9.9-2.2 1.5-3.5 1.5z"/><path d="m315.7 250.8c-.3 0-.7 0-1-.1s-.6-.2-.9-.3-.6-.3-.9-.5-.5-.4-.8-.6c-.2-.2-.4-.5-.6-.8s-.3-.6-.5-.9c-.1-.3-.2-.6-.3-.9s-.1-.6-.1-1c0-.3 0-.6.1-1 .1-.3.2-.6.3-.9s.3-.6.5-.9.4-.5.6-.8c.2-.2.5-.4.8-.6s.6-.3.9-.5l.9-.3c1.6-.3 3.4.2 4.5 1.4.2.2.4.5.6.8s.3.6.5.9c.1.3.2.6.3.9s.1.7.1 1 0 .7-.1 1-.2.6-.3.9-.3.6-.5.9-.4.5-.6.8c-.2.2-.5.4-.8.6s-.6.3-.9.5c-.3.1-.6.2-.9.3s-.6.1-.9.1z"/><path d="m406.1 272.1c-1.8 0-3.5-1-4.4-2.6l-11.3-20.6-20.6-11.3c-1.6-.9-2.6-2.6-2.6-4.4s1-3.5 2.6-4.4l20.6-11.3 11.3-20.6c.9-1.6 2.6-2.6 4.4-2.6s3.5 1 4.4 2.6l11.3 20.6 20.6 11.3c1.6.9 2.6 2.6 2.6 4.4s-1 3.5-2.6 4.4l-20.6 11.3-11.3 20.6c-.9 1.6-2.5 2.6-4.4 2.6zm-23.4-38.9 13.9 7.6c.8.5 1.5 1.1 2 2l7.6 13.9 7.6-13.9c.5-.8 1.1-1.5 2-2l13.9-7.6-13.9-7.6c-.8-.5-1.5-1.1-2-2l-7.6-13.9-7.6 13.9c-.5.8-1.1 1.5-2 2z"/><path d="m378.9 361.9c-1.3 0-2.6-.5-3.5-1.5-1.3-1.3-1.8-3.2-1.3-4.9l6.6-22.5-6.6-22.5c-.5-1.8 0-3.6 1.3-4.9s3.2-1.8 4.9-1.3l22.5 6.6 22.5-6.6c1.8-.5 3.6 0 4.9 1.3s1.8 3.2 1.3 4.9l-6.5 22.5 6.6 22.5c.5 1.8 0 3.6-1.3 4.9s-3.2 1.8-4.9 1.3l-22.5-6.6-22.5 6.6c-.6.1-1 .2-1.5.2zm7.4-45.5 4.4 15.2c.3.9.3 1.9 0 2.8l-4.4 15.2 15.2-4.4c.9-.3 1.9-.3 2.8 0l15.2 4.4-4.4-15.2c-.3-.9-.3-1.9 0-2.8l4.4-15.2-15.2 4.4c-.9.3-1.9.3-2.8 0z"/><g><g><path d="m254.3 402.9c-1.3 0-2.6-.5-3.5-1.5-2-2-2-5.1 0-7.1l5.1-5.1c2-2 5.1-2 7.1 0s2 5.1 0 7.1l-5.1 5.1c-1 1-2.3 1.5-3.6 1.5z"/><path d="m231.3 426c-1.3 0-2.6-.5-3.5-1.5-2-2-2-5.1 0-7.1l5.1-5.1c2-2 5.1-2 7.1 0s2 5.1 0 7.1l-5.1 5.1c-1.1 1-2.3 1.5-3.6 1.5z"/></g><g><path d="m259.4 426c-1.3 0-2.6-.5-3.5-1.5l-5.1-5.1c-2-2-2-5.1 0-7.1s5.1-2 7.1 0l5.1 5.1c2 2 2 5.1 0 7.1-1 1-2.3 1.5-3.6 1.5z"/><path d="m236.4 402.9c-1.3 0-2.6-.5-3.5-1.5l-5.1-5.1c-2-2-2-5.1 0-7.1s5.1-2 7.1 0l5.1 5.1c2 2 2 5.1 0 7.1-1 1-2.3 1.5-3.6 1.5z"/></g></g><g><g><path d="m324.8 336.4h-7.2c-2.8 0-5-2.2-5-5s2.2-5 5-5h7.2c2.8 0 5 2.2 5 5s-2.3 5-5 5z"/><path d="m292.2 336.4h-7.2c-2.8 0-5-2.2-5-5s2.2-5 5-5h7.2c2.8 0 5 2.2 5 5s-2.3 5-5 5z"/></g><g><path d="m304.9 356.4c-2.8 0-5-2.2-5-5v-7.2c0-2.8 2.2-5 5-5s5 2.2 5 5v7.2c0 2.7-2.3 5-5 5z"/><path d="m304.9 323.8c-2.8 0-5-2.2-5-5v-7.2c0-2.8 2.2-5 5-5s5 2.2 5 5v7.2c0 2.7-2.3 5-5 5z"/></g></g><g><g><path d="m362.9 405.8c-1.3 0-2.6-.5-3.5-1.5-2-2-2-5.1 0-7.1l5.1-5.1c2-2 5.1-2 7.1 0s2 5.1 0 7.1l-5.1 5.1c-1 1-2.3 1.5-3.6 1.5z"/><path d="m339.9 428.9c-1.3 0-2.6-.5-3.5-1.5-2-2-2-5.1 0-7.1l5.1-5.1c2-2 5.1-2 7.1 0s2 5.1 0 7.1l-5.1 5.1c-1 1-2.3 1.5-3.6 1.5z"/></g><g><path d="m368.1 428.9c-1.3 0-2.6-.5-3.5-1.5l-5.1-5.1c-2-2-2-5.1 0-7.1s5.1-2 7.1 0l5.1 5.1c2 2 2 5.1 0 7.1-1.1 1-2.4 1.5-3.6 1.5z"/><path d="m345 405.8c-1.3 0-2.6-.5-3.5-1.5l-5.1-5.1c-2-2-2-5.1 0-7.1s5.1-2 7.1 0l5.1 5.1c2 2 2 5.1 0 7.1-1 1-2.3 1.5-3.6 1.5z"/></g></g></g><g><path d="m184.6 245.5c-1.3 0-2.6-.5-3.6-1.5-1.9-2-1.9-5.1 0-7.1.8-.8 82-82.4 52.5-142.8-1.2-2.5-.2-5.5 2.3-6.7s5.5-.2 6.7 2.3c13.6 27.9 8.4 63.6-15.2 103.1-17.3 29.4-38.3 50.3-39.1 51.2-1 1-2.3 1.5-3.6 1.5z"/><path d="m151.3 212.2c-1 0-2-.3-2.8-.9-2.3-1.6-2.8-4.7-1.3-6.9.1-.2 11-16.2 17.1-38 7.9-28.5 4.3-53.1-10.9-72.9-1.7-2.2-1.3-5.3.9-7s5.3-1.3 7 .9c17 22.2 21.3 50.5 12.5 81.9-6.5 23.3-17.9 40-18.4 40.7-.9 1.4-2.5 2.2-4.1 2.2z"/><path d="m194.5 188c-.3 0-.6 0-1-.1-.3-.1-.6-.2-.9-.3s-.6-.3-.9-.5-.5-.4-.8-.6c-.9-.9-1.5-2.2-1.5-3.5 0-.3 0-.7.1-1s.2-.6.3-.9.3-.6.5-.9.4-.5.6-.8.5-.4.8-.6.6-.3.9-.5c.3-.1.6-.2.9-.3.6-.1 1.3-.1 1.9 0 .3.1.6.2.9.3s.6.3.9.5.5.4.8.6.4.5.6.8.3.6.5.9c.1.3.2.6.3.9s.1.6.1 1c0 1.3-.5 2.6-1.5 3.5-.2.2-.5.4-.8.6s-.6.3-.9.5c-.3.1-.6.2-.9.3-.2.1-.5.1-.9.1z"/><path d="m204.2 139.3c-1.3 0-2.6-.5-3.5-1.5-.9-.9-1.5-2.2-1.5-3.5s.5-2.6 1.5-3.5c.2-.2.5-.4.8-.6s.6-.3.9-.4.6-.2.9-.3c.6-.1 1.3-.1 2 0 .3.1.6.2.9.3s.6.3.9.4c.3.2.5.4.8.6.9.9 1.5 2.2 1.5 3.5s-.5 2.6-1.5 3.5c-1.1 1-2.4 1.5-3.7 1.5z"/><path d="m216.8 82.7c-1.8 0-3.5-1-4.4-2.6l-11.3-20.6-20.6-11.3c-1.6-.9-2.6-2.6-2.6-4.4s1-3.5 2.6-4.4l20.6-11.3 11.3-20.6c.9-1.6 2.6-2.6 4.4-2.6 1.8 0 3.5 1 4.4 2.6l11.3 20.6 20.5 11.4c1.6.9 2.6 2.6 2.6 4.4s-1 3.5-2.6 4.4l-20.6 11.3-11.3 20.6c-.8 1.5-2.5 2.5-4.3 2.5zm-23.5-38.8 13.9 7.6c.8.5 1.5 1.1 2 2l7.6 13.9 7.6-13.9c.5-.8 1.1-1.5 2-2l13.9-7.6-13.9-7.6c-.8-.5-1.5-1.1-2-2l-7.6-13.9-7.6 13.9c-.5.8-1.1 1.5-2 2z"/><path d="m93.1 76.1c-1.3 0-2.6-.5-3.5-1.5-1.3-1.3-1.8-3.2-1.3-4.9l6.6-22.5-6.6-22.5c-.5-1.8 0-3.6 1.3-4.9s3.2-1.8 4.9-1.3l22.5 6.5 22.5-6.6c1.8-.5 3.6 0 4.9 1.3s1.8 3.2 1.3 4.9l-6.6 22.5 6.6 22.5c.5 1.8 0 3.6-1.3 4.9s-3.2 1.8-4.9 1.3l-22.5-6.5-22.5 6.6c-.5.1-.9.2-1.4.2zm7.4-45.5 4.4 15.2c.3.9.3 1.9 0 2.8l-4.4 15.2 15.2-4.4c.9-.3 1.9-.3 2.8 0l15.2 4.4-4.4-15.2c-.3-.9-.3-1.9 0-2.8l4.4-15.2-15.3 4.4c-.9.3-1.9.3-2.8 0z"/><g><g><path d="m52.1 200.7c-1.3 0-2.6-.5-3.5-1.5-2-2-2-5.1 0-7.1l5.1-5.1c2-2 5.1-2 7.1 0s2 5.1 0 7.1l-5.1 5.1c-1.1 1-2.3 1.5-3.6 1.5z"/><path d="m29 223.7c-1.3 0-2.6-.5-3.5-1.5-2-2-2-5.1 0-7.1l5.1-5.1c2-2 5.1-2 7.1 0s2 5.1 0 7.1l-5.1 5.1c-1 1-2.3 1.5-3.6 1.5z"/></g><g><path d="m34.2 200.7c-1.3 0-2.6-.5-3.5-1.5l-5.1-5.1c-2-2-2-5.1 0-7.1s5.1-2 7.1 0l5.1 5.1c2 2 2 5.1 0 7.1-1.1 1-2.4 1.5-3.6 1.5z"/><path d="m57.2 223.7c-1.3 0-2.6-.5-3.5-1.5l-5.1-5.1c-2-2-2-5.1 0-7.1s5.1-2 7.1 0l5.1 5.1c2 2 2 5.1 0 7.1-1 1-2.3 1.5-3.6 1.5z"/></g></g><g><g><path d="m118.6 137.5c-2.8 0-5-2.2-5-5v-7.2c0-2.8 2.2-5 5-5s5 2.2 5 5v7.2c0 2.7-2.3 5-5 5z"/><path d="m118.6 170.1c-2.8 0-5-2.2-5-5v-7.2c0-2.8 2.2-5 5-5s5 2.2 5 5v7.2c0 2.7-2.3 5-5 5z"/></g><g><path d="m105.9 150.1h-7.2c-2.8 0-5-2.2-5-5s2.2-5 5-5h7.2c2.8 0 5 2.2 5 5s-2.3 5-5 5z"/><path d="m138.5 150.1h-7.2c-2.8 0-5-2.2-5-5s2.2-5 5-5h7.2c2.8 0 5 2.2 5 5s-2.3 5-5 5z"/></g></g><g><g><path d="m49.2 92.1c-1.3 0-2.6-.5-3.5-1.5-2-2-2-5.1 0-7.1l5.1-5.1c2-2 5.1-2 7.1 0s2 5.1 0 7.1l-5.1 5.1c-1.1 1-2.4 1.5-3.6 1.5z"/><path d="m26.1 115.1c-1.3 0-2.6-.5-3.5-1.5-2-2-2-5.1 0-7.1l5.1-5.1c2-2 5.1-2 7.1 0s2 5.1 0 7.1l-5.1 5.1c-1 1-2.3 1.5-3.6 1.5z"/></g><g><path d="m31.2 92.1c-1.3 0-2.6-.5-3.5-1.5l-5.1-5.1c-2-2-2-5.1 0-7.1s5.1-2 7.1 0l5.1 5.1c2 2 2 5.1 0 7.1-1 1-2.3 1.5-3.6 1.5z"/><path d="m54.3 115.1c-1.3 0-2.6-.5-3.5-1.5l-5.1-5.1c-2-2-2-5.1 0-7.1s5.1-2 7.1 0l5.1 5.1c2 2 2 5.1 0 7.1-1.1 1-2.3 1.5-3.6 1.5z"/></g></g></g></g><path d="m268.9 186.1c-1.3 0-2.6-.5-3.5-1.5-2-2-2-5.1 0-7.1l37.4-37.4c2-2 5.1-2 7.1 0s2 5.1 0 7.1l-37.4 37.4c-1 1-2.3 1.5-3.6 1.5z"/></g><path d="m234.7 361.1c-4.3 0-8.6-1.6-11.9-4.9l-129-129c-6.6-6.6-6.6-17.3 0-23.9s17.3-6.6 23.9 0l128.9 128.9c6.6 6.6 6.6 17.3 0 23.9-3.3 3.4-7.6 5-11.9 5zm-128.9-152.7c-1.8 0-3.5.7-4.9 2-2.7 2.7-2.7 7.1 0 9.7l128.9 128.9c2.7 2.7 7.1 2.7 9.7 0 2.7-2.7 2.7-7.1 0-9.7l-128.9-128.9c-1.3-1.3-3.1-2-4.8-2z"/><g><path d="m86 411.5c-.6 0-1.3-.1-1.9-.4l-51.9-21.5c-2.6-1.1-3.8-4-2.7-6.5 1.1-2.6 4-3.8 6.5-2.7l51.9 21.5c2.6 1.1 3.8 4 2.7 6.5-.7 2-2.6 3.1-4.6 3.1z"/><path d="m137.9 388.7c-.6 0-1.3-.1-1.9-.4l-87.3-36.2c-2.6-1.1-3.8-4-2.7-6.5s4-3.8 6.5-2.7l87.3 36.2c2.6 1.1 3.8 4 2.7 6.5-.7 2-2.6 3.1-4.6 3.1z"/><path d="m189.9 365.9c-.6 0-1.3-.1-1.9-.4l-122.7-50.8c-2.6-1.1-3.8-4-2.7-6.5 1.1-2.6 4-3.8 6.5-2.7l122.7 50.8c2.6 1.1 3.8 4 2.7 6.5-.8 1.9-2.7 3.1-4.6 3.1z"/><path d="m188.3 319.6c-.6 0-1.3-.1-1.9-.4l-104.2-43.1c-2.6-1.1-3.8-4-2.7-6.5s4-3.8 6.5-2.7l104.2 43.1c2.6 1.1 3.8 4 2.7 6.5-.8 2-2.7 3.1-4.6 3.1z"/></g></g></svg>