<svg height="512" viewBox="0 0 512 512" width="512" xmlns="http://www.w3.org/2000/svg"><g id="two_tone" data-name="two tone"><path d="m24 144h272v344h-272z" fill="#ef88ba"/><path d="m136 144h48v344h-48z" fill="#e162a1"/><path d="m158.464 154.738a8.5 8.5 0 0 1 -2.982-.541l-74.782-28.042a95.365 95.365 0 0 1 -23.742-13.006l-4.717-3.538a43.076 43.076 0 1 1 51.695-68.921 95.88 95.88 0 0 1 28.086 33.652l34.047 68.094a8.5 8.5 0 0 1 -7.6 12.3zm-80.399-105.708a26.1 26.1 0 0 0 -15.621 46.981l4.718 3.539a78.323 78.323 0 0 0 19.51 10.687l54.512 20.442-24.367-48.733a78.782 78.782 0 0 0 -23.082-27.656 26.042 26.042 0 0 0 -15.67-5.26z" fill="#e162a1"/><path d="m162.37 154.738a8.5 8.5 0 0 1 -7.605-12.3l34.047-68.094a95.88 95.88 0 0 1 28.088-33.654 43.076 43.076 0 1 1 51.692 68.921l-4.718 3.538a95.356 95.356 0 0 1 -23.741 13.006l-74.781 28.045a8.5 8.5 0 0 1 -2.982.538zm80.4-105.708a26.035 26.035 0 0 0 -15.67 5.26 78.782 78.782 0 0 0 -23.082 27.656l-24.368 48.733 54.513-20.442a78.334 78.334 0 0 0 19.509-10.687l4.719-3.539a26.114 26.114 0 0 0 -15.622-46.981z" fill="#e162a1"/><path d="m112 312h208v176h-208z" fill="#5f86fe"/><path d="m96 280h240v32h-240z" fill="#83a1ff"/><path d="m200 312h32v176h-32z" fill="#3a69ff"/><path d="m225.92 277.24 66.62 22.2a22.379 22.379 0 0 0 28.8-15.81l1.6-6.39 4.39-17.56a22.382 22.382 0 0 0 -5.89-21.26l-3.49-3.49a37.322 37.322 0 0 0 -40.24-8.26l-51.79 20.71z" fill="#5f86fe"/><path d="m206.08 277.24-66.62 22.2a22.379 22.379 0 0 1 -28.8-15.81l-1.6-6.39-4.39-17.56a22.382 22.382 0 0 1 5.89-21.26l3.49-3.49a37.322 37.322 0 0 1 40.24-8.26l51.79 20.71z" fill="#5f86fe"/><path d="m206.08 277.24-66.62 22.2a22.379 22.379 0 0 1 -28.8-15.81l-1.6-6.39a63.13 63.13 0 0 1 47.87-9.77z" fill="#3a69ff"/><path d="m322.94 277.24-1.6 6.39a22.379 22.379 0 0 1 -28.8 15.81l-66.62-22.2 49.15-9.77a63.13 63.13 0 0 1 47.87 9.77z" fill="#3a69ff"/><path d="m200 272h32v40h-32z" fill="#3a69ff"/><rect fill="#3a69ff" height="32" rx="8.89" width="32" x="200" y="244"/><path d="m440 224h-112a16 16 0 0 1 -16-16v-192h128z" fill="#83a1ff"/><path d="m336 32h80v16h-80z" fill="#5b83fe"/><rect fill="#e162a1" height="24" rx="12" width="112" x="386" y="464"/><rect fill="#e162a1" height="24" rx="12" width="112" x="386" y="440"/><rect fill="#e162a1" height="24" rx="12" width="112" x="386" y="416"/><rect fill="#e162a1" height="24" rx="12" width="112" x="386" y="392"/><circle cx="352" cy="432" fill="#f9b2d6" r="56"/><circle cx="352" cy="432" fill="#ef88ba" r="40"/><path d="m488 160h-128v24h16v168l12 16 16-16 12 16 12-16 12 16 12-16 12 16 12-16 15 16 13-16v-176a16 16 0 0 0 -16-16z" fill="#3a69ff"/><path d="m376 176v48h-48a16 16 0 0 0 16-16v-32a16 16 0 0 1 32 0z" fill="#5f86fe"/><g fill="#154dfc"><path d="m141.183 134.68a4 4 0 0 0 3.578-5.789l-24.361-48.734a82.817 82.817 0 0 0 -24.265-29.067 30.076 30.076 0 0 0 -36.091 48.122l4.718 3.538a82.3 82.3 0 0 0 20.506 11.232l54.511 20.443a3.988 3.988 0 0 0 1.404.255zm-53.107-28.188a74.32 74.32 0 0 1 -18.514-10.142l-4.718-3.538a22.076 22.076 0 1 1 26.491-35.322 74.768 74.768 0 0 1 21.9 26.245l19.811 39.622z"/><path d="m179.651 134.68a3.988 3.988 0 0 0 1.4-.255l54.512-20.443a82.336 82.336 0 0 0 20.5-11.232l4.719-3.538a30.076 30.076 0 1 0 -36.082-48.122 82.817 82.817 0 0 0 -24.26 29.067l-24.366 48.734a4 4 0 0 0 3.578 5.789zm27.949-50.945a74.768 74.768 0 0 1 21.9-26.245 22.076 22.076 0 0 1 26.492 35.322l-4.719 3.538a74.32 74.32 0 0 1 -18.514 10.142l-44.974 16.865z"/><path d="m308 484h-72v-168h80v50a4 4 0 0 0 8 0v-50h12a4 4 0 0 0 4-4v-32a4 4 0 0 0 -4-4h-8.629l3.839-15.349a26.512 26.512 0 0 0 -6.941-25.059l-3.491-3.49a41.254 41.254 0 0 0 -20.778-11.237v-76.865a4 4 0 0 0 -4-4h-81.388l26.924-10.095a99.649 99.649 0 0 0 24.734-13.554l4.718-3.539a47.075 47.075 0 1 0 -56.488-75.322 99.935 99.935 0 0 0 -29.268 35.061l-24.813 49.635-24.819-49.636a100.009 100.009 0 0 0 -29.26-35.06 47.078 47.078 0 0 0 -56.5 75.321l4.722 3.541a99.738 99.738 0 0 0 24.738 13.553l26.919 10.095h-82.219a4 4 0 0 0 -4 4v344a4 4 0 0 0 4 4h284a4 4 0 0 0 0-8zm24-200v24h-96v-23.187l55.273 18.421a26.377 26.377 0 0 0 33.947-18.634l.15-.6zm-232 24v-24h6.63l.149.6a26.4 26.4 0 0 0 33.946 18.636l55.275-18.423v23.187zm8.55-49.292a18.472 18.472 0 0 1 4.839-17.46l3.489-3.49a33.282 33.282 0 0 1 35.927-7.374l44.742 17.889a12.808 12.808 0 0 0 -1.547 6.117v16.72.053l-38.294-7.617a67.583 67.583 0 0 0 -46.092 7.423zm119.45-4.318v16.72a4.895 4.895 0 0 1 -4.89 4.89h-14.22a4.895 4.895 0 0 1 -4.89-4.89v-16.72a4.895 4.895 0 0 1 4.89-4.89h14.22a4.895 4.895 0 0 1 4.89 4.89zm-37.521 23.83-52.286 17.426a18.378 18.378 0 0 1 -23.652-12.987l-.9-3.613a59.523 59.523 0 0 1 42.513-7.653zm13.521 4.811a12.819 12.819 0 0 0 4.89.969h14.22a12.819 12.819 0 0 0 4.89-.969v24.969h-24zm37.521-4.811 34.328-6.826a59.493 59.493 0 0 1 42.514 7.652l-.9 3.615a18.38 18.38 0 0 1 -23.654 12.985zm77.09-36.972a18.473 18.473 0 0 1 4.839 17.461l-3.067 12.26a67.563 67.563 0 0 0 -46.093-7.422l-38.29 7.616c0-.018 0-.035 0-.053v-16.72a12.808 12.808 0 0 0 -1.547-6.117l44.747-17.889a33.287 33.287 0 0 1 35.927 7.374zm-26.611-21.248a41.292 41.292 0 0 0 -15.775 2.953l-48.526 19.4a12.815 12.815 0 0 0 -4.589-.859h-14.22a12.815 12.815 0 0 0 -4.589.859l-16.301-6.512v-87.841h104zm-209.893-97.584a91.771 91.771 0 0 1 -22.747-12.466l-4.72-3.54a39.078 39.078 0 1 1 46.9-62.52 91.95 91.95 0 0 1 26.9 32.239l28.4 56.79a4 4 0 0 0 7.156 0l28.391-56.789a91.888 91.888 0 0 1 26.913-32.239 39.075 39.075 0 1 1 46.89 62.519l-4.718 3.539a91.673 91.673 0 0 1 -22.746 12.466l-46.901 17.585h-7.825a4 4 0 0 0 -4 4v88.642l-24.225-9.686a41.315 41.315 0 0 0 -15.775-2.956v-76a4 4 0 0 0 -4-4h-7zm-54.107 25.584h104v72.865a41.269 41.269 0 0 0 -20.779 11.235l-3.49 3.49a26.511 26.511 0 0 0 -6.941 25.058l3.839 15.352h-8.629a4 4 0 0 0 -4 4v32a4 4 0 0 0 4 4h12v168h-80zm88 168h80v168h-80zm88 168v-168h24v168z"/><path d="m488 156h-44v-140a4 4 0 0 0 -4-4h-128a4 4 0 0 0 -4 4v192a20.023 20.023 0 0 0 20 20h44v124a4 4 0 0 0 .8 2.4l12 16a4 4 0 0 0 6.029.428l12.738-12.738 9.233 12.31a4 4 0 0 0 6.4 0l8.8-11.733 8.8 11.733a4 4 0 0 0 6.4 0l8.8-11.733 8.8 11.733a4 4 0 0 0 6.4 0l9.141-12.188 11.741 12.523a4 4 0 0 0 2.918 1.265h.142a3.993 3.993 0 0 0 2.962-1.475l13-16a3.993 3.993 0 0 0 .896-2.525v-176a20.023 20.023 0 0 0 -20-20zm-172 52v-188h120v136h-76a20.023 20.023 0 0 0 -20 20v32a12 12 0 0 1 -24 0zm27.962 12a19.869 19.869 0 0 0 4.038-12v-32a12 12 0 0 1 24 0v44zm156.038 130.58-9.215 11.342-11.867-12.657a4 4 0 0 0 -2.918-1.265q-.109 0-.219.006a4 4 0 0 0 -2.981 1.594l-8.8 11.733-8.8-11.733a4 4 0 0 0 -6.4 0l-8.8 11.733-8.8-11.733a4 4 0 0 0 -6.4 0l-8.8 11.733-8.8-11.733a4 4 0 0 0 -6.029-.428l-12.738 12.738-8.433-11.243v-174.667a19.9 19.9 0 0 0 -4.009-12h112.009a12.013 12.013 0 0 1 12 12z"/><path d="m392 180h48a4 4 0 0 0 0-8h-48a4 4 0 0 0 0 8z"/><path d="m392 196h59a4 4 0 0 0 0-8h-59a4 4 0 0 0 0 8z"/><path d="m336 52h80a4 4 0 0 0 4-4v-16a4 4 0 0 0 -4-4h-80a4 4 0 0 0 -4 4v16a4 4 0 0 0 4 4zm4-16h72v8h-72z"/><path d="m328 76h48a4 4 0 0 0 0-8h-48a4 4 0 0 0 0 8z"/><path d="m328 92h32a4 4 0 0 0 0-8h-32a4 4 0 0 0 0 8z"/><path d="m328 108h32a4 4 0 0 0 0-8h-32a4 4 0 0 0 0 8z"/><path d="m396 72a4 4 0 0 0 4 4h24a4 4 0 0 0 0-8h-24a4 4 0 0 0 -4 4z"/><path d="m424 84h-24a4 4 0 0 0 0 8h24a4 4 0 0 0 0-8z"/><path d="m424 100h-24a4 4 0 0 0 0 8h24a4 4 0 0 0 0-8z"/><path d="m424 124h-24a4 4 0 0 0 0 8h24a4 4 0 0 0 0-8z"/><path d="m424 140h-24a4 4 0 0 0 0 8h24a4 4 0 0 0 0-8z"/><path d="m328 132h48a4 4 0 0 0 0-8h-48a4 4 0 0 0 0 8z"/><path d="m356 144a4 4 0 0 0 -4-4h-24a4 4 0 0 0 0 8h24a4 4 0 0 0 4-4z"/><path d="m488 172h-24a4 4 0 0 0 0 8h24a4 4 0 0 0 0-8z"/><path d="m488 188h-24a4 4 0 0 0 0 8h24a4 4 0 0 0 0-8z"/><path d="m488 212h-24a4 4 0 0 0 0 8h24a4 4 0 0 0 0-8z"/><path d="m488 228h-24a4 4 0 0 0 0 8h24a4 4 0 0 0 0-8z"/><path d="m488 244h-24a4 4 0 0 0 0 8h24a4 4 0 0 0 0-8z"/><path d="m392 220h56a4 4 0 0 0 0-8h-56a4 4 0 0 0 0 8z"/><path d="m392 236h24a4 4 0 0 0 0-8h-24a4 4 0 0 0 0 8z"/><path d="m436 248a4 4 0 0 0 -4-4h-40a4 4 0 0 0 0 8h40a4 4 0 0 0 4-4z"/><path d="m464 268h-48a4 4 0 0 0 0 8h48a4 4 0 0 0 0-8z"/><path d="m464 284h-48a4 4 0 0 0 0 8h48a4 4 0 0 0 0-8z"/><path d="m352 388a44 44 0 1 0 44 44 44.049 44.049 0 0 0 -44-44zm0 80a36 36 0 1 1 36-36 36.04 36.04 0 0 1 -36 36z"/><path d="m356 408.59v-4.59a4 4 0 0 0 -8 0v4.59a14.02 14.02 0 0 0 -10 13.41 12.8 12.8 0 0 0 8.085 11.942l8.858 3.543a4.842 4.842 0 0 1 3.057 4.515 6 6 0 0 1 -12 0v-2a4 4 0 0 0 -4-4 4 4 0 0 0 -4 4v2.006a14.019 14.019 0 0 0 10 13.4v4.594a4 4 0 0 0 8 0v-4.589a14.02 14.02 0 0 0 10-13.411 12.8 12.8 0 0 0 -8.086-11.943l-8.858-3.543a4.84 4.84 0 0 1 -3.056-4.514 6 6 0 0 1 12 0v.558a4 4 0 0 0 8 0v-.558a14.02 14.02 0 0 0 -10-13.41z"/><path d="m502 404a16.019 16.019 0 0 0 -16-16h-88a16.091 16.091 0 0 0 -4.566.667 59.993 59.993 0 1 0 -9.838 94.309 15.935 15.935 0 0 0 14.404 9.024h88a15.993 15.993 0 0 0 10.572-28 15.979 15.979 0 0 0 0-24 15.979 15.979 0 0 0 0-24 15.969 15.969 0 0 0 5.428-12zm-202 28a52 52 0 1 1 52 52 52.059 52.059 0 0 1 -52-52zm186 52h-88a7.963 7.963 0 0 1 -7.7-5.852 60.524 60.524 0 0 0 9.7-10.19v.042h86a8 8 0 0 1 0 16zm0-24h-80.957a59.547 59.547 0 0 0 5.75-16h75.207a8 8 0 0 1 0 16zm0-24h-74.148c.087-1.324.148-2.655.148-4a60.075 60.075 0 0 0 -1.207-12h75.207a8 8 0 0 1 0 16zm0-24h-77.44a59.932 59.932 0 0 0 -8.593-16h86.033a8 8 0 0 1 0 16z"/></g></g></svg>