<svg clip-rule="evenodd" fill-rule="evenodd" stroke-linejoin="round" stroke-miterlimit="2" viewBox="0 0 134 134" xmlns="http://www.w3.org/2000/svg" xmlns:serif="http://www.serif.com/"><path d="m21.707 59.91-14.847 14.846c-.596.596-.774 1.492-.451 2.271.322.778 1.082 1.286 1.924 1.286h14.584v39.583c0 1.151.932 2.083 2.083 2.083h83.333c1.151 0 2.084-.932 2.084-2.083v-39.583h14.583c.843 0 1.602-.508 1.925-1.286.322-.779.144-1.675-.452-2.271l-16.588-16.588 15.113-12.479c2.444-2.018 2.79-5.635.772-8.079l-14.463-17.514c-2.018-2.444-5.635-2.79-8.079-.772l-14.39 11.883v-12.19c0-1.499-.595-2.936-1.655-3.996-1.06-1.059-2.497-1.655-3.996-1.655h-25.395c-1.499 0-2.936.596-3.996 1.655-1.059 1.06-1.655 2.497-1.655 3.996v20.214l-13.31-23.054c-.761-1.318-2.014-2.28-3.484-2.674-1.471-.394-3.037-.187-4.355.574-5.421 3.129-16.419 9.479-21.84 12.609-1.318.761-2.28 2.014-2.674 3.485-.394 1.47-.188 3.036.573 4.354zm84.543 1.26-16.13 13.319c-2.17 1.792-5.265 1.721-7.344-.029h-24.984c-1.499 0-2.936-.595-3.996-1.655-.281-.282-.53-.59-.744-.92l-13.353 7.71c-1.318.761-2.885.967-4.355.573s-2.724-1.355-3.485-2.674l-4.776-8.272v20.353 9.571h4.167c1.15 0 2.083.934 2.083 2.083 0 1.15-.933 2.084-2.083 2.084h-4.167v12.5h79.167v-12.5h-4.167c-1.15 0-2.083-.934-2.083-2.084 0-1.149.933-2.083 2.083-2.083h4.167v-37.976zm-66.667 42.143h4.167c1.15 0 2.083-.934 2.083-2.084 0-1.149-.933-2.083-2.083-2.083h-4.167c-1.15 0-2.083.934-2.083 2.083 0 1.15.933 2.084 2.083 2.084zm12.5 0h4.167c1.15 0 2.083-.934 2.083-2.084 0-1.149-.933-2.083-2.083-2.083h-4.167c-1.15 0-2.083.934-2.083 2.083 0 1.15.933 2.084 2.083 2.084zm25 0h4.167c1.15 0 2.083-.934 2.083-2.084 0-1.149-.933-2.083-2.083-2.083h-4.167c-1.15 0-2.083.934-2.083 2.083 0 1.15.933 2.084 2.083 2.084zm-12.5 0h4.167c1.15 0 2.083-.934 2.083-2.084 0-1.149-.933-2.083-2.083-2.083h-4.167c-1.15 0-2.083.934-2.083 2.083 0 1.15.933 2.084 2.083 2.084zm25 0h4.167c1.15 0 2.083-.934 2.083-2.084 0-1.149-.933-2.083-2.083-2.083h-4.167c-1.15 0-2.083.934-2.083 2.083 0 1.15.933 2.084 2.083 2.084zm-54.36-85.053 24.808 42.969c.208.362.265.791.157 1.193-.108.403-.371.747-.732.955l-21.841 12.61c-.361.208-.79.264-1.193.157-.402-.108-.746-.372-.954-.733l-24.808-42.969c-.209-.361-.265-.79-.158-1.193.108-.403.372-.746.733-.954l21.84-12.61c.361-.208.79-.265 1.193-.157s.746.371.955.732zm75.194 46.332v9.554h9.553zm-97.054 9.554h9.554v-9.554zm108.982-31.67-34.878 28.8c-.669.553-1.66.458-2.213-.211 0 0-14.462-17.515-14.462-17.515-.553-.669-.458-1.66.211-2.213l34.878-28.8c.67-.552 1.661-.458 2.213.211.001.001 14.463 17.515 14.463 17.515.553.67.458 1.661-.212 2.213zm-37.674-7.828v-15.631c0-.394-.156-.771-.434-1.049-.279-.279-.656-.435-1.05-.435h-25.395c-.394 0-.771.156-1.049.435-.279.278-.435.655-.435 1.049v27.431l7.331 12.698c.761 1.318.968 2.885.574 4.355s-1.356 2.723-2.674 3.484l-4.86 2.806c.021.023.042.046.064.068.278.278.655.435 1.049.435h21.421l-11.634-14.091c-2.018-2.444-1.673-6.061.771-8.079l2.577-2.127h-5.444c-2.877 0-5.209-2.333-5.209-5.21 0-3.823 0-10.256 0-14.079 0-2.877 2.332-5.209 5.209-5.209h10.013c2.877 0 5.21 2.332 5.209 5.209v11.214zm-31.915 21.913-6.962-12.059c-1.46-2.529-4.693-3.395-7.222-1.935-2.47 1.426-6.066 3.503-8.537 4.929-2.529 1.46-3.395 4.693-1.935 7.222l6.962 12.059c1.46 2.528 4.693 3.395 7.222 1.935 2.47-1.427 6.067-3.503 8.537-4.929 2.529-1.46 3.395-4.693 1.935-7.222zm38.024 7.649 9.53-7.869c1.081-.893 1.763-2.179 1.897-3.574.133-1.396-.294-2.788-1.187-3.869-1.616-1.957-3.863-4.678-5.479-6.636-.893-1.081-2.178-1.763-3.574-1.896s-2.787.293-3.869 1.186l-9.529 7.869c-1.082.893-1.764 2.178-1.897 3.574s.293 2.787 1.186 3.869c1.616 1.957 3.863 4.678 5.479 6.635.893 1.081 2.179 1.764 3.575 1.897 1.395.133 2.787-.293 3.868-1.186zm-48.594-17.625 6.962 12.059c.309.536.126 1.221-.41 1.53l-8.538 4.929c-.535.31-1.22.126-1.529-.409-.001-.001-6.963-12.06-6.963-12.06-.309-.535-.125-1.22.41-1.529l8.538-4.93c.535-.309 1.22-.125 1.53.41zm55.471 6.543-9.53 7.869c-.229.189-.524.279-.819.251-.296-.028-.569-.173-.758-.402l-5.479-6.635c-.189-.229-.279-.524-.251-.82s.172-.568.401-.757c.001 0 9.53-7.869 9.53-7.869.23-.189.524-.28.82-.251.296.028.568.172.757.401l5.479 6.636c.19.229.28.524.252.82-.029.295-.173.568-.402.757zm16.94-13.988-8.682 7.169c-.887.732-1.012 2.046-.28 2.933s2.046 1.012 2.933.28l8.682-7.169c.887-.732 1.012-2.046.28-2.933-.732-.886-2.046-1.012-2.933-.28zm-98.264-4.804 6.099 10.565c.575.995 1.85 1.337 2.846.762s1.337-1.85.762-2.846l-6.099-10.564c-.575-.996-1.85-1.337-2.846-.763-.996.575-1.337 1.851-.762 2.846zm93.485-.984-8.682 7.169c-.887.732-1.012 2.046-.28 2.933s2.046 1.012 2.933.28l8.682-7.169c.886-.732 1.012-2.046.28-2.933-.732-.886-2.047-1.012-2.933-.28zm-86.442-3.082 6.099 10.564c.575.996 1.85 1.338 2.846.763s1.337-1.85.762-2.846l-6.099-10.564c-.575-.996-1.85-1.338-2.846-.763s-1.337 1.85-.762 2.846zm53.163 10.517v-14.079c0-.576-.467-1.042-1.043-1.043h-10.013c-.576.001-1.042.467-1.042 1.043v14.079c0 .576.466 1.043 1.042 1.043h10.013c.576 0 1.043-.467 1.043-1.043zm28.499-13.223-8.682 7.169c-.886.732-1.012 2.046-.279 2.933.732.887 2.046 1.012 2.932.28l8.682-7.169c.887-.732 1.013-2.046.28-2.933-.732-.886-2.046-1.012-2.933-.28zm-74.62-1.36 6.1 10.564c.575.996 1.85 1.338 2.846.763.995-.575 1.337-1.85.762-2.846l-6.099-10.564c-.575-.996-1.85-1.338-2.846-.763s-1.338 1.85-.763 2.846z"/></svg>