<svg enable-background="new 0 0 512 512" height="512" viewBox="0 0 512 512" width="512" xmlns="http://www.w3.org/2000/svg"><g id="Layer_3"><g><g><path d="m379.4 469.5c-6.5.2-10.1-8.5-5.2-12.9 22.8-22.7 41-53.1 51.1-85.6 7.9-23.5 9.5-49.2 8.8-73.9-1.6-9.2 13-12 14.8-2.7 1.4 27.1-.7 55.1-9.2 81-12.4 34.9-30.6 74.5-60.3 94.1z"/></g><g><path d="m286.3 512h-63c-91.3-.6-160.6-105.8-160.5-193.6 0-1-.2-23.9.2-24 1.8-9.3 16.3-6.6 14.8 2.7.1 7.1-.2 24.4.3 31.2.1 2 .4 4.8.5 6.6 7.6 74.5 67.1 161.4 144.7 162.2h63c39.7 2.2 65.5-29.6 72.2-17.1 9.4 18.4-61.4 34.2-72.2 32z"/></g><g><path d="m162.7 409.5c-33.6-8.1-68.4-14.7-90.9-33.6-4.4-12.3-7.4-34.8-8.7-47.1 0-.3-.3-31.8-.3-31.8-.3-5.1 4.1-9.4 9.1-8.3 3.9.8 6.4 4.5 5.9 8.4.2 24.4.3 29.9.3 31.2 1.5 11.7 3.5 29.4 7.1 40.1 22.6 11.3 49.2 20.1 79 26.2 8.7 1.6 7.3 15.1-1.5 14.9z"/></g><g><path d="m273 418.7c-9.6.2-9.8-14.9-.2-15 12.8-.4 25.6-1.2 38.1-2.6 9.7-1.2 11.3 14 1.6 14.9-12.9 1.4-26.2 2.3-39.5 2.7z"/></g><g><path d="m350 410.3c-8.8.2-10.2-13.4-1.4-14.9 28.5-5.6 54.3-13.6 76.6-23.9 5.7-18 8.9-36.6 9-55.5v-19c-1.3-11 15.6-11.4 15-.2.9 27.7-1.5 56.2-10.7 82.5-21.7 17.7-56.8 23.6-88.5 31z"/></g><g><path d="m238.8 418.5c-13.1-.5-26.2-1.5-39.1-3-4.1-.5-7.1-4.2-6.6-8.3s4.2-7.1 8.3-6.6c12.4 1.5 25 2.4 37.6 2.9 9.7.2 9.4 15.2-.2 15z"/></g><g><path d="m256 363.4c-64.9-2.3-181.1-8.1-193.2-69.2 3.9-46.1 91.8-62.1 144.2-67.1 9.7-1 11 14.2 1.3 14.9-251 33.8-84.4 112.4 47.6 106.3 132 6 298.6-72.5 47.6-106.3-9.7-.7-8.3-16 1.3-14.9 52.3 4.8 140.5 21 144.2 67.1-11.9 61.2-128.1 66.8-193 69.2z"/></g><g><path d="m256 328.7c-30.1.2-144.2-6.9-145.4-34.5.7-15.7 23-16.7 36.4-21.9 6.6-1.1 87.8-21.9 86.1-4.7.2 4.1-2.9 7.7-7 7.9-37.1 2.5-67.4 7-97.8 18.6 73.7 26.5 181.8 26.5 255.4 0-30.5-11.7-60.8-16.1-97.8-18.6-9.7-.4-8.9-15.7.9-15 23.8 1.7 115.6 10 114.7 33.6-1.2 27.6-115.2 34.8-145.5 34.6z"/></g><g><path d="m256 307.2c-23.4-9.3-59.2-52.3-64.6-114.6-1.5-41.7 16.9-83 54.8-122.6 24.5-23.6 69.6 72.4 70.4 84.8 1 4-1.4 8.1-5.4 9.1s-8.1-1.4-9.1-5.4c-6.6-25.9-22.1-51.9-46-77.2-72.9 68.9-55.7 163.7 0 210.3 12.4-11.5 48.3-49.2 49.7-100.7.1-4.1 3.6-7.4 7.7-7.3s7.4 3.6 7.3 7.7c-5.1 63.2-41.2 106.4-64.8 115.9z"/></g><g><path d="m256 266.1c-17.9-8.9-33.3-46.5-34.7-75.4-1.4-19.5 11.5-69.5 34.9-82.1 24.5 16.5 35.5 61.1 34.4 83.8-2 28.7-16.9 64.9-34.6 73.7zm0-136.9c-27 37.1-24.3 84.6 0 116.8 24.3-32.2 27-79.7 0-116.8z"/></g><g><path d="m256 45.2c-4.1 0-7.5-3.4-7.5-7.5v-30.2c0-4.1 3.4-7.5 7.5-7.5s7.5 3.4 7.5 7.5v30.2c0 4.2-3.4 7.5-7.5 7.5z"/></g><g><path d="m222.7 54.1c-7.2 1.5-18-26-21.6-29.9-5-8.3 8.2-16 13-7.5 0 0 15.1 26.2 15.1 26.2 2.9 4.8-.9 11.4-6.5 11.2z"/></g><g><path d="m198.2 78.6c-1.9 1.2-27.8-15.3-29.9-16.1-3.6-2.1-4.8-6.7-2.7-10.2 2.1-3.6 6.7-4.8 10.2-2.7l26.2 15c6.6 3.5 3.6 14.2-3.8 14z"/></g><g><path d="m189.3 111.9h-30.2c-9.7.1-9.7-15.1 0-15h30.2c9.7-.2 9.8 15.1 0 15z"/></g><g><path d="m352.9 111.9h-30.2c-9.7.1-9.7-15.1 0-15h30.2c9.7-.2 9.7 15.1 0 15z"/></g><g><path d="m313.8 78.6c-7.4.3-10.4-10.5-3.8-14 0 0 26.2-15.1 26.2-15.1 8.3-5 16 8.2 7.5 13-2.3.8-28 17.2-29.9 16.1z"/></g><g><path d="m289.3 54.1c-5.6.1-9.4-6.4-6.5-11.3 0 0 15.1-26.2 15.1-26.2 4.7-8.5 18-.9 13 7.5-3.6 4.2-14.2 31.4-21.6 30z"/></g><g><path d="m256 433.5c-8 1.1-18.5-14.3-23.8-18.5-5-5-5-13.2 0-18.2 5.4-4.2 15.8-19.5 23.8-18.5 8-1 18.4 14.3 23.8 18.5 5 5 5 13.2 0 18.2-5.4 4.3-15.8 19.5-23.8 18.5zm-11.6-27.6 11.6 11.7 11.6-11.7-11.6-11.7z"/></g><g><path d="m181 433.5c-8 1.1-18.5-14.3-23.8-18.5-5-5-5-13.2 0-18.2 5.4-4.2 15.8-19.5 23.8-18.5 8-1 18.4 14.3 23.8 18.5 5 5 5 13.2 0 18.2-5.4 4.3-15.8 19.5-23.8 18.5zm-11.6-27.6 11.6 11.7 11.6-11.7-11.6-11.7z"/></g><g><path d="m331 433.5c-8 1.1-18.5-14.3-23.8-18.5-5-5-5-13.2 0-18.2 5.4-4.2 15.8-19.5 23.8-18.5 8-1 18.4 14.3 23.8 18.5 5 5 5 13.2 0 18.2-5.4 4.3-15.8 19.5-23.8 18.5zm-11.6-27.6 11.6 11.7 11.6-11.7-11.6-11.7z"/></g></g><g><g><path d="m193.6 471.8c-4.1 0-7.5-3.4-7.5-7.5v-12c0-4.1 3.4-7.5 7.5-7.5s7.5 3.4 7.5 7.5v12c0 4.2-3.4 7.5-7.5 7.5z"/></g><g><path d="m318.4 471.8c-4.1 0-7.5-3.4-7.5-7.5v-12c0-4.1 3.4-7.5 7.5-7.5s7.5 3.4 7.5 7.5v12c0 4.2-3.3 7.5-7.5 7.5z"/></g><g><path d="m256 479c-8.5 0-16.5-3.7-22.1-10.1-2.7-3.1-2.4-7.9.7-10.6s7.9-2.4 10.6.7 6.7 4.9 10.8 4.9 8.1-1.8 10.8-4.9 7.5-3.4 10.6-.7 3.4 7.5.7 10.6c-5.6 6.4-13.6 10.1-22.1 10.1z"/></g></g></g></svg>