<?xml version="1.0"?>
<svg xmlns="http://www.w3.org/2000/svg" id="Layer_1" data-name="Layer 1" viewBox="0 0 64 64"><path d="M4.779,20.359a3.8,3.8,0,0,0,3.8,3.8H9.5l4.712,34.419A3.972,3.972,0,0,0,18.134,62H37.825a3.977,3.977,0,0,0,3.93-3.424l1.972-14.384a9.786,9.786,0,0,0,2.79,1.376v11.56L42.04,60.173A1,1,0,0,0,42.6,62H56.177a1,1,0,0,0,.562-1.827l-4.484-3.046V45.569a9.851,9.851,0,0,0,6.966-9.405V27.709a1,1,0,0,0-1-1H46.12l.348-2.553h.918a3.8,3.8,0,0,0,0-7.594H31.125v-4.9a3.374,3.374,0,0,1,4.955-2.98l11.6,6.12a3.138,3.138,0,1,0,2.942-5.544L39.017,3.13a9.653,9.653,0,0,0-14.174,8.537v4.9H8.576A3.8,3.8,0,0,0,4.779,20.359ZM12.554,31.71H31.665V49.74H15.023ZM45.85,60l1.974-1.343h3.123L52.925,60Zm4.405-3.343H48.517v-10.7c.287.025.576.044.87.044s.581-.019.868-.044Zm6.966-20.493A7.842,7.842,0,0,1,49.387,44h0a7.842,7.842,0,0,1-7.834-7.834V28.709H57.221ZM40.553,26.709a1,1,0,0,0-1,1v8.455a9.781,9.781,0,0,0,2.38,6.4L39.774,58.305A1.972,1.972,0,0,1,37.825,60H18.134a1.966,1.966,0,0,1-1.939-1.7l-.9-6.565H32.665a1,1,0,0,0,1-1V30.71a1,1,0,0,0-1-1H12.28l-.76-5.55H44.449L44.1,26.709Zm8.63-6.35a1.8,1.8,0,0,1-1.8,1.8H8.576a1.8,1.8,0,1,1,0-3.594H25.831l.012,0,.012,0h4.257l.013,0,.012,0H47.386A1.8,1.8,0,0,1,49.183,20.359Zm-22.34-8.692A7.653,7.653,0,0,1,38.081,4.9l11.6,6.134a1.136,1.136,0,0,1,.471,1.536,1.139,1.139,0,0,1-.678.56,1.115,1.115,0,0,1-.862-.087l-11.6-6.122a5.375,5.375,0,0,0-7.891,4.748v4.9H26.843Z"/></svg>
