<svg id="Layer_1" enable-background="new 0 0 512 512" viewBox="0 0 512 512" xmlns="http://www.w3.org/2000/svg"><path d="m157.288 218.637h-125.309c-10.072 0-18.268 8.737-18.268 19.478v242.095c0 10.739 8.195 19.477 18.268 19.477h125.31c10.073 0 18.269-8.737 18.269-19.477v-242.095c-.001-10.74-8.197-19.478-18.27-19.478zm-32.027 16-3.265 9.868h-54.725l-3.265-9.868zm34.296 245.573c0 1.958-1.22 3.477-2.269 3.477h-125.309c-1.049 0-2.268-1.519-2.268-3.477v-242.095c0-1.959 1.219-3.478 2.268-3.478h15.176l6.742 20.381c1.083 3.275 4.145 5.487 7.595 5.487h66.285c3.45 0 6.512-2.212 7.595-5.487l6.742-20.381h15.175c1.049 0 2.269 1.519 2.269 3.478v242.095zm-46.412-14.974c0 4.418-3.582 8-8 8h-21.022c-4.418 0-8-3.582-8-8s3.582-8 8-8h21.021c4.418 0 8.001 3.582 8.001 8zm108.004-320.286v-24.548c0-11.853-9.166-21.599-20.78-22.539-13.604-41.033-47.372-68.161-85.795-68.161-38.422 0-72.189 27.128-85.794 68.161-11.615.94-20.78 10.686-20.78 22.539v24.548c0 12.473 10.147 22.62 22.62 22.62s22.619-10.147 22.619-22.62v-24.548c0-7.398-3.57-13.977-9.078-18.107 11.548-34.103 39.188-56.593 70.413-56.593 31.226 0 58.865 22.49 70.414 56.593-5.507 4.13-9.078 10.709-9.078 18.107v24.548c0 12.473 10.146 22.62 22.619 22.62s22.62-10.148 22.62-22.62zm-183.91 0c0 3.65-2.97 6.62-6.62 6.62-3.649 0-6.619-2.97-6.619-6.62v-24.548c0-3.65 2.97-6.62 6.619-6.62h.001c3.649 0 6.619 2.97 6.619 6.62zm154.671 0v-24.548c0-3.65 2.97-6.62 6.619-6.62 3.65 0 6.62 2.97 6.62 6.62v24.548c0 3.65-2.97 6.62-6.62 6.62-3.649 0-6.619-2.97-6.619-6.62zm237.754 207.943h-167.892c-40.988 0-74.335 33.347-74.335 74.335 0 40.989 33.347 74.336 74.336 74.336 25.65 0 49.326-13.179 62.897-34.698h42.096c13.571 21.52 37.247 34.698 62.897 34.698 40.989 0 74.336-33.347 74.336-74.336.001-40.988-33.346-74.335-74.335-74.335zm0 132.671c-21.403 0-41.057-11.694-51.291-30.52-1.4-2.575-4.097-4.179-7.028-4.179h-51.252c-2.932 0-5.628 1.604-7.028 4.179-10.234 18.825-29.888 30.52-51.291 30.52-32.167 0-58.336-26.169-58.336-58.336 0-32.166 26.169-58.335 58.335-58.335h167.892c32.167 0 58.336 26.169 58.336 58.335-.001 32.167-26.17 58.336-58.337 58.336zm-123.644-58.432c0 5.855-4.747 10.601-10.602 10.601-5.854 0-10.601-4.746-10.601-10.601s4.747-10.602 10.601-10.602c5.855 0 10.602 4.747 10.602 10.602zm-33.646 33.645c0 5.855-4.746 10.601-10.601 10.601-5.854 0-10.601-4.747-10.601-10.601s4.747-10.601 10.601-10.601c5.855 0 10.601 4.746 10.601 10.601zm-33.645-33.645c0 5.855-4.747 10.601-10.601 10.601-5.855 0-10.601-4.746-10.601-10.601s4.746-10.602 10.601-10.602c5.854 0 10.601 4.747 10.601 10.602zm33.645-33.645c0 5.854-4.746 10.601-10.601 10.601-5.854 0-10.601-4.747-10.601-10.601 0-5.855 4.747-10.601 10.601-10.601 5.855-.001 10.601 4.746 10.601 10.601zm201.537 33.645c0 5.855-4.747 10.601-10.602 10.601-5.854 0-10.601-4.747-10.601-10.601s4.747-10.601 10.601-10.601c5.855 0 10.602 4.746 10.602 10.601zm-33.646 33.645c0 5.854-4.746 10.601-10.601 10.601s-10.601-4.747-10.601-10.601 4.746-10.601 10.601-10.601 10.601 4.747 10.601 10.601zm-33.645-33.645c0 5.855-4.747 10.601-10.601 10.601-5.855 0-10.602-4.747-10.602-10.601s4.747-10.601 10.602-10.601 10.601 4.746 10.601 10.601zm33.645-33.645c0 5.854-4.746 10.601-10.601 10.601s-10.601-4.747-10.601-10.601c0-5.855 4.746-10.601 10.601-10.601s10.601 4.746 10.601 10.601zm-74.516 23.645c0 4.418-3.582 8-8 8h-24.062c-4.418 0-8-3.582-8-8s3.582-8 8-8h24.062c4.418 0 8 3.582 8 8zm10.219-26.466c0 4.418-3.582 8-8 8h-44.499c-4.418 0-8-3.582-8-8s3.582-8 8-8h44.499c4.418 0 8 3.582 8 8zm-64.086-262.67c0-22.549 18.345-40.894 40.894-40.894 4.418 0 8 3.582 8 8s-3.582 8-8 8c-13.727 0-24.894 11.167-24.894 24.894s11.167 24.894 24.894 24.894c4.418 0 8 3.582 8 8s-3.582 8-8 8c-22.549-.001-40.894-18.346-40.894-40.894zm40.893 60.95c33.607 0 60.949-27.342 60.949-60.949s-27.342-60.948-60.949-60.948-60.948 27.341-60.948 60.948 27.341 60.949 60.948 60.949zm0-105.898c24.785 0 44.949 20.164 44.949 44.948 0 24.785-20.164 44.949-44.949 44.949-24.784 0-44.948-20.164-44.948-44.949 0-24.784 20.164-44.948 44.948-44.948zm-107.862 100.18 21.412 14.794v2.636c0 9.165 7.457 16.622 16.622 16.622h191.627c9.165 0 16.622-7.457 16.622-16.622v-145.323c0-8.007-5.692-14.708-13.241-16.275v-18.69c0-4.418-3.582-8-8-8h-27.221c-4.418 0-8 3.582-8 8v18.344h-15.262l-8.739-23.107c-1.177-3.111-4.156-5.17-7.482-5.17h-100.06c-3.326 0-6.306 2.059-7.482 5.17l-8.739 23.107h-4.022c-9.165 0-16.622 7.457-16.622 16.622v2.852l-21.366 14.546c-2.188 1.49-3.498 3.966-3.498 6.613v97.299c-.001 2.628 1.29 5.088 3.451 6.582zm230.283 17.43c0 .325-.297.622-.622.622h-34.404v-146.567h34.404c.325 0 .622.297.622.622zm-24.462-172.288h11.221v10.344h-11.221zm-142.015-1.934h89.005l4.644 12.277h-98.292zm-26.394 28.899c0-.325.297-.622.622-.622h141.223v146.567h-141.223c-.325 0-.622-.297-.622-.622zm-24.864 28.244 8.864-6.035v101.03l-8.864-6.124zm208.222 2.419v83.999c0 4.418-3.582 8-8 8s-8-3.582-8-8v-83.999c0-4.418 3.582-8 8-8s8 3.582 8 8zm-152.326 241.52h138.251c21.012 0 38.106-18.955 38.106-42.254 0-23.298-17.095-42.253-38.106-42.253h-138.251c-4.418 0-8 3.582-8 8v5.629h-34.352c-4.418 0-8 3.582-8 8v41.249c0 4.418 3.582 8 8 8h34.352v5.629c0 4.418 3.582 8 8 8zm8-68.507h130.251c12.189 0 22.106 11.777 22.106 26.254 0 14.476-9.917 26.253-22.106 26.253h-130.251zm-42.351 38.878v-25.249h26.352v25.249zm159.411-27.485c0 4.418-3.582 8-8 8h-90.126c-4.418 0-8-3.582-8-8s3.582-8 8-8h90.126c4.418 0 8 3.582 8 8z"/></svg>