<svg clip-rule="evenodd" fill-rule="evenodd" height="512" image-rendering="optimizeQuality" shape-rendering="geometricPrecision" text-rendering="geometricPrecision" viewBox="0 0 173.397 173.397" width="512" xmlns="http://www.w3.org/2000/svg"><g id="Layer_x0020_1"><g id="_437698032"><path id="_437699976" d="m35.5712 133.385h-9.0524c-6.1691 0-11.1902-5.0209-11.1902-11.1899l.0002-41.7688c0-.9838.798-1.7818 1.7817-1.7818.9839-.0001 1.782.7982 1.782 1.782l.0003 41.7685c0 4.2045 3.4214 7.6262 7.6258 7.6262l9.0526-.0002c.9835 0 1.7817.7984 1.7817 1.7822.0003.9838-.7982 1.782-1.7817 1.7818z"/><path id="_437699832" d="m99.0548 133.385h-50.4716c-.9835 0-1.782-.798-1.782-1.7818 0-.984.7982-1.782 1.782-1.782l50.4716-.0002c.9835 0 1.7817.7984 1.7817 1.7822.0003.9838-.7982 1.782-1.7817 1.7818z"/><path id="_437699304" d="m35.5681 98.0419c-.4086 0-.8232-.1421-1.1574-.4298l-21.9345-18.8165c-2.351-2.0169-3.595-4.7579-3.595-7.9258l.0001-16.1218c0-5.6675 4.4394-10.2803 9.8968-10.2803l115.914-.0002c2.6542 0 5.1478 1.0831 7.0256 3.0476 1.8534 1.9395 2.8741 4.5107 2.8741 7.2363l.0001 15.0789c0 .9835-.7982 1.782-1.7821 1.782-.9835 0-1.782-.7982-1.782-1.782l.0001-15.0791c0-1.8036-.6714-3.4988-1.8903-4.7766-1.1941-1.253-2.7752-1.9429-4.4458-1.9429l-115.913-.0003c-3.493 0-6.3331 3.0137-6.3331 6.7168l.0001 16.1213c0 2.1287.7919 3.886 2.3511 5.2224l21.9348 18.813c.7455.6436.8321 1.7667.1917 2.5154-.3525.4082-.8508.6218-1.3548.6216z"/><path id="_437700000" d="m63.0589 106.974h-14.1753c-.9839 0-1.7823-.7983-1.7823-1.782.0003-.984.7982-1.782 1.782-1.782h14.1756c.9838 0 1.7819.7981 1.7819 1.782 0 .9835-.7982 1.782-1.7819 1.782z"/><path id="_437699472" d="m99.0548 107.039c-.0031 0-.0065.0002-.0065.0002-1.3084-.0065-2.6234-.0185-3.929-.0341-1.5529-.0156-3.1619-.0308-4.7056-.0308-.9838 0-1.782-.7983-1.782-1.782.0001-.984.7981-1.782 1.782-1.782 1.5625 0 3.1803.0154 4.7427.0308 1.2995.0155 2.605.0279 3.9043.0341.9839.0029 1.7789.8044 1.7758 1.7882-.0028.9806-.8012 1.7758-1.7817 1.7756z"/><path id="_437699592" d="m64.8408 112.969h23.791v-15.5583h-23.791zm25.573 3.564h-27.3549c-.9837 0-1.782-.7979-1.782-1.7817v-19.1226c0-.9839.7981-1.7818 1.782-1.7818l27.3549-.0002c.984 0 1.7819.7983 1.7819 1.7822l.0001 19.1221c0 .984-.7982 1.7823-1.782 1.782z"/><path id="_437699136" d="m142.809 61.8419h-132.146c-.9836 0-1.7821-.7979-1.7821-1.7817.0001-.9839.7982-1.782 1.782-1.782l132.146-.0003c.9839 0 1.7819.7985 1.7819 1.7823.0001.9837-.7981 1.782-1.7819 1.7817z"/><path id="_437698608" d="m95.9363 48.0314c-.9839 0-1.7822-.7948-1.7822-1.7817l.0002-10.0919c0-2.7102-2.203-4.9127-4.9132-4.9127l-25.0128-.0003c-2.7068 0-4.9098 2.203-4.9098 4.9131l.0002 10.0915c0 .9871-.7984 1.7823-1.7822 1.7823-.9837-.0003-1.782-.7951-1.782-1.782l.0002-10.0919c0-4.6745 3.802-8.4767 8.4736-8.4767l25.013-.0003c4.6746 0 8.4768 3.8025 8.4768 8.4771l.0002 10.0915c0 .9871-.7985 1.7823-1.782 1.782zm11.0477 0c-.984 0-1.7822-.7948-1.7822-1.7817l.0002-10.0919c0-4.2506-1.6647-8.254-4.6841-11.2765-3.0223-3.0198-7.0259-4.684-11.2768-4.684l-25.0128-.0002c-4.2476 0-8.251 1.6647-11.2736 4.6842-3.0225 3.0223-4.687 7.0259-4.687 11.2766l.0002 10.0915c0 .9871-.7954 1.7823-1.7822 1.7823-.9837-.0003-1.782-.7951-1.782-1.782l.0002-10.0919c0-5.2005 2.0354-10.1009 5.7294-13.7948 3.6971-3.6941 8.5944-5.7297 13.795-5.7297l25.013-.0002c5.2036 0 10.1009 2.0359 13.7949 5.7299 3.6972 3.6939 5.7296 8.5943 5.7296 13.7949l.0002 10.0915c0 .9871-.7984 1.7823-1.782 1.782z"/><path id="_437698584" d="m48.5832 133.385h-13.012c-.9871 0-1.7822-.798-1.7822-1.7818l.0002-71.5431c0-.9836.7948-1.7817 1.7818-1.7817.9837-.0003 1.7819.7982 1.7819 1.782l.0003 69.7606h9.448v-69.7609c0-.9836.7982-1.7817 1.782-1.7817.984-.0003 1.782.7982 1.782 1.782v71.5426c0 .984-.7982 1.7822-1.782 1.782z"/><path id="_437699280" d="m104.889 71.6123c-.9839 0-1.782-.7982-1.782-1.782l.0001-9.7704c0-.9836.798-1.7817 1.7819-1.7817.9839-.0003 1.782.7982 1.782 1.782v9.7701c0 .9835-.7983 1.782-1.782 1.782zm13.0124 0c-.9839 0-1.7822-.7982-1.7822-1.782l.0002-9.7704c0-.9836.798-1.7817 1.7818-1.7817.9841-.0003 1.782.7982 1.782 1.782l.0002 9.7701c0 .9835-.7984 1.782-1.782 1.782z"/><path id="_437698992" d="m162.733 156.764h-63.6785c-.9839 0-1.7822-.7948-1.7822-1.7818l.0002-85.1521c0-.984.7979-1.7821 1.7818-1.7821l50.1651-.0003c.9839 0 1.7819.7986 1.7819 1.7824.0001.9835-.7982 1.782-1.782 1.782h-48.3828v81.5879h60.1145v-69.8567c0-.9836.7979-1.7818 1.7817-1.7818.9839-.0002 1.782.7982 1.782 1.782l.0003 71.6385c0 .9871-.7985 1.7822-1.782 1.782z"/><path id="_437698752" d="m151.002 81.5615h7.4311l-7.4311-7.428zm11.7316 3.564h-13.5136c-.9839 0-1.7822-.798-1.7822-1.7818l.0002-13.5134c0-.7212.4361-1.3705 1.1013-1.6459.6654-.2754 1.4323-.1237 1.9428.3867l13.5135 13.5131c.5074.5107.662 1.275.3836 1.9432-.2754.6651-.925 1.0983-1.6456 1.0981z"/><path id="_437699088" d="m113.608 95.508c-2.0604 0-3.7404 1.6802-3.7404 3.7437s1.6798 3.7404 3.7403 3.7404c2.0637 0 3.7434-1.6769 3.7434-3.7404.0003-2.0637-1.6799-3.7434-3.7433-3.7437zm0 11.0477c-4.0279 0-7.3045-3.2759-7.3045-7.304.0001-4.0311 3.2764-7.3074 7.3044-7.3074 4.0312-.0003 7.3074 3.2763 7.3074 7.3074.0003 4.0278-3.2763 7.3044-7.3073 7.304z"/><path id="_437698728" d="m153.702 97.6026h-24.4126c-.984 0-1.7823-.798-1.7823-1.7818.0003-.9842.7983-1.782 1.782-1.782l24.4129-.0002c.984 0 1.7819.7983 1.7819 1.7822.0001.9837-.7982 1.782-1.7819 1.7818z"/><path id="_437699040" d="m153.702 104.462h-24.4126c-.984 0-1.7823-.795-1.7823-1.7819.0003-.9839.7983-1.782 1.782-1.782l24.4129-.0001c.984 0 1.7819.7983 1.7819 1.7821.0001.9867-.7982 1.782-1.7819 1.7819z"/><path id="_437698656" d="m113.608 115.423c-2.0604 0-3.7404 1.6771-3.7404 3.7406s1.6798 3.7434 3.7403 3.7434c2.0637-.0003 3.7434-1.6799 3.7434-3.7434.0003-2.0636-1.6799-3.7404-3.7433-3.7406zm0 11.0477c-4.0279 0-7.3045-3.279-7.3045-7.3071.0001-4.0284 3.2764-7.3044 7.3044-7.3044 4.0312-.0001 7.3074 3.2763 7.3074 7.3044.0003 4.0279-3.2763 7.3074-7.3073 7.3071z"/><path id="_437698392" d="m153.702 117.514h-24.4126c-.984 0-1.7823-.7948-1.7823-1.7818.0003-.984.7983-1.782 1.782-1.782l24.4129-.0002c.984 0 1.7819.7984 1.7819 1.7822.0001.987-.7982 1.782-1.7819 1.7818z"/><path id="_437698320" d="m153.702 124.376h-24.4126c-.984 0-1.7823-.7982-1.7823-1.782.0003-.9838.7983-1.782 1.782-1.782h24.4129c.984 0 1.7819.7982 1.7819 1.782.0001.9836-.7982 1.782-1.7819 1.782z"/><path id="_437698128" d="m113.608 135.334c-2.0604 0-3.7404 1.6801-3.7404 3.7436 0 2.0632 1.6798 3.7403 3.7403 3.7403 2.0637-.0002 3.7434-1.6768 3.7434-3.7403.0003-2.0636-1.6799-3.7434-3.7433-3.7436zm0 11.0477c-4.0279 0-7.3045-3.276-7.3045-7.3041.0001-4.0283 3.2764-7.3074 7.3044-7.3074 4.0312-.0002 7.3074 3.2793 7.3074 7.3074.0003 4.028-3.2763 7.3043-7.3073 7.3041z"/><path id="_437697864" d="m153.702 137.428h-24.4126c-.984 0-1.7823-.7981-1.7823-1.7819.0003-.9839.7983-1.782 1.782-1.782h24.4129c.984 0 1.7819.7983 1.7819 1.782.0001.9836-.7982 1.782-1.7819 1.7819z"/><path id="_437697816" d="m153.702 144.29h-24.4126c-.984 0-1.7823-.798-1.7823-1.7818.0003-.9869.7983-1.7819 1.782-1.7819l24.4129-.0003c.984 0 1.7819.7953 1.7819 1.7822.0001.9837-.7982 1.782-1.7819 1.7818z"/></g></g></svg>