<svg id="Layer_1" enable-background="new 0 0 500 500" viewBox="0 0 500 500" xmlns="http://www.w3.org/2000/svg"><g fill="rgb(0,0,0)"><path d="m356.6873 352.7808v-2.8997c0-.4915-.2947-.7864-.7864-.7864h-4.7673c-.5405 0-.7861.2949-.7861.7864v2.8997c-4.2761.1476-6.635 2.6047-6.635 7.0771v11.599c0 .9337.4424 1.5234 1.3271 1.8185l11.6477 3.8334v6.5365c0 1.3271-.688 1.9661-1.9658 1.9661h-2.3591c-1.2288 0-1.9658-.6389-1.9658-1.9661v-3.7843c0-.5405-.2458-.7863-.7864-.7863h-5.1113c-.4915 0-.7864.2457-.7864.7863v5.1603c0 4.4727 2.3589 6.9299 6.635 7.0774v2.8997c0 .4915.2456.7866.7861.7866h4.7673c.4917 0 .7864-.2952.7864-.7866v-2.8997c4.374-.1475 6.6841-2.6047 6.6841-7.0774v-11.3529c0-.9337-.4421-1.4742-1.2778-1.8185l-11.697-3.8334v-6.7823c0-1.2777.7371-1.9659 1.9658-1.9659h2.3591c1.3269 0 1.9658.6882 1.9658 1.9659v3.8334c0 .4916.2949.7865.7864.7865h5.1113c.5405 0 .7864-.2949.7864-.7865v-5.2096c-.0001-4.4725-2.3101-6.9297-6.6841-7.0772z"/><path d="m443.4531 316.6953h-56.3604v-35.1755c12.0188-1.7393 18.583-10.6047 18.583-25.4397v-82.8906c0-11.8877-14.5234-24-28.7773-24h-11.8999l-5.7515-16.9087c-.5518-1.6216-2.0742-2.7119-3.7871-2.7119h-15.4814v-9.8613c0-24.5811-19.998-44.5791-44.5791-44.5791h-1.6174c-1.6345-4.4263-5.8835-7.5967-10.8708-7.5967h-93.083c-4.9873 0-9.2363 3.1704-10.8708 7.5967h-1.6174c-24.5801 0-44.5781 19.998-44.5781 44.5791v9.8613h-15.4814c-1.7129 0-3.2354 1.0903-3.7871 2.7119l-5.7515 16.9087h-11.9001c-14.2539 0-28.7773 12.1123-28.7773 24v82.8906c0 14.835 6.5635 23.7004 18.582 25.4397v68.8494 18.9512c0 18.8926 9.3213 28.0762 28.4961 28.0762h18.3018 127.1855v25.6748c0 2.209 1.791 4 4 4h179.8232c2.209 0 4-1.791 4-4v-102.376c0-2.2091-1.791-4.0001-4-4.0001zm-106.6284-179.1265h15.771l3.9521 11.6206h-64.2871l3.9521-11.6206h18.647c.2732.059.5552.0938.8462.0938h20.2725c.291 0 .573-.0348.8462-.0938zm-42.3169-54.4404h.8916c20.1699 0 36.5791 16.4092 36.5791 36.5791v9.8613h-12.2725v-14.1128c0-12.1426-9.8789-22.021-22.0215-22.021h-3.1768v-10.3066zm-108.2764-4c0-1.9834 1.6133-3.5967 3.5967-3.5967h93.083c1.9834 0 3.5967 1.6133 3.5967 3.5967v15.9658c0 1.9834-1.6133 3.5967-3.5967 3.5967h-93.083c-1.9834 0-3.5967-1.6133-3.5967-3.5967zm-6.101 22.3067c2.0737 3.1606 5.6433 5.2559 9.6978 5.2559h93.083c4.0544 0 7.624-2.0952 9.6978-5.2559h5.0757c7.7314 0 14.0215 6.29 14.0215 14.021v14.1128h-18.3574c-1.7129 0-3.2354 1.0903-3.7871 2.7119l-5.7515 16.9087h-94.8809l-5.7505-16.9087c-.5518-1.6216-2.0742-2.7119-3.7871-2.7119h-18.3574v-14.1128c0-7.731 6.29-14.021 14.0205-14.021zm-39.3687 18.2724c0-20.1699 16.4092-36.5791 36.5781-36.5791h.8916v10.3066h-3.1768c-12.1426 0-22.0205 9.8784-22.0205 22.021v14.1128h-12.2725v-9.8613zm-20.6172 17.8613h15.771c.2732.059.5552.0938.8462.0938h20.2725c.291 0 .573-.0348.8462-.0938h18.647l3.9521 11.6206h-64.2871zm-29.9345 136.2876c-10.4746 0-15.1455-5.4824-15.1455-17.7764v-82.8906c0-6.8384 10.2725-16 20.7773-16h14.7646 75.458 100.6104 75.459 14.7646c10.5049 0 20.7773 9.1616 20.7773 16v82.8906c0 12.2939-4.6709 17.7764-15.1465 17.7764h-32.3809v-13.7432c0-2.209-1.791-4-4-4h-4.8223v-26.8145c0-2.209-1.791-4-4-4h-34.1631c-2.209 0-4 1.791-4 4v26.8145h-4.8223c-2.209 0-4 1.791-4 4v13.7432h-108.002v-13.7432c0-2.209-1.791-4-4-4h-4.8223v-26.8145c0-2.209-1.791-4-4-4h-34.1631c-2.209 0-4 1.791-4 4v26.8145h-4.8223c-2.209 0-4 1.791-4 4v13.7432zm230.0341 30.92c2.209 0 4-1.791 4-4v-7.5605h9.082v8.4141c0 5.1814-1.1709 10.2473-3.4653 15.0654h-19.3398c-.0579-.2539-.1396-.5061-.2505-.7529-2.0615-4.5957-3.1074-9.4111-3.1074-14.3125v-8.4141h9.0811v7.5605c-.0001 2.209 1.791 4 3.9999 4zm4-19.5606v-10.5518c0-2.209-1.791-4-4-4s-4 1.791-4 4v10.5518h-13.0811-4.8223v-21.1025h4.8223 34.1631 4.8223v21.1025h-4.8223zm-17.081-29.1025v-22.8145h26.1631v22.8145zm34.1631 45.5166v-8.4141h4.8223c2.209 0 4-1.791 4-4v-7.3594h28.9443v34.8389h-40.5486c1.8376-4.8614 2.782-9.9099 2.782-15.0654zm-188.8916 3.1465c2.209 0 4-1.791 4-4v-7.5605h9.082v8.4141c0 10.2891-4.7305 20.2637-13.082 27.7949-8.3516-7.5312-13.0811-17.5059-13.0811-27.7949v-8.4141h9.0811v7.5605c0 2.209 1.791 4 4 4zm4-19.5606v-10.5518c0-2.209-1.791-4-4-4s-4 1.791-4 4v10.5518h-13.0811-4.8223v-21.1025h4.8223 34.1631 4.8223v21.1025h-4.8223zm-17.0811-29.1025v-22.8145h26.1631v22.8145zm-10.9092 133.2832h-14.3018c-14.5576 0-20.4961-5.8164-20.4961-20.0762v-14.9512h2.1953c4.9355 0 8.9512 4.0156 8.9512 8.9521 0 9.9092 5.2852 15.8252 14.1367 15.8252h.5625c4.9365 0 8.9521 4.0156 8.9521 8.9521v1.298zm131.1856-68.7012v68.7012h-123.1856v-1.2979c0-9.3477-7.6045-16.9521-16.9521-16.9521h-.5625c-1.9922 0-6.1367 0-6.1367-7.8252 0-9.3477-7.6045-16.9521-16.9512-16.9521h-2.1953v-64.5127h28.8848v7.3594c0 2.209 1.791 4 4 4h4.8223v8.4141c0 13.7412 6.7861 26.9229 18.6182 36.166.7236.5654 1.5938.8477 2.4629.8477s1.7393-.2822 2.4629-.8477c11.833-9.2441 18.6191-22.4258 18.6191-36.166v-8.4141h4.8223c2.209 0 4-1.791 4-4v-7.3594h108.002v7.3594c0 2.209 1.791 4 4 4h4.8223v8.4141c0 5.1439.9387 10.1981 2.7766 15.0654h-38.3098c-2.2092-.0001-4.0002 1.7909-4.0002 3.9999zm179.8232 98.376h-171.8232v-94.376h171.8232z"/><path d="m281.0488 409.6523h144.9863c2.209 0 4-1.791 4-4v-67.54c0-2.209-1.791-4-4-4h-144.9863c-2.209 0-4 1.791-4 4v67.54c0 2.209 1.791 4 4 4zm4-67.54h136.9863v59.54h-136.9863z"/><path d="m316.3184 354.6768c-.75-.75-1.7676-1.1719-2.8281-1.1719s-2.0781.4219-2.8281 1.1719l-14.377 14.3779c-1.5625 1.5615-1.5625 4.0947 0 5.6562l14.377 14.377c.7803.7812 1.8047 1.1719 2.8281 1.1719s2.0479-.3906 2.8281-1.1719l14.377-14.377c1.5625-1.5615 1.5625-4.0947 0-5.6562zm-2.8282 25.9257-8.7197-8.7197 8.7197-8.7207 8.7197 8.7207z"/><path d="m395.334 354.6768c-.75-.75-1.7676-1.1719-2.8281-1.1719s-2.0781.4219-2.8281 1.1719l-14.377 14.3779c-1.5625 1.5615-1.5625 4.0947 0 5.6562l14.377 14.377c.7812.7812 1.8047 1.1719 2.8281 1.1719s2.0479-.3906 2.8281-1.1719l14.3779-14.377c.75-.75 1.1719-1.7676 1.1719-2.8281s-.4219-2.0781-1.1719-2.8281zm-2.8281 25.9257-8.7197-8.7197 8.7197-8.7207 8.7207 8.7207z"/></g></svg>