<svg id="Outline" height="512" viewBox="0 0 64 64" width="512" xmlns="http://www.w3.org/2000/svg"><g><path d="m57 37.5h-14a2.981 2.981 0 0 0 -2 .78 2.981 2.981 0 0 0 -2-.78h-14a3 3 0 0 0 -3 3v14a3 3 0 0 0 3 3h14a2.981 2.981 0 0 0 2-.78 2.981 2.981 0 0 0 2 .78h14a3 3 0 0 0 3-3v-14a3 3 0 0 0 -3-3zm-4 2v5l-2.4-1.8a1 1 0 0 0 -1.2 0l-2.4 1.8v-5zm-10 0h2v7a1 1 0 0 0 1.6.8l3.4-2.55 3.4 2.55a1 1 0 0 0 .6.2 1 1 0 0 0 1-1v-7h2a1 1 0 0 1 1 1v11h-16v-11a1 1 0 0 1 1-1zm-8 0v5l-2.4-1.8a1 1 0 0 0 -1.2 0l-2.4 1.8v-5zm-10 0h2v7a1 1 0 0 0 1.6.8l3.4-2.55 3.4 2.55a1 1 0 0 0 .6.2 1 1 0 0 0 1-1v-7h2a1 1 0 0 1 1 1v11h-16v-11a1 1 0 0 1 1-1zm14 16h-14a1 1 0 0 1 -1-1v-1h16v1a1 1 0 0 1 -1 1zm18 0h-14a1 1 0 0 1 -1-1v-1h16v1a1 1 0 0 1 -1 1z"/><path d="m58 33.5h-12v-19a3 3 0 0 0 -3-3h-2v-5a4 4 0 0 0 -4-4h-28a4 4 0 0 0 -4 4v5h-2a3 3 0 0 0 -3 3v35a3 3 0 0 0 3 3h15v3a6.006 6.006 0 0 0 6 6h34a6.006 6.006 0 0 0 6-6v-16a6.006 6.006 0 0 0 -6-6zm-14 0h-5v-2a6.973 6.973 0 0 0 5-2.111zm-13 0v-6h6v6zm-13 6v7h-12v-11h1.424a4.99 4.99 0 0 0 9.152 0h2.964a5.969 5.969 0 0 0 -1.54 4zm-16-22h42v7a5.006 5.006 0 0 1 -5 5v-2a2 2 0 0 0 2-2v-4a2 2 0 0 0 -2-2h-10a2 2 0 0 0 -2 2v4a2 2 0 0 0 2 2v2h-12v-2a2 2 0 0 0 2-2v-4a2 2 0 0 0 -2-2h-10a2 2 0 0 0 -2 2v4a2 2 0 0 0 2 2v2a5.006 5.006 0 0 1 -5-5zm27 8v-4h2v1a1 1 0 0 0 2 0v-1h2v1a1 1 0 0 0 2 0v-1h2v4zm-19-2a1 1 0 0 0 1-1v-1h2v1a1 1 0 0 0 2 0v-1h2v4h-10v-4h2v1a1 1 0 0 0 1 1zm-1 10v-6h6v6a3 3 0 0 1 -6 0zm8 0v-2h12v2zm-10-27a2 2 0 0 1 2-2h28a2 2 0 0 1 2 2v5h-2v-4a1 1 0 0 0 -1-1h-26a1 1 0 0 0 -1 1v4h-2zm4 5v-3h24v3zm-8 2h40a1 1 0 0 1 1 1v1h-42v-1a1 1 0 0 1 1-1zm0 37a1 1 0 0 1 -1-1v-20.111a6.973 6.973 0 0 0 5 2.111v2h-2a1 1 0 0 0 -1 1v13a1 1 0 0 0 1 1h13v2zm59 5a4 4 0 0 1 -4 4h-34a4 4 0 0 1 -4-4v-16a4 4 0 0 1 4-4h34a4 4 0 0 1 4 4z"/></g></svg>