<?xml version="1.0" encoding="UTF-8" standalone="no"?>
<!-- Created with Inkscape (http://www.inkscape.org/) -->

<svg
   version="1.1"
   id="svg2208"
   xml:space="preserve"
   width="682.66669"
   height="682.66669"
   viewBox="0 0 682.66669 682.66669"
   xmlns="http://www.w3.org/2000/svg"
   xmlns:svg="http://www.w3.org/2000/svg"><defs
     id="defs2212"><clipPath
       clipPathUnits="userSpaceOnUse"
       id="clipPath2222"><path
         d="M 0,512 H 512 V 0 H 0 Z"
         id="path2220" /></clipPath></defs><g
     id="g2214"
     transform="matrix(1.3333333,0,0,-1.3333333,0,682.66667)"><g
       id="g2216"><g
         id="g2218"
         clip-path="url(#clipPath2222)"><g
           id="g2224"
           transform="translate(324.5,192.7598)"><path
             d="M 0,0 C 4.15,19.04 12.03,46.15 26.65,73.68"
             style="fill:none;stroke:#000000;stroke-width:15;stroke-linecap:round;stroke-linejoin:round;stroke-miterlimit:10;stroke-dasharray:none;stroke-opacity:1"
             id="path2226" /></g><g
           id="g2228"
           transform="translate(293.9102,193.0298)"><path
             d="m 0,0 c 2.2,11.22 5.68,25.6 11.08,41.61 2.87,8.53 6.06,16.82 9.56,24.84"
             style="fill:none;stroke:#000000;stroke-width:15;stroke-linecap:round;stroke-linejoin:round;stroke-miterlimit:10;stroke-dasharray:none;stroke-opacity:1"
             id="path2230" /></g><g
           id="g2232"
           transform="translate(197.8301,259.54)"><path
             d="m 0,0 c 3.51,-8.04 6.71,-16.35 9.59,-24.9 5.39,-16.01 8.86,-30.39 11.08,-41.6"
             style="fill:none;stroke:#000000;stroke-width:15;stroke-linecap:round;stroke-linejoin:round;stroke-miterlimit:10;stroke-dasharray:none;stroke-opacity:1"
             id="path2234" /></g><g
           id="g2236"
           transform="translate(160.75,267.3901)"><path
             d="M 0,0 C 14.94,-27.85 22.95,-55.36 27.15,-74.62"
             style="fill:none;stroke:#000000;stroke-width:15;stroke-linecap:round;stroke-linejoin:round;stroke-miterlimit:10;stroke-dasharray:none;stroke-opacity:1"
             id="path2238" /></g><g
           id="g2240"
           transform="translate(271,193.1401)"><path
             d="M 0,0 V 66.78"
             style="fill:none;stroke:#000000;stroke-width:15;stroke-linecap:round;stroke-linejoin:round;stroke-miterlimit:10;stroke-dasharray:none;stroke-opacity:1"
             id="path2242" /></g><g
           id="g2244"
           transform="translate(241,193.1401)"><path
             d="M 0,0 V 66.78"
             style="fill:none;stroke:#000000;stroke-width:15;stroke-linecap:round;stroke-linejoin:round;stroke-miterlimit:10;stroke-dasharray:none;stroke-opacity:1"
             id="path2246" /></g><g
           id="g2248"
           transform="translate(105.7202,462.5898)"><path
             d="m 0,0 c 4.49,1.69 9.35,2.61 14.43,2.61 13.49,0 25.46,-6.49 32.97,-16.51"
             style="fill:none;stroke:#000000;stroke-width:15;stroke-linecap:round;stroke-linejoin:round;stroke-miterlimit:10;stroke-dasharray:none;stroke-opacity:1"
             id="path2250" /></g><g
           id="g2252"
           transform="translate(83.5698,442.9302)"><path
             d="m 0,0 c -2.94,-5.66 -4.6,-12.09 -4.6,-18.91 0,-3.56 0.46,-8.19 1.31,-13.46 -4.14,3.37 -7.92,6.08 -11.01,7.86 -19.69,11.37 -44.88,4.62 -56.25,-15.07 -11.37,-19.7 -4.62,-44.88 15.08,-56.25 3.08,-1.78 7.31,-3.7 12.3,-5.6 -4.99,-1.9 -9.22,-3.82 -12.3,-5.6 -19.7,-11.37 -26.45,-36.55 -15.08,-56.25 11.37,-19.7 36.56,-26.44 56.25,-15.07 3.09,1.78 6.87,4.49 11.01,7.86 -0.85,-5.27 -1.31,-9.9 -1.31,-13.46 0,-22.74 18.44,-41.18 41.18,-41.18 22.74,0 41.18,18.44 41.18,41.18 0,3.56 -0.45,8.19 -1.3,13.46 4.13,-3.38 7.91,-6.08 11,-7.86 17.52,-10.11 39.39,-5.9 52,9.03"
             style="fill:none;stroke:#000000;stroke-width:15;stroke-linecap:round;stroke-linejoin:round;stroke-miterlimit:10;stroke-dasharray:none;stroke-opacity:1"
             id="path2254" /></g><g
           id="g2256"
           transform="translate(154.8799,368.1099)"><path
             d="m 0,0 c -7.99,10.43 -20.57,17.15 -34.73,17.15 -24.17,0 -43.76,-19.59 -43.76,-43.76 0,-24.17 19.59,-43.76 43.76,-43.76 13.19,0 25.02,5.84 33.05,15.08"
             style="fill:none;stroke:#000000;stroke-width:15;stroke-linecap:round;stroke-linejoin:round;stroke-miterlimit:10;stroke-dasharray:none;stroke-opacity:1"
             id="path2258" /></g><g
           id="g2260"
           transform="translate(358.8799,448.6899)"><path
             d="m 0,0 c 7.51,10.02 19.48,16.51 32.97,16.51 22.74,0 41.18,-18.44 41.18,-41.18 0,-3.56 -0.46,-8.19 -1.31,-13.46 4.14,3.37 7.92,6.08 11.01,7.86 19.69,11.37 44.88,4.62 56.25,-15.07 11.37,-19.7 4.62,-44.88 -15.08,-56.25 -3.08,-1.78 -7.31,-3.7 -12.3,-5.6 4.99,-1.9 9.22,-3.82 12.3,-5.6 19.7,-11.37 26.45,-36.55 15.08,-56.25 -11.37,-19.7 -36.56,-26.44 -56.25,-15.07 -3.09,1.78 -6.87,4.48 -11.01,7.86 0.85,-5.27 1.31,-9.9 1.31,-13.46 0,-22.74 -18.44,-41.18 -41.18,-41.18 -22.74,0 -41.18,18.44 -41.18,41.18 0,3.56 0.45,8.19 1.31,13.46 -4.14,-3.37 -7.92,-6.08 -11.01,-7.86 -17.52,-10.11 -39.39,-5.9 -52,9.03"
             style="fill:none;stroke:#000000;stroke-width:15;stroke-linecap:round;stroke-linejoin:round;stroke-miterlimit:10;stroke-dasharray:none;stroke-opacity:1"
             id="path2262" /></g><g
           id="g2264"
           transform="translate(357.1201,368.1099)"><path
             d="m 0,0 c 7.99,10.43 20.57,17.15 34.73,17.15 24.17,0 43.76,-19.59 43.76,-43.76 0,-24.17 -19.59,-43.76 -43.76,-43.76 -13.19,0 -25.02,5.84 -33.05,15.08"
             style="fill:none;stroke:#000000;stroke-width:15;stroke-linecap:round;stroke-linejoin:round;stroke-miterlimit:10;stroke-dasharray:none;stroke-opacity:1"
             id="path2266" /></g><g
           id="g2268"
           transform="translate(163.9448,375.2002)"><path
             d="M 0,0 C 3.085,1.781 7.319,3.702 12.307,5.6 7.319,7.498 3.085,9.418 0,11.2 c -19.695,11.371 -26.443,36.555 -15.072,56.25 11.37,19.695 36.555,26.443 56.25,15.072 3.085,-1.782 6.866,-4.487 11.003,-7.858 -0.85,5.268 -1.304,9.895 -1.304,13.458 0,22.742 18.436,41.178 41.178,41.178 22.742,0 41.178,-18.436 41.178,-41.178 0,-3.563 -0.453,-8.19 -1.303,-13.458 4.137,3.371 7.917,6.076 11.003,7.858 19.694,11.371 44.879,4.623 56.25,-15.072 11.37,-19.695 4.622,-44.879 -15.073,-56.25 -3.085,-1.782 -7.318,-3.702 -12.307,-5.6 4.989,-1.898 9.222,-3.819 12.307,-5.6 19.695,-11.371 26.443,-36.555 15.073,-56.25 -11.371,-19.695 -36.556,-26.443 -56.25,-15.072 -3.086,1.781 -6.866,4.487 -11.003,7.858 0.85,-5.268 1.303,-9.896 1.303,-13.458 0,-22.742 -18.436,-41.178 -41.178,-41.178 -22.742,0 -41.178,18.436 -41.178,41.178 0,3.562 0.453,8.19 1.304,13.458 -4.137,-3.371 -7.918,-6.077 -11.003,-7.858 -19.695,-11.371 -44.88,-4.623 -56.25,15.072 C -26.443,-36.555 -19.695,-11.371 0,0 Z"
             style="fill:none;stroke:#000000;stroke-width:15;stroke-linecap:round;stroke-linejoin:round;stroke-miterlimit:10;stroke-dasharray:none;stroke-opacity:1"
             id="path2270" /></g><g
           id="g2272"
           transform="translate(212.2412,380.7998)"><path
             d="M 0,0 C 0,24.167 19.592,43.759 43.759,43.759 67.926,43.759 87.518,24.167 87.518,0 87.518,-24.167 67.926,-43.758 43.759,-43.758 19.592,-43.758 0,-24.167 0,0 Z"
             style="fill:none;stroke:#000000;stroke-width:15;stroke-linecap:round;stroke-linejoin:round;stroke-miterlimit:10;stroke-dasharray:none;stroke-opacity:1"
             id="path2274" /></g><g
           id="g2276"
           transform="translate(378.0601,191.8901)"><path
             d="m 0,0 c 4.61,-0.09 9.22,-0.19 13.83,-0.3 12.28,-0.29 22.87,-8.97 25.33,-21.01 2.26,-11.06 2.26,-22.13 0,-33.2 -2.46,-12.03 -13.05,-20.71 -25.33,-21 -90.59,-2.11 -181.19,-2.11 -271.78,0 -12.28,0.29 -22.87,8.97 -25.33,21 -2.26,11.07 -2.26,22.14 0,33.2 2.46,12.04 13.05,20.72 25.33,21.01 75.99,1.76 151.99,2.05 227.99,0.85"
             style="fill:none;stroke:#000000;stroke-width:15;stroke-linecap:round;stroke-linejoin:round;stroke-miterlimit:10;stroke-dasharray:none;stroke-opacity:1"
             id="path2278" /></g><g
           id="g2280"
           transform="translate(391.2754,116.3701)"><path
             d="m 0,0 c 0.24,-4.97 1.82,-48.46 -15.17,-88.89 -5.09,-12.12 -16.99,-19.98 -30.14,-19.98 h -179.93 c -13.15,0 -25.05,7.86 -30.14,19.98 -16.99,40.43 -15.41,83.92 -15.17,88.89"
             style="fill:none;stroke:#000000;stroke-width:15;stroke-linecap:round;stroke-linejoin:round;stroke-miterlimit:10;stroke-dasharray:none;stroke-opacity:1"
             id="path2282" /></g></g></g></g></svg>
