<svg id="object" height="512" viewBox="0 0 100 100" width="512" xmlns="http://www.w3.org/2000/svg"><g id="_9-3"><g><path d="m93.971 62.887h-4.147c1.362-1.306 2.215-3.138 2.215-5.169 0-3.953-3.217-7.169-7.17-7.169-2.626 0-4.92 1.424-6.169 3.535-1.249-2.112-3.543-3.535-6.169-3.535-3.953 0-7.17 3.216-7.17 7.169 0 2.031.853 3.863 2.215 5.169h-3.235v-51.987c0-2.25-1.826-4.08-4.07-4.08h-51.171c-2.244 0-4.069 1.83-4.069 4.08v78.2c0 2.25 1.825 4.08 4.069 4.08h51.17c2.244 0 4.07-1.83 4.07-4.08v-1.476h27.086c.553 0 1-.448 1-1v-11.811h1.545c.553 0 1-.448 1-1v-9.927c0-.552-.447-1-1-1zm-40.147 22.737v-10.811h18.616v10.811zm-1-12.811h-1.546v-7.927h12.048l.015.003.015-.003h9.085v7.927h-19.616zm30.023-9.927h-3.147v-3.147c0-1.735 1.412-3.147 3.147-3.147s3.146 1.412 3.146 3.147-1.411 3.147-3.146 3.147zm-5.147 0h-3.147c-1.735 0-3.146-1.412-3.146-3.147s1.411-3.147 3.146-3.147 3.147 1.412 3.147 3.147zm-3.26 2h8.52v7.927h-8.52zm10.429-12.338c2.851 0 5.17 2.319 5.17 5.169 0 1.96-1.11 3.648-2.722 4.524.418-.744.677-1.59.677-2.503 0-2.838-2.309-5.147-5.146-5.147-.913 0-1.759.259-2.503.678.876-1.612 2.564-2.722 4.525-2.722zm-17.508 5.169c0-2.851 2.319-5.169 5.17-5.169 1.961 0 3.649 1.11 4.525 2.722-.744-.419-1.59-.678-2.503-.678-2.838 0-5.146 2.309-5.146 5.147 0 .913.259 1.758.677 2.503-1.612-.876-2.722-2.564-2.722-4.525zm-5.021 31.382c0 1.147-.929 2.08-2.07 2.08h-51.17c-1.141 0-2.069-.933-2.069-2.08v-78.199c0-1.147.929-2.08 2.069-2.08h51.17c1.142 0 2.07.933 2.07 2.08v51.987h-12.062c-.553 0-1 .448-1 1v9.927c0 .552.447 1 1 1h1.546v11.811c0 .552.447 1 1 1h9.517v1.476zm12.1-3.476v-10.811h8.52v10.811zm15.986 0h-5.467v-10.811h5.467zm2.545-12.811h-8.012v-7.927h8.012z"/><path d="m70.405 66.887h-4.045c-.553 0-1 .448-1 1s.447 1 1 1h4.045c.553 0 1-.448 1-1s-.447-1-1-1z"/><path d="m63.34 66.887h-7.136c-1.614 0-2.927 1.313-2.927 2.927 0 .552.447 1 1 1s1-.448 1-1c0-.511.416-.927.927-.927h7.136c.553 0 1-.448 1-1s-.447-1-1-1z"/><path d="m14.254 87.18h-.597c-1.448 0-2.627-1.178-2.627-2.627v-9.731c0-.552-.447-1-1-1s-1 .448-1 1v9.731c0 2.551 2.075 4.627 4.627 4.627h.597c.553 0 1-.448 1-1s-.447-1-1-1z"/><path d="m23.806 87.18h-5.945c-.553 0-1 .448-1 1s.447 1 1 1h5.945c.553 0 1-.448 1-1s-.447-1-1-1z"/><path d="m17.86 22.529h33.65c.553 0 1-.448 1-1v-5.901c0-.552-.447-1-1-1h-33.65c-.553 0-1 .448-1 1v5.901c0 .552.447 1 1 1zm1-5.901h31.649v3.901h-31.649z"/><path d="m15.075 38.586c.188.188.441.293.707.293s.52-.105.707-.293l5.896-5.896c.391-.391.391-1.023 0-1.414s-1.023-.391-1.414 0l-5.188 5.188-2.24-2.241c-.391-.391-1.023-.391-1.414 0-.391.39-.391 1.023 0 1.414l2.947 2.948z"/><path d="m38.064 35.294c0 .552.447 1 1 1h18.131c.553 0 1-.448 1-1s-.447-1-1-1h-18.131c-.553 0-1 .448-1 1z"/><path d="m34.686 34.294h-8.067c-.553 0-1 .448-1 1s.447 1 1 1h8.067c.553 0 1-.448 1-1s-.447-1-1-1z"/><path d="m15.075 47.717c.188.188.441.293.707.293s.52-.105.707-.293l5.896-5.895c.391-.391.391-1.023 0-1.414s-1.023-.391-1.414 0l-5.188 5.188-2.24-2.241c-.391-.391-1.023-.391-1.414 0-.391.39-.391 1.023 0 1.414l2.947 2.948z"/><path d="m57.195 43.425h-18.131c-.553 0-1 .448-1 1s.447 1 1 1h18.131c.553 0 1-.448 1-1s-.447-1-1-1z"/><path d="m34.686 43.425h-8.067c-.553 0-1 .448-1 1s.447 1 1 1h8.067c.553 0 1-.448 1-1s-.447-1-1-1z"/><path d="m22.385 49.539c-.391-.391-1.023-.391-1.414 0l-5.188 5.188-2.24-2.241c-.391-.391-1.023-.391-1.414 0-.391.39-.391 1.023 0 1.414l2.947 2.948c.188.188.441.293.707.293s.52-.105.707-.293l5.896-5.896c.391-.391.391-1.023 0-1.414z"/><path d="m58.195 53.556c0-.552-.447-1-1-1h-18.131c-.553 0-1 .448-1 1s.447 1 1 1h18.131c.553 0 1-.448 1-1z"/><path d="m34.686 52.556h-8.067c-.553 0-1 .448-1 1s.447 1 1 1h8.067c.553 0 1-.448 1-1s-.447-1-1-1z"/></g></g></svg>