<svg height="512pt" viewBox="-28 0 512 512" width="512pt" xmlns="http://www.w3.org/2000/svg"><path d="m447.734375 250.523438c-1.792969 0-3.253906-1.457032-3.253906-3.25v-40.710938c0-10.074219-8.195313-18.269531-18.269531-18.269531h-3.46875v-.945313c0-10.058594-8.183594-18.246094-18.246094-18.246094h-16.894532c-10.0625 0-18.246093 8.1875-18.246093 18.246094v96.078125h-6.792969v-96.136719c0-2.855468-.664062-5.714843-1.917969-8.277343l-12.679687-25.855469c-2.28125-4.648438-6.914063-7.539062-12.09375-7.539062-5.179688 0-9.816406 2.890624-12.09375 7.539062l-12.679688 25.855469c-1.253906 2.5625-1.917968 5.421875-1.917968 8.273437v96.140625h-8.886719v-254.898437c0-15.730469-12.796875-28.527344-28.527344-28.527344h-100.597656c-8.3125 0-15.804688 3.574219-21.023438 9.265625-5.21875-5.691406-12.707031-9.265625-21.019531-9.265625h-56.425781c-4.148438 0-7.507813 3.359375-7.507813 7.507812 0 4.148438 3.359375 7.507813 7.507813 7.507813h56.425781c7.453125 0 13.515625 6.0625 13.515625 13.511719v454.945312c0 7.453125-6.0625 13.511719-13.515625 13.511719h-100.597656c-7.449219 0-13.511719-6.058594-13.511719-13.511719v-454.945312c0-7.449219 6.0625-13.511719 13.511719-13.511719h9.703125c4.148437 0 7.507812-3.363281 7.507812-7.507813 0-4.148437-3.359375-7.507812-7.507812-7.507812h-9.703125c-15.730469 0-28.527344 12.796875-28.527344 28.527344v454.945312c0 15.730469 12.796875 28.527344 28.527344 28.527344h100.597656c8.3125 0 15.800781-3.574219 21.019531-9.265625 5.21875 5.691406 12.710938 9.265625 21.023438 9.265625h100.597656c3.589844 0 7.101563-.671875 10.390625-1.957031 2.097656 1.238281 4.535156 1.957031 7.144531 1.957031h125.863281c7.535157 0 13.714844-5.894531 14.066407-13.421875l5.695312-121.480469c.195313-4.140625-3.007812-7.65625-7.148437-7.851562-4.171875-.214844-7.65625 3.007812-7.851563 7.148437l-5.652343 120.589844h-124.082032l-9.304687-198.539063h142.695312l-2.078125 44.355469c-.195312 4.140625 3.003906 7.65625 7.148438 7.847657 4.144531.195312 7.65625-3.003907 7.851562-7.144532l2.125-45.332031c.179688-3.828125-1.234375-7.609375-3.878906-10.382813-2.644531-2.769531-6.359375-4.359374-10.1875-4.359374h-1.820312v-80.121094h3.472656c1.792968 0 3.25 1.460937 3.25 3.253906v40.710938c0 10.070312 8.195312 18.265624 18.269531 18.265624 4.148437 0 7.507813-3.359374 7.507813-7.507812 0-4.144531-3.359376-7.507812-7.507813-7.507812zm-117.445313-76.542969h11.164063l4.925781 10.046875h-21.015625zm-6.097656 25.0625h23.355469v84.386719h-23.355469zm-44.285156 84.386719c-3.828125 0-7.542969 1.585937-10.183594 4.355468-2.644531 2.773438-4.058594 6.554688-3.882812 10.382813l9.300781 198.382812c-1.09375.28125-2.226563.433594-3.375.433594h-100.597656c-7.453125 0-13.515625-6.0625-13.515625-13.511719v-454.945312c0-7.449219 6.0625-13.511719 13.515625-13.511719h100.597656c7.449219 0 13.511719 6.0625 13.511719 13.511719v254.902344zm104.464844 0v-96.078126c0-1.78125 1.449218-3.230468 3.230468-3.230468h16.894532c1.78125 0 3.230468 1.449218 3.230468 3.230468v96.078126zm0 0"/><path d="m127.378906 103.410156c0-26.769531-21.78125-48.550781-48.550781-48.550781-26.773437 0-48.550781 21.78125-48.550781 48.550781 0 26.769532 21.777344 48.550782 48.550781 48.550782 26.769531 0 48.550781-21.78125 48.550781-48.550782zm-48.550781 33.535156c-18.492187 0-33.535156-15.042968-33.535156-33.535156 0-18.492187 15.042969-33.535156 33.535156-33.535156 18.488281 0 33.53125 15.042969 33.53125 33.535156 0 18.492188-15.042969 33.535156-33.53125 33.535156zm0 0"/><path d="m62.8125 191c-6.625 0-12.011719 5.390625-12.011719 12.011719v194.199219c0 6.625 5.386719 12.011718 12.011719 12.011718h32.03125c6.625 0 12.011719-5.386718 12.011719-12.011718v-194.199219c0-6.621094-5.386719-12.011719-12.011719-12.011719zm29.027344 203.207031h-26.027344v-188.191406h26.027344zm0 0"/><path d="m221.464844 54.859375c-26.769532 0-48.550782 21.78125-48.550782 48.550781 0 26.769532 21.78125 48.550782 48.550782 48.550782 26.773437 0 48.550781-21.78125 48.550781-48.550782 0-26.769531-21.777344-48.550781-48.550781-48.550781zm0 82.085937c-18.488282 0-33.53125-15.042968-33.53125-33.535156 0-18.492187 15.042968-33.535156 33.53125-33.535156 18.492187 0 33.535156 15.042969 33.535156 33.535156 0 18.492188-15.042969 33.535156-33.535156 33.535156zm0 0"/><path d="m237.484375 191h-32.035156c-6.625 0-12.011719 5.390625-12.011719 12.011719v28.628906c0 4.148437 3.363281 7.507813 7.507812 7.507813 4.148438 0 7.507813-3.359376 7.507813-7.507813v-25.625h26.027344v188.191406h-26.027344v-127.863281c0-4.148438-3.359375-7.507812-7.507813-7.507812-4.144531 0-7.507812 3.359374-7.507812 7.507812v130.867188c0 6.625 5.386719 12.011718 12.011719 12.011718h32.035156c6.621094 0 12.011719-5.386718 12.011719-12.011718v-194.199219c0-6.621094-5.390625-12.011719-12.011719-12.011719zm0 0"/></svg>