<svg id="Layer_1" viewBox="0 0 512 512" xmlns="http://www.w3.org/2000/svg" data-name="Layer 1"><path d="m109.986 465.714c0 3.866-3.134 7-7 7h-14.485c-3.866 0-7-3.134-7-7s3.134-7 7-7h14.485c3.866 0 7 3.134 7 7zm-103.363-321.225v-15.601c0-10.018 6.555-18.53 15.6-21.484v-6.715c0-36.613 29.787-66.4 66.4-66.4s66.4 29.787 66.4 66.4v6.715c9.044 2.954 15.6 11.466 15.6 21.484v15.601c0 12.462-10.139 22.601-22.6 22.601s-22.601-10.139-22.601-22.601v-15.601c0-10.018 6.555-18.53 15.601-21.485v-6.715c0-28.894-23.507-52.4-52.4-52.4s-52.4 23.507-52.4 52.4v6.715c9.044 2.954 15.6 11.466 15.6 21.484v15.601c0 12.462-10.139 22.601-22.6 22.601s-22.6-10.139-22.6-22.601zm150-15.601c0-4.742-3.857-8.6-8.6-8.6s-8.601 3.857-8.601 8.6v15.601c0 4.742 3.858 8.601 8.601 8.601s8.6-3.858 8.6-8.601zm-136 15.601c0 4.742 3.857 8.601 8.6 8.601s8.6-3.858 8.6-8.601v-15.601c0-4.742-3.857-8.6-8.6-8.6s-8.6 3.857-8.6 8.6zm182.604 46.184v-137.955c0-12.164 9.896-22.061 22.061-22.061h6.253v-6.287c0-7.68 6.248-13.928 13.928-13.928h19.729c7.68 0 13.928 6.248 13.928 13.928v4.389c1.374-.751 2.66-1.726 3.868-2.933l12.895-12.895c5.928-5.927 13.182-8.932 21.562-8.932h168.483c12.164 0 22.061 9.896 22.061 22.061v164.613c0 12.164-9.896 22.061-22.061 22.061h-260.647c-12.164 0-22.061-9.896-22.061-22.061zm290.766 0v-111.713h-70.063c5.692 10.759 8.932 23.006 8.932 36.002 0 42.597-34.655 77.252-77.252 77.252s-77.252-34.655-77.252-77.252c0-12.995 3.24-25.243 8.932-36.002h-70.063v111.713c0 4.444 3.616 8.061 8.061 8.061h260.644c4.444 0 8.061-3.616 8.061-8.061zm-138.384-138.963c-34.877 0-63.252 28.375-63.252 63.252s28.375 63.252 63.252 63.252 63.252-28.375 63.252-63.252-28.375-63.252-63.252-63.252zm-110.069-21.053h19.584v-6.215h-19.584zm-28.313 22.061v12.242h79.565c14.181-16.656 35.28-27.25 58.817-27.25s44.636 10.594 58.817 27.25h79.565v-38.899c0-4.444-3.616-8.061-8.061-8.061h-168.483c-4.597 0-8.412 1.58-11.663 4.831l-12.895 12.894c-5.927 5.928-13.182 8.933-21.562 8.933h-46.041c-4.444 0-8.061 3.616-8.061 8.061zm68.027 121.221c0 10.69-8.698 19.389-19.389 19.389s-19.389-8.698-19.389-19.389 8.698-19.389 19.389-19.389 19.389 8.698 19.389 19.389zm-14 0c0-2.972-2.417-5.389-5.389-5.389s-5.389 2.417-5.389 5.389 2.417 5.389 5.389 5.389 5.389-2.417 5.389-5.389zm136.758-58.977c0 28.895-23.508 52.402-52.402 52.402s-52.402-23.508-52.402-52.402 23.508-52.402 52.402-52.402 52.402 23.508 52.402 52.402zm-14 0c0-21.175-17.228-38.402-38.402-38.402s-38.402 17.228-38.402 38.402 17.228 38.402 38.402 38.402 38.402-17.228 38.402-38.402zm-206.517 223.427v141.699c0 15.391-12.521 27.912-27.913 27.912h-127.677c-15.392 0-27.913-12.521-27.913-27.912v-256.786c0-15.392 12.521-27.913 27.913-27.913h127.677c15.392 0 27.913 12.521 27.913 27.913v24.887h101.468c24.868 0 45.101 20.231 45.101 45.1s-20.232 45.101-45.101 45.101h-101.468zm101.468-76.2h-138.474v62.2h138.474c17.149 0 31.101-13.951 31.101-31.101s-13.951-31.1-31.101-31.1zm-230.566-52.8 3.892 6.741c.855 1.482 2.158 2.234 3.87 2.234h59.169c1.713 0 3.015-.751 3.87-2.233l3.892-6.742zm115.098 129h-30.006c-3.866 0-7-3.134-7-7v-10.439h-28.902c-3.866 0-7-3.134-7-7v-41.321c0-3.866 3.134-7 7-7h28.902v-10.439c0-3.866 3.134-7 7-7h30.006v-24.887c0-7.672-6.241-13.913-13.913-13.913h-10.325l-7.933 13.741c-3.338 5.782-9.317 9.234-15.995 9.234h-59.169c-6.677 0-12.656-3.452-15.994-9.234l-7.934-13.741h-10.326c-7.672 0-13.913 6.241-13.913 13.913v256.785c0 7.671 6.241 13.912 13.913 13.912h127.677c7.672 0 13.913-6.241 13.913-13.912v-141.699zm-37.006-58.761h-21.902v27.321h21.902zm131.074 13.66c0-11.8 9.6-21.4 21.399-21.4s21.4 9.601 21.4 21.4-9.601 21.4-21.4 21.4-21.399-9.601-21.399-21.4zm14 0c0 4.081 3.319 7.4 7.399 7.4s7.4-3.319 7.4-7.4-3.319-7.4-7.4-7.4-7.399 3.319-7.399 7.4zm211.446 209.51c-5.215 3.278-11.663 5.16-18.447 5.16-10.171 0-21.095-4.23-29.747-14.334-.063-.075-.126-.151-.187-.229l-29.265-37.249c-4.502-5.203-10.279-7.841-17.174-7.841h-56.35c-6.896 0-12.672 2.638-17.174 7.84l-29.266 37.25c-.061.077-.123.153-.188.229-8.65 10.103-19.576 14.334-29.746 14.334-6.785 0-13.232-1.882-18.447-5.16-11.307-7.106-20.881-23.664-10.649-46.939.02-.045.04-.089.061-.134l27.322-58.795c3.068-21.9 21.915-38.811 44.646-38.811h32.208v-2.311c0-10.618 8.639-19.257 19.257-19.257h2.62v-2.515c0-31.58 16.408-40.889 33.214-47.716l.249-.101c24.1-9.791 60.52-24.586 60.48-53.316-.005-3.866 3.125-7.004 6.99-7.01h.01c3.862 0 6.994 3.128 7 6.99.052 38.169-43.306 55.782-69.211 66.306l-.249.102c-14.789 6.008-24.483 11.672-24.483 34.745v2.515h3.68c10.618 0 19.257 8.639 19.257 19.257v2.311h32.209c22.732 0 41.579 16.911 44.646 38.811l27.321 58.795c.021.045.041.089.061.134 10.231 23.275.657 39.833-10.649 46.939zm-138.401-144.68h30.813v-2.311c0-2.898-2.358-5.257-5.257-5.257h-20.3c-2.898 0-5.257 2.358-5.257 5.257v2.311zm-41.585 90.188h-4.623c-18.111 0-33.753-10.738-40.919-26.177l-18.321 39.426c-5.603 12.795-3.619 23.779 5.311 29.392 7.925 4.98 20.761 4.397 30.018-6.32l28.535-36.319zm118.607-14c17.146 0 31.094-13.948 31.094-31.094s-13.948-31.094-31.094-31.094h-123.23c-17.146 0-31.094 13.948-31.094 31.094s13.948 31.094 31.094 31.094zm59.24 27.249-18.321-39.426c-7.166 15.439-22.808 26.177-40.919 26.177h-4.624l28.535 36.319c9.259 10.718 22.096 11.3 30.018 6.32 8.93-5.612 10.912-16.596 5.312-29.391zm-67.075-81.253h-1.453c-3.866 0-7 3.134-7 7s3.134 7 7 7h1.453c3.866 0 7-3.134 7-7s-3.134-7-7-7zm0 31.821h-1.453c-3.866 0-7 3.134-7 7s3.134 7 7 7h1.453c3.866 0 7-3.134 7-7s-3.134-7-7-7zm-16.174-15.911h-1.453c-3.866 0-7 3.134-7 7s3.134 7 7 7h1.453c3.866 0 7-3.134 7-7s-3.134-7-7-7zm30.895 14h1.454c3.866 0 7-3.134 7-7s-3.134-7-7-7h-1.454c-3.866 0-7 3.134-7 7s3.134 7 7 7zm-105.582-14h-9.437v-9.437c0-3.866-3.134-7-7-7s-7 3.134-7 7v9.437h-9.438c-3.866 0-7 3.134-7 7s3.134 7 7 7h9.438v9.438c0 3.866 3.134 7 7 7s7-3.134 7-7v-9.438h9.437c3.866 0 7-3.134 7-7s-3.134-7-7-7z"/></svg>