<svg id="Layer_4" viewBox="0 0 512 512" xmlns="http://www.w3.org/2000/svg" data-name="Layer 4"><path d="m502 316.9121094h-55.0889282c3.633667-2.2583008 6.6452026-4.9174805 8.2315063-8.0068359 8.0722656-15.7197266 10.8222656-31.3632812 8.4082031-47.8251953-4.7749207-25.0451731-35.3715795-18.6584351-52.6401367-4.3769531v-45.6259766h13.4785156c2.7612305 0 5-2.2382812 5-5v-87.2802734c0-2.7617188-2.2387695-5-5-5h-72.637207c-2.7612305 0-5 2.2382812-5 5s2.2387695 5 5 5h67.637207v77.2802734h-64.0865479c-1.4926685-5.4971191-22.0200504-81.0929893-22.6981201-83.5908203-.000061 0-.0001221-.0004883-.0001831-.0004883l-.9289551-3.4208984c8.9932251-3.9995117 17.2900391-9.25 20.6473999-15.7875977 11.796875-22.9736328 15.8183594-45.8203125 12.2944336-69.8466797-7.7414568-39.5353074-61.6512547-22.1380761-84.5307578 4.4433994-8.0659219 8.8964444-14.687504 17.7011319-19.680668 26.1698819-1.4023438 2.3779297-.6113281 5.4433594 1.7675781 6.8457031 2.3789062 1.4042969 5.4443359.6123047 6.8466797-1.7675781 4.6489258-7.8837891 10.8642578-16.1376953 18.4741211-24.53125 17.9023438-19.7451172 42.4814453-27.3222656 55.8989258-23.2353516 6.4912109 1.9755859 10.3032227 6.5263672 11.3295898 13.5263672 3.2114258 21.8935547-.4833984 42.7714844-11.2954102 63.8271484-4.4270641 9.9115084-37.5476277 18.9924594-44.0426766 20.0865555.0001961.0003586-38.1365226.0003586-38.1365226.0003586v-3.2138672c4.6829224-6.3837891 27.2836914-35.8647461 50.9169922-44.0703125 10.3647461-3.5986328 15.7724527-2.8164062 17.3759766-.8847656 1.8076172 2.1767578.9697266 7.2314453-.9472656 10.5869141-1.3701172 2.3974609-.5371094 5.4521484 1.8608398 6.8212891 2.3964844 1.3701172 5.4516602.5380859 6.8217773-1.8603516 3.5678711-6.2441406 5.0766602-15.7714844-.0415039-21.9365234-5.1401367-6.1904297-14.6791992-6.921875-28.3500977-2.1738281-19.3779297 6.7285156-37.3030396 25.09375-47.6367188 37.355957-.1072208-2.2771596.2331143-7.8450447-.3016617-10.0029689-1.4160072-7.8343052-8.4007394-13.8816678-16.6983349-13.8686045-.0000034-.0000086-54.1074252-.0000086-54.1074252-.0000086-3.3817139 0-6.5280151 1.0039062-9.178772 2.7128906-3.2910156-8.7592773-10.5697632-22.6425781-26.6591187-40.3876953-22.8699819-26.5797613-76.7935809-43.9802929-84.5313105-4.4434577-3.523377 24.0274421.4981074 46.8741218 12.2949824 69.846778 3.2834473 6.3945312 11.2949219 11.5537109 20.0593262 15.5195312h-92.1257322c-2.7612305 0-5 2.2382812-5 5v87.2802734c0 2.7617188 2.2387695 5 5 5h66.3720703c-.9649551 3.6896703 2.673405 7.1787571 6.3189212 5.991134-.0000736.0000769 33.4276608-10.263595 33.4276608-10.263595l23.6459961 25.7607422c1.2146118 1.3151759 3.1263566 1.9050137 4.8662171 1.4775218 1.7695251-.4306468 3.1655212-1.7900218 3.642572-3.5478343l5.2727051-19.4179688h26.4094238v286.1865234h-146.4770508v-268.0791015c0-2.7617188-2.2387695-5-5-5s-5 2.2382812-5 5v273.0791016c0 2.7617188 2.2387695 5 5 5h156.4770508c57.9307089.0102923 141.7053971-.0074187 199.7314247.0000225.0000206-.0000225 104.9223839-.0000225 104.9223839-.0000225 2.7612305 0 5-2.2382812 5-5v-102.0742188c-.2452074-6.6254222-9.789419-6.5937216-10.0000347.0001137.0000347-.0001137.0000347 97.0741051.0000347 97.0741051h-94.9223633v-111.8261719h14.8012695l20.949208 77.1484375c.5468857 2.0146484 2.2880967 3.4775391 4.3671982 3.6679688 2.0318624.1950514 4.0870171-.9643686 4.9628767-2.8095947.000014.0000244 11.8183733-24.5478272 11.8183733-24.5478272l22.6108398 15.1992188c1.7329102 1.1640625 4.0063477 1.1318359 5.703125-.0859375 1.7033111-1.2126709 2.4584193-3.3915881 1.911614-5.3740264l-17.1608206-63.1982392c8.6946896.0006622 34.0740788-.0004773 42.3492963.0000014 2.7612384-.0000014 5.0000079-2.2382827 5.0000079-5.0000014v-58.5253906c0-2.7617188-2.2387695-5-5-5zm-54.7900391-62.1142578c3.7416992 1.1386719 5.8500977 3.6679688 6.4462891 7.7333984 2.1020508 14.3291016-.3217773 28.0039062-7.4091797 41.8056641-2.3908235 5.5018089-22.5646364 11.5646777-28.2442721 12.5749485.0001315.0002468-23.7209379.0002468-23.7209379.0002468 3.7069092-4.984375 18.1174927-23.3320312 33.008667-28.5019531 6.8134766-2.3671875 9.4560547-1.5644531 9.8432617-1.0976562.5107422.6152344.3979492 3.1367188-.7978516 5.2294922-1.3701172 2.3974609-.5371094 5.4511719 1.8603516 6.8212891 2.3974609 1.3691406 5.4516602.5380859 6.8222656-1.8603516 2.6650391-4.6640625 3.7421875-11.8408203-.190918-16.578125-3.9296875-4.7324219-10.934082-5.3945312-20.8173828-1.9619141-11.838501 4.1113281-22.8327026 14.4648438-30.090271 22.5913086-.0846986-.4236713-.1878189-.8430304-.3062134-1.2592773 1.643756-9.0140751 6.7410417-16.5697275 12.2565336-23.8115911 10.801961-15.1365986 29.2650438-25.1681413 41.3396578-21.6854792zm-161.1499023 174.5595703c-1.2275328-2.7056985-4.8732456-3.6690493-7.2949412-1.9803834.0000193-.0000853-16.2729299 10.9383913-16.2729299 10.9383913l31.2147217-114.9541016c5.6682739 1.8730469 10.6618652 2.9887695 12.729248 3.4145508.405443.0901659.7623183.135653 1.1702884.1362302l19.5740353.0000003c-7.9057925 29.1144212-24.6212773 90.6720582-32.6155396 120.1123047l-8.5048828-17.6669922zm-49.5307617-53.9199219h-7.3901367v-48.5253906h53.2412109l-.7460327 2.7475586-12.430481 45.777832zm78.1816406-105.5283203c15.824649 18.0002026 16.6906144 25.7049391 17.8198242 30.3642578-.12093.4232514-.2251857.8500902-.3115845 1.2807617-7.2576904-8.1264648-18.2520142-18.4799805-30.0907593-22.5913086-9.8833008-3.4316406-16.887207-2.7714844-20.8173828 1.9619141-3.9326172 4.7373047-2.8554688 11.9140625-.1904297 16.578125 1.3701172 2.3974609 4.4248047 3.2294922 6.8222656 1.8603516 2.3974609-1.3701172 3.2304688-4.4238281 1.8603516-6.8212891-1.1958008-2.0927734-1.3085938-4.6142578-.7983398-5.2294922.3881836-.4667969 3.027832-1.2695312 9.8432617 1.0976562 14.8898315 5.1694336 29.3005981 23.5151367 33.0092773 28.5019531h-23.7211914c-5.5261457-1.1068629-24.2600151-6.3314477-28.0447295-12.2369681-5.4635091-10.3680765-8.1962269-20.8800195-8.3346355-31.5066712-.0423879-3.5131967.2001658-7.0547006.7255565-10.6372201.5961914-4.0644531 2.7050712-6.59375 6.4462891-7.7324219 10.9715415-2.4638688 24.1917421 2.9562027 35.7822266 15.1103516zm29.673645 29.6484375c1.248081-1.0553713 2.8642636-1.6357991 4.4982326-1.6445235-.0000026-.0000078 28.3735326-.0000078 28.3735326-.0000078.6838567.0024287 1.3534687.1153758 2.0082396.2968771 2.8963971.8333374 5.0154924 3.6893702 4.9917268 6.7031484.0000336-.0000255.0000336 11.998998.0000336 11.998998h-42.3735352v-11.9990234c-.0046137-2.0372112.9503217-4.0505395 2.50177-5.3554688zm-14.361145 55.0454101v20.8344727h-5.6574707zm56.0922852 20.8334961h-46.0922852v-48.5244141h46.0922852zm-86.2060547-251.640625c3.9737102-.5609455 11.2759225-2.3052622 22.4042358-6.046875l.6400146 2.3569336c-.0005378.000332 23.0101606 84.7410096 23.0101318 84.7416992l-27.776062-8.5292969c-.2007446-.0615234-.4039307-.1040039-.6074829-.1391602-1.6651001-.2915039-3.3822021.2734375-4.543396 1.5385742l-19.6474609 21.4042969c-6.9604938-25.6344239-18.9510696-69.7912632-25.8847656-95.3261719h32.4047852zm-50.4760742 77.28125h-69.065918v-77.2802734h73.6533203v77.2802734zm14.5874023-51.9511718c.0240672.0893597 14.0723974 51.8246321 14.1066895 51.9511719h-14.1066895zm-73.8803711-68.5771485h54.1074219c3.8904874-.0238776 7.0169418 3.2448301 6.9999705 7.0000259.0000295-.0000259.0000295 26.2470444.0000295 26.2470444h-68.1074219v-26.2470703c-.0173366-3.7551474 3.109392-7.0241791 7-7zm-99.1787109 13.1601563c-10.8120117-21.0546875-14.5068359-41.9326172-11.2954102-63.8271484 1.0263672-7 4.8383789-11.5517578 11.3295898-13.5273438 32.2428287-7.5227519 65.9186103 28.4129273 78.7687269 56.1301488 2.6682848 5.8249293 3.5496325 9.702859 3.8172106 11.2096949-.6747308 2.5650508-.3892209 8.0547226-.4414062 10.7260742-10.3336182-12.262207-28.258606-30.6274414-47.6362305-37.355957-13.671875-4.7460938-23.2099609-4.0146484-28.3500977 2.1738281-5.1181641 6.1650391-3.609375 15.6923828-.0415039 21.9365234 1.3701172 2.3974609 4.4257812 3.2304688 6.8217773 1.8603516 2.3974609-1.3691406 3.230957-4.4238281 1.8608398-6.8212891-1.9169922-3.3554688-2.7548828-8.4101562-.9472656-10.5869141 1.6040039-1.9316406 7.0117188-2.7138672 17.3759766.8847656 23.6328735 8.2055664 46.2335815 37.6865234 50.9165039 44.0703125v3.2138672h-38.137207c-6.4888137-1.0927643-39.6155655-10.1725224-44.0415039-20.0869141zm-62.4833985 107.368164h-13.4785156v-77.2802734h85.0707397c-1.7279402 6.3635778-19.8859381 73.2355734-20.984314 77.2802734zm92.8730469-3.359375c-1.2820135-1.3941116-3.3425074-1.9596344-5.151376-1.3984154.0000088-.0000221-27.7753208 8.5282982-27.7753208 8.5282982 4.4465952-16.378267 18.9822879-69.9028048 23.6499023-87.0986328 9.8981934 3.4648438 18.8474731 5.4179688 21.1925049 5.9023438.4296596.0947668.7840187.1438593 1.2122189.1445308l32.4044193.0000005c-2.7559295 10.1495935-23.7421484 87.4357481-25.8843994 95.3271484l-19.6479492-21.4052734zm49.0161133-48.5898437v51.9492188h-14.1062012zm19.5878906 61.9492187h54.4780273v85.9257812c0 2.7617188 2.2387695 5 5 5s5-2.2382812 5-5v-85.9257812h26.4094238l5.2727051 19.4179688c.4770508 1.7578125 1.8730469 3.1171875 3.6430664 3.5478516 1.7401981.4289879 3.6513848-.1614985 4.8657148-1.4775581.0000079.0000191 23.6455157-25.7607231 23.6455157-25.7607231l33.4282227 10.2636719c3.647291 1.1846695 7.2832708-2.3004225 6.3188477-5.9912109h42.8935547v55.6655273c-8.5213623 10.0610352-12.7770386 18.121582-14.8979492 23.5859375-2.6229706-1.5767543-5.6854491-2.4012966-8.7563489-2.4155224l-28.3735339-.0000049c-3.0701439.0143431-6.1321905.8383528-8.7548828 2.4140625-4.0485091-10.1620378-10.736863-19.0324998-18.0087419-27.1347953-12.7635694-13.4966975-30.2671632-21.9870742-46.1019625-17.9614454-7.4957409 2.2817876-12.2647839 7.9097173-13.4293347 15.8491704-.6035156 4.1157227-.8842163 8.1801758-.8397217 12.2080078.1385592 12.1507718 3.2370024 24.0644855 9.3944438 35.8725694 1.51321 2.7978408 4.1603047 5.3666884 8.0297505 7.751454h-55.0332031c-2.7612305 0-5 2.2382812-5 5v58.5253906c0 2.7617188 2.2387695 5 5 5h7.3901367v111.8261719h-41.5737305zm51.5737305 286.1865235v-111.8261719h24.9591675l-17.1608276 63.1982422c-.4789429 1.7626953.0447388 3.6235352 1.3198853 4.8764648 1.6636665 1.6558195 4.3550734 1.9081536 6.2948592.5834757l22.6108415-15.1991984 11.8178711 24.5478516c.8801282 1.8433018 2.9290734 3.0044237 4.9633966 2.8095427 2.0790839-.1904021 3.8202948-1.6532927 4.3671698-3.6679412l20.9489136-77.1484375h14.8015747v111.8261719h-94.9228516zm138.1577148 0h-33.2348633v-111.8261719h33.2348633zm16.428711-121.8261719v-20.8344727l5.6572266 20.8344727zm51.2583007 51.9394531c-2.4170781-1.7082205-6.0732727-.7124606-7.2948981 1.9805464-.0000237-.0000776-8.5049066 17.6669145-8.5049066 17.6669145-2.2785179-8.3910593-31.4556735-115.8399056-32.6156006-120.1123047h19.5740967c.4082852-.0006297.7643064-.046082 1.1702858-.1362317 2.0673851-.4257801 7.0609764-1.5415027 12.7291893-3.4145496l31.2147827 114.9541016-16.2729492-10.9384766zm49.6259766-51.9394531h-40.0646973l-12.430481-45.777832-.7460327-2.7475586h53.2412109v48.5253906z"/></svg>