<svg clip-rule="evenodd" fill-rule="evenodd" height="6.827in" image-rendering="optimizeQuality" shape-rendering="geometricPrecision" text-rendering="geometricPrecision" viewBox="0 0 6.82666 6.82666" width="6.827in" xmlns="http://www.w3.org/2000/svg"><g id="Layer_x0020_1"><g id="_303673120"><path id="_303675016" d="m1.75235 4.8903c-.16472.00014173-.31626-.0388858-.324866-.0411102-.0204173-.00541339-.0370866-.0201378-.045-.0397205-.0592913-.148197.0429134-.4625.0640276-.524028.00752756-.0222244.026248-.038748.0491654-.0436102.277362-.0590276.449445.135831.527362.257083.019874.0309724.0109724.0722205-.02.0922244-.0309724.0198583-.0722205.0108346-.0922205-.0201417-.067626-.105276-.181945-.222224-.350555-.204583-.0365079.1175-.0715315.277917-.061252.362362.0783386.0163858.263193.0473583.403331.0123583.0356969-.00888583.0718031.0127795.0808346.0484724.00888976.0356969-.0127795.0719449-.0484724.0808346-.0581654.0145827-.121248.0198583-.182354.0198583z"/><path id="_303674944" d="m2.46804 4.89044c-.0610945 0-.124028-.00541732-.18222-.02-.035689-.00888976-.0573622-.0451378-.0484724-.0808346.00890945-.0356929.0451378-.0575.0808307-.0484724.140142.035.324862.00402756.403335-.0123583.0102756-.0844488-.0247244-.244862-.0613898-.362362-.168335-.0176417-.28278.0993071-.350555.204583-.0198425.0309724-.0611102.04-.0920827.0201417-.0309449-.0200039-.04-.061252-.02-.0922244.0779291-.121252.250138-.31611.527358-.257083.0229449.00485827.0415276.0213898.0491693.0436102.0211181.0615276.123193.375831.0640276.524028-.00790945.0195827-.0245827.0343071-.0451378.0397205-.00861417.00222441-.16.041252-.324862.041252z"/><path id="_303674872" d="m2.00013 4.59502c-.0110906 0-.020563.00944094-.020563.0205551v.15972c0 .0111102.00944488.0204173.0205551.0204173h.220291c.011126 0 .0205433-.00930709.0205433-.0204173l.00001968-.159724c0-.0111102-.00946457-.0205512-.0205787-.0205512h-.220268zm.220283.334024h-.220283c-.0848425 0-.153898-.0688898-.153898-.153748l.00002362-.159724c0-.0848622.0690039-.153886.153866-.153886h.220291c.084874 0 .153874.0690276.153874.15389v.15972c0 .0848583-.0690276.153748-.153874.153748z"/><path id="_303674800" d="m1.69889 5.5521c-.0172205 0-.0340394-.00666535-.0466772-.0190276-.145823-.143193-.199858-.416665-.202087-.428193-.0013622-.00722047-.00166142-.0147205-.00055512-.0220827.00806693-.0569488.105697-.211807.163055-.299028.0202953-.0308346.0616732-.0393071.0923661-.0190276.0308346.0201378.0393071.0615276.0190276.0923583-.0579134.0880591-.123752.198059-.13972.237504.00946457.0409685.0392992.157776.0952717.254858.0570984-.1475.158339-.401528.224311-.526528.0172244-.0326378.0575-.045.09-.0279173.0326654.0172244.0451378.0575.0279173.0901417-.090252.17111-.258752.619303-.260417.623748-.00789764.0211102-.0261142.0368071-.0480591.0416654-.00483858.00111417-.00958268.0015315-.0144331.00152756z"/><path id="_303674728" d="m2.63848 5.10363h.00012205zm-.117783.448472c-.00471654 0-.00959843-.00041339-.0143189-.00152756-.0220866-.00485827-.0401417-.0205551-.0480591-.0416654-.00165354-.00444488-.17-.452083-.260276-.623472-.0172205-.0326378-.00472441-.0729173.0279173-.0901378.0325197-.0170827.0729173-.00458661.09.0279173.0659882.125.166803.378472.224028.525969.0509921-.0891654.0827795-.197638.0954173-.254303-.0147087-.0365276-.0738898-.137362-.139862-.23778l.111528-.0731929-.055811.0365276.055811-.0365276c.0701575.106803.155417.245413.163055.29889.00097638.0073622.00083465.0148622-.00055906.0220827-.0022126.0115276-.056248.285-.202079.428193-.0126339.0123622-.0294449.0190315-.0467913.0190276z"/><path id="_303674656" d="m3.75542 6.0403h-3.29028c-.058063 0-.105287-.0472244-.105287-.105276l.00000787-2.44139c0-.0580551.0472165-.105276.105272-.105276l3.29029-.00000394c.058063 0 .105264.0472244.105264.105283l.00001575.464858c0 .0368071-.029874.0665276-.0666811.0665276-.0367874 0-.0666693-.0297205-.0666693-.0665276l.00000787-.436803h-3.23416v2.38528h3.23416v-.175835c0-.0368031.0298543-.0666614.0666614-.0666614.0368071-.00000394.0666654.0298583.0666654.0666614l.00001575.20389c0 .0580551-.0472362.10528-.10528.10528z"/><path id="_303674584" d="m1.8932 4.50641c-.036811 0-.0666811-.0298583-.0666811-.0666693l.00002756-.98472c0-.0368071.0298307-.0666654.0666378-.0666654.0368307-.00000394.0666654.0298583.0666654.0666654l.00000787.98472c0 .036811-.0298661.0666693-.0666575.0666693zm.434157 0c-.036811 0-.0666732-.0298583-.0666732-.0666693l.00001575-.98472c0-.0368071.0298465-.0666654.0666535-.0666654.036815-.00000394.0666654.0298583.0666654.0666654l.00002756.98472c0 .036811-.0298898.0666693-.066689.0666693zm-.434157 1.53389c-.036811 0-.0666811-.0298622-.0666811-.0666693l.00002756-.971528c0-.0368031.0298307-.0666654.0666378-.0666654.0368307 0 .0666654.0298622.0666654.0666654l.00000787.971528c0 .0368071-.0298661.0666693-.0666575.0666693zm.434157 0c-.036811 0-.0666732-.0298622-.0666732-.0666693l.00001575-.969441c0-.0369488.0298465-.0666693.0666535-.0666693.036815 0 .0666654.0297205.0666654.0666693l.00002756.969441c0 .0368071-.0298898.0666693-.066689.0666693z"/><path id="_303674512" d="m1.45679 4.56391h-1.03025c-.036815 0-.0666969-.0298622-.0666969-.0666654.00000787-.0368071.0298622-.0666693.0666693-.0666693h1.03028c.036811 0 .0666693.0298622.0666693.0666693.00001968.0368031-.0298622.0666654-.0666693.0666654zm2.15669 0h-.849878c-.0367795 0-.0665354-.0298622-.0665354-.0666654.00000394-.0368071.0297283-.0666693.0665315-.0666693h.849882c.036811 0 .0666457.0298622.0666457.0666693.00000787.0368031-.0298622.0666654-.0666457.0666654zm-2.01528.434165h-1.17165c-.036815 0-.0666969-.0297205-.0666969-.0666654.00000787-.0368071.0298622-.0666654.0666693-.0666654h1.17168c.036815 0 .0666496.0298583.0666496.0666654.00000787.0369449-.0298583.0666654-.0666496.0666654zm2.00778 0h-.984594c-.036815 0-.0666772-.0297205-.0666772-.0666654.00001968-.0368071.0298622-.0666654.0666693-.0666654h.984602c.036811 0 .0665079.0298583.0665079.0666654.00002362.0369449-.0297244.0666654-.0665079.0666654z"/><path id="_303674440" d="m3.26389 3.52169c-.036815 0-.0666772-.0298622-.0666772-.0666693l.00001968-2.025h-2.17391v2.025c0 .0368031-.0298622.0666693-.0666732.0666693-.0367953 0-.0666614-.0298622-.0666614-.0666693l.00002362-2.09167c0-.0368031.0298346-.0666654.0666378-.0666654l2.30724-.00000394c.036811 0 .0666575.0298661.0666575.0666732l.00002756 2.09167c0 .0368031-.0298898.0666693-.066685.0666693z"/><path id="_303674368" d="m1.8932 3.52169c-.036811 0-.0666811-.0298622-.0666811-.0666693l.00002756-2.09167c0-.0368031.0298307-.0666654.0666378-.0666654.0368307-.00000394.0666654.0298622.0666654.0666693l.00000787 2.09167c0 .0368031-.0298661.0666693-.0666575.0666693zm.434157 0c-.036811 0-.0666732-.0298622-.0666732-.0666693l.00001575-2.09167c0-.0368031.0298465-.0666654.0666535-.0666654.036815-.00000394.0666654.0298622.0666654.0666693l.00002756 2.09167c0 .0368031-.0298898.0666693-.066689.0666693z"/><path id="_303674296" d="m2.78332 1.43002c-.015811 0-.0319449-.00569291-.0447283-.0172205-.0272087-.0247283-.0292992-.0668071-.0045748-.0941693.0922402-.101807.126941-.215138.090689-.295835-.0299803-.0666654-.10778-.104028-.211528-.103051-.0967953.00111024-.171945.0351378-.223193.101248-.0226339.0290276-.0644449.0343071-.0936102.0118031-.0290236-.0226378-.034311-.0644409-.011811-.0936102.0532244-.0686142.153197-.150831.327087-.152776.159732-.00180709.281807.0644449.334583.181665.0593071.131665.0169449.296114-.113472.440138-.0130354.0144449-.031248.0218071-.0494409.0218071z"/><path id="_303674224" d="m1.43707 1.43002c-.018185 0-.036252-.0073622-.0494488-.0218071-.130268-.144028-.172634-.308469-.113331-.440138.0527795-.11722.174169-.18361.334445-.181665.174055.00194488.27389.0841654.327224.152776.0225197.0291654.0172165.0709764-.0119449.0936102-.0290039.0225-.0709724.0172244-.0934724-.0118031-.051252-.0661102-.12639-.100138-.223335-.101248-.104291-.00083465-.18139.0363898-.21139.103051-.036248.0806969-.00152756.194028.0906969.295835.0247441.0273622.0226339.0694449-.00472441.0941693-.012748.0115276-.028748.0172205-.0447205.0172205z"/><path id="_303674152" d="m2.25904 1.43002c-.0369724 0-.0668346-.0297205-.0668346-.0666654.00001968-.0368071.0298583-.0666693.0668071-.0666693.0180551-.00000394.0334724-.0152756.0334724-.0334724l.00002362-.220831c0-.0181969-.0154449-.0334724-.0334961-.0334724l-.297472-.00000394c-.0182205 0-.0335.0152835-.0335.0334764l.00002756.220831c0 .0181969.015248.0334724.0334449.0334724.0368071-.00000394.0666654.0298622.0666654.0666693.00001575.0369449-.0298622.0666654-.0666654.0666654-.0919449 0-.166807-.0748583-.166807-.166807l.00001968-.220831c0-.0919449.0748386-.166803.166787-.166803l.297528-.00000394c.091937 0 .166776.0748622.166776.166807l.00000394.220831c0 .0919449-.0748622.166807-.16678.166807z"/><path id="_303674080" d="m1.8932 2.25877h-.936531c-.036811 0-.0666772-.0298583-.0666772-.0666614.00002362-.036811.0298583-.0666693.0666614-.0666693h.936547c.036815 0 .0666496.0298622.0666496.0666693.00000787.0368031-.0298583.0666614-.0666496.0666614zm1.37069 0h-.936531c-.036811 0-.0666732-.0298583-.0666732-.0666614.00001575-.036811.0298622-.0666693.0666693-.0666693h.936535c.036811 0 .0666575.0298622.0666575.0666693.00002756.0368031-.0298622.0666614-.0666575.0666614zm-1.37069.434307h-.936531c-.036811 0-.0666772-.0298583-.0666772-.0666654.00002362-.0369449.0298583-.0666654.0666614-.0666654h.936547c.036815 0 .0666496.0297205.0666496.0666654.00000787.0368071-.0298583.0666654-.0666496.0666654zm1.37069 0h-.936531c-.036811 0-.0666732-.0298583-.0666732-.0666654.00001575-.0369449.0298622-.0666654.0666693-.0666654h.936535c.036811 0 .0666575.0297205.0666575.0666654.00002756.0368071-.0298622.0666654-.0666575.0666654z"/><path id="_303674008" d="m4.23376 3.21419c-.0627795 0-.113913.0511102-.113913.11389.00000787.0627756.0511142.11389.11389.11389h1.50806c.0627795 0 .113752-.0511102.113752-.11389.00002756-.0627795-.0509764-.11389-.113752-.11389h-1.50803zm1.50803.361114h-1.50803c-.136248 0-.247244-.110835-.247244-.247224.00002756-.136248.110972-.24722.24722-.24722h1.50806c.136252 0 .247087.110972.247087.24722.00000787.13639-.110835.247224-.247087.247224z"/><path id="_303673936" d="m5.69332 3.21419c-.0184685 0-.0368071-.0075-.05-.0224961-.213311-.241531-.259587-.51528-.138335-.81528-.0295709.00833071-.0623661.0161102-.0969449.0161102-.0442835 0-.0863898-.0119449-.123335-.0225-.0315118-.00902756-.0611102-.0175-.0868031-.0175-.0258346 0-.0556969.00833465-.0870866.0172205-.0369331.0102795-.0788858.0220866-.123055.0220866-.0441614-.00000394-.0861102-.0118071-.123055-.0220866-.0315118-.00888583-.061248-.0172205-.0870827-.0172205-.0256772 0-.0554173.00847244-.0868071.0175-.0370591.0105551-.0790236.0225-.123331.0225-.0346969 0-.0673622-.00777559-.0969449-.0161102.121248.3.075.573748-.138335.81528-.0244173.0276378-.0665315.0302756-.0941654.00583071-.0275-.0243071-.0301378-.0665276-.00583465-.0940276.20252-.229445.224307-.484441.066252-.77972-.0101378-.0190315-.0104173-.0418071-.00083858-.061252.0096063-.0193071.0279213-.0327756.049311-.0361102.0533583-.00847244.102087.00541732.145134.0176417.0275039.00777165.0534764.0151339.0754213.0151339.0257087 0 .0552795-.0084685.0866654-.0173583.0371063-.0105591.0790276-.0226378.123472-.0226378.0441654-.00000394.0859685.0118031.123055.0220787.0313898.00888976.061252.0172244.0870827.0172244.0258386 0 .0555551-.00833071.0870827-.0172244.0369764-.0102756.0788898-.0220787.123059-.0220787.0443228-.00000394.086248.0120787.123331.0226378.0313976.00888583.0611142.0173583.0868071.0173583.0219685 0 .0477795-.0073622.0752795-.0151339.043063-.0122283.0917992-.0261142.145276-.0176417.0212559.00333071.0395787.0168071.0493071.0361102.0096063.0194449.00916142.0422244-.00097244.061252-.15789.29528-.136252.550276.066248.77972.0244528.0275.0218071.0697244-.00583071.0940276-.012622.011252-.0283346.0166654-.0440276.0166654z"/><path id="_303673864" d="m5.63904 6.0403h-1.3025c-.43972 0-.79739-.357642-.79739-.797224l.00001181-.603748c0-.484724.247209-.92889.66124-1.18819.0311378-.0195827.0723583-.01.0918031.0211102.0195827.031248.0101417.0723583-.0211102.0919409-.374713.234724-.59861.636669-.59861 1.07514l.00002362.603748c0 .36611.29789.66389.664004.66389h1.30253c.366091 0 .663862-.29778.663862-.66389l.00001181-.603748c0-.438476-.223764-.840417-.598626-1.07514-.0310945-.0195827-.0405551-.0606929-.0211102-.0919409.0196102-.0311142.0606969-.0406929.0919449-.0211102.414039.259303.66111.703469.66111 1.18819l.00002362.603748c0 .439583-.357665.797224-.797217.797224z"/><path id="_303673792" d="m4.25779 4.63613c-.021248 0-.0416929-.01-.0544724-.0279173-.114839-.161394-.224028-.25-.324583-.263335-.0330394-.00444488-.0577756-.0327795-.0577756-.0661102.00001968-.0334724.0247205-.0616693.0577756-.0661102.100555-.0133386.209724-.101945.324583-.263339.0172244-.0240276.0480591-.0338858.0759724-.0243031.166.0569449.320555.0586142.472776.00514173.0347244-.0120866.0727795.00611024.0850039.0408307.0120945.0348583-.00611024.0727756-.0408346.085-.164445.0577795-.336941.0611102-.513055.01-.0724843.0954134-.144165.16611-.216248.21278.0721102.0466654.143748.117362.216248.212776.0913898-.0265276.182083-.0384724.270413-.0356929.0368228.00111024.0657008.0318031.0645866.0686102-.00111024.0361102-.0306929.0645827-.0666654.0645827-.00069291 0-.0013937 0-.00208268 0-.0872047-.00277559-.178197.0119449-.270142.0434724-.00706299.0025-.0143031.00361417-.0215.00361417z"/><path id="_303673720" d="m5.18723 4.74419c-.097374 0-.188768-.0430591-.250854-.118193-.0233307-.0284764-.0194409-.0704213.0090315-.0938898.0283543-.0233386.0704134-.0194488.0938898.00902362.0365276.0443071.0905551.0697244.147913.0697244.105709 0 .191807-.0859724.191807-.191807.00002756-.088748-.0626378-.167362-.149028-.186945-.0359449-.00819685-.0584685-.0438858-.0502795-.0798583.00820866-.0359764.0438898-.0583346.0797244-.0502756.14889.0338858.252913.164303.252913.317079.00000787.179307-.145831.325142-.325118.325142z"/><path id="_303673648" d="m4.78848 4.74419c-.179315 0-.325161-.145835-.325161-.325142.00000394-.15278.104031-.283193.252917-.317079.0359921-.00805906.0715276.0144409.0797244.0502756.00820472.0359724-.0143071.0716654-.0502795.0798583-.0862323.0195827-.149028.0981969-.149028.186945.00001181.105835.0861102.191807.191807.191807.105705 0 .191807-.0859724.191807-.191807.00002362-.00694488-.00041732-.0141654-.00125197-.021252-.00400394-.0366654.0225-.0695827.0590276-.0736063.036685-.00388976.0695827.0223583.0736102.0590276.00126378.0119409.00194094.0240276.00194094.0358307.00000787.179307-.145831.325142-.325114.325142z"/><path id="_303673576" d="m4.98792 3.94669c-.105846 0-.191819.0859724-.191819.191807.00000394.105697.0859724.191807.191803.191807.105701 0 .191665-.0861102.191665-.191807.00000394-.105835-.0859685-.191807-.19165-.191807zm0 .516945c-.179315 0-.325154-.145972-.325154-.325138.00002756-.179303.145831-.325138.325138-.325138.179169 0 .325004.145835.325004.325138.00001181.179165-.145835.325138-.324988.325138z"/><path id="_303673504" d="m5.27139 5.66794c-.0298425 0-.0570945-.0202795-.0645945-.0504173-.085248-.340138-.161528-.502776-.21889-.579445-.0574843.0766693-.133748.239307-.219028.579445-.00874016.0351417-.0441654.0569449-.0795827.048752-.0354055-.00805906-.0577756-.0430591-.0502756-.0786102.0245866-.118197.00541732-.293197-.0298661-.412224-.0542953.0386102-.134441.135835-.235831.371665-.0119331.0279173-.0413858.0441693-.0713858.0395866-.0301102-.00472441-.0531969-.0290315-.056252-.0593071-.0278898-.282083.0880551-.538752.20028-.786803.0286102-.0633346.0555551-.123059.0804134-.183614.0140433-.0340276.0529173-.0502756.0870866-.0363898.0340512.0140276.0502756.0530591.036248.0870866-.0256654.0626378-.0544449.126248-.0823583.187776-.0588701.130417-.11889.263193-.155976.398335.0736378-.103472.147642-.159583.225693-.172917.0302874-.00514173.0601417.0111102.0723661.0391693.0172323.0398583.0329134.0905551.0452756.146661.0607087-.158748.124169-.26361.191665-.31722.0243228-.0193071.0586142-.0193071.0829173 0 .0675.0536102.130972.158472.191669.31722.0123622-.0561063.0280551-.106803.0452756-.146661.0122441-.0280591.0420827-.044311.0723583-.0391693.0780709.0133346.152087.0694449.225697.172917-.037063-.135142-.0970827-.267917-.155972-.398335-.0277756-.0615276-.0566654-.125138-.0823583-.187776-.0140118-.0340276.00222047-.0730591.036248-.0870866.0340512-.0138858.0730591.0023622.0870866.0363898.0248701.0605551.0519409.12028.0805512.183614.112102.248051.228059.50472.200142.786803-.00303937.0302756-.0261142.0545827-.056252.0593071-.0299764.00458268-.0594449-.0116693-.0713898-.0395866-.101244-.235835-.181524-.333055-.235831-.371665-.0352559.119028-.0544488.294028-.0298622.412224.00751181.0355512-.0148622.0705512-.0502795.0786102-.00498819.00111024-.01.00166535-.0149882.00166535z"/><path id="_303673432" d="m5.71779 4.63669c-.00724803 0-.0146102-.00125197-.0216969-.00361024-.0919291-.0316693-.182776-.046252-.270134-.0434764-.0366693.00055906-.0675-.0277756-.0686102-.0645787-.00124803-.036811.0276378-.0676417.0644409-.0687559.0883425-.0026378.179169.00931102.270559.0356969.072378-.0954134.144165-.165972.216244-.21278-.0720512-.0466654-.143886-.11722-.216244-.212634-.176248.0511063-.348614.0477756-.513059-.01-.0347205-.0122283-.0530551-.0502795-.0408307-.0850039.0122362-.0347244.0502756-.0530551.085-.0408307.152236.0534685.306803.0518031.472634-.00527953.0279488-.00958661.0588937.00041732.0759764.0244449.114878.161248.224165.249858.324583.263331.0332008.00430709.0579134.0326417.0579134.0659724.00000394.0334724-.0247165.0618071-.0579134.0661102-.100551.0134764-.209724.102087-.324583.263339-.0127795.0179134-.0331929.0280551-.0542795.0280551z"/><path id="_303673360" d="m5.89804 3.30474c-.0267835 0-.0522244-.0163858-.0623622-.0429173-.0130472-.0344449.00430709-.0729134.038752-.0861102.150579-.0570827.325831-.0929134.520972-.106665.0368228-.00249606.0686102.0251417.071248.0618071.00251181.0368071-.0251378.0686102-.0619449.071252-.182075.0127756-.344583.0458307-.483059.0983307-.00776378.00291732-.015689.00430709-.0236063.00430315z"/><path id="_303673288" d="m6.40013 3.58724c-.0015315 0-.00306299 0-.00472835-.0001378-.195114-.0136142-.370417-.0495866-.520972-.106669-.0344213-.0130591-.0518071-.0515276-.038752-.0859724.0130787-.0344449.0516654-.0516654.0859685-.038752.138484.0525.300976.0856969.483059.0984724.0368346.0025.0644449.0344449.0619449.0711142-.00248819.0351339-.0318031.0619449-.0665197.0619449z"/><path id="_303673216" d="m4.70082 3.21419c-.0115315 0-.0231969-.00291339-.033752-.00916535-.0317795-.018752-.0423622-.0595827-.0236102-.091248.0908307-.154307.135138-.327224.131665-.514028-.00067717-.0368071.0286102-.0672205.0654173-.0679173.0370906-.00069685.0672205.0286102.0679173.0654173.0038937.211803-.0465276.408331-.150138.584165-.0125.0211142-.0347244.0327756-.0575.0327756z"/><path id="_303673168" d="m5.27473 3.21419c-.022937 0-.0451575-.0116614-.0575197-.0327756-.103606-.175835-.154165-.372362-.150138-.584165.00056299-.0363937.0302795-.0654173.0665236-.0654173h.00125197c.0368189.00069685.0661142.0311102.0654173.0679173-.00347244.186803.0408307.35972.131803.514028.0186299.0316654.00805906.0725-.0236063.091248-.0106693.00625197-.0223622.00916535-.0337323.00916535z"/></g></g></svg>