<svg id="Layer_1" enable-background="new 0 0 68 68" height="512" viewBox="0 0 68 68" width="512" xmlns="http://www.w3.org/2000/svg"><g><path d="m39.1 24.1-5.5-1.9c-.5-.2-1.1.1-1.3.6-2.1 5.1-5.9 6.8-11.9 5.4l-.5 1.9c6.2 1.5 11.1 0 13.8-5.7l4.7 1.6c3.6 1.2 7.5-.5 9-3.9.1-.3.1-.5 0-.8s-.3-.5-.6-.5l-14.4-5.5c-2.7-1-5.6-1.1-8.3-.3l-.6.2c-1.7.5-3.5.6-5.3.2-.2 0-.4-.1-.6-.2-.5-.1-.9-.3-1.4-.4l-6.2-2.7v.1l-.3-.1c-.5-.2-1.1.1-1.3.6l-7.4 22c-.2.5.1 1.1.6 1.3l8.8 3c.5.2 1.1-.1 1.3-.6l7-21c1.8.2 3.6.1 5.3-.4l.6-.2c2.3-.7 4.8-.6 7.1.3l13.3 5.1c-1.2 1.8-3.7 2.7-5.9 1.9zm-28.9 12.7-6.9-2.3 6.7-20.2 5.5 2.2c.4.2.8.3 1.2.4h.1z"/><path d="m40.4 14.1h2v2.6h-2z" transform="matrix(.358 -.934 .934 .358 12.209 48.521)"/><path d="m37.1 14.8.7-1.9-3.8-1.4c-2-.7-4-1.1-6.1-1.1v2c1.8 0 3.7.3 5.4 1z"/><path d="m57.1 13c-.2-.5-.8-.7-1.3-.5l-7.7 3.7c-.2.1-.4.3-.5.6s-.1.5 0 .8l9.5 19.4-5 3.8c-2.3 1.8-4.8 3.3-7.4 4.5-.6.3 2.4-1.2-15 7.2-.8.4-1.7 0-2.1-.7-.4-.8 0-1.7.7-2.1l9.8-4.7-.9-1.8c-1.2.6-11.3 5.5-12.5 6.1-.4.2-.8.2-1.2.1-.8-.3-1.2-1.2-1-2 .1-.4.4-.7.8-.9l12.5-6.1-.9-1.8c-.1.1-15.8 7.6-15.7 7.6-.8.4-1.7 0-2.1-.7-.4-.8 0-1.7.7-2.1l15.9-7.4-.9-1.8-12.5 6.1c-.8.4-1.7 0-2.1-.7-.4-.8 0-1.7.7-2.1l12.5-6.1-.9-1.8-12.5 6.1c-1.8.8-2.5 3-1.7 4.7.2.5.6.9 1 1.2l-.3.2c-.9.4-1.5 1.1-1.8 2-.6 1.8.3 3.9 2.2 4.5.9.3 1.8.3 2.7-.2l.3-.2c0 .5.1 1.1.3 1.6.6 1.3 1.9 2 3.2 2 .5 0 .9-.1 1.4-.3 0 2.7 2.7 4.3 5.1 3.2.8-.4 9.7-4.7 9.8-4.7l5.1-2.5c2.7-1.3 5.3-2.9 7.8-4.8l5.6-4.3 7.6-3.7c.5-.2.7-.8.5-1.3zm1.7 23-8.9-18.4 5.9-2.8 8.9 18.4z"/><path d="m41.2 51.3h1.9v2h-1.9z" transform="matrix(.901 -.435 .435 .901 -18.547 23.53)"/><path d="m32.9 54.3h6.1v2h-6.1z" transform="matrix(.901 -.435 .435 .901 -20.469 21.123)"/><path d="m2 60.5h3.2v2h-3.2z"/><path d="m7.8 60.5h3.2v2h-3.2z"/><path d="m5.5 56.9h2v3.3h-2z"/><path d="m5.5 62.8h2v3.3h-2z"/><path d="m56.9 5.5h3.2v2h-3.2z"/><path d="m62.8 5.5h3.2v2h-3.2z"/><path d="m60.5 2h2v3.2h-2z"/><path d="m60.5 7.8h2v3.3h-2z"/></g></svg>