<svg id="Layer_1" enable-background="new 0 0 468 468" viewBox="0 0 468 468" xmlns="http://www.w3.org/2000/svg"><g><g><path d="m438.084 418.16h-241.072v-61.112c0-20.402 16.599-37 37.002-37s37.002 16.598 37.002 37v42.112c0 2.762 2.238 5 5 5s5-2.238 5-5v-42.112c0-25.916-21.085-47-47.002-47s-47.002 21.084-47.002 47v61.112h-108.292v-117.038c3.201 1.978 6.957 3.14 10.988 3.14 11.573 0 20.989-9.415 20.989-20.988v-22.124c3.198 1.973 6.963 3.112 10.989 3.112 11.573 0 20.989-9.415 20.989-20.988v-19.274c0-2.762-2.239-5-5-5s-5 2.238-5 5v19.273c0 6.059-4.929 10.988-10.988 10.988s-10.989-4.93-10.989-10.988c0-2.762-2.239-5-5-5s-5 2.238-5 5v40c0 6.059-4.929 10.988-10.988 10.988s-10.988-4.93-10.988-10.988v-53.52l53.954-52.419v22.129c0 2.762 2.239 5 5 5s5-2.238 5-5v-31.845l86.153-83.702.165 49.677h-2.983c-8.271 0-15.001 6.729-15.001 15v18.061c-16.716 8.382-28.222 25.673-28.222 45.61 0 28.121 22.879 51 51.002 51s51.002-22.879 51.002-51c0-19.76-11.305-36.919-27.78-45.383v-18.288c0-8.271-6.729-15-15.001-15h-3.017l-.166-49.659 86.533 83.485v31.375c0 2.762 2.238 5 5 5s5-2.238 5-5v-21.727l53.954 52.053v53.485c0 6.059-4.93 10.988-10.988 10.988-6.06-.001-10.989-4.931-10.989-10.989v-40c0-2.762-2.238-5-5-5s-5 2.238-5 5c0 6.059-4.93 10.988-10.989 10.988s-10.988-4.93-10.988-10.988v-19.273c0-2.762-2.238-5-5-5s-5 2.238-5 5v19.273c0 11.573 9.415 20.988 20.988 20.988 4.026 0 7.79-1.14 10.989-3.112v22.124c0 11.572 9.415 20.988 20.988 20.989 4.031 0 7.788-1.162 10.989-3.14v61.707c0 2.762 2.238 5 5 5s5-2.238 5-5v-123.391l16.724 16.135c6.586 6.775 18.948 1.494 18.639-7.911v-53.866c0-9.657-4.05-18.977-11.112-25.568l-158.493-147.926c-17.581-16.411-44.859-16.13-62.101.64l-158.042 153.717c-6.719 6.534-10.579 15.656-10.59 25.027l-.059 47.875c-.333 9.439 12.123 14.708 18.667 7.899l15.771-15.323v178.692h-38.783c-2.761 0-5 2.238-5 5v39.84c0 2.762 2.239 5 5 5h408.148c2.762 0 5-2.238 5-5v-39.84c0-2.762-2.238-5-5-5zm-163.294-205.895c0 22.607-18.393 41-41.001 41s-41.002-18.393-41.002-41 18.393-41 41.002-41c22.608 0 41.001 18.392 41.001 41zm-32.78-68.671c2.757 0 5 2.243 5 5v14.419c-4.219-1.134-8.649-1.748-13.222-1.748-4.412 0-8.694.564-12.779 1.622v-14.293c0-2.757 2.243-5 5-5zm-196.03 104.026c-.366.669-1.921.017-1.698-.715l.059-47.876c.008-6.69 2.765-13.205 7.563-17.871l158.041-153.718c13.411-13.043 34.629-13.261 48.304-.497l158.493 147.926c5.043 4.707 7.936 11.362 7.936 18.258v53.866c.222.73-1.331 1.38-1.695.715l-185.723-179.182c-1.942-1.874-5.02-1.868-6.956.013zm387.104 210.38h-398.148v-29.84h398.147v29.84z"/><path d="m233.789 292c-2.761 0-5-2.238-5-5v-10.085c0-2.762 2.239-5 5-5s5.001 2.238 5.001 5v10.085c0 2.762-2.24 5-5.001 5z"/><path d="m286.638 270.11c-1.279 0-2.56-.488-3.535-1.465l-7.131-7.131c-1.953-1.952-1.953-5.118 0-7.07 1.951-1.953 5.119-1.953 7.071 0l7.131 7.131c3.188 2.971.74 8.686-3.536 8.535z"/><path d="m308.528 217.265h-10.085c-2.762 0-5-2.238-5-5s2.238-5 5-5h10.085c2.762 0 5 2.238 5 5s-2.238 5-5 5z"/><path d="m169.135 217.265h-10.085c-2.761 0-5-2.238-5-5s2.239-5 5-5h10.085c2.761 0 5 2.238 5 5s-2.239 5-5 5z"/><path d="m180.94 270.11c-4.278.151-6.723-5.565-3.536-8.536l7.132-7.131c1.954-1.95 5.119-1.951 7.072.001s1.953 5.118 0 7.071l-7.132 7.131c-.976.976-2.256 1.464-3.536 1.464z"/><g><ellipse cx="214.438" cy="198.464" rx="6" ry="7"/><ellipse cx="253.582" cy="198.464" rx="6" ry="7"/><path d="m233.961 242.064c-7.64 0-14.876-3.324-19.852-9.121-1.798-2.095-1.558-5.252.537-7.051 2.095-1.8 5.252-1.559 7.051.537 3.074 3.581 7.544 5.635 12.264 5.635s9.19-2.054 12.263-5.635c1.801-2.095 4.956-2.334 7.051-.537 2.096 1.799 2.336 4.955.537 7.051-4.976 5.796-12.212 9.121-19.851 9.121z"/></g></g><g><g><path d="m405.018 20.126c-2.762 0-5-2.238-5-5v-10.126c0-2.762 2.238-5 5-5s5 2.238 5 5v10.126c0 2.762-2.238 5-5 5z"/><path d="m383.697 32.554c-.855 0-1.722-.22-2.514-.682l-8.685-5.063c-2.386-1.391-3.192-4.452-1.801-6.838 1.39-2.387 4.453-3.191 6.838-1.801l8.685 5.063c4.41 2.37 2.375 9.508-2.523 9.321z"/><path d="m375.021 62.47c-4.9.187-6.932-6.951-2.523-9.32l8.685-5.063c2.383-1.394 5.447-.585 6.837 1.802 1.391 2.385.584 5.446-1.802 6.837l-8.685 5.063c-.79.461-1.657.681-2.512.681z"/><path d="m405.018 79.959c-2.762 0-5-2.238-5-5v-10.126c0-2.762 2.238-5 5-5s5 2.238 5 5v10.126c0 2.762-2.238 5-5 5z"/><path d="m435.014 62.47c-.855 0-1.722-.22-2.513-.682l-8.685-5.063c-2.386-1.391-3.193-4.452-1.802-6.837 1.39-2.386 4.452-3.195 6.837-1.802l8.685 5.063c4.412 2.371 2.376 9.507-2.522 9.321z"/><path d="m426.339 32.554c-4.9.187-6.932-6.952-2.524-9.32l8.685-5.063c2.387-1.393 5.448-.585 6.838 1.801s.585 5.447-1.801 6.838l-8.685 5.063c-.791.461-1.658.681-2.513.681z"/></g><g><path d="m405.018 121.02c-2.762 0-5-2.238-5-5v-12.081c0-2.762 2.238-5 5-5s5 2.238 5 5v12.081c0 2.761-2.238 5-5 5z"/></g></g><g><g><path d="m63.002 20.126c-2.761 0-5-2.238-5-5v-10.126c0-2.762 2.239-5 5-5s5 2.238 5 5v10.126c.001 2.762-2.238 5-5 5z"/><path d="m41.681 32.554c-.855 0-1.722-.22-2.514-.682l-8.684-5.063c-2.386-1.391-3.192-4.452-1.801-6.838 1.391-2.387 4.452-3.193 6.838-1.801l8.684 5.063c4.41 2.37 2.375 9.508-2.523 9.321z"/><path d="m33.006 62.47c-4.901.187-6.933-6.952-2.523-9.32l8.684-5.063c2.386-1.391 5.447-.585 6.838 1.801s.584 5.447-1.802 6.838l-8.684 5.063c-.792.461-1.658.681-2.513.681z"/><path d="m63.002 79.959c-2.761 0-5-2.238-5-5v-10.126c0-2.762 2.239-5 5-5s5 2.238 5 5v10.126c.001 2.762-2.238 5-5 5z"/><path d="m92.999 62.47c-.855 0-1.721-.22-2.513-.682l-8.684-5.063c-2.386-1.391-3.193-4.452-1.802-6.838 1.391-2.385 4.452-3.193 6.838-1.801l8.684 5.063c4.411 2.37 2.376 9.507-2.523 9.321z"/><path d="m84.324 32.554c-4.9.187-6.932-6.952-2.524-9.32l8.684-5.063c2.386-1.391 5.448-.585 6.838 1.801 1.391 2.386.585 5.447-1.801 6.838l-8.684 5.063c-.791.461-1.658.681-2.513.681z"/></g><g><path d="m63.002 121.02c-2.761 0-5-2.238-5-5v-12.081c0-2.762 2.239-5 5-5s5 2.238 5 5v12.081c.001 2.761-2.238 5-5 5z"/></g></g><path d="m444.188 400c-4.336.157-6.754-5.695-3.446-8.623l7.724-7.344c1.889-1.796 2.073-4.779.421-6.794l-8.563-10.439c-4.71-5.743-4.471-14.197.557-19.665l7.811-8.495c1.759-1.913 1.747-4.898-.027-6.797l-7.415-7.936c-5.319-5.693-5.428-14.378-.254-20.203l7.493-8.434c1.8-2.026 1.672-5.077-.293-6.944l-10.205-9.703c-2.001-1.902-2.081-5.067-.178-7.068 1.9-2.001 5.067-2.083 7.069-.178l10.205 9.701c5.893 5.604 6.28 14.754.879 20.833l-7.493 8.434c-1.725 1.942-1.689 4.838.084 6.735l7.415 7.935c5.323 5.696 5.36 14.654.082 20.394l-7.811 8.495c-1.676 1.822-1.756 4.641-.186 6.555l8.563 10.439c4.957 6.044 4.403 14.997-1.263 20.383l-7.724 7.343c-.969.919-2.208 1.376-3.445 1.376z"/><path d="m15.754 400c-4.336.157-6.755-5.695-3.446-8.623l7.723-7.344c1.888-1.796 2.073-4.779.42-6.794l-8.562-10.439c-4.71-5.743-4.471-14.197.556-19.665l7.811-8.495c1.759-1.913 1.747-4.898-.027-6.797l-7.415-7.937c-5.32-5.692-5.429-14.378-.254-20.202l7.493-8.434c1.8-2.026 1.671-5.077-.293-6.945l-10.205-9.701c-2.001-1.903-2.081-5.068-.178-7.069 1.901-2.001 5.067-2.082 7.069-.179l10.205 9.702c5.893 5.604 6.279 14.755.878 20.834l-7.493 8.433c-1.725 1.942-1.688 4.837.085 6.734l7.415 7.937c5.323 5.695 5.359 14.653.082 20.393l-7.811 8.495c-1.676 1.822-1.755 4.641-.185 6.555l8.562 10.439c4.957 6.044 4.403 14.997-1.263 20.383l-7.723 7.343c-.967.919-2.207 1.376-3.444 1.376z"/><circle cx="394.315" cy="389.503" r="7"/></g><g/><g/><g/><g/><g/><g/><g/><g/><g/><g/><g/><g/><g/><g/><g/></svg>