<svg id="Capa_1" enable-background="new 0 0 480 480" height="512" viewBox="0 0 480 480" width="512" xmlns="http://www.w3.org/2000/svg"><g><g id="Outline_20_"><path d="m176 136.003c-4.418 0-8 3.582-8 8v64c0 4.418 3.582 8 8 8h64c4.418 0 8-3.582 8-8v-64c0-4.418-3.582-8-8-8zm56 32h-16v-16h16zm-48-16h16v16h-16zm0 32h16v16h-16zm48 16h-16v-16h16z"/><circle cx="152" cy="336.003" r="8"/><path d="m472 216.003h-20.8c.544-.512 1.128-.976 1.656-1.512 7.8-7.779 9.289-19.874 3.608-29.312l-8.944-14.904c-6.82-11.366-21.562-15.051-32.928-8.231-.325.195-.645.397-.96.607l-25.224 16.8c-6.827-11.253-21.483-14.842-32.737-8.015-3.278 1.988-6.027 4.738-8.015 8.015l-25.232-16.8c-11.03-7.35-25.931-4.367-33.281 6.664-.21.315-.413.635-.607.96l-8.936 14.904c-5.681 9.438-4.192 21.533 3.608 29.312 4.211 4.217 9.027 7.784 14.288 10.584-10.156 8.545-18.778 18.761-25.496 30.208v-31.28c0-4.418-3.582-8-8-8s-8 3.582-8 8v168h-64v-120c0-4.418-3.582-8-8-8h-96c-4.418 0-8 3.582-8 8v120h-24v-244.904l152-50.664 189.472 63.152c.814.276 1.668.416 2.528.416 1.345-.002 2.667-.341 3.848-.984 1.955-1.074 3.373-2.915 3.912-5.08l8-32c.99-3.98-1.19-8.064-5.048-9.456l-200-72c-1.75-.648-3.674-.648-5.424 0l-76.984 27.712c-4.19 1.401-6.451 5.934-5.05 10.124s5.934 6.451 10.124 5.05c.117-.039.234-.081.35-.126l74.272-26.736 190.48 68.576-4.144 16.6-183.808-61.264c-1.64-.552-3.416-.552-5.056 0l-183.808 61.264-4.152-16.6 86.048-30.976c4.2-1.372 6.492-5.89 5.119-10.089-1.372-4.2-5.89-6.492-10.089-5.119-.15.049-.299.103-.446.16l-92.856 33.424c-3.858 1.392-6.038 5.476-5.048 9.456l8 32c1.073 4.286 5.417 6.891 9.703 5.818.197-.049.392-.106.585-.17l21.472-7.152v239.568h-32c-4.418 0-8 3.582-8 8v32c0 4.418 3.582 8 8 8h224c4.418 0 8-3.582 8-8s-3.582-8-8-8h-216v-16h240v24c0 4.418 3.582 8 8 8h208c4.418-.005 7.996-3.591 7.991-8.009-.002-2.142-.864-4.193-2.391-5.695 1.565-3.208 2.385-6.727 2.4-10.296 0-13.255-10.745-24-24-24s-24 10.745-24 24c.027 2.732.524 5.438 1.472 8h-41.472v-25.472c2.562.948 5.268 1.445 8 1.472 13.255 0 24-10.745 24-24s-10.745-24-24-24c-2.732.027-5.438.524-8 1.472v-26.944c2.562.948 5.268 1.445 8 1.472 13.224.031 23.969-10.665 23.999-23.889.004-1.724-.178-3.443-.543-5.127l12.8-25.664 25.768 6.4c.644.175 1.308.27 1.976.28v25.512c-2.56-.961-5.266-1.473-8-1.512-13.255 0-24 10.745-24 24s10.745 24 24 24c2.732-.027 5.438-.524 8-1.472v25.472c0 4.418 3.582 8 8 8s8-3.582 8-8v-152c0-4.418-3.582-8-8-8zm-376 176v-112h80v112zm326.472-216c3.676-2.451 8.643-1.457 11.094 2.219.073.109.143.22.21.333l8.936 14.896c1.887 3.146 1.392 7.172-1.2 9.768-8.196 8.23-19.345 12.839-30.96 12.8h-2.552l12.8-9.6c3.535-2.651 4.251-7.665 1.6-11.2s-7.665-4.251-11.2-1.6l-19.2 14.384v-11.72zm-30.472 63.04c7.359 12.989 12.28 27.216 14.52 41.976-2.115-.644-4.31-.986-6.52-1.016-2.732.027-5.438.524-8 1.472zm-24-55.04c4.418 0 8 3.582 8 8v24h-16v-24c0-4.418 3.582-8 8-8zm-24 113.472c-5.244-1.99-11.04-1.961-16.264.08.113-.351.201-.709.264-1.072l.256-4.352c1.127-18.666 6.512-36.826 15.744-53.088zm-8 14.528c4.418 0 8 3.582 8 8s-3.582 8-8 8-8-3.582-8-8 3.582-8 8-8zm-42.712-118.592 8.936-14.896c2.285-3.782 7.203-4.995 10.984-2.71.105.064.209.13.312.198l30.48 20.28v11.72l-19.2-14.4c-3.532-2.654-8.547-1.942-11.201 1.59s-1.942 8.547 1.59 11.201c.004.003.007.006.011.008l12.8 9.6h-2.552c-11.615.039-22.764-4.57-30.96-12.8-2.604-2.599-3.1-6.639-1.2-9.791zm21.184 38.592h15.048c-6.445 11.574-11.195 24.012-14.104 36.936l-4.264-8.512c-1.354-2.71-4.123-4.422-7.152-4.424-.655.001-1.308.082-1.944.24l-14.352 3.584c7.049-10.91 16.138-20.358 26.768-27.824zm-10.472 184c0-4.418 3.582-8 8-8s8 3.582 8 8-3.582 8-8 8-8-3.582-8-8zm144 0c0-4.418 3.582-8 8-8s8 3.582 8 8-3.582 8-8 8-8-3.582-8-8zm-113.472 8c.948-2.562 1.445-5.268 1.472-8 0-13.255-10.745-24-24-24s-24 10.745-24 24c.027 2.732.524 5.438 1.472 8h-17.472v-41.472c2.562.948 5.268 1.445 8 1.472 13.255 0 24-10.745 24-24s-10.745-24-24-24c-2.732.027-5.438.524-8 1.472v-57.472c.654.013 1.307-.054 1.944-.2l25.768-6.4 13.128 26.256c1.115 2.194 3.183 3.747 5.6 4.208-8.973 9.635-8.436 24.72 1.199 33.694 6.545 6.095 15.951 8.014 24.361 4.97v57.472c0 4.418 3.582 8 8 8s8-3.582 8-8v-168h16v192zm-62.528-64c0-4.418 3.582-8 8-8s8 3.582 8 8-3.582 8-8 8-8-3.582-8-8zm128 8c4.418 0 8 3.582 8 8s-3.582 8-8 8-8-3.582-8-8 3.582-8 8-8zm0-56c-4.418 0-8-3.582-8-8s3.582-8 8-8 8 3.582 8 8-3.582 8-8 8zm33.944-55.76c-3.64-.914-7.427.826-9.104 4.184l-4.256 8.512c-2.909-12.924-7.659-25.362-14.104-36.936h15.048c10.63 7.466 19.719 16.913 26.768 27.824zm12-24.24h18.056v23.28c-5.011-8.491-11.078-16.314-18.056-23.28zm10.056 104c-4.418 0-8-3.582-8-8s3.582-8 8-8 8 3.582 8 8-3.582 8-8 8z"/></g></g></svg>