<?xml version="1.0" encoding="UTF-8"?>
<svg xmlns="http://www.w3.org/2000/svg" id="Layer_3" data-name="Layer 3" viewBox="0 0 64 64" width="512" height="512"><path d="M31.208,54.182l1.819.4a17.39,17.39,0,0,0,13.8-2.768l12.751-9a1,1,0,0,0,.371-1.133l-.285-.856a4.135,4.135,0,0,0-5.771-2.392L53,38.881l-.475-.236a6.239,6.239,0,0,0-5.212-.1l-1.547-.387a5.452,5.452,0,0,0-4.536.915L38.666,41h-4.43L32.8,40.281a12.135,12.135,0,0,0-12.158.757l-3.144,2.1-1.45.724-1.152-2.3a1,1,0,0,0-1.3-.467l-9,4a1,1,0,0,0-.489,1.361l8,16A1,1,0,0,0,13,63a.987.987,0,0,0,.405-.086l9-4a1,1,0,0,0,.489-1.361l-1.064-2.127A13.8,13.8,0,0,1,31.208,54.182ZM51.175,40.247l-4.542,3.894a5,5,0,0,0-1.23-1.783L47.224,40.9A4.207,4.207,0,0,1,51.175,40.247Zm-8.744.43a3.42,3.42,0,0,1,2.628-.6l-1.5,1.2A4.934,4.934,0,0,0,42,41h0ZM13.467,60.7l-7.1-14.209L13.533,43.3l7.105,14.209Zm3.475-15.051,1.5-.752a1.05,1.05,0,0,0,.108-.063l3.2-2.13A10.135,10.135,0,0,1,31.9,42.07l1.649.825A1,1,0,0,0,34,43h8a3.006,3.006,0,0,1,2.829,2H36v2H46a.992.992,0,0,0,.65-.241h0l6.905-5.919,1.23-.615a2.137,2.137,0,0,1,2.982,1.236l.049.15L45.673,50.184a15.383,15.383,0,0,1-12.212,2.449l-1.819-.4a15.8,15.8,0,0,0-10.7,1.41Z"/><path d="M16,14a1,1,0,0,0-1,1v6a1,1,0,0,0,1,1h1.548a14.9,14.9,0,0,0,1.408,3.388l-1.1,1.1a1,1,0,0,0,0,1.414L22.1,32.142a1,1,0,0,0,1.414,0l1.1-1.1c.128.072.259.134.388.2V33a3,3,0,0,0,3,3h8a3,3,0,0,0,3-3V31.246c.129-.068.26-.13.388-.2l1.1,1.1a1,1,0,0,0,1.414,0L46.143,27.9a1,1,0,0,0,0-1.414l-1.1-1.1A14.9,14.9,0,0,0,46.452,22H48a1,1,0,0,0,1-1V15a1,1,0,0,0-1-1H46.452a14.9,14.9,0,0,0-1.408-3.388l1.1-1.1a1,1,0,0,0,0-1.414L41.9,3.857a1.029,1.029,0,0,0-1.414,0l-1.1,1.1A14.85,14.85,0,0,0,36,3.548V2a1,1,0,0,0-1-1H29a1,1,0,0,0-1,1V3.548a14.85,14.85,0,0,0-3.388,1.408l-1.1-1.1a1,1,0,0,0-1.414,0L17.857,8.1a1,1,0,0,0,0,1.414l1.1,1.1A14.9,14.9,0,0,0,17.548,14ZM37,33a1,1,0,0,1-1,1H28a1,1,0,0,1-1-1V31a1,1,0,0,1,1-1h8a1,1,0,0,1,1,1Zm-1.937-5H28.934a6.636,6.636,0,0,0-2.224-4.01A7.992,7.992,0,0,1,31.752,10,8,8,0,0,1,40,18a7.973,7.973,0,0,1-2.875,6.133A6,6,0,0,0,35.063,28ZM19.307,15.214A12.892,12.892,0,0,1,21.059,11a1,1,0,0,0-.135-1.247l-.945-.944,2.829-2.829.944.945A1,1,0,0,0,25,7.059a12.863,12.863,0,0,1,4.215-1.752A1,1,0,0,0,30,4.33V3h4V4.33a1,1,0,0,0,.786.977A12.863,12.863,0,0,1,39,7.059a1,1,0,0,0,1.247-.135l.944-.945,2.829,2.829-.945.944A1,1,0,0,0,42.941,11a12.892,12.892,0,0,1,1.752,4.215A1,1,0,0,0,45.67,16H47v4H45.67a1,1,0,0,0-.977.786A12.892,12.892,0,0,1,42.941,25a1,1,0,0,0,.135,1.247l.945.944-2.829,2.829-.944-.945A1,1,0,0,0,39,28.941c-.183.117-.369.225-.556.333a3,3,0,0,0-1.379-1.069,4,4,0,0,1,1.339-2.537,10,10,0,1,0-13.018-.178,4.56,4.56,0,0,1,1.54,2.716,3.006,3.006,0,0,0-1.374,1.068c-.187-.108-.373-.216-.556-.333a1,1,0,0,0-1.246.135l-.944.945-2.829-2.829.945-.944A1,1,0,0,0,21.059,25a12.892,12.892,0,0,1-1.752-4.215A1,1,0,0,0,18.33,20H17V16h1.33A1,1,0,0,0,19.307,15.214Z"/><path d="M32,12v2a4,4,0,0,1,4,4h2A6.006,6.006,0,0,0,32,12Z"/></svg>
