<svg id="Layer_1" enable-background="new 0 0 512 512" viewBox="0 0 512 512" xmlns="http://www.w3.org/2000/svg"><path d="m476.21 24.46h-440.42c-11.46 0-20.79 9.33-20.79 20.79v336.8c0 11.46 9.33 20.79 20.79 20.79h165.6v32.71l-23.34 12.15c-.69.36-1.38.71-2.06 1.05-6.5 3.29-15.41 7.8-15.41 18.53 0 11.17 9.08 20.26 20.24 20.26h150.37c11.16 0 20.24-9.09 20.24-20.26 0-10.74-8.91-15.24-15.41-18.53-.68-.35-1.37-.69-2.06-1.05l-23.34-12.15v-32.71h165.6c11.46 0 20.79-9.33 20.79-20.79v-336.8c-.01-11.46-9.34-20.79-20.8-20.79zm-440.42 12h440.43c4.85 0 8.79 3.94 8.79 8.79v279.08h-458.01v-279.08c0-4.85 3.94-8.79 8.79-8.79zm266.06 408.05 26.57 13.83c.73.38 1.46.75 2.18 1.11 6.73 3.41 8.83 4.93 8.83 7.83 0 4.56-3.7 8.26-8.24 8.26h-150.37c-4.54 0-8.24-3.71-8.24-8.26 0-2.89 2.1-4.42 8.83-7.82.73-.37 1.46-.74 2.18-1.12l26.57-13.83c1.98-1.03 3.23-3.08 3.23-5.32v-36.35h85.23v36.35c0 2.23 1.24 4.28 3.23 5.32zm174.36-53.67h-440.42c-4.85 0-8.79-3.94-8.79-8.79v-45.72h458v45.72c0 4.85-3.94 8.79-8.79 8.79zm-322.59-104.9v24.49c0 3.31 2.69 6 6 6h48.99c3.31 0 6-2.69 6-6v-59.16c.17-4.96-1.48-9.46-4.77-13.02l-30.89-33.43c-3.56-3.85-8.35-5.98-13.47-5.98-4.9 0-9.48 1.93-12.98 5.46v-55.49c0-10.96-8.44-19.88-18.82-19.88s-18.82 8.92-18.82 19.88v82.87c0 8.16 2.72 15.25 8.09 21.06zm-26.76-137.13c0-4.27 3.12-7.88 6.82-7.88s6.82 3.61 6.82 7.88v59.02c0 8.16 2.72 15.25 8.09 21.06l26.36 28.53c2.25 2.43 6.04 2.58 8.48.33 2.43-2.25 2.58-6.04.34-8.48l-22.9-24.79c-.02-.02-.03-.03-.05-.05-2.88-3.11-2.88-8.37 0-11.49 1.26-1.37 2.92-2.12 4.66-2.12s3.4.75 4.66 2.12l30.89 33.43c1.16 1.25 1.66 2.69 1.59 4.53v.24 53.27h-36.99v-20.83c0-1.51-.57-2.96-1.59-4.07l-32.27-34.92c-3.3-3.57-4.91-7.8-4.91-12.91zm219.65 50.02c-5.13 0-9.91 2.12-13.47 5.98l-30.89 33.43c-3.29 3.56-4.94 8.06-4.77 13.02v59.16c0 3.31 2.69 6 6 6h48.99c3.31 0 6-2.69 6-6v-24.49l30.67-33.2c5.37-5.81 8.09-12.9 8.09-21.06v-82.87c0-10.96-8.44-19.88-18.82-19.88s-18.82 8.92-18.82 19.88v55.49c-3.49-3.52-8.08-5.46-12.98-5.46.01 0 .01 0 0 0zm4.71 25.56-23 24.89c-2.25 2.43-2.1 6.23.34 8.48 2.43 2.25 6.23 2.1 8.48-.33l22.9-24.79c.01-.02.03-.03.04-.05.03-.03.05-.05.07-.08l3.34-3.61c5.37-5.81 8.09-12.9 8.09-21.06v-59.02c0-4.27 3.12-7.88 6.82-7.88s6.82 3.61 6.82 7.88v82.87c0 5.12-1.61 9.34-4.91 12.91l-32.26 34.92c-1.02 1.11-1.59 2.56-1.59 4.07v20.83h-36.99v-53.27c0-.08 0-.16 0-.24-.07-1.84.43-3.27 1.59-4.53l30.89-33.43c1.26-1.37 2.92-2.12 4.66-2.12 1.74 0 3.4.75 4.66 2.12 2.86 3.1 2.88 8.32.05 11.44zm-180.14-68.77h14.45c1.38 4.54 3.2 8.93 5.43 13.12l-10.22 10.24c-2.04 2.05-2.34 5.27-.69 7.65 6.4 9.27 14.33 17.22 23.58 23.62 2.39 1.65 5.61 1.36 7.66-.69l10.21-10.23c4.18 2.23 8.56 4.05 13.08 5.43v14.48c0 2.9 2.07 5.38 4.92 5.9 5.48 1 11.09 1.51 16.68 1.51s11.2-.51 16.68-1.51c2.85-.52 4.92-3 4.92-5.9v-14.48c4.53-1.38 8.9-3.2 13.08-5.43l10.21 10.23c2.05 2.05 5.28 2.34 7.66.69 9.25-6.41 17.19-14.36 23.58-23.62 1.64-2.38 1.35-5.6-.69-7.65l-10.22-10.24c2.23-4.19 4.05-8.58 5.43-13.12h14.45c2.9 0 5.38-2.07 5.9-4.93 1-5.48 1.5-11.1 1.5-16.7s-.51-11.22-1.5-16.7c-.52-2.85-3-4.93-5.9-4.93h-14.45c-1.38-4.54-3.2-8.93-5.43-13.12l10.22-10.24c2.04-2.05 2.34-5.27.69-7.65-6.4-9.27-14.33-17.22-23.58-23.62-2.39-1.65-5.61-1.36-7.66.69l-10.21 10.23c-4.18-2.23-8.56-4.05-13.08-5.43v-14.47c0-2.9-2.07-5.38-4.92-5.9-10.96-2-22.41-2-33.35 0-2.85.52-4.92 3-4.92 5.9v14.48c-4.53 1.38-8.9 3.2-13.08 5.43l-10.21-10.23c-2.05-2.06-5.28-2.35-7.66-.69-9.25 6.41-17.19 14.36-23.58 23.62-1.64 2.38-1.35 5.6.69 7.65l10.22 10.24c-2.23 4.19-4.05 8.58-5.43 13.12h-14.45c-2.9 0-5.38 2.07-5.9 4.93-1 5.49-1.5 11.11-1.5 16.7 0 5.6.51 11.22 1.5 16.7.51 2.85 2.99 4.92 5.89 4.92zm5.17-31.25h13.88c2.79 0 5.2-1.92 5.84-4.63 1.52-6.48 4.08-12.65 7.59-18.33 1.46-2.37 1.11-5.43-.86-7.39l-9.82-9.84c3.97-5.07 8.52-9.62 13.58-13.61l9.81 9.83c1.97 1.97 5.04 2.33 7.41.86 5.67-3.51 11.82-6.07 18.29-7.6 2.71-.64 4.62-3.06 4.62-5.84v-13.91c6.36-.76 12.83-.76 19.2 0v13.91c0 2.78 1.91 5.2 4.62 5.84 6.46 1.52 12.62 4.08 18.29 7.6 2.37 1.47 5.44 1.11 7.41-.86l9.81-9.83c5.06 3.98 9.6 8.54 13.58 13.61l-9.82 9.84c-1.96 1.97-2.32 5.03-.86 7.4 3.51 5.67 6.06 11.84 7.59 18.33.64 2.71 3.06 4.63 5.84 4.63h13.88c.38 3.19.57 6.41.57 9.62s-.19 6.44-.57 9.62h-13.88c-2.79 0-5.2 1.92-5.84 4.63-1.52 6.48-4.07 12.64-7.59 18.33-1.46 2.37-1.11 5.43.86 7.39l9.82 9.84c-3.97 5.07-8.52 9.62-13.58 13.61l-9.81-9.83c-1.97-1.97-5.04-2.33-7.41-.86-5.67 3.52-11.82 6.07-18.29 7.6-2.71.64-4.62 3.06-4.62 5.84v13.91c-6.36.76-12.84.76-19.2 0v-13.91c0-2.78-1.92-5.2-4.62-5.84-6.47-1.52-12.62-4.08-18.29-7.6-2.37-1.47-5.44-1.11-7.41.86l-9.81 9.83c-5.06-3.98-9.6-8.54-13.58-13.61l9.82-9.84c1.96-1.97 2.32-5.03.86-7.4-3.51-5.68-6.06-11.84-7.59-18.33-.64-2.71-3.06-4.63-5.84-4.63h-13.88c-.38-3.19-.57-6.41-.57-9.62s.19-6.43.57-9.62zm79.94 64.44c30.18 0 54.73-24.59 54.73-54.81s-24.55-54.81-54.73-54.81-54.73 24.59-54.73 54.81 24.55 54.81 54.73 54.81zm-36.22-32.13h7.29c1.26 4.63 2.9 8.89 4.85 12.67-4.86-3.34-9-7.66-12.14-12.67zm-6.51-22.68c0-3.69.47-7.27 1.35-10.68h10.17c-.4 3.44-.61 7.01-.61 10.68s.21 7.24.61 10.68h-10.18c-.88-3.42-1.34-7-1.34-10.68zm85.46 0c0 3.69-.47 7.27-1.35 10.68h-10.17c.4-3.44.61-7.01.61-10.68s-.21-7.24-.61-10.68h10.17c.88 3.41 1.35 6.99 1.35 10.68zm-22.91 0c0 3.75-.25 7.32-.7 10.68h-13.13v-21.36h13.13c.46 3.36.7 6.93.7 10.68zm-25.82 39.3c-4.06-2.96-7.85-8.76-10.43-16.62h10.43zm12 0v-16.62h10.43c-2.59 7.85-6.38 13.66-10.43 16.62zm0-61.99v-16.62c4.06 2.96 7.85 8.76 10.43 16.62zm-12-16.62v16.62h-10.43c2.58-7.85 6.37-13.66 10.43-16.62zm0 28.62v21.36h-13.13c-.45-3.36-.7-6.94-.7-10.68s.25-7.32.7-10.68zm30.07 46.03c1.96-3.78 3.59-8.03 4.85-12.67h7.29c-3.14 5.02-7.28 9.34-12.14 12.67zm12.14-58.03h-7.29c-1.26-4.63-2.9-8.89-4.85-12.67 4.86 3.34 9 7.66 12.14 12.67zm-60.28-12.66c-1.95 3.78-3.59 8.03-4.85 12.67h-7.29c3.13-5.02 7.27-9.34 12.14-12.67zm52.55 264.93c0 3.31-2.69 6-6 6h-45.34c-3.31 0-6-2.69-6-6s2.69-6 6-6h45.34c3.31 0 6 2.69 6 6z"/></svg>