<svg id="Layer_1" height="512" viewBox="0 0 128 128" width="512" xmlns="http://www.w3.org/2000/svg" data-name="Layer 1"><g fill="rgb(0,0,0)"><path d="m63 128a49 49 0 0 1 0-98c1.357 0 2.73.056 4.082.167l-.164 1.994c-1.297-.107-2.618-.161-3.918-.161a46.991 46.991 0 1 0 38.18 19.584l1.624-1.168a49.005 49.005 0 0 1 -39.804 77.584z"/><path d="m80.492 69.861c-.552-.325-1.233-.8-1.892-1.248-.413-.285-.811-.559-1.142-.773-3.244-2.091-7.183-.815-10.992.418-.891.289-1.773.574-2.638.816a6.317 6.317 0 0 1 -3.278.284 2.863 2.863 0 0 1 -2.206-3.314 4.694 4.694 0 0 1 1.443-2.163c.187-.187.372-.368.527-.557.8-.98 1.595-1.994 2.353-3.012.146-.2.3-.444.474-.711.845-1.321 2.125-3.32 4.151-2.913l.457.092a9.974 9.974 0 0 0 4.684.236c1.712-.512 3.679-1.448 4.216-2.387.341-.6.1-1.12-.526-2.171-.583-.975-1.382-2.31-.526-3.746l.73-1.225 1.718 1.026-.73 1.223c-.21.351-.053.732.524 1.7.635 1.061 1.5 2.514.547 4.189-1.061 1.854-4.116 2.932-5.381 3.31a11.591 11.591 0 0 1 -5.656-.192l-.449-.091c-.692-.143-1.522 1.167-2.075 2.03-.2.311-.383.6-.554.826-.776 1.044-1.587 2.082-2.411 3.087a9.492 9.492 0 0 1 -.659.7 3.127 3.127 0 0 0 -.911 1.209c-.1.4.319.805.751.914a4.716 4.716 0 0 0 2.248-.271c.839-.235 1.695-.512 2.561-.793 4.056-1.312 8.65-2.8 12.692-.2.345.222.761.508 1.192.806.631.434 1.283.883 1.774 1.173z"/><path d="m57.1 83.387-1.972-.335.087-.516c.546-3.258 1.165-6.95 4.288-9.1.5-.346.981-.721 1.461-1.1.559-.437 1.138-.888 1.754-1.3a5.271 5.271 0 0 1 1.663-.8 4.391 4.391 0 0 1 3.011.615c.133.065.264.128.394.187a28.021 28.021 0 0 0 6.4 1.979l-.372 1.964a30.008 30.008 0 0 1 -6.858-2.123c-.144-.066-.291-.136-.439-.209a2.834 2.834 0 0 0 -1.661-.47 3.43 3.43 0 0 0 -1.027.519c-.555.37-1.079.78-1.635 1.214-.511.4-1.023.8-1.557 1.167-2.426 1.672-2.947 4.78-3.45 7.786z"/><path d="m74.228 114.716a3.392 3.392 0 0 1 -1.759-.441 2.8 2.8 0 0 1 -1.326-2.445 10.9 10.9 0 0 1 .556-3.419c.109-.4.219-.791.307-1.189a13.893 13.893 0 0 0 .19-3.27l-.011-.683a24.428 24.428 0 0 0 -.544-4.152c-.105-.557-.209-1.11-.3-1.656a4.686 4.686 0 0 0 -1.734-2.3c-.247-.226-.49-.449-.714-.674-.314-.312-1.085-.264-1.766-.219-.224.015-.441.028-.645.032a12.01 12.01 0 0 1 -5.063-.911 3.8 3.8 0 0 1 -2.035-2.614l-.036-.1a5.124 5.124 0 0 0 -1.272-1.963l1.424-1.418a7.042 7.042 0 0 1 1.742 2.714l.037.1c.323.925.44 1.2.991 1.459a9.709 9.709 0 0 0 4.182.725c.174 0 .361-.015.553-.027a4.044 4.044 0 0 1 3.309.8c.2.2.425.407.65.612a6.232 6.232 0 0 1 2.357 3.459c.087.529.188 1.066.29 1.606a25.751 25.751 0 0 1 .579 4.5l.01.665a15.569 15.569 0 0 1 -.237 3.742c-.095.43-.213.858-.332 1.286a9.33 9.33 0 0 0 -.485 2.805c.025.613.266.758.357.813a3.027 3.027 0 0 0 2.431-.263c1.29-.622 2.569-1.27 3.841-1.927.309-.16.636-.31.968-.463a8.315 8.315 0 0 0 1.957-1.1 7.8 7.8 0 0 0 1.334-1.822c.181-.3.36-.6.544-.873.483-.953.929-1.822 1.376-2.692.732-1.425 1.489-2.9 2.184-4.361a8.156 8.156 0 0 0 .5-3.685c-.007-.248-.024-.495-.042-.74a4.477 4.477 0 0 1 1-3.826l1.95-1.962c.136-.136.286-.274.439-.413a2.818 2.818 0 0 0 .83-.982l1.169-4.091a.725.725 0 0 0 -.158-.692.735.735 0 0 0 -.67-.236l-2.55.426a2.744 2.744 0 0 1 -2.384-.765l-2.7-2.7a2.735 2.735 0 0 1 3.341-4.279c.273.164.552.345.836.53a6.584 6.584 0 0 0 2.861 1.3 3.449 3.449 0 0 0 2.236-1.105c.187-.15.374-.3.562-.44a.737.737 0 0 0 .018-1.163 4.007 4.007 0 0 0 -.859-.472c-.733-.33-2.259-1.018-1.445-3.119a4.79 4.79 0 0 1 6.249-2.588 15.242 15.242 0 0 1 4.447 3.3 9.9 9.9 0 0 1 1.349 1.9c.16.286.355.634.725 1.2.759 1.162 1.672 1.681 3.575 2.588l-.86 1.806c-2.019-.963-3.322-1.665-4.389-3.3-.407-.623-.621-1-.8-1.317a7.875 7.875 0 0 0 -1.13-1.582 14.456 14.456 0 0 0 -3.553-2.7 2.817 2.817 0 0 0 -3.752 1.412 1.566 1.566 0 0 0 -.094.327 4.489 4.489 0 0 0 .5.247 5.7 5.7 0 0 1 1.286.734 2.736 2.736 0 0 1 -.067 4.324c-.173.13-.343.266-.513.4a5.221 5.221 0 0 1 -3.617 1.539 8.146 8.146 0 0 1 -3.82-1.623c-.263-.171-.52-.339-.773-.491a.737.737 0 0 0 -1.077.4.73.73 0 0 0 .178.752l2.7 2.7a.734.734 0 0 0 .641.206l2.55-.425a2.735 2.735 0 0 1 3.08 3.449l-1.169 4.091a4.262 4.262 0 0 1 -1.407 1.912c-.128.116-.253.23-.367.344l-1.95 1.962c-.521.524-.5 1.173-.425 2.275.02.274.039.551.046.828a9.955 9.955 0 0 1 -.694 4.6c-.708 1.489-1.472 2.977-2.211 4.416-.443.863-.887 1.726-1.32 2.593a2.671 2.671 0 0 1 -.173.3c-.165.248-.327.518-.492.792a9.372 9.372 0 0 1 -1.732 2.3 9.788 9.788 0 0 1 -2.44 1.42c-.3.138-.6.275-.883.42-1.288.666-2.583 1.322-3.89 1.953a6.189 6.189 0 0 1 -2.572.614z"/><path d="m40.772 57.611a3.216 3.216 0 0 1 -2.595-1.317l-1.665-2.269a1.247 1.247 0 0 0 -.439-.371l-.291-.145a3.208 3.208 0 0 1 -1.782-2.884v-2.7a1.235 1.235 0 0 0 -.358-.865l-1.349-1.349 1.414-1.414 1.349 1.349a3.2 3.2 0 0 1 .944 2.275v2.7a1.216 1.216 0 0 0 .677 1.095l.29.145a3.236 3.236 0 0 1 1.157.976l1.665 2.269a1.224 1.224 0 0 0 2.211-.72v-1.166a3.24 3.24 0 0 1 .062-.629l.762-3.811a3.229 3.229 0 0 1 1.527-2.147l2.53-1.487a1.237 1.237 0 0 0 .595-.908l.424-3.484a3.217 3.217 0 0 1 1.137-2.087l5.323-4.435 1.28 1.536-5.323 4.432a1.221 1.221 0 0 0 -.431.793l-.425 3.483a3.246 3.246 0 0 1 -1.561 2.393l-2.531 1.488a1.23 1.23 0 0 0 -.58.816l-.762 3.807a1.276 1.276 0 0 0 -.023.24v1.166a3.228 3.228 0 0 1 -3.228 3.225z"/><path d="m33.051 113.316a12.605 12.605 0 0 1 .285-7.834 27.4 27.4 0 0 1 3.354-7.125 1.6 1.6 0 0 0 .266-.883c0-.351.011-.709.022-1.07a14.5 14.5 0 0 0 -.046-2.273l1.982-.262a15.846 15.846 0 0 1 .063 2.6c-.01.34-.021.677-.021 1.008a3.581 3.581 0 0 1 -.6 1.987 25.375 25.375 0 0 0 -3.106 6.6 10.632 10.632 0 0 0 -.3 6.624z"/><path d="m25.337 89.142-.208-.184c-1.282-1.129-2.878-2.534-2.878-4.458v-5.633c0-1.262-1.5-1.866-3.457-2.523-.423-.142-.822-.277-1.168-.416l.748-1.856c.312.126.674.247 1.057.376 1.92.644 4.82 1.619 4.82 4.419v5.633c0 1.021 1.169 2.049 2.2 2.958l.212.187z"/><path d="m91 68a3 3 0 1 1 3-3 3 3 0 0 1 -3 3zm0-4a1 1 0 1 0 1 1 1 1 0 0 0 -1-1z"/><path d="m91 66a1 1 0 0 1 -.974-.771c-1.831-7.783-6.706-14.1-11.421-20.2-5.454-7.069-10.605-13.741-10.605-22.029a23 23 0 0 1 46 0c0 8.087-5.14 14.6-10.583 21.494-4.928 6.243-10.024 12.7-11.432 20.68a1 1 0 0 1 -.957.826zm0-64a21.023 21.023 0 0 0 -21 21c0 7.605 4.949 14.016 10.189 20.8 4.118 5.335 8.356 10.824 10.72 17.39 2.147-6.8 6.606-12.448 10.939-17.938 5.221-6.612 10.152-12.859 10.152-20.252a21.023 21.023 0 0 0 -21-21z"/><path d="m100.9 10.434a15.925 15.925 0 0 0 -1.43-1.01l1.062-1.695a18.147 18.147 0 0 1 1.61 1.137z"/><path d="m76.866 34.141a17.762 17.762 0 0 1 -3.866-11.141 18.021 18.021 0 0 1 18-18 17.841 17.841 0 0 1 7.413 1.591l-.826 1.822a16 16 0 0 0 -19.153 24.487z"/><path d="m81.469 38.271a18.147 18.147 0 0 1 -1.61-1.137l1.241-1.568a15.925 15.925 0 0 0 1.43 1.01z"/><path d="m91 41a17.841 17.841 0 0 1 -7.413-1.591l.826-1.822a16 16 0 0 0 19.153-24.487l1.568-1.242a17.762 17.762 0 0 1 3.866 11.142 18.021 18.021 0 0 1 -18 18z"/><path d="m91 35a1.007 1.007 0 0 1 -.46-.112l-10.24-5.311a1 1 0 0 1 -.539-.888v-11.758a1 1 0 0 1 .566-.9l10.239-4.931a1 1 0 0 1 .868 0l10.241 4.931a1 1 0 0 1 .566.9v11.758a1 1 0 0 1 -.539.888l-10.242 5.311a1.007 1.007 0 0 1 -.46.112zm-9.241-6.918 9.241 4.792 9.241-4.792v-10.522l-9.241-4.45-9.241 4.45z"/><path d="m90 22.241h2v11.759h-2z"/><path d="m91 23.241a1 1 0 0 1 -.46-.112l-10.24-5.31.921-1.776 9.779 5.072 9.781-5.072.921 1.776-10.242 5.31a1 1 0 0 1 -.46.112z"/><path d="m84.748 15.742h11.367v2h-11.367z" transform="matrix(.901 -.434 .434 .901 1.686 40.875)"/><path d="m22 94a2 2 0 1 1 2-2 2 2 0 0 1 -2 2z"/><path d="m22 95a3 3 0 1 1 3-3 3 3 0 0 1 -3 3zm0-4a1 1 0 1 0 1 1 1 1 0 0 0 -1-1z"/><path d="m24.234 93.056c-1.366 0-2.166-.049-2.3-.058l.132-2c.148.01 15.032.9 33.588-5.94 17.751-6.54 34.532-20.682 34.7-20.824l1.294 1.524c-.17.145-17.222 14.515-35.3 21.176a95.687 95.687 0 0 1 -32.114 6.122z"/></g></svg>