<svg clip-rule="evenodd" fill-rule="evenodd" height="6.827in" image-rendering="optimizeQuality" shape-rendering="geometricPrecision" text-rendering="geometricPrecision" viewBox="0 0 6.82666 6.82666" width="6.827in" xmlns="http://www.w3.org/2000/svg"><g id="Layer_x0020_1"><g id="_277323120"><path id="_277324872" d="m5.1354 5.71855c-.0113071 0-.0227677-.00287795-.0332677-.00893307-.0318819-.0184094-.0428189-.0591772-.0244016-.0910709l.137949-.238933c.00207874-.00362205.00452362-.00705118.00725984-.0102323l.81085-.938862c.0430551-.049748.0643031-.0993189.0693031-.160776l.142642-1.78922c.00235827-.0620906-.0272283-.105445-.0772244-.113303-.0604173-.00944488-.141252.0383583-.176252.165752l-.289524 1.05383c-.0272638.0993425-.0865866.175398-.176311.226067l-.716094.40437c-.0313583.0177205-.0686969.0175315-.0998898-.00048425-.0301339-.0174213-.0484606-.0478425-.0502638-.0835669l-.0259252-.515043c-.00012598-.00224803-.00012992-.00454331-.00000787-.0068189.00504724-.0958071-.0153465-.165264-.0559291-.190598-.0274134-.0171457-.0665118-.0147205-.104571.00641732-.0438425.0243465-.0906654.0774843-.0905669.153583l.00125591 1.05729c.00001575.00947244-.00198031.0188346-.00585433.0274488l-.193319.430024c-.0150787.0335906-.0545433.0486102-.0881378.0335039-.0335787-.0150984-.0485709-.0545709-.0334724-.0881417l.187429-.416988-.00124803-1.04297c-.00014173-.112157.0608583-.215709.159177-.270323.0811024-.0450236.17078-.0461063.239917-.00294488.059185.0369213.127571.120213.118654.307185l.0231811.460331.670102-.378374c.0584685-.0330315.0955236-.0805276.113299-.145252l.289472-1.05387c.056689-.206374.208488-.280528.325571-.26215.117362.0184016.195276.122039.189724.251957-.0001378.0007874-.00014173.00159449-.00027953.00240157l-.142638 1.79048c-.00707874.089063-.0402795.166728-.101252.237366l-.806772.934039-.134799.233469c-.0123268.021374-.034748.0333543-.0577874.0333425z"/><path id="_277324800" d="m5.32096 3.91905c-.00505512 0-.0101693-.00057087-.0152953-.00177953-.0358386-.00843701-.0580827-.0442913-.0496654-.0801417l.272795-1.16202c.0319685-.136185.111886-.231827.21926-.262453.082185-.0234843.169154-.00216535.226988.0555118.0259724.0260039.0261102.0682402 0 .0942953-.0259724.0260512-.0681693.0260787-.0942244.00007874-.0239685-.0239331-.0599291-.0320394-.0961929-.0216654-.0594961.0169528-.105433.0770157-.126028.164736l-.272787 1.162c-.0072126.030689-.0346181.0514488-.0648504.051437z"/><path id="_277324728" d="m3.7479 5.69577 1.06225.61328.332571-.576031-1.06225-.613248-.332571.576zm1.08666.771031c-.0116181 0-.0231181-.00300394-.0333425-.00892126l-1.17771-.679984c-.0318937-.018378-.0428268-.0591535-.0244134-.0910276l.39924-.691535c.00883465-.015315.0234016-.0264646.0404843-.0310354.0170709-.00459055.0352795-.00219685.0505827.00666929l1.17773.679929c.0318858.0184055.0428031.0591929.0243819.0910827l-.399232.69148c-.00883465.015311-.0233898.0265197-.0404724.0310866-.00567717.00150394-.0114764.00227953-.0172441.00225591z"/><path id="_277324656" d="m5.03581 4.08005c-.00504724 0-.0101732-.00055512-.0152953-.00176378-.0358307-.00842126-.0580709-.0442913-.0496535-.0801417l.261276-1.11294c.0278543-.118689.092126-.206795.180972-.248173.0688268-.0320433.145043-.0318189.20911.00061024.0328504.016626.046.0567362.029378.0895827-.016622.0328228-.056752.046-.0895866.029374-.027374-.0138622-.061122-.0133583-.0926102.00131102-.0509803.0237323-.0891378.0797756-.107457.157787l-.261291 1.11291c-.00720866.0307205-.0345984.0514606-.0648425.051437z"/><path id="_277324584" d="m1.69122 5.71855c-.0230394 0-.0454449-.0119488-.0577953-.0333346l-.134791-.233445-.806748-.934094c-.0610079-.0706575-.0941417-.148264-.101236-.237323l-.142748-1.79052c-.00007087-.00081496-.00011417-.00159055-.00015748-.00238189-.00564961-.129933.0723622-.233528.189736-.251945.117008-.0184252.268823.0558071.325488.262154l.289472 1.05386c.0177953.0647205.0548465.112236.113303.145252l.670118.378374.0231811-.460343c-.00893307-.186969.0594646-.270213.118634-.307173.0691535-.0431693.158835-.0420669.239913.00296063.0983425.0545866.159323.158181.159181.270307l-.00124409 1.04297.187429.416969c.0151024.033563.00011024.073063-.0334764.0881614-.033563.0150551-.0730394.0001063-.0881378-.0334882l-.193299-.430047c-.00387795-.00862598-.00588189-.0179488-.00586614-.0274134l.00126378-1.05734c.00010236-.0760945-.0467244-.129201-.0905827-.153547-.0380669-.0211417-.0771535-.0235433-.104555-.00643307-.0405827.0253228-.0609724.0948071-.0559449.190598.00012992.00225591.00012205.00457087.00001181.00684646l-.0259291.515004c-.00180709.035689-.0201142.0661654-.0502362.0835787-.0312008.0180157-.0685551.0182126-.0999173.00050394l-.716106-.404394c-.0896929-.0506575-.14902-.126693-.176295-.226024l-.289484-1.05388c-.0349843-.127409-.115768-.17526-.17624-.165744-.0500512.00783465-.0795827.0512362-.077248.113331l.142646 1.78919c.00489764.061437.0262559.111047.0692283.160807l.810878.93885c.00273622.00315354.00517717.00659843.00727559.0102323l.137945.238921c.0184213.031878.00748425.0726654-.0244055.0910669-.0104921.00605906-.0219567.00894488-.0332598.00893307z"/><path id="_277324512" d="m1.50567 3.91905c-.030248 0-.057626-.0207087-.0648504-.0514331l-.272787-1.162c-.0205945-.0877165-.0665315-.14776-.126031-.164732-.0362756-.0103622-.0722362-.00223622-.0962087.0216654-.0260354.0259724-.0682638.0259724-.0942795-.00007874-.0259961-.0260709-.0259567-.0682795.00009843-.0942953.0577953-.0576811.144764-.0789567.226961-.0555118.107382.0306102.187291.126307.21926.262484l.272799 1.16197c.00841732.0358465-.0138228.0717402-.0496732.0801575-.00512205.00118898-.010248.00179134-.0152874.00177953z"/><path id="_277324440" d="m1.6839 5.73305.332571.576031 1.06225-.613311-.332571-.576zm.308165.733752c-.00577559 0-.0115866-.00072835-.017252-.00224016-.0170787-.00460236-.0316535-.0157638-.0404882-.0310669l-.399232-.691504c-.0184134-.0319094-.00748819-.0726654.0244016-.0910669l1.17772-.679965c.0152913-.00887795.0334961-.0112441.0505827-.00666142.0170827.00456693.0316378.015748.0404724.0310551l.399252.691512c.0184055.031874.00748031.0726535-.0244055.0910591l-1.17772.679972c-.0102205.00587402-.0217402.00892913-.0333346.00890551z"/><path id="_277324368" d="m1.79081 4.08005c-.030248 0-.0576457-.0207087-.0648543-.0514213l-.261272-1.11295c-.0183189-.078-.0564921-.134031-.107476-.157764-.0314843-.0146732-.0652362-.0151417-.0925827-.00131102-.0328307.0166063-.0729449.00348819-.0895984-.029374-.016622-.0328622-.00347244-.0729567.029374-.0895827.0640748-.032437.140291-.0326496.209098-.00061024.0888504.0413622.153126.129512.180972.248181l.261291 1.11293c.00842126.0358465-.0138189.0717244-.0496654.0801417-.00512205.00120472-.010252.0017874-.0152874.00176378z"/><path id="_277324296" d="m4.7527 1.58477c-.0133031 0-.0267362-.00396063-.0384291-.0122244-.0300709-.0212756-.0372087-.0628583-.0159606-.0929213l.194921-.275791c.0212677-.030063.0628583-.0371732.0929134-.0159409.0300709.021252.0372087.0628583.0159724.0929213l-.194933.275768c-.0129843.018378-.0335827.0281969-.0544843.028189z"/><path id="_277324224" d="m4.34013 2.16846c-.0133031 0-.0267205-.00394094-.0384173-.0122047-.0300669-.0212638-.0372047-.0628425-.0159724-.0929134l.250835-.354882c.0212677-.030063.0628622-.037189.0929173-.0159528.0300709.0212323.0372087.0628465.0159567.0929173l-.250819.354846c-.0129843.018374-.0335827.0282087-.0545.028189z"/><path id="_277324152" d="m2.07392 1.58477c-.0209055 0-.0415039-.00980709-.0544921-.028185l-.194913-.275783c-.021252-.030063-.0141142-.0716575.0159567-.0929094.0300748-.021248.0716654-.0141063.0929291.0159646l.194909.275756c.021252.030063.0141063.0716811-.0159646.0929331-.0116929.00825591-.025126.0122323-.0384252.0122244z"/><path id="_277324080" d="m2.4865 2.16846c-.0209252 0-.0415236-.0097874-.0545079-.0281614l-.250831-.354902c-.021248-.0300315-.0140984-.0716378.0159685-.0928898.0300472-.0212677.0716535-.0141142.0929173.0159646l.250835.354862c.0212402.030063.0140945.0716732-.0159724.0929213-.0116772.00826378-.0251102.0122244-.0384094.0122047z"/><path id="_277324008" d="m3.943.493177c-.0592677 0-.107492.0482323-.107492.107496 0 .0592559.0482205.107476.107484.107476.0592638-.00000394.107472-.0482087.107472-.107476.00000394-.0592756-.0482087-.10748-.107465-.107496zm0 .348283c-.132799 0-.240827-.108-.240827-.240787.00000394-.132807.108028-.240815.240819-.240815.132795-.00002362.240819.108024.240819.240815.00000787.132787-.108028.240815-.240811.240787z"/><path id="_277323936" d="m2.88363.493177c-.0592638 0-.107476.0482323-.107476.107496 0 .0592559.0482087.107476.107472.107476.0592638-.00000394.107484-.0482087.107484-.107476.00000394-.0592756-.0482205-.10748-.10748-.107496zm0 .348283c-.13278 0-.240811-.108-.240811-.240787 0-.132807.108028-.240815.240807-.240815.132795-.00002362.240819.108024.240819.240815 0 .132787-.108028.240815-.240815.240787z"/><path id="_277323864" d="m3.26842 1.15287h.00014173zm.144898.379248c.0073189 0 .0146535.00123228.0216969.00364567l.148795.0512008-.0027126-.157378c-.00024803-.0148425.00445669-.0293543.0134016-.0412283l.094685-.125709-.150476-.0460315c-.0142165-.00437402-.0265709-.0133189-.0350984-.0255l-.0902913-.128906-.0902874.128906c-.00852362.0121575-.0208937.0211535-.0351024.0255l-.150476.0460315.0946772.125689c.00894488.011874.0136496.0264213.0133976.0412756l-.00270866.15735.148795-.0512205c.00703937-.00240551.0143701-.00361024.0217047-.00362598zm.23878.2155c-.00727165 0-.0146142-.00117323-.0216811-.00359843l-.217098-.0747126-.21711.074689c-.0205709.00705906-.0432913.00369685-.060878-.00908661-.0175906-.0127913-.0278465-.0333425-.0274685-.0550827l.00395669-.229583-.138134-.183406c-.0131024-.017374-.016878-.0400079-.0101575-.0606929.00672835-.0206811.0230984-.0367835.0438898-.0431417l.219559-.0671969.131732-.188031c.0124764-.017811.0328622-.0284094.0546102-.0284173.0217441-.00001968.042126.0106063.0545984.0284213l.131736.188028.219555.067189c.0207992.00634252.0371654.0224685.0438898.0431496.00672047.0206614.00292913.0433465-.0101535.0607165l-.138134.183382.00395276.229563c.00037402.021748-.00987402.042315-.0274724.0551024-.0115354.00836614-.0252913.0127362-.0391929.0127087z"/><path id="_277323792" d="m1.46317 1.89108h.00014173zm-.0683583.1165.0899685.0755315c.0113898.0095315.019248.0226417.0223465.037185l.0244567.114909.0996417-.062248c.0125945-.00787795.0274685-.011315.0422598-.00975984l.11685.0122283-.0283976-.113969c-.00360236-.0144409-.00227165-.0296339.00377165-.0432165l.047752-.107346-.117181-.00822047c-.0148346-.0010315-.0289055-.00697638-.0399449-.0169331l-.0873268-.0785984-.0440157.108906c-.00557087.013815-.0156024.0253465-.0284803.0327756l-.101701.0587559zm.091374.401252c-.0088189 0-.017685-.00174409-.0260315-.00529921-.0200236-.00851575-.0346535-.0262205-.0391693-.0474882l-.0394921-.185555-.145307-.121972c-.0166535-.014-.0254488-.0351929-.0235591-.0568583.00190551-.0216693.0142362-.0410433.0330669-.0519173l.164268-.0949094.0711024-.175874c.00814567-.020189.0256181-.0350827.0467992-.0399724.0211693-.00493701.0434449.00085433.0595945.0154016l.14102.126882.189232.0132795c.0216969.0015.0412913.0135236.0524843.0321654.0112126.0186181.0126142.0415709.00377953.0614449l-.077122.173331.045874.184059c.00525197.0210945-.00011417.0434567-.014378.0598622-.0142638.0163898-.0356929.0248307-.0572756.0225669l-.188665-.0197717-.16089.1005c-.010752.00668898-.0230157.0101339-.0353307.010126z"/><path id="_277323720" d="m5.16009 2.16283c.0124488 0 .0246772.00349213.0353189.0101339l.0996299.0622402.0244685-.114937c.00308268-.0145315.0109567-.0275984.0223307-.0371535l.0899882-.0755354-.10172-.0587795c-.012874-.00740551-.0228937-.0189331-.0284606-.0327283l-.0440236-.108929-.0873346.0785945c-.0110394.00993701-.0251024.0159213-.0399331.0169606l-.117193.00819685.0477677.107343c.00603937.013563.00737008.0288071.00377165.0432283l-.0283976.113961.116827-.012252c.00232283-.00021654.00464173-.00033465.00696063-.00034252zm.180346.246c-.012315 0-.0245827-.00340945-.0353189-.0101181l-.160902-.100508-.188661.019752c-.0216181.00231102-.0430079-.00611811-.0572835-.0225472-.014248-.0164213-.019626-.038752-.0143622-.0598504l.0458622-.184071-.0771102-.173346c-.00883465-.019874-.00743307-.0427913.00375984-.0614291.0112087-.0186654.0307913-.0306417.0524882-.0321535l.189236-.0132913.141016-.126906c.0161654-.0145315.0384291-.0202677.0595945-.015378.0211969.00487795.0386654.019811.0468189.0399724l.0710866.175874.164268.0949055c.0188268.010874.0311732.0302559.033063.0519213.00188976.0216417-.00688976.0428858-.0235551.056874l-.145291.121957-.0395.185528c-.00452362.0212835-.0191535.0390276-.0391693.0475157-.00834646.00354724-.0172087.00530709-.0260394.00529921z"/><path id="_277323648" d="m3.17183 2.74915h.00014173zm.241484.676563c.0073189 0 .0146535.00123228.0216969.00364567l.307992.105949-.00561811-.325657c-.00025197-.014874.00447244-.029374.0134173-.041248l.195972-.260189-.311484-.095311c-.0142126-.00434646-.0265748-.0132953-.0351024-.0254724l-.186874-.266811-.186882.266783c-.0085315.012185-.0208819.0211772-.0351024.0255276l-.311469.0952835.195969.260157c.00894488.011874.0136654.0264213.0134016.0412795l-.0056063.325657.307984-.105969c.00703937-.00240551.0143701-.00361811.0217047-.00362598zm.397976.270283c-.00727953 0-.0146142-.00117717-.021685-.00361024l-.376291-.129484-.376303.129469c-.0205709.00706299-.0432795.00369685-.060878-.00909449-.0175906-.0127795-.0278465-.0333307-.0274724-.0550827l.00686614-.397917-.239433-.317874c-.0130827-.017378-.016878-.0400157-.0101535-.0606969.00672441-.0206811.0230984-.0367756.0438898-.0431378l.380555-.116449.228319-.325937c.0124764-.017811.0328622-.0284055.0546102-.0284055.0217441 0 .042126.0105984.0545984.0284173l.228339.325925.380539.116437c.0207874.00634646.0371614.0224685.0438858.0431496.00672441.0206654.00294488.0433465-.0101535.0607126l-.239429.317858.0068622.397906c.00037402.021752-.00987795.0423189-.0274764.0550945-.0115315.00837402-.0252913.0127362-.039189.0127205z"/><path id="_277323576" d="m3.41331 2.26987c-.036811 0-.0666811-.0298307-.0666811-.0666496v-.157445c0-.036811.0298622-.0666417.0666811-.0666417.036811-.00001575.0666654.0298386.0666654.0666575l.00000787.157421c0 .036811-.0298661.0666732-.0666732.0666575z"/><path id="_277323504" d="m2.83103 2.51105c-.0170709 0-.0341299-.00648819-.0471417-.0195039l-.111319-.111339c-.0260236-.0260315-.0260276-.0682283 0-.0942559.0260276-.0260551.068248-.0260394.0942756 0l.111323.111287c.0260315.0260315.0260236.0682677-.00000394.0943071-.0130118.0130039-.0300827.0195276-.0471339.0195039z"/><path id="_277323432" d="m2.58981 3.09337h-.157398c-.0368228 0-.0666732-.0298583-.0666732-.0666772.00000787-.0368228.0298504-.0666693.0666693-.0666693h.157402c.0368189 0 .0666654.0298504.0666654.0666693.00000787.0368031-.0298465.0666811-.0666654.0666772z"/><path id="_277323360" d="m4.39422 3.09337h-.157413c-.0368189 0-.0666732-.0298465-.0666732-.0666654 0-.0368346.0298465-.0666654.0666693-.0666654l.157417-.00001575c.0368071 0 .0666496.0298622.0666496.0666811.00000787.0368189-.0298465.0666693-.0666496.0666654z"/><path id="_277323288" d="m3.99561 2.51105c-.0170669 0-.0341299-.00648819-.0471417-.0195039-.0260354-.0260551-.0260433-.068248 0-.0942913l.111307-.111327c.0260315-.0260315.068248-.0260157.0942756.00002362.0260433.0260079.0260433.0682362 0 .0942756l-.111299.111291c-.0130157.0130315-.0300906.0195551-.0471417.0195315z"/><path id="_277323216" d="m2.98829 2.13877c-.027248 0-.0528386-.0168465-.062685-.0439449-.306972-.845807-.634472-1.31724-.973402-1.40122-.0357323-.00887008-.0575433-.0450039-.0486811-.0807402.0088622-.0357559.0450551-.0575315.0807362-.0486811.390157.0966457.739055.582457 1.06669 1.48515.0125591.0345866-.0053189.0728465-.0399291.0854134-.00749606.00270472-.0151969.00401575-.0227323.00401575z"/><path id="_277323168" d="m3.83835 2.13877c-.00755512 0-.0152402-.00129134-.022752-.00401575-.0345906-.0125787-.0524724-.0508031-.0399173-.0854134.32763-.902697.676528-1.38849 1.06668-1.48515.0357087-.00888583.0718858.012937.080748.0486811.00885039.0357126-.0129449.0718819-.0486811.0807402-.338937.0839724-.666445.555413-.973413 1.40122-.00983071.0270709-.0354173.0439449-.0626654.0439449z"/></g></g></svg>