<svg id="Layer_2" viewBox="0 0 64 64" xmlns="http://www.w3.org/2000/svg" data-name="Layer 2"><path d="m58.82 49.78v-6.84c0-.36-.29-.65-.65-.65s-.65.29-.65.65v6.84c0 .78-.64 1.41-1.42 1.41h-13.82c-.78 0-1.42-.63-1.42-1.41v-12.03c0-.78.64-1.41 1.42-1.41h3.75v6.21c0 .25.14.47.36.58s.49.08.68-.07l2.12-1.63 2.12 1.63c.12.09.26.14.4.14.1 0 .2-.02.29-.07.22-.11.36-.33.36-.58v-6.21h3.74c.78 0 1.42.63 1.42 1.41v2.13c0 .36.29.65.65.65s.65-.29.65-.65v-2.13c0-1.49-1.22-2.71-2.72-2.71h-4.37s-.02 0-.02 0h-5.03s-.02 0-.02 0h-4.37c-1.5 0-2.72 1.22-2.72 2.71v12.03c0 .74.3 1.42.79 1.91h17.67c.49-.49.79-1.16.79-1.91zm-7.76-8.55-1.47-1.13c-.23-.18-.56-.18-.79 0l-1.47 1.13v-4.89h3.73z"/><path d="m25.35 40.15c1.57 0 2.85-1.28 2.85-2.85s-1.28-2.85-2.85-2.85-2.85 1.28-2.85 2.85 1.28 2.85 2.85 2.85zm0-4.41c.86 0 1.55.7 1.55 1.55s-.7 1.55-1.55 1.55-1.55-.7-1.55-1.55.7-1.55 1.55-1.55z"/><path d="m11.67 20.76c-1.57 0-2.85 1.28-2.85 2.85s1.28 2.85 2.85 2.85 2.85-1.28 2.85-2.85-1.28-2.85-2.85-2.85zm0 4.41c-.86 0-1.55-.7-1.55-1.55s.7-1.55 1.55-1.55 1.55.7 1.55 1.55-.7 1.55-1.55 1.55z"/><path d="m28.09 10.05c0-1.57-1.28-2.85-2.85-2.85s-2.85 1.28-2.85 2.85 1.28 2.85 2.85 2.85 2.85-1.28 2.85-2.85zm-4.41 0c0-.86.7-1.55 1.55-1.55s1.55.7 1.55 1.55-.7 1.55-1.55 1.55-1.55-.7-1.55-1.55z"/><path d="m17.18 58.94h-3.13c-.36 0-.65.29-.65.65s.29.65.65.65h3.13c.36 0 .65-.29.65-.65s-.29-.65-.65-.65z"/><path d="m60.85 51.69h-33.88v-4.07h1.61c2.14 0 3.87-1.74 3.87-3.87v-4.68c0-.88-.3-1.71-.84-2.37-.14-1.45-.77-2.8-1.82-3.84l-9.23-9.22 8.7-8.7h10.27s.01 0 .02 0h4.01c.71 0 1.32-.45 1.56-1.07h.41v4.48l-7.19 3.71c-.17.09-.29.24-.33.43-.04.18 0 .38.11.53l5.31 7.26c.13.17.32.27.52.27.09 0 .17-.02.26-.05.28-.12.44-.42.38-.71l-1-5.38 5.6-2.23 5.61 2.23-1 5.38c-.06.3.1.59.38.71.08.04.17.05.26.05.2 0 .4-.1.53-.27l5.3-7.26c.11-.15.15-.35.11-.53s-.17-.34-.33-.43l-7.18-3.71v-4.49c.88-.05 1.58-.78 1.58-1.67v-3.96c0-.93-.75-1.68-1.68-1.68h-7.55c-.16-.77-.84-1.35-1.65-1.35h-.01s-.02 0-.03 0h-14.35c-1.11-.9-2.49-1.41-3.93-1.41-1.58 0-3.1.61-4.21 1.65-.05.03-.1.06-.15.11l-.11.12s0 0 0 0l-3.21 3.22c-.25.25-.25.67 0 .92s.67.25.92 0l3.29-3.3s.04-.03.06-.05c.94-.89 2.15-1.37 3.41-1.37s2.38.44 3.29 1.25c.55.48.97 1.06 1.26 1.71.28.63.44 1.32.44 2.03 0 .92-.26 1.8-.73 2.58-.02.03-.03.07-.05.1 0 .01-.02.02-.02.03-.17.25-.35.5-.56.72-.03.03-.05.06-.07.09l-.25.25s0 0 0 0l-8.88 8.88-2.29-2.28-1.25-1.25c-.17-.17-.35-.32-.53-.47-.01-.01-.03-.02-.04-.03-.17-.14-.35-.26-.53-.38-.02-.01-.04-.02-.06-.04-.19-.12-.38-.22-.58-.31 0 0-.02 0-.03-.01-.83-.39-1.73-.6-2.67-.6-.02 0-.04 0-.05 0-.06 0-.12 0-.19 0-.16 0-.32.02-.48.03-.03 0-.06 0-.08 0l4.37-4.36c.25-.25.25-.67 0-.92-.25-.26-.67-.25-.92 0l-7.05 7.04s0 0-.01.01c0 0-.02.02-.03.03-.39.39-.73.84-.98 1.3-.57.95-.87 2.04-.87 3.15 0 1.68.65 3.25 1.84 4.45l7.13 7.13h-5.1c-2.14 0-3.87 1.74-3.87 3.87v4.68c0 2.14 1.74 3.87 3.87 3.87h1.61v4.07h-7.74c-1.54 0-2.8 1.26-2.8 2.8v2.95c0 1.54 1.26 2.8 2.8 2.8h6.32c.36 0 .65-.29.65-.65s-.29-.65-.65-.65h-6.32c-.83 0-1.5-.67-1.5-1.5v-2.95c0-.83.67-1.5 1.5-1.5h8.34s0 0 .01 0h14.81s0 0 .01 0h34.52c.83 0 1.5.67 1.5 1.5v2.95c0 .83-.67 1.5-1.5 1.5h-39.08c-.36 0-.65.29-.65.65s.29.65.65.65h39.09c1.54 0 2.8-1.26 2.8-2.8v-2.95c0-1.54-1.26-2.8-2.8-2.8zm-17.32-45.21c.23 0 .41.19.41.42v6.31c0 .23-.19.42-.42.42h-3.32v-7.15zm8.03 7.38v4.59.22c-.11 1.22-1.12 2.14-2.36 2.14-.64 0-1.23-.24-1.67-.69-.39-.39-.63-.9-.68-1.46 0-.07 0-.13 0-.21v-4.59h4.73zm-8.95 9.52c-.29.11-.46.42-.4.72l.58 3.1-3.17-4.34 6.13-3.17s.04.08.06.12c.06.16.14.31.23.46.04.06.07.13.11.19.13.2.28.4.46.57.18.18.38.34.59.48.01 0 .02.02.03.03l-4.61 1.84zm12.99 3.82.57-3.09c.06-.3-.11-.61-.4-.72l-4.62-1.83c.17-.11.34-.23.49-.37.06-.06.11-.12.17-.18.09-.09.18-.18.26-.28.06-.08.11-.17.17-.25.06-.09.12-.18.18-.28.05-.09.09-.19.13-.28.03-.07.07-.14.09-.21l6.12 3.16-3.16 4.34zm-2.46-18.98v3.96c0 .21-.17.38-.38.38h-.53s-.01 0-.02 0h-6.03s-.01 0-.02 0h-.92v-4.73h7.51c.21 0 .38.17.38.38zm-14.24-1.74v7.15h-8.5c.04-.05.06-.11.1-.17.07-.11.13-.22.19-.33.12-.21.22-.42.32-.64.05-.11.09-.22.13-.33.09-.25.16-.5.22-.76.02-.09.05-.18.06-.27.06-.35.1-.71.1-1.08 0-.03 0-.05 0-.08 0-.26-.02-.51-.06-.76-.01-.09-.03-.17-.04-.26-.04-.22-.09-.44-.15-.66-.02-.06-.03-.11-.05-.17-.09-.27-.19-.53-.31-.78-.03-.06-.06-.11-.09-.16-.11-.22-.23-.42-.37-.62-.02-.03-.03-.06-.05-.09h8.5zm-32.22 17.14c0-.89.23-1.72.69-2.5.2-.37.46-.71.76-1.02l.02-.02c.13-.13.29-.24.43-.35.11-.09.21-.19.33-.26.24-.16.49-.29.75-.4.03-.01.06-.04.1-.05.29-.12.6-.21.91-.28h.02c.32-.06.65-.1.98-.1.9 0 1.75.25 2.5.7.37.22.71.46 1.02.77l1.42 1.41 12.27 12.26c.94.94 1.46 2.2 1.46 3.52 0 2.75-2.24 4.99-4.99 4.99-1.33 0-2.58-.52-3.52-1.46-.02-.02-.05-.04-.07-.06l-13.61-13.61c-.94-.94-1.46-2.2-1.46-3.53zm0 20.13v-4.68c0-1.42 1.15-2.57 2.57-2.57h6.4l5.25 5.24s.05.04.08.06c1.18 1.15 2.73 1.78 4.38 1.78.29 0 .57-.03.85-.06.07 0 .14-.02.21-.03.27-.05.54-.1.81-.19.26-.08.51-.18.76-.3.06-.03.13-.06.19-.09.24-.12.47-.25.69-.4 0 0 .01 0 .02-.01.22-.15.42-.31.62-.49.05-.05.1-.09.15-.14.19-.18.38-.37.55-.57 0 0 .01-.01.02-.02.17-.2.32-.42.46-.64.04-.06.07-.12.11-.18.14-.23.26-.47.37-.72v4.01c0 1.42-1.15 2.57-2.57 2.57h-19.35c-1.42 0-2.57-1.15-2.57-2.57zm5.48 3.87h13.51v4.07h-13.51z"/></svg>