<svg id="Layer_1" height="512" viewBox="0 0 64 64" width="512" xmlns="http://www.w3.org/2000/svg" data-name="Layer 1"><path d="m18 63h28a3 3 0 0 0 3-3v-12a3 3 0 0 0 -3-3h-28a3 3 0 0 0 -3 3v12a3 3 0 0 0 3 3zm5-2v-14h20v14zm24-13v12a1 1 0 0 1 -1 1h-1v-14h1a1 1 0 0 1 1 1zm-30 0a1 1 0 0 1 1-1h3v14h-3a1 1 0 0 1 -1-1z"/><path d="m18 50h2v8h-2z"/><path d="m35 11a3 3 0 1 0 -3-3v.23l-3.83 1.71a3 3 0 1 0 0 4.12l3.83 1.71v.23a3 3 0 1 0 .83-2.06l-3.83-1.71c0-.08 0-.15 0-.23s0-.15 0-.23l3.85-1.71a3 3 0 0 0 2.15.94zm0 4a1 1 0 1 1 -1 1 1 1 0 0 1 1-1zm-9-2a1 1 0 1 1 1-1 1 1 0 0 1 -1 1zm9-6a1 1 0 1 1 -1 1 1 1 0 0 1 1-1z"/><path d="m10.52 21.12a1 1 0 0 0 -.52.88v10a1 1 0 0 0 .52.88 1 1 0 0 0 1 0l8-5a1 1 0 0 0 0-1.7l-8-5a1 1 0 0 0 -1-.06zm1.48 2.68 5.11 3.2-5.11 3.2z"/><path d="m63 26.54a15.69 15.69 0 0 0 -1.84-6.81 14.25 14.25 0 0 0 -12.16-6.59 15 15 0 0 0 -4 .55v-10.69a2 2 0 0 0 -2-2h-24a2 2 0 0 0 -2 2v13h-15a1 1 0 0 0 -1 1v20a1 1 0 0 0 1 1h25a1 1 0 0 0 1-1v-14h7.43a12.14 12.14 0 0 0 -.43 3.14c0 6.86 5.75 12.49 13 13v2.86a1 1 0 0 0 .34.75 1 1 0 0 0 .66.25h.13a16 16 0 0 0 13.87-15.86c0-.18 0-.38 0-.6zm-37 9.46h-23v-18h14v3a2 2 0 0 0 2 2h7zm-7-15v-18h24v11.41a13.55 13.55 0 0 0 -6.85 6.59zm31 19.81v-2.67a1 1 0 0 0 -1-1c-6.62 0-12-4.93-12-11s5.38-11 12-11a12.22 12.22 0 0 1 10.41 5.53 13.72 13.72 0 0 1 1.59 5.87v.05.05.5a14 14 0 0 1 -11 13.67z"/><circle cx="49" cy="27.14" r="2"/><circle cx="55" cy="27.14" r="2"/><circle cx="43" cy="27" r="2"/></svg>