<svg id="Layer_1" enable-background="new 0 0 512 512" viewBox="0 0 512 512" xmlns="http://www.w3.org/2000/svg"><path d="m387.67 134.05-60.86 34.95c-5.36 3.06-11.96-.88-11.96-6.95v-69.98c0-6.04 6.58-10.2 12.3-6.75l60.6 34.78c5.47 3.15 5.3 10.97-.08 13.95zm-38.33 3.57 18.4-10.57-36.91-21.17v42.38zm-89.49-112.25h166.11c26.87 0 48.81 21.94 48.81 48.78v97.65c0 26.84-21.94 48.78-48.81 48.78h-24.89c68.09 58.11 72.62 162.08 8.99 225.72-60.04 60.07-157.41 60.07-217.45 0-19.42-19.42-33.68-43.99-40.51-71.52h-102.66c-4.42 0-8.02-3.57-8.02-7.99v-267.21c0-4.42 3.6-7.99 8.02-7.99h161.6v-17.44c0-26.84 21.94-48.78 48.81-48.78zm114.3 195.22h-61.31l-47.17 50.29c-4.96 5.24-13.8 1.7-13.8-5.47h-.03v-45.47c-4.96-.82-9.69-2.41-14.03-4.62-45.16 23.5-74.24 70.24-74.24 122.29 0 76.08 61.68 137.76 137.76 137.76s137.76-61.68 137.76-137.76c0-48.17-24.83-92.02-64.94-117.02zm-150.24-15.85c-3.71-4.05-6.77-8.73-8.96-13.86h-122.71c-4.42 0-8.02-3.6-8.02-8.02s3.6-7.99 8.02-7.99h118.89c-.06-1.02-.08-2.04-.08-3.06v-64.23h-153.62v251.23h91.59c-4.65-33.7 1.96-67.32 18-96.09l-74.78-.14c-4.42 0-7.99-3.57-7.99-7.97 0-4.39 3.57-7.97 7.99-7.97l85.01.17c5.24-7.14 11.06-13.8 17.43-19.93h-102.44c-4.42 0-8.02-3.6-8.02-7.99 0-4.42 3.6-8.02 8.02-8.02h122.03c3.12-2.16 6.35-4.2 9.64-6.13zm202.05-163.39h-166.11c-18.03 0-32.83 14.77-32.83 32.8v97.65c0 17.86 14.66 32.8 32.83 32.8 4.39 0 7.99 3.57 7.99 7.99v32.63l35.35-37.67c1.47-1.81 3.71-2.95 6.21-2.95h116.56c18.03 0 32.8-14.8 32.8-32.8v-97.65c0-18.03-14.77-32.8-32.8-32.8zm-157.09 339.06 7.48 27.92c1.13 4.25-1.39 8.65-5.67 9.78-4.25 1.13-8.62-1.39-9.78-5.67l-7.48-27.89c-7 1.87-13.44 1.28-19.45-2.24-5.44-3.12-9.67-8.31-11.4-14.8l-6.49-24.18c-3.46-12.98 4.34-26.48 17.29-29.93l26.16-7 43.99-47.03c4.31-4.59 11.91-2.58 13.49 3.4l.03-.03 33.25 124.07c1.56 5.81-3.8 11.85-10.6 9.52l-61.06-18.57zm100.74-55.82c-4.28 1.13-8.65-1.39-9.81-5.64-1.13-4.28 1.42-8.65 5.67-9.78l11.88-3.2c4.28-1.13 8.65 1.39 9.78 5.67 1.13 4.25-1.39 8.65-5.64 9.78zm-11.28-29.31c-2.35 3.74-7.28 4.85-11 2.52-3.74-2.35-4.85-7.29-2.49-11.03l5.47-8.67c2.35-3.71 7.28-4.85 11.03-2.49 3.71 2.35 4.85 7.26 2.49 11zm4.62 59.02c-3.91-2.04-5.41-6.86-3.37-10.77 2.04-3.88 6.83-5.39 10.74-3.37l9.1 4.79c3.91 2.04 5.41 6.83 3.37 10.74s-6.86 5.41-10.74 3.37zm-104.85-30.98-20.61 5.53c-4.51 1.22-7.17 5.84-5.95 10.35l6.46 24.18c.6 2.24 2.07 4.05 3.97 5.13h-.03c1.9 1.08 4.17 1.45 6.43.85l20.58-5.53zm47.25-42.58-32.74 34.98 12.73 47.42 45.84 13.92zm-213.11-129.2c-4.42 0-8.02-3.57-8.02-7.99s3.6-7.99 8.02-7.99h72.88c4.39 0 7.99 3.57 7.99 7.99s-3.6 7.99-7.99 7.99z"/></svg>