<?xml version="1.0"?>
<svg xmlns="http://www.w3.org/2000/svg" viewBox="0 0 512 512" width="512" height="512"><g id="Out_line" data-name="Out line"><path d="M201.492,456.785l21.33368-113.77954a23.99646,23.99646,0,0,0,16.70575-27.72522,21.066,21.066,0,0,0,4.54328-1.86377,20.79673,20.79673,0,0,0,9.96191-12.54834l10.55811-36.95361a33.83164,33.83164,0,0,0-15.85041-38.67529l6.98517-24.44824a8.00069,8.00069,0,0,0-5.49463-9.89014l-46.15332-13.18652a8.00223,8.00223,0,0,0-9.89013,5.49462l-7.08918,24.81238A20.85539,20.85539,0,0,0,168,225.56323V160a7.99977,7.99977,0,0,0-8-8H96a7.99977,7.99977,0,0,0-8,8v83.51685l-3.25146-11.38013a7.99635,7.99635,0,0,0-1.67286-3.07129L46.01953,186.731a7.99955,7.99955,0,0,0-13.91406,3.97558l-9.09717,55.521a7.99689,7.99689,0,0,0,.20215,3.49121L36.507,296.25708a23.99693,23.99693,0,0,0-3.33264,46.74841L54.508,456.785A19.99077,19.99077,0,0,0,60,496H196a19.99077,19.99077,0,0,0,5.492-39.215ZM70.63922,456l-21-112H206.36084l-21,112ZM191.31049,251.53418l30.76861,8.791-8.29785,29.04248A20.95041,20.95041,0,0,0,213.0033,296H178.606Zm16.06793-56.2373,30.76855,8.791-4.52771,15.84705-30.76874-8.79041Zm-23.47217,32.27783a5.00743,5.00743,0,0,1,4.80225-3.63037,5.02435,5.02435,0,0,1,1.38232.19482l46.90967,13.40234A17.77674,17.77674,0,0,1,249.21,259.519l-10.5581,36.95362a4.93267,4.93267,0,0,1-9.48584-2.71l10.4956-36.73438a8.00069,8.00069,0,0,0-5.49463-9.89014l-46.8247-13.37793A5.00874,5.00874,0,0,1,183.90625,227.57471ZM176.29272,245.854,168,274.87878V232.25342A21.08621,21.08621,0,0,0,176.29272,245.854ZM152,168v8H128v16h24v8H128v16h24v8H128v16h24v8H128v16h24v8H128v16h24v8H104V168ZM86.35449,296H78.03461l-12.541-43.89368a22.07435,22.07435,0,0,0,7.69531-2.18676Zm-33.28033,0L42.41705,258.70007a21.76225,21.76225,0,0,0,7.692-2.19787L61.394,296Zm-7.9223-85.96777,21.88147,24.99792a6.654,6.654,0,0,1-1.98743.94934,6.51759,6.51759,0,0,1-5.99707-1.24072,7.99991,7.99991,0,0,0-12.64307,3.6123,6.5163,6.5163,0,0,1-4.43652,4.22168,6.66533,6.66533,0,0,1-2.18878.24341ZM40,312H216a8,8,0,0,1,0,16H40a8,8,0,0,1,0-16ZM196,480H60a4,4,0,0,1,0-8H196a4,4,0,0,1,0,8Z"/><path d="M464,16H176a32.036,32.036,0,0,0-32,32v88h16V48a16.01833,16.01833,0,0,1,16-16H464a16.01833,16.01833,0,0,1,16,16V416h16V48A32.036,32.036,0,0,0,464,16Z"/><path d="M384,112a32,32,0,0,0,0-64H256a32,32,0,0,0,0,64ZM296,96V64h48V96ZM400,80a16.01833,16.01833,0,0,1-16,16H360V64h24A16.01833,16.01833,0,0,1,400,80ZM240,80a16.01833,16.01833,0,0,1,16-16h24V96H256A16.01833,16.01833,0,0,1,240,80Z"/><path d="M176,160v8h16v-8a16.01833,16.01833,0,0,1,16-16H432a16.01833,16.01833,0,0,1,16,16V416h16V160a32.036,32.036,0,0,0-32-32H208A32.036,32.036,0,0,0,176,160Z"/><path d="M464,432H272a7.9984,7.9984,0,0,0-4.11572,1.14014l-40,24a7.99959,7.99959,0,0,0,0,13.71972l40,24A7.9984,7.9984,0,0,0,272,496H464a32,32,0,0,0,0-64ZM280,448H424v32H280Zm-16,6.12952v19.741L247.54932,464ZM464,480H440V448h24a16,16,0,0,1,0,32Z"/><path d="M304,464a8.00009,8.00009,0,0,0,8,8h16V456H312A8.00009,8.00009,0,0,0,304,464Z"/><path d="M352,456H336v16h16a8,8,0,0,0,0-16Z"/><path d="M424,176a7.99977,7.99977,0,0,0-8-8H384v16h24v24h16Z"/><path d="M408,408H384v16h32a7.99977,7.99977,0,0,0,8-8V384H408Z"/><rect x="232" y="408" width="24" height="16"/></g></svg>
