<svg id="Line" enable-background="new 0 0 128 128" height="512" viewBox="0 0 128 128" width="512" xmlns="http://www.w3.org/2000/svg"><path d="m63.012 5c-2.199 0-3.988 1.789-3.988 3.988s1.789 3.988 3.988 3.988 3.988-1.788 3.988-3.988-1.789-3.988-3.988-3.988zm0 5.977c-1.096 0-1.988-.892-1.988-1.988s.892-1.989 1.988-1.989 1.988.892 1.988 1.988-.892 1.989-1.988 1.989z"/><path d="m104 54.969h-7v-37.969c0-.139-.029-.272-.081-.392 0-.001 0-.001 0-.002l-5.975-13.941c-.292-.952-1.294-1.584-2.643-1.658-1.274-.067-2.775.411-3.22 1.6l-6 14v.002c-.048.112-.071.236-.075.365-.001.009-.006.017-.006.026v37.969h-2.006v-48.969c0-2.757-2.243-5-5-5h-17.994c-2.757 0-5 2.243-5 5v48.969h-4v-8.97c1.077-.009 1.963-.892 1.977-1.979.413-33.45-4.697-41.138-6.247-42.668-.19-.223-.468-.352-.762-.352h-3.987c-.317 0-.597.122-.785.377-.727.764-1.799 2.362-2.851 5.623h-4.327c-3.883 0-7.042 3.159-7.042 7.042v26.958c0 1.654 1.346 3 3 3s3-1.346 3-3v-26.958c0-.574.467-1.042 1.042-1.042h2.858c-1.198 6.431-2.08 16.192-1.9 31.02.014 1.091.909 1.98 1.994 1.98h.006v8.969h-4.976c-1.103 0-2 .897-2 2v7.031c0 1.103.897 2 2 2h2.003l.023 21.869c-.006.045-.026.084-.026.131s.02.087.027.133l.008 7.694c-.011.058-.035.111-.035.173s.025.116.035.175l.016 14.825c0 8.673 7.304 16 15.949 16h40c8.673 0 16-7.327 16-16v-45h4c1.103 0 2-.897 2-2v-7.031c0-1.103-.897-2-2-2zm-12 0v-36.969h3v36.968h-3zm-6 0v-36.969h4v36.968h-4zm-2.555-43.47 2 1.334c.398.265.925.212 1.262-.125l1.293-1.293 1.293 1.293c.193.193.449.292.707.292.192 0 .385-.055.554-.168l2-1.333 1.93 4.501h-12.968zm3.491-8.147c.032-.084.313-.276.819-.334.669-.081 1.2.125 1.276.23.013.05.03.099.05.147l2.672 6.235-1.626 1.084-1.42-1.42c-.391-.391-1.023-.391-1.414 0l-1.42 1.42-1.627-1.084zm-5.936 14.648h3v36.968h-3zm-30 35h5c.552 0 1-.448 1-1s-.448-1-1-1h-5v-3h5c.552 0 1-.448 1-1s-.448-1-1-1h-5v-3h5c.552 0 1-.448 1-1s-.448-1-1-1h-5v-3h9c.552 0 1-.448 1-1s-.448-1-1-1h-9v-3h5c.552 0 1-.448 1-1s-.448-1-1-1h-5v-3h5c.552 0 1-.448 1-1s-.448-1-1-1h-5v-3h5c.552 0 1-.448 1-1s-.448-1-1-1h-5v-3h9c.552 0 1-.448 1-1s-.448-1-1-1h-9v-10c0-1.654 1.346-3 3-3h17.994c1.654 0 3 1.346 3 3v48.969h-23.994zm-22.981-42c-1.677 0-3.042 1.364-3.042 3.042v26.958c0 .551-.449 1-1 1s-1-.449-1-1v-26.958c0-2.78 2.262-5.042 5.042-5.042h3.744c-.163.619-.323 1.287-.48 2zm8.414-8h3.09c1.208 1.515 5.844 9.414 5.46 41l-14.006-.005c-.381-31.285 4.093-39.291 5.456-40.995zm-3.456 43h10.023v8.969h-10.023zm-2.941 51h67.964v3h-67.961zm-.002-2-.006-6h67.972v6zm-.008-8-.003-3h67.977v3zm.016 15h67.958v6h-67.952zm67.958-20h-67.98l-.006-6h67.986zm-14 43h-40c-7.561 0-13.949-6.411-13.949-14.001l-.001-.999h67.95v1c0 7.589-6.411 14-14 14zm14-51h-67.988l-.009-8h67.997zm5.997-10h-74.995-.001-3.001v-7.031h23.845c.053.008.1.031.155.031s.102-.023.155-.031h53.845z"/></svg>