<svg id="illustration" enable-background="new 0 0 100 100" height="512" viewBox="0 0 100 100" width="512" xmlns="http://www.w3.org/2000/svg"><g><path d="m53.301 61.431c.217.192.624.227.862-.002.113-.109 25.507-26.058 25.507-26.059 3.168-3.247 4.913-7.566 4.913-12.158.014-4.599-1.722-8.919-4.888-12.164-3.134-3.213-5.548-4.994-11.89-5.018-6.96-.026-12.105 4.989-13.803 6.632-.094.09-.176.171-.248.24-.084-.077-.184-.17-.298-.275-1.971-1.816-7.208-6.639-13.843-6.639-4.456 0-8.649 1.782-11.809 5.019-3.173 3.256-4.912 7.575-4.898 12.158 0 4.579 1.751 8.894 4.928 12.152 1.035 1.061 25.344 26.004 25.467 26.114zm-24.63-49.58c2.93-3 6.816-4.653 10.942-4.653 6.163 0 11.147 4.591 13.024 6.319.682.628.824.759 1.126.759.31 0 .458-.143 1.08-.746 1.781-1.723 6.522-6.317 12.959-6.291 5.6.023 8.12 1.674 11.026 4.653 2.943 3.017 4.557 7.035 4.544 11.317 0 4.277-1.622 8.296-4.567 11.315 0 0-21.718 22.187-25.073 25.614-3.326-3.409-24.797-25.427-25.031-25.667-2.956-3.03-4.584-7.046-4.584-11.309-.013-4.266 1.604-8.283 4.554-11.311z"/><path d="m41.277 37.521h8.745v8.745c0 .334.271.605.605.605h6.234c.334 0 .605-.271.605-.605v-8.745h8.745c.334 0 .605-.271.605-.605v-6.233c0-.334-.271-.605-.605-.605h-8.745v-8.745c0-.334-.271-.605-.605-.605h-6.234c-.334 0-.605.271-.605.605v8.745h-8.745c-.334 0-.605.271-.605.605v6.233c-.001.334.27.605.605.605zm.605-6.233h8.745c.334 0 .605-.271.605-.605v-8.745h5.023v8.745c0 .334.271.605.605.605h8.745v5.023h-8.745c-.334 0-.605.271-.605.605v8.745h-5.023v-8.745c0-.334-.271-.605-.605-.605h-8.745z"/><path d="m81.666 9.837c3.374 3.458 5.223 8.064 5.208 12.972 0 2.649-.533 5.198-1.586 7.577-.135.306.007.654.309.798.455.218.698-.083.798-.309 1.121-2.534 1.689-5.248 1.689-8.065.016-5.225-1.956-10.133-5.553-13.819-.76-.779-1.587-1.495-2.458-2.128-.27-.196-.648-.136-.845.134s-.136.649.134.845c.817.593 1.592 1.264 2.304 1.995z"/><path d="m84.089 32.654c-.698 1.121-1.522 2.172-2.45 3.123-.233.239-.252.649.01.856.358.281.737.111.856-.01.989-1.014 1.868-2.134 2.612-3.329.177-.284.09-.657-.194-.833-.284-.177-.656-.091-.834.193z"/><g><g><path d="m94.948 59.19c-1.054-1.055-2.567-1.342-3.948-.751-.335.143-.869.427-1.63.862-.344-.539-.95-1.244-1.928-1.583-1.079-.373-2.313-.19-3.734.561-1.058-.6-2.952-1.122-4.689.036-.406.271-1.157.713-2.212 1.303-.948-.214-3.081-.256-5.098.689-1.959.918-7.843 3.671-9.24 4.234-1.145.053-2.305.145-3.459.239-4.094.333-7.96.647-10.79-.878-1.175-.632-2.234-1.337-3.259-2.018-2.913-1.938-5.665-3.77-9.609-2.641-1.658.474-3.126 1.143-4.68 1.851-3.009 1.371-5.403 2.784-10.212 2.902-.001-1.099-.896-1.993-1.996-1.993h-12.414c-1.1 0-1.995.895-1.995 1.995 0 .334.271.605.605.605s.605-.271.605-.605c0-.433.352-.785.785-.785h12.414c.433 0 .785.352.785.785v27.372c0 .433-.352.785-.785.785h-12.414c-.433 0-.785-.352-.785-.786l-.054-23.187c-.001-.334-.272-.604-.605-.604 0 0-.001 0-.002 0-.334.001-.604.272-.604.607l.055 23.186c0 1.1.895 1.995 1.995 1.995h12.414c1.1 0 1.996-.895 1.996-1.995v-6.289h5.659c3.99 0 11.699 2.053 16.124 3.896 3.465 1.443 9.475 1.719 12.503 1.583s10.971-3.016 23.521-12.338c13.078-9.716 16.337-12.536 17.43-15.087.592-1.379.305-2.892-.749-3.946zm-10.691.16c1.082-.59 2.019-.753 2.789-.488.624.216 1.038.684 1.279 1.048l-16.425 9.959c-.016-.926-1.027-2.77-1.045-2.796zm-4.566-.027c.974-.65 1.983-.539 2.691-.309l-12.345 7.134c-.046-.041-1.207-.824-1.264-.853zm-7.309 1.992c.897-.417 1.772-.743 2.613-.696l-7.791 4.128c-.132-.03-1.535-.207-1.553-.208 2.406-1.016 5.204-2.513 6.731-3.224zm22.202 1.345c-1.033 2.408-5.364 5.917-17.04 14.592-12.187 9.052-20.759 12.099-22.798 12.099 0 0-8.289.071-12.038-1.49-4.015-1.673-12.014-3.99-16.589-3.99h-5.659v-18.659c5.172-.112 7.721-1.652 10.714-3.016 1.512-.689 2.94-1.34 4.511-1.789 3.407-.97 5.7.553 8.606 2.485 1.048.696 2.131 1.417 3.355 2.076 3.144 1.694 7.373 1.351 11.463 1.019 1.175-.095 5.645-.29 6.524-.237.535.031 4.69-.136 5.103 4.732-.73 2.771-3.831 3.224-10.91 3.224-7.109 0-13.555 2.081-13.826 2.169-.318.104-.455.436-.387.763.091.437.701.407.763.387.064-.021 6.532-2.109 13.45-2.109 6.52 0 10.673-.259 11.918-3.617 1.809-.847 19.378-11.596 19.732-11.748 1.096-.471 2.069-.054 2.615.493.547.548.963 1.521.493 2.616z"/><g><path d="m12.257 88.83c-1.683 0-3.052-1.369-3.052-3.052s1.369-3.052 3.052-3.052 3.052 1.369 3.052 3.052c0 .334-.271.605-.605.605s-.605-.271-.605-.605c0-1.015-.826-1.841-1.842-1.841-1.015 0-1.841.826-1.841 1.841s.826 1.841 1.841 1.841c.334 0 .605.271.605.605.001.335-.27.606-.605.606z"/></g><g><path d="m44.568 93.59c-.055 0-2.444-.762-3.531-1.26-.304-.139-.437-.498-.298-.802.14-.303.498-.436.802-.298 1.03.472 2.104.867 3.19 1.173.322.091.509.425.419.747-.075.265-.335.519-.582.44z"/><path d="m51.024 94.463c-.878 0-1.79-.044-2.73-.146-.332-.036-.573-.334-.537-.667s.342-.57.667-.537c6.95.755 12.519-1.854 12.575-1.881.3-.142.662-.017.806.286.144.301.017.662-.285.806-.207.1-4.548 2.139-10.496 2.139z"/></g><g><path d="m13.481 58.689h-8.207c-.334 0-.605-.271-.605-.605s.271-.605.605-.605h8.207c.334 0 .605.271.605.605s-.27.605-.605.605z"/><path d="m19.18 58.689h-2.301c-.334 0-.605-.271-.605-.605s.271-.605.605-.605h2.301c.334 0 .605.271.605.605s-.271.605-.605.605z"/></g></g></g></g></svg>