<svg clip-rule="evenodd" fill-rule="evenodd" height="2048" image-rendering="optimizeQuality" shape-rendering="geometricPrecision" text-rendering="geometricPrecision" viewBox="0 0 2048 2048" width="2048" xmlns="http://www.w3.org/2000/svg"><g id="Layer_x0020_1"><g id="_420752024" fill="#212121" fill-rule="nonzero"><g><g><g><path id="_420752840" d="m1114.88 1787.94c150.216 0 286.219-60.893 384.664-159.338s159.338-234.448 159.338-384.664c0-120.122-38.9433-231.151-104.884-321.159-22.6914 5.10591-45.339 10.7622-67.8851 16.8602 67.9666 82.8201 108.768 188.793 108.768 304.298 0 132.552-53.7272 252.554-140.587 339.414-86.8595 86.8595-206.862 140.587-339.414 140.587s-252.554-53.7272-339.414-140.587c-67.056-67.056-114.358-153.868-132.444-250.956-19.1764 13.4126-38.0634 27.1937-56.5512 41.3693 24.0166 98.0741 74.6221 185.714 143.745 254.837 98.445 98.445 234.448 159.338 384.664 159.338zm336.579-971.397c-92.6009-73.0253-209.502-116.607-336.579-116.607-150.216 0-286.219 60.893-384.664 159.338-94.6595 94.6595-154.589 224.046-159.058 367.401 22.2827-15.5504 44.9197-30.6355 67.7682-45.2929 13.9961-107.535 63.5741-203.891 136.54-276.858 86.8595-86.8595 206.862-140.587 339.414-140.587 95.132 0 183.797 27.6768 258.389 75.4111 25.8862-8.06812 51.9721-15.7122 78.1902-22.8059z"/><path id="_420753416" d="m1114.88 1787.94c89.2394 0 168.396-63.7583 224.23-166.838 52.5815-97.0737 85.1044-230.466 85.1044-377.164 0-99.6957-15.0248-193.24-41.1544-273.423-12.8622 4.19292-25.6595 8.4815-38.3811 12.8421-7.37599 2.52874-14.7425 5.09056-22.0996 7.68308 23.889 73.6264 37.6335 160.132 37.6335 252.898 0 136.07-29.5618 258.682-77.354 346.914-44.5394 82.226-104.053 133.087-167.979 133.087s-123.439-50.8607-167.979-133.087c-47.7922-88.232-77.354-210.843-77.354-346.914 0-17.2807.479528-34.3429 1.40906-51.1477-21.9354 11.9457-43.7126 24.1701-65.3032 36.6827-.0696851 4.80709-.10748 9.62835-.10748 14.465 0 146.698 32.5229 280.09 85.1044 377.164 55.8343 103.08 134.991 166.838 224.23 166.838zm216.402-935.094c-55.2886-94.8627-131.255-152.91-216.402-152.91-89.2394 0-168.396 63.7583-224.23 166.838-31.4067 57.9815-55.6548 128.923-70.0926 207.916 24.3803-13.1551 48.9437-25.9831 73.6595-38.4933 13.115-52.1528 31.0288-99.1914 52.6843-139.172 44.5394-82.226 104.053-133.087 167.979-133.087 57.7489 0 111.894 41.5099 154.655 110.15 11.1933-3.99567 22.4067-7.92048 33.6425-11.7721 9.33426-3.19961 18.704-6.35788 28.1044-9.4689z"/><path id="_420753104" d="m1146.88 1749.64c0 17.6728-14.328 32.0008-32.0008 32.0008s-32.0008-14.328-32.0008-32.0008v-661.985c21.2209-9.59292 42.5587-18.9709 64.0016-28.1138v690.099zm-64.0016-801.8v-209.59c0-17.6728 14.328-32.0008 32.0008-32.0008s32.0008 14.328 32.0008 32.0008v182.732c-21.4323 8.72363-42.7677 17.6823-64.0016 26.8583z"/><path id="_420752888" d="m836.362 1211.94h784.212c17.6728 0 32.0008 14.328 32.0008 32.0008s-14.328 32.0008-32.0008 32.0008h-892.083c15.0307-9.41576 30.1335-18.6425 45.2599-27.6886 20.6929-12.3744 41.5713-24.476 62.6103-36.313z"/><path id="_420752792" d="m688.212 1542.61c-17.6728 0-32.0008-14.328-32.0008-32.0008s14.328-32.0008 32.0008-32.0008h853.334c17.6728 0 32.0008 14.328 32.0008 32.0008s-14.328 32.0008-32.0008 32.0008z"/></g><path id="_420753056" d="m688.212 1009.27c-17.6728 0-32.0008-14.328-32.0008-32.0008s14.328-32.0008 32.0008-32.0008h400.613c-29.6103 12.7264-59.0221 25.878-88.2178 39.4051-17.3776 8.05158-34.7008 16.2508-51.9638 24.5965h-260.431zm777.551-64.0016h75.7831c17.6728 0 32.0008 14.328 32.0008 32.0008s-14.328 32.0008-32.0008 32.0008h-269.149c23.987-8.97284 48.0827-17.6209 72.28-25.9146 39.7418-13.6228 80.2182-26.5323 121.086-38.087z"/></g><path id="_420752744" d="m1633.98 808.708c17.3965-2.82992 33.7949 8.97875 36.6248 26.3752 2.82992 17.3965-8.97875 33.7949-26.3752 36.6248-5.25709.871654-18.6095 3.62126-30.3059 6.02835-8.89253 1.83071-16.9725 3.49607-19.2957 3.93544-76.004 14.4106-164.359 38.5193-260.329 71.4166-92.7934 31.8071-192.062 71.628-293.492 118.623-206.091 95.4887-382.673 202.562-501.561 298.48-108.768 87.7524-167.453 160.57-150.275 197.647 8.15316 17.5984 38.7827 27.0036 86.4792 28.9075 59.5193 2.37638 140.521-8.81812 235.8-32.1992 17.1201-4.21063 34.415 6.25512 38.6256 23.3752 4.21063 17.1201-6.25512 34.415-23.3752 38.6256-100.91 24.763-187.989 36.5681-253.55 33.9496-72.73-2.90433-122.682-24.261-141.979-65.9091-31.1126-67.1528 35.4709-167.002 168.275-274.147 122.684-98.9812 303.983-209.045 514.811-306.729 103.935-48.1548 205.211-88.8072 299.492-121.125 98.3304-33.7063 189.758-58.578 269.329-73.6654 5.01496-.949607 11.335-2.25236 18.2941-3.68504 12.7004-2.61378 27.1973-5.59961 32.8075-6.52914z"/><path id="_420752288" d="m1651.46 955.032c-9.11221 15.0496-28.7008 19.8626-43.7504 10.7504-15.0496-9.11221-19.8626-28.7008-10.7504-43.7504l51.8741-85.6666-85.6642-51.8729c-15.0496-9.11221-19.8626-28.7008-10.7504-43.7504 9.11221-15.0496 28.7008-19.8626 43.7504-10.7504l110.321 66.8032c.903544.437008 1.7941.917717 2.66929 1.44803 15.1169 9.15355 19.9512 28.8319 10.7976 43.9489l-.122835-.0744095-68.3741 112.915z"/></g><path id="_420752240" d="m998.925 435.669c-12.789 3.36496-20.4284 16.461-17.0634 29.25 3.36496 12.789 16.461 20.4284 29.25 17.0634l173.102-45.4996.00826772.0366142c.297638-.0661418.591733-.13937.884646-.216142v.0011811l.0744095-.0200788.485433-.134646.0732284-.0212599.519685-.157087.0649607-.0212599.647245-.216142c10.9465-3.13583 31.4398-10.9429 48.7607-20.3032 24.3992-13.1847 44.1059-31.2803 40.5768-52.9158-.216142-1.73977-.620079-3.42048-1.18819-5.02323-11.1331-38.615-49.037-66.8103-93.1111-82.5863-42.2374-15.1169-91.4835-19.2036-126.962-9.88111l-.0141732-.0531496c-.546851.144095-1.08425.307087-1.61221.485433-149.743 39.5244-292.118 100.298-434.065 160.892-40.1941 17.1579-80.3528 34.3028-118.78 50.1945l-83.5005-38.2087.0366142-.0791339c-5.76851-2.63977-12.039-2.8004-17.6138-.930709l-35.4189 9.31064-.0141732-.0531496c-12.8185 3.36851-20.4791 16.4929-17.1106 29.3114.647245 2.46496 1.65591 4.73741 2.95394 6.77835l75.4938 134.715-.0283465.0165354c5.74252 10.2473 17.8866 14.6469 28.624 11.0043l41.6752-10.9524c12.789-3.36496 20.4284-16.461 17.0634-29.25-3.36496-12.789-16.461-20.4284-29.25-17.0634l-25.3229 6.65552-51.2977-91.5414 81.4005 37.2485c6.19016 3.49843 13.865 4.22363 20.9504 1.31102l-.0307087-.0732284c44.6044-18.339 86.7461-36.3272 128.921-54.3319 140.347-59.9103 281.116-119.998 427.517-158.645 1.00748-.19252 2.01142-.453544 3.00355-.780709 26.4331-6.48071 63.9768-2.80512 97.2568 9.10631 30.7382 11.0008 56.6138 28.4941 63.1087 50.2949.0850394.408662.180709.816142.288189 1.2248l.0543308-.0141732.0011811.00590552 16.8555-4.43504 6.30119-1.65591-23.1567 6.09331c1.25669 4.78583-8.47087-2.5878-16.2921 1.63819-14.2358 7.69253-30.4441 13.9335-38.8158 16.3299l-.269292.056693-.151181.0318898v.00236221c-.302362.0673229-.603544.138189-.905906.217323l6.10158 23.211-6.09331-23.1567-173.987 45.7323zm-444.766 116.899c-12.789 3.36496-20.4284 16.461-17.0634 29.25 3.36496 12.789 16.461 20.4284 29.25 17.0634l340.093-89.3883c12.789-3.36496 20.4284-16.461 17.0634-29.25-3.36496-12.789-16.461-20.4284-29.25-17.0634z"/><path id="_420752192" d="m989.084 431.387-55.8343 14.6752-42.8351 204.338 25.7339-6.76418 72.9355-212.249zm-82.3134-27.8811 111.9-29.413c4.84134-1.6311 10.2402-1.73622 15.4453.0519685 12.535 4.30748 19.2047 17.9622 14.8973 30.4973l-.0141732-.00472441-91.3477 265.831c-2.33858 7.7126-8.50749 14.0681-16.8732 16.2673l-.0141732-.0531496-74.0445 19.4622c-3.92835 1.3311-8.25355 1.66417-12.6071.751182-12.9721-2.7189-21.2847-15.4417-18.5658-28.4138l.0590552.0129921 53.4615-255.029c1.26024-9.34725 8.00079-17.4673 17.6894-20.0138l.0141732.0531496z"/><path id="_420752552" d="m817.47 390.048c12.5811 4.09016 26.0977-2.79331 30.1878-15.3744 4.09016-12.5811-2.79331-26.0977-15.3744-30.1878l-56.2985-18.2823 14.7933-4.30394 141.173 27.6213c12.9957 2.53583 25.5886-5.94213 28.1244-18.9378 2.53583-12.9957-5.94213-25.5886-18.9378-28.1244l-145.592-28.4858c-3.96851-.981497-8.24174-.96378-12.45.261024l.0236221.0826772-93.189 27.1158c-8.22993 1.65-15.352 7.57442-18.1288 16.1256-4.0937 12.6071 2.80748 26.1461 15.4146 30.2398l.0141732-.0437008 130.24 42.2941z"/><path id="_420752216" d="m534.798 575.998-18.0992 5.62205-13.748 65.5808 8.3067-2.69764 23.5406-68.5052zm-38.6433-13.0571-7.03111-22.8756 74.8902-23.2595c5.13307-2.03032 10.9866-2.31024 16.6158-.375591 12.535 4.30748 19.2047 17.9622 14.8973 30.4973l-.0141732-.00472441-42.4914 123.652c-2.21221 7.23662-7.80001 13.3169-15.5433 15.8327l-.0141732-.0425197-57.6201 18.7158c-4.2189 1.6689-8.95631 2.16378-13.7291 1.16339-12.9721-2.7189-21.2847-15.4417-18.5658-28.4138l.0590552.0129921 24.7547-118.09c1.20827-8.9693 7.46221-16.8721 16.6736-19.7327l7.11851 22.9205z"/></g></g><path d="m0 0h2048v2048h-2048z" fill="none"/></svg>