<svg id="ok" enable-background="new 0 0 128 128" viewBox="0 0 128 128" xmlns="http://www.w3.org/2000/svg"><g><g style="fill:none;stroke:#231f20;stroke-width:4;stroke-linecap:round;stroke-linejoin:round;stroke-miterlimit:10"><path d="m82 48c-6.61 0-12.78 1.89-18 5.16 3.92 2.45 7.29 5.67 9.93 9.45 2.48-1.03 5.21-1.61 8.07-1.61 11.6 0 21 9.4 21 21s-9.4 21-21 21c-2.86 0-5.59-.58-8.07-1.61-4.52-1.88-8.23-5.3-10.5-9.59-1.55-2.93-2.43-6.26-2.43-9.8s.88-6.87 2.43-9.79c-2.21-3.93-5.71-7.03-9.93-8.74-3.47 5.33-5.5 11.69-5.5 18.53s2.03 13.2 5.5 18.53c2.71 4.15 6.29 7.68 10.5 10.31 5.22 3.27 11.39 5.16 18 5.16 18.78 0 34-15.22 34-34s-15.22-34-34-34z"/><path d="m73.93 62.61c-2.63-3.78-6.01-7.01-9.93-9.45-5.22-3.27-11.39-5.16-18-5.16-18.78 0-34 15.22-34 34s15.22 34 34 34c6.61 0 12.78-1.89 18-5.16-4.21-2.63-7.79-6.15-10.5-10.31-2.32.94-4.85 1.47-7.5 1.47-11.05 0-20-8.95-20-20s8.95-20 20-20c2.65 0 5.18.53 7.5 1.47 4.22 1.71 7.72 4.81 9.93 8.74 1.63 2.89 2.57 6.23 2.57 9.79s-.94 6.9-2.57 9.79c2.27 4.3 5.98 7.71 10.5 9.59 3.82-5.49 6.07-12.17 6.07-19.38s-2.25-13.89-6.07-19.39z"/><path d="m30.95 58.39c-5.91 3.78-10.31 9.72-12.09 16.7"/><path d="m40.36 54.57c-1.4.29-2.76.68-4.08 1.16"/><g><g><path d="m72 22-7.32 22.88c.05-.01.1 0 .14-.01.81-.17 1.58-.59 2.18-1.27l8.94-10.16 8.94-10.16c.02-.02.03-.05.05-.07.06-.07.11-.14.16-.22s.09-.17.13-.26c.01-.02.02-.03.02-.05.08-.21.13-.43.13-.66 0 0 0 0 0-.01"/><path d="m77.77 12.38c-.52-.25-1.1-.38-1.69-.38h-12.08l8 10z"/><path d="m64 12h-12.08c-.59 0-1.17.14-1.69.38l5.77 9.62z"/><path d="m50.23 12.38c-.55.26-1.04.63-1.43 1.12l-5.75 7.19c-.31.38-.45.85-.44 1.31h13.39"/><path d="m72 22h13.39c.01-.46-.13-.93-.44-1.31l-5.75-7.19c-.39-.49-.88-.86-1.43-1.12"/><path d="m42.61 22c.01.23.05.45.13.66 0 .01.01.02.01.03.04.1.08.19.14.28.05.08.1.15.16.22.02.02.03.05.05.07l8.94 10.16 8.96 10.17c.4.45.87.79 1.39 1.02.3.13.62.21.94.27l-7.33-22.88"/><path d="m56 22h16"/></g><path d="m63.32 44.88c.45.08.91.08 1.36 0"/></g></g></g></svg>