<svg id="Layer_1" enable-background="new 0 0 512 512" height="512" viewBox="0 0 512 512" width="512" xmlns="http://www.w3.org/2000/svg"><g><path d="m143.179 269.943c-2.09 1.129-4.695 2.555-7.813 4.279-11.484 6.522-14.93 13.083-14.93 25.777h49.564v-14.331h-27.068c1.438-1.596 4.59-3.612 6.419-4.728 8.087-4.928 15.356-7.751 18.512-15.575.697-1.726 1.045-3.683 1.045-5.872 0-5.308-1.908-9.52-5.723-12.64-7.821-6.39-22.806-5.515-32.297-1.742-3.55 1.409-7.824 3.675-10.351 6.519l10.152 11.745c1.923-2.188 3.914-3.964 5.971-5.325 2.057-1.359 4.479-2.04 7.266-2.04 5.348 0 7.664 2.815 7.664 6.17 0 .928-.266 1.74-.796 2.438-1.501 1.959-5.39 4.124-7.615 5.325z"/><path d="m208.159 300h16.383v-14.027h9.011v-14.746h-9.011v-42.699h-11.161l-33.381 42.801v14.644h28.159zm-11.98-28.773 13.926-18.124v18.124z"/><path d="m260.588 269.18c1.843-5.523 7.348-9.523 11.366-9.523 2.389 0 4.267.818 5.632 2.457s2.048 4.199 2.048 7.68v30.206h16.384c-.181-34.431.438-35.293-.615-41.521-.409-2.422-1.213-4.608-2.405-6.554-1.194-1.946-2.901-3.549-5.12-4.813-2.219-1.263-5.138-1.895-8.755-1.895-7.7 0-14.528 3.541-18.534 10.035v-30.002h-16.383v74.75h16.383v-30.82z"/><path d="m425.003 252.535c-5.943-9.415-16.138-15.035-27.271-15.035h-47.732v-87.5c0-5.523-4.478-10-10-10h-105.148c3.329-9.388 5.148-19.485 5.148-30 0-49.626-40.374-90-90-90s-90 40.374-90 90c0 10.515 1.819 20.612 5.148 30h-25.148c-5.523 0-10 4.477-10 10v270c0 5.522 4.477 10 10 10h51.006c-2.762 13.553.119 28.169 9.021 40h-60.027c-5.523 0-10 4.478-10 10s4.477 10 10 10h420c5.522 0 10-4.478 10-10s-4.478-10-10-10h-20.027c8.909-11.841 11.779-26.455 9.021-40h31.006c5.522 0 10-4.478 10-10v-61.607c0-1.89-.535-3.74-1.544-5.338zm-64.976 217.465h-180.054c8.905-11.835 11.782-26.452 9.021-40h162.012c-2.758 13.541.11 28.156 9.021 40zm-219.99-429.279c.37 5.185 4.684 9.279 9.963 9.279s9.593-4.094 9.963-9.279c30.638 4.386 54.929 28.677 59.315 59.315-5.184.371-9.278 4.685-9.278 9.964s4.094 9.593 9.279 9.963c-4.386 30.638-28.677 54.929-59.315 59.315-.371-5.184-4.685-9.278-9.964-9.278s-9.593 4.094-9.963 9.279c-30.638-4.386-54.929-28.677-59.315-59.315 5.184-.371 9.278-4.685 9.278-9.964s-4.094-9.593-9.279-9.963c4.386-30.639 28.677-54.93 59.316-59.316zm-64.833 119.279c16.165 24.103 43.658 40 74.796 40s58.631-15.897 74.796-40h105.204v160h-280v-40h25.857l-2.929 2.929c-3.905 3.905-3.905 10.237 0 14.143 3.906 3.905 10.237 3.904 14.143 0 20.969-20.999 20.764-20.518 21.746-22.354 1.516-2.819 1.544-6.145.231-8.954-1.007-2.157-.695-1.543-21.977-22.834-3.905-3.905-10.237-3.905-14.143 0s-3.905 10.237 0 14.143l2.929 2.927h-25.857v-100zm-25.204 250v-30h220c5.522 0 10-4.478 10-10s-4.478-10-10-10h-220v-20h280v70h-150.027c-20.061-26.663-59.887-26.659-79.945 0zm60 30c0-16.542 13.458-30 30-30s30 13.458 30 30-13.458 30-30 30-30-13.458-30-30zm260 0c0-16.542 13.458-30 30-30s30 13.458 30 30-13.458 30-30 30-30-13.458-30-30zm100-30h-30.027c-20.062-26.664-59.888-26.658-79.945 0h-10.028c0-14.861 0-137.749 0-152.5h47.732c4.229 0 8.101 2.135 10.358 5.711l35.962 56.97c-69.041-.23-50.961-.181-54.054-.181-5.507 0-9.98 4.455-9.999 9.967-.019 5.522 4.443 10.015 9.967 10.033l66.737.223 13.297 21.062z"/><path d="m400 350h-10c-5.522 0-10 4.478-10 10s4.478 10 10 10h10c5.522 0 10-4.478 10-10s-4.478-10-10-10z"/><path d="m400 420c-11.028 0-20 8.972-20 20s8.972 20 20 20 20-8.972 20-20-8.972-20-20-20z"/><path d="m140 420c-11.028 0-20 8.972-20 20s8.972 20 20 20 20-8.972 20-20-8.972-20-20-20z"/><circle cx="300" cy="370" r="9.999"/><path d="m150 120h30c5.523 0 10-4.477 10-10s-4.477-10-10-10h-20v-20c0-5.523-4.477-10-10-10s-10 4.477-10 10v30c0 5.523 4.477 10 10 10z"/><path d="m300 60h40c5.522 0 10-4.477 10-10s-4.478-10-10-10h-40c-5.522 0-10 4.477-10 10s4.478 10 10 10z"/><path d="m280 90h60c5.522 0 10-4.477 10-10s-4.478-10-10-10h-60c-5.522 0-10 4.477-10 10s4.478 10 10 10z"/><path d="m260 120h80c5.522 0 10-4.477 10-10s-4.478-10-10-10h-80c-5.523 0-10 4.477-10 10s4.477 10 10 10z"/><path d="m450 170c-16.542 0-30 13.458-30 30s13.458 30 30 30 30-13.458 30-30-13.458-30-30-30zm0 40c-5.514 0-10-4.486-10-10s4.486-10 10-10 10 4.486 10 10-4.486 10-10 10z"/><path d="m415 110c19.299 0 35-15.701 35-35s-15.701-35-35-35-35 15.701-35 35 15.701 35 35 35zm0-50c8.271 0 15 6.729 15 15s-6.729 15-15 15-15-6.729-15-15 6.729-15 15-15z"/><circle cx="469.997" cy="110.003" r="10"/><circle cx="380.003" cy="179.997" r="10"/><circle cx="480.003" cy="270.002" r="10"/><circle cx="240" cy="40" r="10"/><circle cx="40.002" cy="60.003" r="10"/></g><g id="Layer_1_1_"/></svg>