<svg id="Layer_1" enable-background="new 0 0 420 420" height="512" viewBox="0 0 420 420" width="512" xmlns="http://www.w3.org/2000/svg"><g><g><g><g><path clip-rule="evenodd" d="m225.5 371.5h-129.2c-3.2 0-5.8-2.6-5.8-5.8s2.6-5.8 5.8-5.8h123.4v-132.7h-182.2v132.8h21.8c3.2 0 5.8 2.6 5.8 5.8s-2.6 5.8-5.8 5.8h-27.6c-3.2 0-5.8-2.6-5.8-5.8v-144.4c0-3.2 2.6-5.8 5.8-5.8h193.8c3.2 0 5.8 2.6 5.8 5.8v144.3c0 3.2-2.6 5.8-5.8 5.8z" fill-rule="evenodd"/></g><g><path clip-rule="evenodd" d="m293.1 371.5h-25.3c-3.2 0-5.8-2.6-5.8-5.8s2.6-5.8 5.8-5.8h19.5v-38.8h-61.8c-3.2 0-5.8-2.6-5.8-5.8s2.6-5.8 5.8-5.8h67.6c3.2 0 5.8 2.6 5.8 5.8v50.3c0 3.3-2.6 5.9-5.8 5.9z" fill-rule="evenodd"/></g><g><path clip-rule="evenodd" d="m293.1 321.2c-2.1 0-4.1-1.1-5.1-3.1l-32.2-60.6h-220.1c-3.2 0-5.8-2.6-5.8-5.8s2.6-5.8 5.8-5.8h223.7c2.1 0 4.1 1.2 5.1 3.1l33.8 63.7c1.5 2.8.4 6.3-2.4 7.8-.9.5-1.9.7-2.8.7z" fill-rule="evenodd"/></g><g><path clip-rule="evenodd" d="m249.3 390c-13.4 0-24.3-10.9-24.3-24.3s10.9-24.3 24.3-24.3 24.3 10.9 24.3 24.3-10.9 24.3-24.3 24.3zm0-37c-7 0-12.8 5.7-12.8 12.8 0 7 5.7 12.8 12.8 12.8s12.8-5.7 12.8-12.8-5.7-12.8-12.8-12.8z" fill-rule="evenodd"/></g><g><path clip-rule="evenodd" d="m77.8 390c-13.4 0-24.3-10.9-24.3-24.3s10.9-24.3 24.3-24.3 24.3 10.9 24.3 24.3-10.9 24.3-24.3 24.3zm0-37c-7 0-12.8 5.7-12.8 12.8 0 7 5.7 12.8 12.8 12.8s12.8-5.7 12.8-12.8-5.7-12.8-12.8-12.8z" fill-rule="evenodd"/></g><g><path clip-rule="evenodd" d="m357 292.7c-1.2 0-2.4-.4-3.5-1.2-2.5-1.9-3-5.5-1.1-8.1 20-26.2 30.6-57.6 30.6-90.7 0-82.6-67.2-149.7-149.7-149.7-82.6 0-149.7 67.2-149.7 149.7 0 3.2-2.6 5.8-5.8 5.8s-5.8-2.6-5.8-5.8c0-21.8 4.3-42.9 12.7-62.8 8.1-19.2 19.8-36.4 34.6-51.3 14.8-14.8 32.1-26.4 51.3-34.6 19.9-8.4 41-12.7 62.8-12.7s42.9 4.3 62.8 12.7c19.2 8.1 36.5 19.8 51.3 34.6s26.4 32.1 34.6 51.3c8.4 19.9 12.7 41 12.7 62.8 0 18-2.9 35.6-8.7 52.5-5.6 16.3-13.7 31.5-24.2 45.2-1.4 1.5-3.1 2.3-4.9 2.3z" fill-rule="evenodd"/></g><g><path clip-rule="evenodd" d="m353 295.4c-2.8 0-5.2-2-5.7-4.8l-5.5-33.8c-.5-3.1 1.6-6.1 4.8-6.6 3.1-.5 6.1 1.6 6.6 4.8l4.6 28.1 28.1-4.6c3.1-.5 6.1 1.6 6.6 4.8s-1.6 6.1-4.8 6.6l-33.8 5.5c-.2 0-.6 0-.9 0z" fill-rule="evenodd"/></g><g><path clip-rule="evenodd" d="m223.9 333.5h-191.7c-3.2 0-5.8-2.6-5.8-5.8s2.6-5.8 5.8-5.8h191.7c3.2 0 5.8 2.6 5.8 5.8s-2.6 5.8-5.8 5.8z" fill-rule="evenodd"/></g><g><path clip-rule="evenodd" d="m249.3 160.2h-22.3c-3.2 0-5.8-2.6-5.8-5.8v-26.9c0-3.2 2.6-5.8 5.8-5.8s5.8 2.6 5.8 5.8v21.2h16.5c3.2 0 5.8 2.6 5.8 5.8 0 3.1-2.6 5.7-5.8 5.7z" fill-rule="evenodd"/></g><g><path clip-rule="evenodd" d="m249.3 182c-3.2 0-5.8-2.6-5.8-5.8v-48.8c0-3.2 2.6-5.8 5.8-5.8s5.8 2.6 5.8 5.8v48.8c0 3.2-2.6 5.8-5.8 5.8z" fill-rule="evenodd"/></g><g><path clip-rule="evenodd" d="m296.4 182c-3.2 0-5.8-2.6-5.8-5.8v-16.1h-16.5c-3.2 0-5.8-2.6-5.8-5.8s2.6-5.8 5.8-5.8h22.3c3.2 0 5.8 2.6 5.8 5.8v21.8c0 3.3-2.6 5.9-5.8 5.9z" fill-rule="evenodd"/></g><g><path clip-rule="evenodd" d="m274.2 182c-3.2 0-5.8-2.6-5.8-5.8v-48.8c0-3.2 2.6-5.8 5.8-5.8s5.8 2.6 5.8 5.8v48.8c-.1 3.2-2.6 5.8-5.8 5.8z" fill-rule="evenodd"/></g><g><path clip-rule="evenodd" d="m212 182h-26.5c-2.2 0-4.1-1.2-5.1-3.1s-.8-4.2.5-6c2.8-3.8 5.5-7.8 8.5-12.3.9-1.3 1.7-2.6 2.6-3.9 3.6-5.3 7.3-10.7 9-16.2.7-2.3.6-4.1-.1-5-1.3-1.4-3.4-2.3-5.5-2.3-3.5 0-6.4 2.9-6.4 6.4 0 3.2-2.6 5.8-5.8 5.8s-5.8-2.6-5.8-5.8c0-9.9 8-17.9 17.9-17.9 5.4 0 10.7 2.3 14.2 6.3s4.3 9.6 2.5 15.9c-2.2 7.3-6.6 13.7-10.5 19.4-.9 1.3-1.7 2.5-2.5 3.7s-1.6 2.4-2.4 3.5h15.4c3.2 0 5.8 2.6 5.8 5.8-.1 3.1-2.7 5.7-5.8 5.7z" fill-rule="evenodd"/></g></g></g></g></svg>